<svg version="1.1" viewBox="0.0 0.0 960.0 540.0" fill="none" stroke="none" stroke-linecap="square" stroke-miterlimit="10" xmlns:xlink="http://www.w3.org/1999/xlink" xmlns="http://www.w3.org/2000/svg"><clipPath id="g119b184e3bb_0_98.0"><path d="m0 0l960.0 0l0 540.0l-960.0 0l0 -540.0z" clip-rule="nonzero"/></clipPath><g clip-path="url(#g119b184e3bb_0_98.0)"><path fill="#ffffff" d="m0 0l960.0 0l0 540.0l-960.0 0z" fill-rule="evenodd"/><path fill="#000000" fill-opacity="0.0" d="m-6.897638 242.3622l115.055115 0l0 55.27559l-115.055115 0z" fill-rule="evenodd"/><path fill="#6aa84f" d="m20.388998 272.20312q0 4.921875 -2.046875 7.53125q-2.03125 2.59375 -5.953124 2.59375q-3.859375 0 -5.9218755 -2.546875q-2.046875 -2.5625 -2.09375 -7.328125l0 -4.359375q0 -4.96875 2.046875 -7.53125q2.0625005 -2.578125 5.9375005 -2.578125q3.874999 0 5.921874 2.546875q2.0625 2.546875 2.109375 7.3125l0 4.359375zm-4.703124 -4.78125q0 -2.953125 -0.8125 -4.296875q-0.796875 -1.34375 -2.515625 -1.34375q-1.65625 0 -2.453125 1.28125q-0.78125 1.28125 -0.828125 4.0l0 5.765625q0 2.890625 0.78125 4.296875q0.796875 1.40625 2.53125 1.40625q1.734375 0 2.5 -1.34375q0.765625 -1.359375 0.796875 -4.140625l0 -5.625zm23.824493 4.78125q0 4.921875 -2.046875 7.53125q-2.03125 2.59375 -5.953127 2.59375q-3.859375 0 -5.921875 -2.546875q-2.046875 -2.5625 -2.09375 -7.328125l0 -4.359375q0 -4.96875 2.046875 -7.53125q2.0625 -2.578125 5.9375 -2.578125q3.875002 0 5.921877 2.546875q2.0625 2.546875 2.109375 7.3125l0 4.359375zm-4.703125 -4.78125q0 -2.953125 -0.8125 -4.296875q-0.796875 -1.34375 -2.515627 -1.34375q-1.65625 0 -2.453125 1.28125q-0.78125 1.28125 -0.828125 4.0l0 5.765625q0 2.890625 0.78125 4.296875q0.796875 1.40625 2.53125 1.40625q1.7343769 0 2.500002 -1.34375q0.765625 -1.359375 0.796875 -4.140625l0 -5.625zm23.824493 4.78125q0 4.921875 -2.046875 7.53125q-2.03125 2.59375 -5.953125 2.59375q-3.859375 0 -5.921875 -2.546875q-2.046875 -2.5625 -2.09375 -7.328125l0 -4.359375q0 -4.96875 2.046875 -7.53125q2.0625 -2.578125 5.9375 -2.578125q3.875 0 5.921875 2.546875q2.0625 2.546875 2.109375 7.3125l0 4.359375zm-4.703125 -4.78125q0 -2.953125 -0.8125 -4.296875q-0.796875 -1.34375 -2.515625 -1.34375q-1.65625 0 -2.453125 1.28125q-0.78125 1.28125 -0.828125 4.0l0 5.765625q0 2.890625 0.78125 4.296875q0.796875 1.40625 2.53125 1.40625q1.734375 0 2.5 -1.34375q0.765625 -1.359375 0.796875 -4.140625l0 -5.625zm23.824493 4.78125q0 4.921875 -2.046875 7.53125q-2.03125 2.59375 -5.953125 2.59375q-3.859375 0 -5.921875 -2.546875q-2.046875 -2.5625 -2.09375 -7.328125l0 -4.359375q0 -4.96875 2.046875 -7.53125q2.0625 -2.578125 5.9375 -2.578125q3.875 0 5.921875 2.546875q2.0625 2.546875 2.109375 7.3125l0 4.359375zm-4.703125 -4.78125q0 -2.953125 -0.8125 -4.296875q-0.796875 -1.34375 -2.515625 -1.34375q-1.65625 0 -2.453125 1.28125q-0.78125 1.28125 -0.828125 4.0l0 5.765625q0 2.890625 0.78125 4.296875q0.796875 1.40625 2.53125 1.40625q1.734375 0 2.5 -1.34375q0.765625 -1.359375 0.796875 -4.140625l0 -5.625zm23.824493 4.78125q0 4.921875 -2.046875 7.53125q-2.03125 2.59375 -5.953125 2.59375q-3.859375 0 -5.921875 -2.546875q-2.046875 -2.5625 -2.09375 -7.328125l0 -4.359375q0 -4.96875 2.046875 -7.53125q2.0625 -2.578125 5.9375 -2.578125q3.875 0 5.921875 2.546875q2.0625 2.546875 2.109375 7.3125l0 4.359375zm-4.703125 -4.78125q0 -2.953125 -0.8125 -4.296875q-0.796875 -1.34375 -2.515625 -1.34375q-1.65625 0 -2.453125 1.28125q-0.78125 1.28125 -0.828125 4.0l0 5.765625q0 2.890625 0.78125 4.296875q0.796875 1.40625 2.53125 1.40625q1.734375 0 2.5 -1.34375q0.765625 -1.359375 0.796875 -4.140625l0 -5.625z" fill-rule="nonzero"/><path fill="#000000" fill-opacity="0.0" d="m160.29396 242.3622l115.05513 0l0 55.27559l-115.05513 0z" fill-rule="evenodd"/><path fill="#000000" d="m187.5806 272.20312q0 4.921875 -2.046875 7.53125q-2.03125 2.59375 -5.953125 2.59375q-3.859375 0 -5.921875 -2.546875q-2.046875 -2.5625 -2.09375 -7.328125l0 -4.359375q0 -4.96875 2.046875 -7.53125q2.0625 -2.578125 5.9375 -2.578125q3.875 0 5.921875 2.546875q2.0625 2.546875 2.109375 7.3125l0 4.359375zm-4.703125 -4.78125q0 -2.953125 -0.8125 -4.296875q-0.796875 -1.34375 -2.515625 -1.34375q-1.65625 0 -2.453125 1.28125q-0.78125 1.28125 -0.828125 4.0l0 5.765625q0 2.890625 0.78125 4.296875q0.796875 1.40625 2.53125 1.40625q1.734375 0 2.5 -1.34375q0.765625 -1.359375 0.796875 -4.140625l0 -5.625zm23.824493 4.78125q0 4.921875 -2.046875 7.53125q-2.03125 2.59375 -5.953125 2.59375q-3.859375 0 -5.921875 -2.546875q-2.046875 -2.5625 -2.09375 -7.328125l0 -4.359375q0 -4.96875 2.046875 -7.53125q2.0625 -2.578125 5.9375 -2.578125q3.875 0 5.921875 2.546875q2.0625 2.546875 2.109375 7.3125l0 4.359375zm-4.703125 -4.78125q0 -2.953125 -0.8125 -4.296875q-0.796875 -1.34375 -2.515625 -1.34375q-1.65625 0 -2.453125 1.28125q-0.78125 1.28125 -0.828125 4.0l0 5.765625q0 2.890625 0.78125 4.296875q0.796875 1.40625 2.53125 1.40625q1.734375 0 2.5 -1.34375q0.765625 -1.359375 0.796875 -4.140625l0 -5.625zm23.824493 4.78125q0 4.921875 -2.046875 7.53125q-2.03125 2.59375 -5.953125 2.59375q-3.859375 0 -5.921875 -2.546875q-2.046875 -2.5625 -2.09375 -7.328125l0 -4.359375q0 -4.96875 2.046875 -7.53125q2.0625 -2.578125 5.9375 -2.578125q3.875 0 5.921875 2.546875q2.0625 2.546875 2.109375 7.3125l0 4.359375zm-4.703125 -4.78125q0 -2.953125 -0.8125 -4.296875q-0.796875 -1.34375 -2.515625 -1.34375q-1.65625 0 -2.453125 1.28125q-0.78125 1.28125 -0.828125 4.0l0 5.765625q0 2.890625 0.78125 4.296875q0.796875 1.40625 2.53125 1.40625q1.734375 0 2.5 -1.34375q0.765625 -1.359375 0.796875 -4.140625l0 -5.625zm23.824493 4.78125q0 4.921875 -2.046875 7.53125q-2.03125 2.59375 -5.953125 2.59375q-3.859375 0 -5.921875 -2.546875q-2.046875 -2.5625 -2.09375 -7.328125l0 -4.359375q0 -4.96875 2.046875 -7.53125q2.0625 -2.578125 5.9375 -2.578125q3.875 0 5.921875 2.546875q2.0625 2.546875 2.109375 7.3125l0 4.359375zm-4.703125 -4.78125q0 -2.953125 -0.8125 -4.296875q-0.796875 -1.34375 -2.515625 -1.34375q-1.65625 0 -2.453125 1.28125q-0.78125 1.28125 -0.828125 4.0l0 5.765625q0 2.890625 0.78125 4.296875q0.796875 1.40625 2.53125 1.40625q1.734375 0 2.5 -1.34375q0.765625 -1.359375 0.796875 -4.140625l0 -5.625zm19.293243 14.578125l-4.703125 0l0 -18.125l-5.609375 1.734375l0 -3.828125l9.8125 -3.515625l0.5 0l0 23.734375z" fill-rule="nonzero"/><path fill="#000000" fill-opacity="0.0" d="m682.1155 242.3622l115.055115 0l0 55.27559l-115.055115 0z" fill-rule="evenodd"/><path fill="#000000" d="m709.4021 272.20312q0 4.921875 -2.046875 7.53125q-2.03125 2.59375 -5.953125 2.59375q-3.859375 0 -5.921875 -2.546875q-2.046875 -2.5625 -2.09375 -7.328125l0 -4.359375q0 -4.96875 2.046875 -7.53125q2.0625 -2.578125 5.9375 -2.578125q3.875 0 5.921875 2.546875q2.0625 2.546875 2.109375 7.3125l0 4.359375zm-4.703125 -4.78125q0 -2.953125 -0.8125 -4.296875q-0.796875 -1.34375 -2.515625 -1.34375q-1.65625 0 -2.453125 1.28125q-0.78125 1.28125 -0.828125 4.0l0 5.765625q0 2.890625 0.78125 4.296875q0.796875 1.40625 2.53125 1.40625q1.734375 0 2.5 -1.34375q0.765625 -1.359375 0.796875 -4.140625l0 -5.625zm19.293274 14.578125l-4.703125 0l0 -18.125l-5.609375 1.734375l0 -3.828125l9.8125 -3.515625l0.5 0l0 23.734375zm19.121338 0l-4.703125 0l0 -18.125l-5.609375 1.734375l0 -3.828125l9.8125 -3.515625l0.5 0l0 23.734375zm19.121399 0l-4.703125 0l0 -18.125l-5.609375 1.734375l0 -3.828125l9.8125 -3.515625l0.5 0l0 23.734375zm19.121338 0l-4.703125 0l0 -18.125l-5.609375 1.734375l0 -3.828125l9.8125 -3.515625l0.5 0l0 23.734375z" fill-rule="nonzero"/><path fill="#000000" fill-opacity="0.0" d="m337.6091 242.3622l115.055115 0l0 55.27559l-115.055115 0z" fill-rule="evenodd"/><path fill="#000000" d="m364.89575 272.20312q0 4.921875 -2.046875 7.53125q-2.03125 2.59375 -5.953125 2.59375q-3.859375 0 -5.921875 -2.546875q-2.046875 -2.5625 -2.09375 -7.328125l0 -4.359375q0 -4.96875 2.046875 -7.53125q2.0625 -2.578125 5.9375 -2.578125q3.875 0 5.921875 2.546875q2.0625 2.546875 2.109375 7.3125l0 4.359375zm-4.703125 -4.78125q0 -2.953125 -0.8125 -4.296875q-0.796875 -1.34375 -2.515625 -1.34375q-1.65625 0 -2.453125 1.28125q-0.78125 1.28125 -0.828125 4.0l0 5.765625q0 2.890625 0.78125 4.296875q0.796875 1.40625 2.53125 1.40625q1.734375 0 2.5 -1.34375q0.765625 -1.359375 0.796875 -4.140625l0 -5.625zm23.824493 4.78125q0 4.921875 -2.046875 7.53125q-2.03125 2.59375 -5.953125 2.59375q-3.859375 0 -5.921875 -2.546875q-2.046875 -2.5625 -2.09375 -7.328125l0 -4.359375q0 -4.96875 2.046875 -7.53125q2.0625 -2.578125 5.9375 -2.578125q3.875 0 5.921875 2.546875q2.0625 2.546875 2.109375 7.3125l0 4.359375zm-4.703125 -4.78125q0 -2.953125 -0.8125 -4.296875q-0.796875 -1.34375 -2.515625 -1.34375q-1.65625 0 -2.453125 1.28125q-0.78125 1.28125 -0.828125 4.0l0 5.765625q0 2.890625 0.78125 4.296875q0.796875 1.40625 2.53125 1.40625q1.734375 0 2.5 -1.34375q0.765625 -1.359375 0.796875 -4.140625l0 -5.625zm23.824493 4.78125q0 4.921875 -2.046875 7.53125q-2.03125 2.59375 -5.953125 2.59375q-3.859375 0 -5.921875 -2.546875q-2.046875 -2.5625 -2.09375 -7.328125l0 -4.359375q0 -4.96875 2.046875 -7.53125q2.0625 -2.578125 5.9375 -2.578125q3.875 0 5.921875 2.546875q2.0625 2.546875 2.109375 7.3125l0 4.359375zm-4.703125 -4.78125q0 -2.953125 -0.8125 -4.296875q-0.796875 -1.34375 -2.515625 -1.34375q-1.65625 0 -2.453125 1.28125q-0.78125 1.28125 -0.828125 4.0l0 5.765625q0 2.890625 0.78125 4.296875q0.796875 1.40625 2.53125 1.40625q1.734375 0 2.5 -1.34375q0.765625 -1.359375 0.796875 -4.140625l0 -5.625zm19.293243 14.578125l-4.703125 0l0 -18.125l-5.609375 1.734375l0 -3.828125l9.8125 -3.515625l0.5 0l0 23.734375zm19.121368 0l-4.703125 0l0 -18.125l-5.609375 1.734375l0 -3.828125l9.8125 -3.515625l0.5 0l0 23.734375z" fill-rule="nonzero"/><path fill="#000000" fill-opacity="0.0" d="m506.06824 242.3622l115.055115 0l0 55.27559l-115.055115 0z" fill-rule="evenodd"/><path fill="#000000" d="m533.35486 272.20312q0 4.921875 -2.046875 7.53125q-2.03125 2.59375 -5.953125 2.59375q-3.859375 0 -5.921875 -2.546875q-2.046875 -2.5625 -2.09375 -7.328125l0 -4.359375q0 -4.96875 2.046875 -7.53125q2.0625 -2.578125 5.9375 -2.578125q3.875 0 5.921875 2.546875q2.0625 2.546875 2.109375 7.3125l0 4.359375zm-4.703125 -4.78125q0 -2.953125 -0.8125 -4.296875q-0.796875 -1.34375 -2.515625 -1.34375q-1.65625 0 -2.453125 1.28125q-0.78125 1.28125 -0.828125 4.0l0 5.765625q0 2.890625 0.78125 4.296875q0.796875 1.40625 2.53125 1.40625q1.734375 0 2.5 -1.34375q0.765625 -1.359375 0.796875 -4.140625l0 -5.625zm23.824524 4.78125q0 4.921875 -2.046875 7.53125q-2.03125 2.59375 -5.953125 2.59375q-3.859375 0 -5.921875 -2.546875q-2.046875 -2.5625 -2.09375 -7.328125l0 -4.359375q0 -4.96875 2.046875 -7.53125q2.0625 -2.578125 5.9375 -2.578125q3.875 0 5.921875 2.546875q2.0625 2.546875 2.109375 7.3125l0 4.359375zm-4.703125 -4.78125q0 -2.953125 -0.8125 -4.296875q-0.796875 -1.34375 -2.515625 -1.34375q-1.65625 0 -2.453125 1.28125q-0.78125 1.28125 -0.828125 4.0l0 5.765625q0 2.890625 0.78125 4.296875q0.796875 1.40625 2.53125 1.40625q1.734375 0 2.5 -1.34375q0.765625 -1.359375 0.796875 -4.140625l0 -5.625zm19.293213 14.578125l-4.703125 0l0 -18.125l-5.609375 1.734375l0 -3.828125l9.8125 -3.515625l0.5 0l0 23.734375zm19.121399 0l-4.703125 0l0 -18.125l-5.609375 1.734375l0 -3.828125l9.8125 -3.515625l0.5 0l0 23.734375zm19.121338 0l-4.703125 0l0 -18.125l-5.609375 1.734375l0 -3.828125l9.8125 -3.515625l0.5 0l0 23.734375z" fill-rule="nonzero"/><path fill="#000000" fill-opacity="0.0" d="m851.8425 242.3622l115.055115 0l0 55.27559l-115.055115 0z" fill-rule="evenodd"/><path fill="#6aa84f" d="m874.5979 282.0l-4.703125 0l0 -18.125l-5.609375 1.734375l0 -3.828125l9.8125 -3.515625l0.5 0l0 23.734375zm19.121399 0l-4.703125 0l0 -18.125l-5.609375 1.734375l0 -3.828125l9.8125 -3.515625l0.5 0l0 23.734375zm19.121338 0l-4.703125 0l0 -18.125l-5.609375 1.734375l0 -3.828125l9.8125 -3.515625l0.5 0l0 23.734375zm19.121399 0l-4.703125 0l0 -18.125l-5.609375 1.734375l0 -3.828125l9.8125 -3.515625l0.5 0l0 23.734375zm19.121338 0l-4.703125 0l0 -18.125l-5.609375 1.734375l0 -3.828125l9.8125 -3.515625l0.5 0l0 23.734375z" fill-rule="nonzero"/><path fill="#000000" fill-opacity="0.0" d="m202.57742 52.46982l30.48819 0l0 137.29134l-30.48819 0z" fill-rule="evenodd"/><path fill="#000000" d="m214.36491 83.53611q0 -1.40625 0.9375 -2.265625q0.9375 -0.875 2.34375 -0.875q1.4375 0 2.375 0.875q0.9375 0.859375 0.9375 2.265625q0 1.359375 -0.9375 2.21875q-0.921875 0.859375 -2.375 0.859375q-1.421875 0 -2.359375 -0.859375q-0.921875 -0.859375 -0.921875 -2.21875z" fill-rule="nonzero"/><path fill="#000000" d="m214.36491 133.13611q0 -1.40625 0.9375 -2.265625q0.9375 -0.875 2.34375 -0.875q1.4375 0 2.375 0.875q0.9375 0.859375 0.9375 2.265625q0 1.359375 -0.9375 2.21875q-0.921875 0.859375 -2.375 0.859375q-1.421875 0 -2.359375 -0.859375q-0.921875 -0.859375 -0.921875 -2.21875z" fill-rule="nonzero"/><path fill="#000000" d="m214.36491 182.7361q0 -1.40625 0.9375 -2.265625q0.9375 -0.875 2.34375 -0.875q1.4375 0 2.375 0.875q0.9375 0.859375 0.9375 2.265625q0 1.359375 -0.9375 2.21875q-0.921875 0.859375 -2.375 0.859375q-1.421875 0 -2.359375 -0.859375q-0.921875 -0.859375 -0.921875 -2.21875z" fill-rule="nonzero"/><path fill="#000000" fill-opacity="0.0" d="m203.12466 334.23883l30.48819 0l0 137.29135l-30.48819 0z" fill-rule="evenodd"/><path fill="#000000" d="m214.91216 365.30515q0 -1.40625 0.9375 -2.265625q0.9375 -0.875 2.34375 -0.875q1.4375 0 2.375 0.875q0.9375 0.859375 0.9375 2.265625q0 1.359375 -0.9375 2.21875q-0.921875 0.859375 -2.375 0.859375q-1.421875 0 -2.359375 -0.859375q-0.921875 -0.859375 -0.921875 -2.21875z" fill-rule="nonzero"/><path fill="#000000" d="m214.91216 414.90512q0 -1.40625 0.9375 -2.265625q0.9375 -0.875 2.34375 -0.875q1.4375 0 2.375 0.875q0.9375 0.859375 0.9375 2.265625q0 1.359375 -0.9375 2.21875q-0.921875 0.859375 -2.375 0.859375q-1.421875 0 -2.359375 -0.859375q-0.921875 -0.859375 -0.921875 -2.21875z" fill-rule="nonzero"/><path fill="#000000" d="m214.91216 464.50513q0 -1.40625 0.9375 -2.265625q0.9375 -0.875 2.34375 -0.875q1.4375 0 2.375 0.875q0.9375 0.859375 0.9375 2.265625q0 1.359375 -0.9375 2.21875q-0.921875 0.859375 -2.375 0.859375q-1.421875 0 -2.359375 -0.859375q-0.921875 -0.859375 -0.921875 -2.21875z" fill-rule="nonzero"/><path fill="#000000" fill-opacity="0.0" d="m375.46457 54.902885l30.48819 0l0 137.29135l-30.48819 0z" fill-rule="evenodd"/><path fill="#000000" d="m387.25204 85.969185q0 -1.40625 0.9375 -2.265625q0.9375 -0.875 2.34375 -0.875q1.4375 0 2.375 0.875q0.9375 0.859375 0.9375 2.265625q0 1.359375 -0.9375 2.21875q-0.921875 0.859375 -2.375 0.859375q-1.421875 0 -2.359375 -0.859375q-0.921875 -0.859375 -0.921875 -2.21875z" fill-rule="nonzero"/><path fill="#000000" d="m387.25204 135.56918q0 -1.40625 0.9375 -2.265625q0.9375 -0.875 2.34375 -0.875q1.4375 0 2.375 0.875q0.9375 0.859375 0.9375 2.265625q0 1.359375 -0.9375 2.21875q-0.921875 0.859375 -2.375 0.859375q-1.421875 0 -2.359375 -0.859375q-0.921875 -0.859375 -0.921875 -2.21875z" fill-rule="nonzero"/><path fill="#000000" d="m387.25204 185.16917q0 -1.40625 0.9375 -2.265625q0.9375 -0.875 2.34375 -0.875q1.4375 0 2.375 0.875q0.9375 0.859375 0.9375 2.265625q0 1.359375 -0.9375 2.21875q-0.921875 0.859375 -2.375 0.859375q-1.421875 0 -2.359375 -0.859375q-0.921875 -0.859375 -0.921875 -2.21875z" fill-rule="nonzero"/><path fill="#000000" fill-opacity="0.0" d="m376.0118 336.6719l30.48819 0l0 137.29135l-30.48819 0z" fill-rule="evenodd"/><path fill="#000000" d="m387.79932 367.73822q0 -1.40625 0.9375 -2.265625q0.9375 -0.875 2.34375 -0.875q1.4375 0 2.375 0.875q0.9375 0.859375 0.9375 2.265625q0 1.359375 -0.9375 2.21875q-0.921875 0.859375 -2.375 0.859375q-1.421875 0 -2.359375 -0.859375q-0.921875 -0.859375 -0.921875 -2.21875z" fill-rule="nonzero"/><path fill="#000000" d="m387.79932 417.3382q0 -1.40625 0.9375 -2.265625q0.9375 -0.875 2.34375 -0.875q1.4375 0 2.375 0.875q0.9375 0.859375 0.9375 2.265625q0 1.359375 -0.9375 2.21875q-0.921875 0.859375 -2.375 0.859375q-1.421875 0 -2.359375 -0.859375q-0.921875 -0.859375 -0.921875 -2.21875z" fill-rule="nonzero"/><path fill="#000000" d="m387.79932 466.9382q0 -1.40625 0.9375 -2.265625q0.9375 -0.875 2.34375 -0.875q1.4375 0 2.375 0.875q0.9375 0.859375 0.9375 2.265625q0 1.359375 -0.9375 2.21875q-0.921875 0.859375 -2.375 0.859375q-1.421875 0 -2.359375 -0.859375q-0.921875 -0.859375 -0.921875 -2.21875z" fill-rule="nonzero"/><path fill="#000000" fill-opacity="0.0" d="m536.8399 54.902885l30.48816 0l0 137.29135l-30.48816 0z" fill-rule="evenodd"/><path fill="#000000" d="m548.6274 85.969185q0 -1.40625 0.9375 -2.265625q0.9375 -0.875 2.34375 -0.875q1.4375 0 2.375 0.875q0.9375 0.859375 0.9375 2.265625q0 1.359375 -0.9375 2.21875q-0.921875 0.859375 -2.375 0.859375q-1.421875 0 -2.359375 -0.859375q-0.921875 -0.859375 -0.921875 -2.21875z" fill-rule="nonzero"/><path fill="#000000" d="m548.6274 135.56918q0 -1.40625 0.9375 -2.265625q0.9375 -0.875 2.34375 -0.875q1.4375 0 2.375 0.875q0.9375 0.859375 0.9375 2.265625q0 1.359375 -0.9375 2.21875q-0.921875 0.859375 -2.375 0.859375q-1.421875 0 -2.359375 -0.859375q-0.921875 -0.859375 -0.921875 -2.21875z" fill-rule="nonzero"/><path fill="#000000" d="m548.6274 185.16917q0 -1.40625 0.9375 -2.265625q0.9375 -0.875 2.34375 -0.875q1.4375 0 2.375 0.875q0.9375 0.859375 0.9375 2.265625q0 1.359375 -0.9375 2.21875q-0.921875 0.859375 -2.375 0.859375q-1.421875 0 -2.359375 -0.859375q-0.921875 -0.859375 -0.921875 -2.21875z" fill-rule="nonzero"/><path fill="#000000" fill-opacity="0.0" d="m537.38715 336.6719l30.48816 0l0 137.29135l-30.48816 0z" fill-rule="evenodd"/><path fill="#000000" d="m549.1746 367.73822q0 -1.40625 0.9375 -2.265625q0.9375 -0.875 2.34375 -0.875q1.4375 0 2.375 0.875q0.9375 0.859375 0.9375 2.265625q0 1.359375 -0.9375 2.21875q-0.921875 0.859375 -2.375 0.859375q-1.421875 0 -2.359375 -0.859375q-0.921875 -0.859375 -0.921875 -2.21875z" fill-rule="nonzero"/><path fill="#000000" d="m549.1746 417.3382q0 -1.40625 0.9375 -2.265625q0.9375 -0.875 2.34375 -0.875q1.4375 0 2.375 0.875q0.9375 0.859375 0.9375 2.265625q0 1.359375 -0.9375 2.21875q-0.921875 0.859375 -2.375 0.859375q-1.421875 0 -2.359375 -0.859375q-0.921875 -0.859375 -0.921875 -2.21875z" fill-rule="nonzero"/><path fill="#000000" d="m549.1746 466.9382q0 -1.40625 0.9375 -2.265625q0.9375 -0.875 2.34375 -0.875q1.4375 0 2.375 0.875q0.9375 0.859375 0.9375 2.265625q0 1.359375 -0.9375 2.21875q-0.921875 0.859375 -2.375 0.859375q-1.421875 0 -2.359375 -0.859375q-0.921875 -0.859375 -0.921875 -2.21875z" fill-rule="nonzero"/><path fill="#000000" fill-opacity="0.0" d="m725.8399 54.902885l30.48816 0l0 137.29135l-30.48816 0z" fill-rule="evenodd"/><path fill="#000000" d="m737.6274 85.969185q0 -1.40625 0.9375 -2.265625q0.9375 -0.875 2.34375 -0.875q1.4375 0 2.375 0.875q0.9375 0.859375 0.9375 2.265625q0 1.359375 -0.9375 2.21875q-0.921875 0.859375 -2.375 0.859375q-1.421875 0 -2.359375 -0.859375q-0.921875 -0.859375 -0.921875 -2.21875z" fill-rule="nonzero"/><path fill="#000000" d="m737.6274 135.56918q0 -1.40625 0.9375 -2.265625q0.9375 -0.875 2.34375 -0.875q1.4375 0 2.375 0.875q0.9375 0.859375 0.9375 2.265625q0 1.359375 -0.9375 2.21875q-0.921875 0.859375 -2.375 0.859375q-1.421875 0 -2.359375 -0.859375q-0.921875 -0.859375 -0.921875 -2.21875z" fill-rule="nonzero"/><path fill="#000000" d="m737.6274 185.16917q0 -1.40625 0.9375 -2.265625q0.9375 -0.875 2.34375 -0.875q1.4375 0 2.375 0.875q0.9375 0.859375 0.9375 2.265625q0 1.359375 -0.9375 2.21875q-0.921875 0.859375 -2.375 0.859375q-1.421875 0 -2.359375 -0.859375q-0.921875 -0.859375 -0.921875 -2.21875z" fill-rule="nonzero"/><path fill="#000000" fill-opacity="0.0" d="m726.38715 336.6719l30.48816 0l0 137.29135l-30.48816 0z" fill-rule="evenodd"/><path fill="#000000" d="m738.1746 367.73822q0 -1.40625 0.9375 -2.265625q0.9375 -0.875 2.34375 -0.875q1.4375 0 2.375 0.875q0.9375 0.859375 0.9375 2.265625q0 1.359375 -0.9375 2.21875q-0.921875 0.859375 -2.375 0.859375q-1.421875 0 -2.359375 -0.859375q-0.921875 -0.859375 -0.921875 -2.21875z" fill-rule="nonzero"/><path fill="#000000" d="m738.1746 417.3382q0 -1.40625 0.9375 -2.265625q0.9375 -0.875 2.34375 -0.875q1.4375 0 2.375 0.875q0.9375 0.859375 0.9375 2.265625q0 1.359375 -0.9375 2.21875q-0.921875 0.859375 -2.375 0.859375q-1.421875 0 -2.359375 -0.859375q-0.921875 -0.859375 -0.921875 -2.21875z" fill-rule="nonzero"/><path fill="#000000" d="m738.1746 466.9382q0 -1.40625 0.9375 -2.265625q0.9375 -0.875 2.34375 -0.875q1.4375 0 2.375 0.875q0.9375 0.859375 0.9375 2.265625q0 1.359375 -0.9375 2.21875q-0.921875 0.859375 -2.375 0.859375q-1.421875 0 -2.359375 -0.859375q-0.921875 -0.859375 -0.921875 -2.21875z" fill-rule="nonzero"/><path fill="#000000" fill-opacity="0.0" d="m108.15748 270.0l52.125984 0" fill-rule="evenodd"/><path stroke="#ff0000" stroke-width="2.0" stroke-linejoin="round" stroke-linecap="butt" d="m119.41403 270.0l29.612885 0" fill-rule="evenodd"/><path fill="#ff0000" stroke="#ff0000" stroke-width="2.0" stroke-linecap="butt" d="m119.41403 270.0l-4.7565536 -3.3305664l-4.7565536 3.3305664l4.7565536 3.3305664z" fill-rule="evenodd"/><path fill="#ff0000" stroke="#ff0000" stroke-width="2.0" stroke-linecap="butt" d="m149.02692 270.0l4.756546 3.3305664l4.7565613 -3.3305664l-4.7565613 -3.3305664z" fill-rule="evenodd"/><path fill="#000000" fill-opacity="0.0" d="m275.3491 270.0l62.2677 0" fill-rule="evenodd"/><path stroke="#ff0000" stroke-width="2.0" stroke-linejoin="round" stroke-linecap="butt" d="m286.60565 270.0l39.754578 0" fill-rule="evenodd"/><path fill="#ff0000" stroke="#ff0000" stroke-width="2.0" stroke-linecap="butt" d="m286.60562 270.0l-4.756531 -3.3305664l-4.7565613 3.3305664l4.7565613 3.3305664z" fill-rule="evenodd"/><path fill="#ff0000" stroke="#ff0000" stroke-width="2.0" stroke-linecap="butt" d="m326.36026 270.0l4.756531 3.3305664l4.7565613 -3.3305664l-4.7565613 -3.3305664z" fill-rule="evenodd"/><path fill="#000000" fill-opacity="0.0" d="m452.6642 270.0l53.417328 0" fill-rule="evenodd"/><path stroke="#ff0000" stroke-width="2.0" stroke-linejoin="round" stroke-linecap="butt" d="m463.92078 270.0l30.904205 0" fill-rule="evenodd"/><path fill="#ff0000" stroke="#ff0000" stroke-width="2.0" stroke-linecap="butt" d="m463.92075 270.0l-4.756531 -3.3305664l-4.7565613 3.3305664l4.7565613 3.3305664z" fill-rule="evenodd"/><path fill="#ff0000" stroke="#ff0000" stroke-width="2.0" stroke-linecap="butt" d="m494.82498 270.0l4.7565613 3.3305664l4.756531 -3.3305664l-4.756531 -3.3305664z" fill-rule="evenodd"/><path fill="#000000" fill-opacity="0.0" d="m621.12335 270.0l61.007874 0" fill-rule="evenodd"/><path stroke="#ff0000" stroke-width="2.0" stroke-linejoin="round" stroke-linecap="butt" d="m632.37994 270.0l38.49475 0" fill-rule="evenodd"/><path fill="#ff0000" stroke="#ff0000" stroke-width="2.0" stroke-linecap="butt" d="m632.3799 270.0l-4.756531 -3.3305664l-4.756531 3.3305664l4.756531 3.3305664z" fill-rule="evenodd"/><path fill="#ff0000" stroke="#ff0000" stroke-width="2.0" stroke-linecap="butt" d="m670.8747 270.0l4.756531 3.3305664l4.756592 -3.3305664l-4.756592 -3.3305664z" fill-rule="evenodd"/><path fill="#000000" fill-opacity="0.0" d="m797.1706 270.0l54.677185 0" fill-rule="evenodd"/><path stroke="#ff0000" stroke-width="2.0" stroke-linejoin="round" stroke-linecap="butt" d="m808.4272 270.0l32.164 0" fill-rule="evenodd"/><path fill="#ff0000" stroke="#ff0000" stroke-width="2.0" stroke-linecap="butt" d="m808.4272 270.0l-4.756592 -3.3305664l-4.756531 3.3305664l4.756531 3.3305664z" fill-rule="evenodd"/><path fill="#ff0000" stroke="#ff0000" stroke-width="2.0" stroke-linecap="butt" d="m840.5912 270.0l4.756592 3.3305664l4.756531 -3.3305664l-4.756531 -3.3305664z" fill-rule="evenodd"/></g></svg>