<svg version="1.1" viewBox="0.0 0.0 960.0 540.0" fill="none" stroke="none" stroke-linecap="square" stroke-miterlimit="10" xmlns:xlink="http://www.w3.org/1999/xlink" xmlns="http://www.w3.org/2000/svg"><clipPath id="g119b184e3bb_0_158.0"><path d="m0 0l960.0 0l0 540.0l-960.0 0l0 -540.0z" clip-rule="nonzero"/></clipPath><g clip-path="url(#g119b184e3bb_0_158.0)"><path fill="#ffffff" d="m0 0l960.0 0l0 540.0l-960.0 0z" fill-rule="evenodd"/><path fill="#000000" fill-opacity="0.0" d="m40.0 242.3622l123.90552 0l0 55.27559l-123.90552 0z" fill-rule="evenodd"/><path fill="#6aa84f" d="m86.37871 273.08124q0 6.890625 -2.84375 10.53125q-2.84375 3.640625 -8.34375 3.640625q-5.421875 0 -8.296875 -3.578125q-2.859375 -3.578125 -2.9218712 -10.25l0 -6.109375q0 -6.9375 2.8749962 -10.53125q2.875 -3.6093597 8.296875 -3.6093597q5.421875 0 8.296875 3.5624847q2.875 3.5625 2.9375 10.25l0 6.09375zm-6.578125 -6.6875q0 -4.125 -1.140625 -6.0q-1.125 -1.890625 -3.515625 -1.890625q-2.3125 0 -3.421875 1.796875q-1.109375 1.78125 -1.171875 5.59375l0 8.0625q0 4.046875 1.09375 6.015625q1.109375 1.96875 3.546875 1.96875q2.421875 0 3.484375 -1.890625q1.078125 -1.890625 1.125 -5.78125l0 -7.875zm33.346237 6.6875q0 6.890625 -2.84375 10.53125q-2.84375 3.640625 -8.34375 3.640625q-5.421875 0 -8.296875 -3.578125q-2.859375 -3.578125 -2.921875 -10.25l0 -6.109375q0 -6.9375 2.875 -10.53125q2.875 -3.6093597 8.296875 -3.6093597q5.421875 0 8.296875 3.5624847q2.875 3.5625 2.9375 10.25l0 6.09375zm-6.578125 -6.6875q0 -4.125 -1.140625 -6.0q-1.125 -1.890625 -3.515625 -1.890625q-2.3125 0 -3.421875 1.796875q-1.109375 1.78125 -1.171875 5.59375l0 8.0625q0 4.046875 1.09375 6.015625q1.109375 1.96875 3.546875 1.96875q2.421875 0 3.484375 -1.890625q1.078125 -1.890625 1.125 -5.78125l0 -7.875zm33.346237 6.6875q0 6.890625 -2.84375 10.53125q-2.84375 3.640625 -8.34375 3.640625q-5.421875 0 -8.296875 -3.578125q-2.859375 -3.578125 -2.921875 -10.25l0 -6.109375q0 -6.9375 2.875 -10.53125q2.875 -3.6093597 8.296875 -3.6093597q5.421875 0 8.296875 3.5624847q2.875 3.5625 2.9375 10.25l0 6.09375zm-6.578125 -6.6875q0 -4.125 -1.140625 -6.0q-1.125 -1.890625 -3.515625 -1.890625q-2.3125 0 -3.421875 1.796875q-1.109375 1.78125 -1.171875 5.59375l0 8.0625q0 4.046875 1.09375 6.015625q1.109375 1.96875 3.546875 1.96875q2.421875 0 3.484375 -1.890625q1.078125 -1.890625 1.125 -5.78125l0 -7.875z" fill-rule="nonzero"/><path fill="#000000" fill-opacity="0.0" d="m796.0945 242.3622l123.90552 0l0 55.27559l-123.90552 0z" fill-rule="evenodd"/><path fill="#000000" d="m836.1451 286.8l-6.578125 0l0 -25.375l-7.875 2.4375l0 -5.359375l13.75 -4.9218597l0.703125 0l0 33.218735zm26.768127 0l-6.578125 0l0 -25.375l-7.875 2.4375l0 -5.359375l13.75 -4.9218597l0.703125 0l0 33.218735zm26.768066 0l-6.578125 0l0 -25.375l-7.875 2.4375l0 -5.359375l13.75 -4.9218597l0.703125 0l0 33.218735z" fill-rule="nonzero"/><path fill="#000000" fill-opacity="0.0" d="m280.75592 384.13385l123.90549 0l0 55.275604l-123.90549 0z" fill-rule="evenodd"/><path fill="#000000" d="m327.1346 414.8529q0 6.890625 -2.84375 10.53125q-2.84375 3.640625 -8.34375 3.640625q-5.421875 0 -8.296875 -3.578125q-2.859375 -3.578125 -2.921875 -10.25l0 -6.109375q0 -6.9375 2.875 -10.53125q2.875 -3.609375 8.296875 -3.609375q5.421875 0 8.296875 3.5625q2.875 3.5625 2.9375 10.25l0 6.09375zm-6.578125 -6.6875q0 -4.125 -1.140625 -6.0q-1.125 -1.890625 -3.515625 -1.890625q-2.3125 0 -3.421875 1.796875q-1.109375 1.78125 -1.171875 5.59375l0 8.0625q0 4.046875 1.09375 6.015625q1.109375 1.96875 3.546875 1.96875q2.421875 0 3.484375 -1.890625q1.078125 -1.890625 1.125 -5.78125l0 -7.875zm33.346252 6.6875q0 6.890625 -2.84375 10.53125q-2.84375 3.640625 -8.34375 3.640625q-5.421875 0 -8.296875 -3.578125q-2.859375 -3.578125 -2.921875 -10.25l0 -6.109375q0 -6.9375 2.875 -10.53125q2.875 -3.609375 8.296875 -3.609375q5.421875 0 8.296875 3.5625q2.875 3.5625 2.9375 10.25l0 6.09375zm-6.578125 -6.6875q0 -4.125 -1.140625 -6.0q-1.125 -1.890625 -3.515625 -1.890625q-2.3125 0 -3.421875 1.796875q-1.109375 1.78125 -1.171875 5.59375l0 8.0625q0 4.046875 1.09375 6.015625q1.109375 1.96875 3.546875 1.96875q2.421875 0 3.484375 -1.890625q1.078125 -1.890625 1.125 -5.78125l0 -7.875zm27.018097 20.40625l-6.578125 0l0 -25.375l-7.875 2.4375l0 -5.359375l13.75 -4.921875l0.703125 0l0 33.21875z" fill-rule="nonzero"/><path fill="#000000" fill-opacity="0.0" d="m280.75592 242.3622l123.90549 0l0 55.27559l-123.90549 0z" fill-rule="evenodd"/><path fill="#000000" d="m327.1346 273.08124q0 6.890625 -2.84375 10.53125q-2.84375 3.640625 -8.34375 3.640625q-5.421875 0 -8.296875 -3.578125q-2.859375 -3.578125 -2.921875 -10.25l0 -6.109375q0 -6.9375 2.875 -10.53125q2.875 -3.6093597 8.296875 -3.6093597q5.421875 0 8.296875 3.5624847q2.875 3.5625 2.9375 10.25l0 6.09375zm-6.578125 -6.6875q0 -4.125 -1.140625 -6.0q-1.125 -1.890625 -3.515625 -1.890625q-2.3125 0 -3.421875 1.796875q-1.109375 1.78125 -1.171875 5.59375l0 8.0625q0 4.046875 1.09375 6.015625q1.109375 1.96875 3.546875 1.96875q2.421875 0 3.484375 -1.890625q1.078125 -1.890625 1.125 -5.78125l0 -7.875zm27.018127 20.40625l-6.578125 0l0 -25.375l-7.875 2.4375l0 -5.359375l13.75 -4.9218597l0.703125 0l0 33.218735zm33.096222 -13.71875q0 6.890625 -2.84375 10.53125q-2.84375 3.640625 -8.34375 3.640625q-5.421875 0 -8.296875 -3.578125q-2.859375 -3.578125 -2.921875 -10.25l0 -6.109375q0 -6.9375 2.875 -10.53125q2.875 -3.6093597 8.296875 -3.6093597q5.421875 0 8.296875 3.5624847q2.875 3.5625 2.9375 10.25l0 6.09375zm-6.578125 -6.6875q0 -4.125 -1.140625 -6.0q-1.125 -1.890625 -3.515625 -1.890625q-2.3125 0 -3.421875 1.796875q-1.109375 1.78125 -1.171875 5.59375l0 8.0625q0 4.046875 1.09375 6.015625q1.109375 1.96875 3.546875 1.96875q2.421875 0 3.484375 -1.890625q1.078125 -1.890625 1.125 -5.78125l0 -7.875z" fill-rule="nonzero"/><path fill="#000000" fill-opacity="0.0" d="m280.75592 100.59055l123.90549 0l0 55.27558l-123.90549 0z" fill-rule="evenodd"/><path fill="#000000" d="m320.8065 145.02835l-6.578125 0l0 -25.375008l-7.875 2.4375l0 -5.359375l13.75 -4.921875l0.703125 0l0 33.218758zm33.096252 -13.71875q0 6.890625 -2.84375 10.53125q-2.84375 3.640625 -8.34375 3.640625q-5.421875 0 -8.296875 -3.578125q-2.859375 -3.578125 -2.921875 -10.25l0 -6.1093826q0 -6.9375 2.875 -10.53125q2.875 -3.609375 8.296875 -3.609375q5.421875 0 8.296875 3.5625q2.875 3.5625 2.9375 10.25l0 6.0937576zm-6.578125 -6.6875076q0 -4.125 -1.140625 -6.0q-1.125 -1.890625 -3.515625 -1.890625q-2.3125 0 -3.421875 1.796875q-1.109375 1.78125 -1.171875 5.59375l0 8.062508q0 4.046875 1.09375 6.015625q1.109375 1.96875 3.546875 1.96875q2.421875 0 3.484375 -1.890625q1.078125 -1.890625 1.125 -5.78125l0 -7.8750076zm33.346222 6.6875076q0 6.890625 -2.84375 10.53125q-2.84375 3.640625 -8.34375 3.640625q-5.421875 0 -8.296875 -3.578125q-2.859375 -3.578125 -2.921875 -10.25l0 -6.1093826q0 -6.9375 2.875 -10.53125q2.875 -3.609375 8.296875 -3.609375q5.421875 0 8.296875 3.5625q2.875 3.5625 2.9375 10.25l0 6.0937576zm-6.578125 -6.6875076q0 -4.125 -1.140625 -6.0q-1.125 -1.890625 -3.515625 -1.890625q-2.3125 0 -3.421875 1.796875q-1.109375 1.78125 -1.171875 5.59375l0 8.062508q0 4.046875 1.09375 6.015625q1.109375 1.96875 3.546875 1.96875q2.421875 0 3.484375 -1.890625q1.078125 -1.890625 1.125 -5.78125l0 -7.8750076z" fill-rule="nonzero"/><path fill="#000000" fill-opacity="0.0" d="m556.0945 100.59055l123.90552 0l0 55.27558l-123.90552 0z" fill-rule="evenodd"/><path fill="#6aa84f" d="m596.1451 145.02835l-6.578125 0l0 -25.375008l-7.875 2.4375l0 -5.359375l13.75 -4.921875l0.703125 0l0 33.218758zm26.768127 0l-6.578125 0l0 -25.375008l-7.875 2.4375l0 -5.359375l13.75 -4.921875l0.703125 0l0 33.218758zm33.09619 -13.71875q0 6.890625 -2.84375 10.53125q-2.84375 3.640625 -8.34375 3.640625q-5.421875 0 -8.296875 -3.578125q-2.859375 -3.578125 -2.921875 -10.25l0 -6.1093826q0 -6.9375 2.875 -10.53125q2.875 -3.609375 8.296875 -3.609375q5.421875 0 8.296875 3.5625q2.875 3.5625 2.9375 10.25l0 6.0937576zm-6.578125 -6.6875076q0 -4.125 -1.140625 -6.0q-1.125 -1.890625 -3.515625 -1.890625q-2.3125 0 -3.421875 1.796875q-1.109375 1.78125 -1.171875 5.59375l0 8.062508q0 4.046875 1.09375 6.015625q1.109375 1.96875 3.546875 1.96875q2.421875 0 3.484375 -1.890625q1.078125 -1.890625 1.125 -5.78125l0 -7.8750076z" fill-rule="nonzero"/><path fill="#000000" fill-opacity="0.0" d="m556.0945 384.13385l123.90552 0l0 55.275604l-123.90552 0z" fill-rule="evenodd"/><path fill="#6aa84f" d="m602.4732 414.8529q0 6.890625 -2.84375 10.53125q-2.84375 3.640625 -8.34375 3.640625q-5.421875 0 -8.296875 -3.578125q-2.859375 -3.578125 -2.921875 -10.25l0 -6.109375q0 -6.9375 2.875 -10.53125q2.875 -3.609375 8.296875 -3.609375q5.421875 0 8.296875 3.5625q2.875 3.5625 2.9375 10.25l0 6.09375zm-6.578125 -6.6875q0 -4.125 -1.140625 -6.0q-1.125 -1.890625 -3.515625 -1.890625q-2.3125 0 -3.421875 1.796875q-1.109375 1.78125 -1.171875 5.59375l0 8.0625q0 4.046875 1.09375 6.015625q1.109375 1.96875 3.546875 1.96875q2.421875 0 3.484375 -1.890625q1.078125 -1.890625 1.125 -5.78125l0 -7.875zm27.018127 20.40625l-6.578125 0l0 -25.375l-7.875 2.4375l0 -5.359375l13.75 -4.921875l0.703125 0l0 33.21875zm26.768066 0l-6.578125 0l0 -25.375l-7.875 2.4375l0 -5.359375l13.75 -4.921875l0.703125 0l0 33.21875z" fill-rule="nonzero"/><path fill="#000000" fill-opacity="0.0" d="m556.0945 242.3622l123.90552 0l0 55.27559l-123.90552 0z" fill-rule="evenodd"/><path fill="#6aa84f" d="m596.1451 286.8l-6.578125 0l0 -25.375l-7.875 2.4375l0 -5.359375l13.75 -4.9218597l0.703125 0l0 33.218735zm33.096252 -13.71875q0 6.890625 -2.84375 10.53125q-2.84375 3.640625 -8.34375 3.640625q-5.421875 0 -8.296875 -3.578125q-2.859375 -3.578125 -2.921875 -10.25l0 -6.109375q0 -6.9375 2.875 -10.53125q2.875 -3.6093597 8.296875 -3.6093597q5.421875 0 8.296875 3.5624847q2.875 3.5625 2.9375 10.25l0 6.09375zm-6.578125 -6.6875q0 -4.125 -1.140625 -6.0q-1.125 -1.890625 -3.515625 -1.890625q-2.3125 0 -3.421875 1.796875q-1.109375 1.78125 -1.171875 5.59375l0 8.0625q0 4.046875 1.09375 6.015625q1.109375 1.96875 3.546875 1.96875q2.421875 0 3.484375 -1.890625q1.078125 -1.890625 1.125 -5.78125l0 -7.875zm27.018066 20.40625l-6.578125 0l0 -25.375l-7.875 2.4375l0 -5.359375l13.75 -4.9218597l0.703125 0l0 33.218735z" fill-rule="nonzero"/><path fill="#000000" fill-opacity="0.0" d="m101.95276 242.3622l178.80316 -114.14172" fill-rule="evenodd"/><path stroke="#ff0000" stroke-width="4.0" stroke-linejoin="round" stroke-linecap="butt" d="m120.92897 230.24844l140.85072 -89.914215" fill-rule="evenodd"/><path fill="#ff0000" stroke="#ff0000" stroke-width="4.0" stroke-linecap="butt" d="m120.92897 230.24844l-11.602768 -0.49588013l-4.4343567 10.733429l11.602768 0.49588013z" fill-rule="evenodd"/><path fill="#ff0000" stroke="#ff0000" stroke-width="4.0" stroke-linecap="butt" d="m261.7797 140.33423l11.602753 0.49588013l4.4343567 -10.733429l-11.602753 -0.49588013z" fill-rule="evenodd"/><path fill="#000000" fill-opacity="0.0" d="m163.90552 270.0l116.8504 0" fill-rule="evenodd"/><path stroke="#ff0000" stroke-width="4.0" stroke-linejoin="round" stroke-linecap="butt" d="m186.41861 270.0l71.82419 0" fill-rule="evenodd"/><path fill="#ff0000" stroke="#ff0000" stroke-width="4.0" stroke-linecap="butt" d="m186.41862 270.0l-9.513107 -6.6611633l-9.513107 6.6611633l9.513107 6.6611633z" fill-rule="evenodd"/><path fill="#ff0000" stroke="#ff0000" stroke-width="4.0" stroke-linecap="butt" d="m258.2428 270.0l9.513123 6.6611633l9.513092 -6.6611633l-9.513092 -6.6611633z" fill-rule="evenodd"/><path fill="#000000" fill-opacity="0.0" d="m101.95276 297.6378l178.80316 114.141754" fill-rule="evenodd"/><path stroke="#ff0000" stroke-width="4.0" stroke-linejoin="round" stroke-linecap="butt" d="m120.92897 309.75156l140.85072 89.914215" fill-rule="evenodd"/><path fill="#ff0000" stroke="#ff0000" stroke-width="4.0" stroke-linecap="butt" d="m120.92897 309.75156l-4.4343567 -10.733429l-11.602768 0.49588013l4.4343567 10.733429z" fill-rule="evenodd"/><path fill="#ff0000" stroke="#ff0000" stroke-width="4.0" stroke-linecap="butt" d="m261.7797 399.66577l4.4343567 10.733429l11.602753 -0.49588013l-4.4343567 -10.733429z" fill-rule="evenodd"/><path fill="#000000" fill-opacity="0.0" d="m404.6614 128.22835l151.43307 141.76378" fill-rule="evenodd"/><path stroke="#ff0000" stroke-width="4.0" stroke-linejoin="round" stroke-linecap="butt" d="m421.09665 143.61415l118.56259 110.99217" fill-rule="evenodd"/><path fill="#ff0000" stroke="#ff0000" stroke-width="4.0" stroke-linecap="butt" d="m421.09665 143.61415l-2.392517 -11.364243l-11.497192 -1.6385651l2.392517 11.364243z" fill-rule="evenodd"/><path fill="#ff0000" stroke="#ff0000" stroke-width="4.0" stroke-linecap="butt" d="m539.65924 254.60632l2.392517 11.364227l11.497192 1.6385803l-2.392517 -11.364258z" fill-rule="evenodd"/><path fill="#000000" fill-opacity="0.0" d="m404.6614 411.77167l151.43307 -141.7638" fill-rule="evenodd"/><path stroke="#ff0000" stroke-width="4.0" stroke-linejoin="round" stroke-linecap="butt" d="m421.09665 396.38583l118.56259 -110.99216" fill-rule="evenodd"/><path fill="#ff0000" stroke="#ff0000" stroke-width="4.0" stroke-linecap="butt" d="m421.09665 396.38583l-11.497192 1.6385803l-2.392517 11.364227l11.497192 -1.6385498z" fill-rule="evenodd"/><path fill="#ff0000" stroke="#ff0000" stroke-width="4.0" stroke-linecap="butt" d="m539.65924 285.39368l11.497192 -1.6385498l2.392517 -11.364258l-11.497192 1.6385803z" fill-rule="evenodd"/><path fill="#000000" fill-opacity="0.0" d="m404.6614 270.0l151.43307 -141.76378" fill-rule="evenodd"/><path stroke="#ff0000" stroke-width="4.0" stroke-linejoin="round" stroke-linecap="butt" d="m421.09665 254.6142l118.56259 -110.99217" fill-rule="evenodd"/><path fill="#ff0000" stroke="#ff0000" stroke-width="4.0" stroke-linecap="butt" d="m421.09665 254.6142l-11.497192 1.6385803l-2.392517 11.364227l11.497192 -1.6385803z" fill-rule="evenodd"/><path fill="#ff0000" stroke="#ff0000" stroke-width="4.0" stroke-linecap="butt" d="m539.65924 143.62202l11.497192 -1.6385651l2.392517 -11.364243l-11.497192 1.6385651z" fill-rule="evenodd"/><path fill="#000000" fill-opacity="0.0" d="m404.6614 270.0l151.43307 141.7638" fill-rule="evenodd"/><path stroke="#ff0000" stroke-width="4.0" stroke-linejoin="round" stroke-linecap="butt" d="m421.09665 285.3858l118.56259 110.99216" fill-rule="evenodd"/><path fill="#ff0000" stroke="#ff0000" stroke-width="4.0" stroke-linecap="butt" d="m421.09665 285.3858l-2.392517 -11.364227l-11.497192 -1.6385803l2.392517 11.364227z" fill-rule="evenodd"/><path fill="#ff0000" stroke="#ff0000" stroke-width="4.0" stroke-linecap="butt" d="m539.65924 396.37796l2.392517 11.364258l11.497192 1.6385498l-2.392517 -11.364227z" fill-rule="evenodd"/><path fill="#000000" fill-opacity="0.0" d="m680.0 128.22835l178.04724 114.14172" fill-rule="evenodd"/><path stroke="#ff0000" stroke-width="4.0" stroke-linejoin="round" stroke-linecap="butt" d="m698.95294 140.37857l140.14136 89.84129" fill-rule="evenodd"/><path fill="#ff0000" stroke="#ff0000" stroke-width="4.0" stroke-linecap="butt" d="m698.9529 140.37857l-4.4136963 -10.741928l-11.603699 0.47357178l4.4136963 10.741928z" fill-rule="evenodd"/><path fill="#ff0000" stroke="#ff0000" stroke-width="4.0" stroke-linecap="butt" d="m839.09436 230.21985l4.4136963 10.741943l11.603699 -0.47357178l-4.4136963 -10.741943z" fill-rule="evenodd"/><path fill="#000000" fill-opacity="0.0" d="m680.0 411.77167l178.04724 -114.141754" fill-rule="evenodd"/><path stroke="#ff0000" stroke-width="4.0" stroke-linejoin="round" stroke-linecap="butt" d="m698.95294 399.62143l140.14136 -89.84128" fill-rule="evenodd"/><path fill="#ff0000" stroke="#ff0000" stroke-width="4.0" stroke-linecap="butt" d="m698.9529 399.62143l-11.603699 -0.47357178l-4.4136963 10.741943l11.603699 0.47357178z" fill-rule="evenodd"/><path fill="#ff0000" stroke="#ff0000" stroke-width="4.0" stroke-linecap="butt" d="m839.09436 309.78015l11.603699 0.47357178l4.4136963 -10.741943l-11.603699 -0.47357178z" fill-rule="evenodd"/><path fill="#000000" fill-opacity="0.0" d="m163.90552 270.0l116.8504 0" fill-rule="evenodd"/><path stroke="#ff0000" stroke-width="4.0" stroke-linejoin="round" stroke-linecap="butt" d="m186.41861 270.0l71.82419 0" fill-rule="evenodd"/><path fill="#ff0000" stroke="#ff0000" stroke-width="4.0" stroke-linecap="butt" d="m186.41862 270.0l-9.513107 -6.6611633l-9.513107 6.6611633l9.513107 6.6611633z" fill-rule="evenodd"/><path fill="#ff0000" stroke="#ff0000" stroke-width="4.0" stroke-linecap="butt" d="m258.2428 270.0l9.513123 6.6611633l9.513092 -6.6611633l-9.513092 -6.6611633z" fill-rule="evenodd"/><path fill="#000000" fill-opacity="0.0" d="m404.6614 128.22835l151.43307 0" fill-rule="evenodd"/><path stroke="#ff0000" stroke-width="4.0" stroke-linejoin="round" stroke-linecap="butt" d="m427.17453 128.22835l106.40683 0" fill-rule="evenodd"/><path fill="#ff0000" stroke="#ff0000" stroke-width="4.0" stroke-linecap="butt" d="m427.17453 128.22835l-9.513123 -6.661148l-9.513092 6.661148l9.513092 6.661148z" fill-rule="evenodd"/><path fill="#ff0000" stroke="#ff0000" stroke-width="4.0" stroke-linecap="butt" d="m533.58136 128.22835l9.513123 6.661148l9.513123 -6.661148l-9.513123 -6.661148z" fill-rule="evenodd"/><path fill="#000000" fill-opacity="0.0" d="m404.6614 411.77167l151.43307 0" fill-rule="evenodd"/><path stroke="#ff0000" stroke-width="4.0" stroke-linejoin="round" stroke-linecap="butt" d="m427.17453 411.77167l106.40683 0" fill-rule="evenodd"/><path fill="#ff0000" stroke="#ff0000" stroke-width="4.0" stroke-linecap="butt" d="m427.17453 411.77167l-9.513123 -6.6611633l-9.513092 6.6611633l9.513092 6.661133z" fill-rule="evenodd"/><path fill="#ff0000" stroke="#ff0000" stroke-width="4.0" stroke-linecap="butt" d="m533.58136 411.77167l9.513123 6.661133l9.513123 -6.661133l-9.513123 -6.6611633z" fill-rule="evenodd"/><path fill="#000000" fill-opacity="0.0" d="m680.0 270.0l116.09448 0" fill-rule="evenodd"/><path stroke="#ff0000" stroke-width="4.0" stroke-linejoin="round" stroke-linecap="butt" d="m702.5131 270.0l71.06824 0" fill-rule="evenodd"/><path fill="#ff0000" stroke="#ff0000" stroke-width="4.0" stroke-linecap="butt" d="m702.5131 270.0l-9.513123 -6.6611633l-9.513123 6.6611633l9.513123 6.6611633z" fill-rule="evenodd"/><path fill="#ff0000" stroke="#ff0000" stroke-width="4.0" stroke-linecap="butt" d="m773.58136 270.0l9.513123 6.6611633l9.513123 -6.6611633l-9.513123 -6.6611633z" fill-rule="evenodd"/></g></svg>