<svg version="1.1" viewBox="0.0 0.0 960.0 540.0" fill="none" stroke="none" stroke-linecap="square" stroke-miterlimit="10" xmlns:xlink="http://www.w3.org/1999/xlink" xmlns="http://www.w3.org/2000/svg"><clipPath id="g11f249283fe_0_42.0"><path d="m0 0l960.0 0l0 540.0l-960.0 0l0 -540.0z" clip-rule="nonzero"/></clipPath><g clip-path="url(#g11f249283fe_0_42.0)"><path fill="#ffffff" d="m0 0l960.0 0l0 540.0l-960.0 0z" fill-rule="evenodd"/><path fill="#eeeeee" d="m709.43835 189.15384l57.385803 0l0 57.38582l-57.385803 0z" fill-rule="evenodd"/><path stroke="#595959" stroke-width="3.0" stroke-linejoin="round" stroke-linecap="butt" d="m709.43835 189.15384l57.385803 0l0 57.38582l-57.385803 0z" fill-rule="evenodd"/><path fill="#0000ff" d="m738.3578 221.55362q-0.25 3.375 -2.5 5.3125q-2.234375 1.921875 -5.890625 1.921875q-4.015625 0 -6.3125 -2.6875q-2.296875 -2.703125 -2.296875 -7.421875l0 -1.265625q0 -3.015625 1.046875 -5.296875q1.0625 -2.296875 3.03125 -3.515625q1.984375 -1.234375 4.578125 -1.234375q3.609375 0 5.8125 1.9375q2.21875 1.9375 2.5625 5.421875l-4.296875 0q-0.15625 -2.015625 -1.125 -2.921875q-0.96875 -0.90625 -2.953125 -0.90625q-2.140625 0 -3.21875 1.546875q-1.0625 1.53125 -1.09375 4.765625l0 1.578125q0 3.375 1.015625 4.9375q1.03125 1.5625 3.25 1.5625q1.984375 0 2.96875 -0.90625q0.984375 -0.921875 1.125 -2.828125l4.296875 0zm14.611145 -0.890625l2.375 0l0 3.328125l-2.375 0l0 4.515625l-4.140625 0l0 -4.515625l-8.546875 0l-0.1875 -2.609375l8.703125 -13.71875l4.171875 0l0 13.0zm-8.75 0l4.609375 0l0 -7.359375l-0.265625 0.46875l-4.34375 6.890625z" fill-rule="nonzero"/><path fill="#eeeeee" d="m21.07221 189.1539l57.385826 0l0 57.38582l-57.385826 0z" fill-rule="evenodd"/><path stroke="#595959" stroke-width="3.0" stroke-linejoin="round" stroke-linecap="butt" d="m21.07221 189.1539l57.385826 0l0 57.38582l-57.385826 0z" fill-rule="evenodd"/><path fill="#000000" d="m33.85291 228.5068l0 -20.84375l7.3125 0q3.78125 0 5.75 1.453125q1.96875 1.453125 1.96875 4.25q0 1.53125 -0.796875 2.703125q-0.78125 1.171875 -2.1875 1.71875q1.609375 0.390625 2.53125 1.609375q0.921875 1.21875 0.921875 2.984375q0 3.0 -1.921875 4.546875q-1.921875 1.546875 -5.46875 1.578125l-8.109375 0zm4.296875 -9.078125l0 5.625l3.6875 0q1.515625 0 2.359375 -0.71875q0.859375 -0.71875 0.859375 -2.0q0 -2.859375 -2.96875 -2.90625l-3.9375 0zm0 -3.03125l3.1875 0q3.25 -0.0625 3.25 -2.59375q0 -1.421875 -0.828125 -2.046875q-0.828125 -0.625 -2.59375 -0.625l-3.015625 0l0 5.265625zm24.029236 12.109375l-4.140625 0l0 -15.953125l-4.9375 1.53125l0 -3.359375l8.640625 -3.09375l0.4375 0l0 20.875z" fill-rule="nonzero"/><path fill="#eeeeee" d="m193.16411 189.1542l57.385834 0l0 57.385834l-57.385834 0z" fill-rule="evenodd"/><path stroke="#595959" stroke-width="3.0" stroke-linejoin="round" stroke-linecap="butt" d="m193.16411 189.1542l57.385834 0l0 57.385834l-57.385834 0z" fill-rule="evenodd"/><path fill="#000000" d="m205.94481 228.50713l0 -20.84375l7.3125 0q3.78125 0 5.75 1.453125q1.96875 1.453125 1.96875 4.25q0 1.53125 -0.796875 2.703125q-0.78125 1.171875 -2.1875 1.71875q1.609375 0.390625 2.53125 1.609375q0.921875 1.21875 0.921875 2.984375q0 3.0 -1.921875 4.546875q-1.921875 1.546875 -5.46875 1.578125l-8.109375 0zm4.296875 -9.078125l0 5.625l3.6875 0q1.515625 0 2.359375 -0.71875q0.859375 -0.71875 0.859375 -2.0q0 -2.859375 -2.96875 -2.90625l-3.9375 0zm0 -3.03125l3.1875 0q3.25 -0.0625 3.25 -2.59375q0 -1.421875 -0.828125 -2.046875q-0.828125 -0.625 -2.59375 -0.625l-3.015625 0l0 5.265625zm26.216736 4.265625l2.375 0l0 3.328125l-2.375 0l0 4.515625l-4.140625 0l0 -4.515625l-8.546875 0l-0.1875 -2.609375l8.703125 -13.71875l4.171875 0l0 13.0zm-8.75 0l4.609375 0l0 -7.359375l-0.265625 0.46875l-4.34375 6.890625z" fill-rule="nonzero"/><path fill="#eeeeee" d="m365.256 189.15385l57.385834 0l0 57.385834l-57.385834 0z" fill-rule="evenodd"/><path stroke="#595959" stroke-width="3.0" stroke-linejoin="round" stroke-linecap="butt" d="m365.256 189.15385l57.385834 0l0 57.385834l-57.385834 0z" fill-rule="evenodd"/><path fill="#000000" d="m378.0367 228.50677l0 -20.84375l7.3125 0q3.78125 0 5.75 1.453125q1.96875 1.453125 1.96875 4.25q0 1.53125 -0.796875 2.703125q-0.78125 1.171875 -2.1875 1.71875q1.609375 0.390625 2.53125 1.609375q0.921875 1.21875 0.921875 2.984375q0 3.0 -1.921875 4.546875q-1.921875 1.546875 -5.46875 1.578125l-8.109375 0zm4.296875 -9.078125l0 5.625l3.6875 0q1.515625 0 2.359375 -0.71875q0.859375 -0.71875 0.859375 -2.0q0 -2.859375 -2.96875 -2.90625l-3.9375 0zm0 -3.03125l3.1875 0q3.25 -0.0625 3.25 -2.59375q0 -1.421875 -0.828125 -2.046875q-0.828125 -0.625 -2.59375 -0.625l-3.015625 0l0 5.265625zm28.154236 -6.421875l-8.0625 18.53125l-4.359375 0l8.0625 -17.5l-10.359375 0l0 -3.34375l14.71875 0l0 2.3125z" fill-rule="nonzero"/><path fill="#eeeeee" d="m766.80945 189.15384l57.385803 0l0 57.38582l-57.385803 0z" fill-rule="evenodd"/><path stroke="#595959" stroke-width="3.0" stroke-linejoin="round" stroke-linecap="butt" d="m766.80945 189.15384l57.385803 0l0 57.38582l-57.385803 0z" fill-rule="evenodd"/><path fill="#0000ff" d="m795.7289 221.55362q-0.25 3.375 -2.5 5.3125q-2.234375 1.921875 -5.890625 1.921875q-4.015625 0 -6.3125 -2.6875q-2.296875 -2.703125 -2.296875 -7.421875l0 -1.265625q0 -3.015625 1.046875 -5.296875q1.0625 -2.296875 3.03125 -3.515625q1.984375 -1.234375 4.578125 -1.234375q3.609375 0 5.8125 1.9375q2.21875 1.9375 2.5625 5.421875l-4.296875 0q-0.15625 -2.015625 -1.125 -2.921875q-0.96875 -0.90625 -2.953125 -0.90625q-2.140625 0 -3.21875 1.546875q-1.0625 1.53125 -1.09375 4.765625l0 1.578125q0 3.375 1.015625 4.9375q1.03125 1.5625 3.25 1.5625q1.984375 0 2.96875 -0.90625q0.984375 -0.921875 1.125 -2.828125l4.296875 0zm2.986145 -3.296875l1.203125 -10.59375l11.6875 0l0 3.4375l-8.296875 0l-0.515625 4.484375q1.484375 -0.78125 3.140625 -0.78125q2.984375 0 4.671875 1.84375q1.6875 1.84375 1.6875 5.171875q0 2.015625 -0.859375 3.625q-0.84375 1.59375 -2.4375 2.46875q-1.59375 0.875 -3.75 0.875q-1.890625 0 -3.515625 -0.765625q-1.609375 -0.765625 -2.546875 -2.15625q-0.9375 -1.390625 -1.0 -3.15625l4.09375 0q0.140625 1.296875 0.921875 2.03125q0.78125 0.71875 2.03125 0.71875q1.40625 0 2.15625 -1.0q0.765625 -1.015625 0.765625 -2.875q0 -1.765625 -0.875 -2.703125q-0.875 -0.953125 -2.46875 -0.953125q-1.484375 0 -2.390625 0.765625l-0.40625 0.375l-3.296875 -0.8125z" fill-rule="nonzero"/><path fill="#eeeeee" d="m78.43715 189.1539l57.385834 0l0 57.38582l-57.385834 0z" fill-rule="evenodd"/><path stroke="#595959" stroke-width="3.0" stroke-linejoin="round" stroke-linecap="butt" d="m78.43715 189.1539l57.385834 0l0 57.38582l-57.385834 0z" fill-rule="evenodd"/><path fill="#000000" d="m91.21784 228.5068l0 -20.84375l7.3125 0q3.78125 0 5.75 1.453125q1.96875 1.453125 1.96875 4.25q0 1.53125 -0.796875 2.703125q-0.78125 1.171875 -2.1875 1.71875q1.609375 0.390625 2.53125 1.609375q0.921875 1.21875 0.921875 2.984375q0 3.0 -1.921875 4.546875q-1.921875 1.546875 -5.46875 1.578125l-8.109375 0zm4.296875 -9.078125l0 5.625l3.6875 0q1.515625 0 2.359375 -0.71875q0.859375 -0.71875 0.859375 -2.0q0 -2.859375 -2.96875 -2.90625l-3.9375 0zm0 -3.03125l3.1875 0q3.25 -0.0625 3.25 -2.59375q0 -1.421875 -0.828125 -2.046875q-0.828125 -0.625 -2.59375 -0.625l-3.015625 0l0 5.265625zm28.26361 12.109375l-14.28125 0l0 -2.828125l6.734375 -7.203125q1.390625 -1.515625 2.0625 -2.640625q0.671875 -1.140625 0.671875 -2.15625q0 -1.375 -0.703125 -2.171875q-0.703125 -0.796875 -2.015625 -0.796875q-1.390625 0 -2.203125 0.96875q-0.8125 0.96875 -0.8125 2.53125l-4.15625 0q0 -1.90625 0.90625 -3.46875q0.921875 -1.578125 2.578125 -2.46875q1.65625 -0.90625 3.765625 -0.90625q3.21875 0 5.0 1.546875q1.78125 1.546875 1.78125 4.375q0 1.546875 -0.796875 3.15625q-0.796875 1.59375 -2.75 3.734375l-4.734375 4.984375l8.953125 0l0 3.34375z" fill-rule="nonzero"/><path fill="#eeeeee" d="m250.52905 189.1542l57.385834 0l0 57.385834l-57.385834 0z" fill-rule="evenodd"/><path stroke="#595959" stroke-width="3.0" stroke-linejoin="round" stroke-linecap="butt" d="m250.52905 189.1542l57.385834 0l0 57.385834l-57.385834 0z" fill-rule="evenodd"/><path fill="#000000" d="m263.30975 228.50713l0 -20.84375l7.3125 0q3.78125 0 5.75 1.453125q1.96875 1.453125 1.96875 4.25q0 1.53125 -0.796875 2.703125q-0.78125 1.171875 -2.1875 1.71875q1.609375 0.390625 2.53125 1.609375q0.921875 1.21875 0.921875 2.984375q0 3.0 -1.921875 4.546875q-1.921875 1.546875 -5.46875 1.578125l-8.109375 0zm4.296875 -9.078125l0 5.625l3.6875 0q1.515625 0 2.359375 -0.71875q0.859375 -0.71875 0.859375 -2.0q0 -2.859375 -2.96875 -2.90625l-3.9375 0zm0 -3.03125l3.1875 0q3.25 -0.0625 3.25 -2.59375q0 -1.421875 -0.828125 -2.046875q-0.828125 -0.625 -2.59375 -0.625l-3.015625 0l0 5.265625zm14.591736 1.859375l1.203125 -10.59375l11.6875 0l0 3.4375l-8.296875 0l-0.515625 4.484375q1.484375 -0.78125 3.140625 -0.78125q2.984375 0 4.671875 1.84375q1.6875 1.84375 1.6875 5.171875q0 2.015625 -0.859375 3.625q-0.84375 1.59375 -2.4375 2.46875q-1.59375 0.875 -3.75 0.875q-1.890625 0 -3.515625 -0.765625q-1.609375 -0.765625 -2.546875 -2.15625q-0.9375 -1.390625 -1.0 -3.15625l4.09375 0q0.140625 1.296875 0.921875 2.03125q0.78125 0.71875 2.03125 0.71875q1.40625 0 2.15625 -1.0q0.765625 -1.015625 0.765625 -2.875q0 -1.765625 -0.875 -2.703125q-0.875 -0.953125 -2.46875 -0.953125q-1.484375 0 -2.390625 0.765625l-0.40625 0.375l-3.296875 -0.8125z" fill-rule="nonzero"/><path fill="#eeeeee" d="m422.62094 189.15451l57.385834 0l0 57.385834l-57.385834 0z" fill-rule="evenodd"/><path stroke="#595959" stroke-width="3.0" stroke-linejoin="round" stroke-linecap="butt" d="m422.62094 189.15451l57.385834 0l0 57.385834l-57.385834 0z" fill-rule="evenodd"/><path fill="#000000" d="m435.40164 228.50743l0 -20.84375l7.3125 0q3.78125 0 5.75 1.453125q1.96875 1.453125 1.96875 4.25q0 1.53125 -0.796875 2.703125q-0.78125 1.171875 -2.1875 1.71875q1.609375 0.390625 2.53125 1.609375q0.921875 1.21875 0.921875 2.984375q0 3.0 -1.921875 4.546875q-1.921875 1.546875 -5.46875 1.578125l-8.109375 0zm4.296875 -9.078125l0 5.625l3.6875 0q1.515625 0 2.359375 -0.71875q0.859375 -0.71875 0.859375 -2.0q0 -2.859375 -2.96875 -2.90625l-3.9375 0zm0 -3.03125l3.1875 0q3.25 -0.0625 3.25 -2.59375q0 -1.421875 -0.828125 -2.046875q-0.828125 -0.625 -2.59375 -0.625l-3.015625 0l0 5.265625zm27.560486 -3.203125q0 1.515625 -0.765625 2.703125q-0.75 1.171875 -2.078125 1.875q1.515625 0.71875 2.40625 2.0q0.890625 1.28125 0.890625 3.015625q0 2.78125 -1.890625 4.390625q-1.890625 1.609375 -5.140625 1.609375q-3.25 0 -5.15625 -1.609375q-1.90625 -1.625 -1.90625 -4.390625q0 -1.734375 0.890625 -3.015625q0.890625 -1.296875 2.390625 -2.0q-1.328125 -0.703125 -2.09375 -1.875q-0.75 -1.1875 -0.75 -2.703125q0 -2.65625 1.78125 -4.234375q1.78125 -1.59375 4.828125 -1.59375q3.03125 0 4.8125 1.578125q1.78125 1.5625 1.78125 4.25zm-3.703125 9.296875q0 -1.359375 -0.796875 -2.171875q-0.78125 -0.8125 -2.109375 -0.8125q-1.3125 0 -2.109375 0.8125q-0.78125 0.796875 -0.78125 2.171875q0 1.328125 0.765625 2.15625q0.78125 0.8125 2.15625 0.8125q1.34375 0 2.109375 -0.78125q0.765625 -0.796875 0.765625 -2.1875zm-0.421875 -9.09375q0 -1.21875 -0.65625 -1.953125q-0.640625 -0.734375 -1.8125 -0.734375q-1.15625 0 -1.8125 0.71875q-0.640625 0.703125 -0.640625 1.96875q0 1.25 0.640625 2.015625q0.65625 0.75 1.828125 0.75q1.171875 0 1.8125 -0.75q0.640625 -0.765625 0.640625 -2.015625z" fill-rule="nonzero"/><path fill="#eeeeee" d="m824.18054 189.15384l57.385803 0l0 57.38582l-57.385803 0z" fill-rule="evenodd"/><path stroke="#595959" stroke-width="3.0" stroke-linejoin="round" stroke-linecap="butt" d="m824.18054 189.15384l57.385803 0l0 57.38582l-57.385803 0z" fill-rule="evenodd"/><path fill="#0000ff" d="m853.1 221.55362q-0.25 3.375 -2.5 5.3125q-2.234375 1.921875 -5.890625 1.921875q-4.015625 0 -6.3125 -2.6875q-2.296875 -2.703125 -2.296875 -7.421875l0 -1.265625q0 -3.015625 1.046875 -5.296875q1.0625 -2.296875 3.03125 -3.515625q1.984375 -1.234375 4.578125 -1.234375q3.609375 0 5.8125 1.9375q2.21875 1.9375 2.5625 5.421875l-4.296875 0q-0.15625 -2.015625 -1.125 -2.921875q-0.96875 -0.90625 -2.953125 -0.90625q-2.140625 0 -3.21875 1.546875q-1.0625 1.53125 -1.09375 4.765625l0 1.578125q0 3.375 1.015625 4.9375q1.03125 1.5625 3.25 1.5625q1.984375 0 2.96875 -0.90625q0.984375 -0.921875 1.125 -2.828125l4.296875 0zm13.59552 -14.109375l0 3.40625l-0.390625 0q-2.8125 0.046875 -4.53125 1.46875q-1.703125 1.40625 -2.046875 3.921875q1.65625 -1.6875 4.1875 -1.6875q2.734375 0 4.328125 1.953125q1.609375 1.953125 1.609375 5.125q0 2.03125 -0.890625 3.6875q-0.875 1.640625 -2.484375 2.5625q-1.609375 0.90625 -3.640625 0.90625q-3.296875 0 -5.328125 -2.28125q-2.015625 -2.296875 -2.015625 -6.125l0 -1.484375q0 -3.390625 1.28125 -5.984375q1.28125 -2.609375 3.671875 -4.03125q2.40625 -1.421875 5.5625 -1.4375l0.6875 0zm-4.03125 10.4375q-1.0 0 -1.828125 0.53125q-0.8125 0.515625 -1.203125 1.375l0 1.265625q0 2.0625 0.8125 3.234375q0.828125 1.171875 2.296875 1.171875q1.34375 0 2.15625 -1.046875q0.828125 -1.0625 0.828125 -2.734375q0 -1.703125 -0.828125 -2.75q-0.828125 -1.046875 -2.234375 -1.046875z" fill-rule="nonzero"/><path fill="#eeeeee" d="m135.80077 189.15456l57.38582 0l0 57.385834l-57.38582 0z" fill-rule="evenodd"/><path stroke="#595959" stroke-width="3.0" stroke-linejoin="round" stroke-linecap="butt" d="m135.80077 189.15456l57.38582 0l0 57.385834l-57.38582 0z" fill-rule="evenodd"/><path fill="#000000" d="m148.58147 228.50746l0 -20.84375l7.3125 0q3.78125 0 5.75 1.453125q1.96875 1.453125 1.96875 4.25q0 1.53125 -0.796875 2.703125q-0.78125 1.171875 -2.1875 1.71875q1.609375 0.390625 2.53125 1.609375q0.921875 1.21875 0.921875 2.984375q0 3.0 -1.921875 4.546875q-1.921875 1.546875 -5.46875 1.578125l-8.109375 0zm4.296875 -9.078125l0 5.625l3.6875 0q1.515625 0 2.359375 -0.71875q0.859375 -0.71875 0.859375 -2.0q0 -2.859375 -2.96875 -2.90625l-3.9375 0zm0 -3.03125l3.1875 0q3.25 -0.0625 3.25 -2.59375q0 -1.421875 -0.828125 -2.046875q-0.828125 -0.625 -2.59375 -0.625l-3.015625 0l0 5.265625zm18.185486 -0.15625l2.203125 0q1.578125 0 2.328125 -0.78125q0.765625 -0.78125 0.765625 -2.09375q0 -1.25 -0.75 -1.953125q-0.75 -0.703125 -2.0625 -0.703125q-1.1875 0 -2.0 0.65625q-0.796875 0.640625 -0.796875 1.6875l-4.140625 0q0 -1.625 0.875 -2.921875q0.890625 -1.296875 2.46875 -2.03125q1.578125 -0.734375 3.484375 -0.734375q3.3125 0 5.1875 1.59375q1.875 1.578125 1.875 4.359375q0 1.421875 -0.875 2.625q-0.875 1.203125 -2.28125 1.84375q1.75 0.640625 2.609375 1.90625q0.875 1.25 0.875 2.96875q0 2.78125 -2.03125 4.453125q-2.015625 1.671875 -5.359375 1.671875q-3.109375 0 -5.09375 -1.640625q-1.984375 -1.640625 -1.984375 -4.359375l4.140625 0q0 1.171875 0.875 1.921875q0.875 0.75 2.171875 0.75q1.46875 0 2.296875 -0.78125q0.84375 -0.78125 0.84375 -2.078125q0 -3.109375 -3.4375 -3.109375l-2.1875 0l0 -3.25z" fill-rule="nonzero"/><path fill="#eeeeee" d="m307.89267 189.1542l57.385834 0l0 57.385834l-57.385834 0z" fill-rule="evenodd"/><path stroke="#595959" stroke-width="3.0" stroke-linejoin="round" stroke-linecap="butt" d="m307.89267 189.1542l57.385834 0l0 57.385834l-57.385834 0z" fill-rule="evenodd"/><path fill="#000000" d="m320.67337 228.50713l0 -20.84375l7.3125 0q3.78125 0 5.75 1.453125q1.96875 1.453125 1.96875 4.25q0 1.53125 -0.796875 2.703125q-0.78125 1.171875 -2.1875 1.71875q1.609375 0.390625 2.53125 1.609375q0.921875 1.21875 0.921875 2.984375q0 3.0 -1.921875 4.546875q-1.921875 1.546875 -5.46875 1.578125l-8.109375 0zm4.296875 -9.078125l0 5.625l3.6875 0q1.515625 0 2.359375 -0.71875q0.859375 -0.71875 0.859375 -2.0q0 -2.859375 -2.96875 -2.90625l-3.9375 0zm0 -3.03125l3.1875 0q3.25 -0.0625 3.25 -2.59375q0 -1.421875 -0.828125 -2.046875q-0.828125 -0.625 -2.59375 -0.625l-3.015625 0l0 5.265625zm25.20111 -8.953125l0 3.40625l-0.390625 0q-2.8125 0.046875 -4.53125 1.46875q-1.703125 1.40625 -2.046875 3.921875q1.65625 -1.6875 4.1875 -1.6875q2.734375 0 4.328125 1.953125q1.609375 1.953125 1.609375 5.125q0 2.03125 -0.890625 3.6875q-0.875 1.640625 -2.484375 2.5625q-1.609375 0.90625 -3.640625 0.90625q-3.296875 0 -5.328125 -2.28125q-2.015625 -2.296875 -2.015625 -6.125l0 -1.484375q0 -3.390625 1.28125 -5.984375q1.28125 -2.609375 3.671875 -4.03125q2.40625 -1.421875 5.5625 -1.4375l0.6875 0zm-4.03125 10.4375q-1.0 0 -1.828125 0.53125q-0.8125 0.515625 -1.203125 1.375l0 1.265625q0 2.0625 0.8125 3.234375q0.828125 1.171875 2.296875 1.171875q1.34375 0 2.15625 -1.046875q0.828125 -1.0625 0.828125 -2.734375q0 -1.703125 -0.828125 -2.75q-0.828125 -1.046875 -2.234375 -1.046875z" fill-rule="nonzero"/><path fill="#eeeeee" d="m479.98456 189.15451l57.385803 0l0 57.385834l-57.385803 0z" fill-rule="evenodd"/><path stroke="#595959" stroke-width="3.0" stroke-linejoin="round" stroke-linecap="butt" d="m479.98456 189.15451l57.385803 0l0 57.385834l-57.385803 0z" fill-rule="evenodd"/><path fill="#000000" d="m492.76526 228.50743l0 -20.84375l7.3125 0q3.78125 0 5.75 1.453125q1.96875 1.453125 1.96875 4.25q0 1.53125 -0.796875 2.703125q-0.78125 1.171875 -2.1875 1.71875q1.609375 0.390625 2.53125 1.609375q0.921875 1.21875 0.921875 2.984375q0 3.0 -1.921875 4.546875q-1.921875 1.546875 -5.46875 1.578125l-8.109375 0zm4.296875 -9.078125l0 5.625l3.6875 0q1.515625 0 2.359375 -0.71875q0.859375 -0.71875 0.859375 -2.0q0 -2.859375 -2.96875 -2.90625l-3.9375 0zm0 -3.03125l3.1875 0q3.25 -0.0625 3.25 -2.59375q0 -1.421875 -0.828125 -2.046875q-0.828125 -0.625 -2.59375 -0.625l-3.015625 0l0 5.265625zm23.654236 3.78125q-1.609375 1.578125 -3.78125 1.578125q-2.765625 0 -4.421875 -1.890625q-1.65625 -1.90625 -1.65625 -5.125q0 -2.046875 0.890625 -3.75q0.890625 -1.71875 2.5 -2.671875q1.609375 -0.953125 3.609375 -0.953125q2.0625 0 3.65625 1.03125q1.609375 1.03125 2.5 2.96875q0.890625 1.9375 0.90625 4.421875l0 1.53125q0 5.21875 -2.59375 8.203125q-2.59375 2.96875 -7.34375 3.171875l-1.015625 0.015625l0 -3.453125l0.90625 -0.015625q5.40625 -0.25 5.84375 -5.0625zm-2.765625 -1.578125q1.015625 0 1.734375 -0.515625q0.71875 -0.515625 1.09375 -1.25l0 -1.703125q0 -2.109375 -0.8125 -3.265625q-0.796875 -1.15625 -2.140625 -1.15625q-1.25 0 -2.046875 1.140625q-0.796875 1.140625 -0.796875 2.84375q0 1.71875 0.78125 2.8125q0.78125 1.09375 2.1875 1.09375z" fill-rule="nonzero"/><path fill="#eeeeee" d="m881.54156 189.15253l57.385864 0l0 57.38582l-57.385864 0z" fill-rule="evenodd"/><path stroke="#595959" stroke-width="3.0" stroke-linejoin="round" stroke-linecap="butt" d="m881.54156 189.15253l57.385864 0l0 57.38582l-57.385864 0z" fill-rule="evenodd"/><path fill="#0000ff" d="m910.461 221.5523q-0.25 3.375 -2.5 5.3125q-2.234375 1.921875 -5.890625 1.921875q-4.015625 0 -6.3125 -2.6875q-2.296875 -2.703125 -2.296875 -7.421875l0 -1.265625q0 -3.015625 1.046875 -5.296875q1.0625 -2.296875 3.03125 -3.515625q1.984375 -1.234375 4.578125 -1.234375q3.609375 0 5.8125 1.9375q2.21875 1.9375 2.5625 5.421875l-4.296875 0q-0.15625 -2.015625 -1.125 -2.921875q-0.96875 -0.90625 -2.953125 -0.90625q-2.140625 0 -3.21875 1.546875q-1.0625 1.53125 -1.09375 4.765625l0 1.578125q0 3.375 1.015625 4.9375q1.03125 1.5625 3.25 1.5625q1.984375 0 2.96875 -0.90625q0.984375 -0.921875 1.125 -2.828125l4.296875 0zm16.548645 -11.578125l-8.0625 18.53125l-4.359375 0l8.0625 -17.5l-10.359375 0l0 -3.34375l14.71875 0l0 2.3125z" fill-rule="nonzero"/><path fill="#eeeeee" d="m537.34814 189.15521l57.385864 0l0 57.385834l-57.385864 0z" fill-rule="evenodd"/><path stroke="#595959" stroke-width="3.0" stroke-linejoin="round" stroke-linecap="butt" d="m537.34814 189.15521l57.385864 0l0 57.385834l-57.385864 0z" fill-rule="evenodd"/><path fill="#0000ff" d="m566.2676 221.55501q-0.25 3.375 -2.5 5.3125q-2.234375 1.921875 -5.890625 1.921875q-4.015625 0 -6.3125 -2.6875q-2.296875 -2.703125 -2.296875 -7.421875l0 -1.265625q0 -3.015625 1.046875 -5.296875q1.0625 -2.296875 3.03125 -3.515625q1.984375 -1.234375 4.578125 -1.234375q3.609375 0 5.8125 1.9375q2.21875 1.9375 2.5625 5.421875l-4.296875 0q-0.15625 -2.015625 -1.125 -2.921875q-0.96875 -0.90625 -2.953125 -0.90625q-2.140625 0 -3.21875 1.546875q-1.0625 1.53125 -1.09375 4.765625l0 1.578125q0 3.375 1.015625 4.9375q1.03125 1.5625 3.25 1.5625q1.984375 0 2.96875 -0.90625q0.984375 -0.921875 1.125 -2.828125l4.296875 0zm12.423706 6.953125l-4.140625 0l0 -15.953125l-4.9375 1.53125l0 -3.359375l8.640625 -3.09375l0.4375 0l0 20.875z" fill-rule="nonzero"/><path fill="#eeeeee" d="m594.7122 189.15346l57.385864 0l0 57.385834l-57.385864 0z" fill-rule="evenodd"/><path stroke="#595959" stroke-width="3.0" stroke-linejoin="round" stroke-linecap="butt" d="m594.7122 189.15346l57.385864 0l0 57.385834l-57.385864 0z" fill-rule="evenodd"/><path fill="#0000ff" d="m623.63165 221.55325q-0.25 3.375 -2.5 5.3125q-2.234375 1.921875 -5.890625 1.921875q-4.015625 0 -6.3125 -2.6875q-2.296875 -2.703125 -2.296875 -7.421875l0 -1.265625q0 -3.015625 1.046875 -5.296875q1.0625 -2.296875 3.03125 -3.515625q1.984375 -1.234375 4.578125 -1.234375q3.609375 0 5.8125 1.9375q2.21875 1.9375 2.5625 5.421875l-4.296875 0q-0.15625 -2.015625 -1.125 -2.921875q-0.96875 -0.90625 -2.953125 -0.90625q-2.140625 0 -3.21875 1.546875q-1.0625 1.53125 -1.09375 4.765625l0 1.578125q0 3.375 1.015625 4.9375q1.03125 1.5625 3.25 1.5625q1.984375 0 2.96875 -0.90625q0.984375 -0.921875 1.125 -2.828125l4.296875 0zm16.658081 6.953125l-14.28125 0l0 -2.828125l6.734375 -7.203125q1.390625 -1.515625 2.0625 -2.640625q0.671875 -1.140625 0.671875 -2.15625q0 -1.375 -0.703125 -2.171875q-0.703125 -0.796875 -2.015625 -0.796875q-1.390625 0 -2.203125 0.96875q-0.8125 0.96875 -0.8125 2.53125l-4.15625 0q0 -1.90625 0.90625 -3.46875q0.921875 -1.578125 2.578125 -2.46875q1.65625 -0.90625 3.765625 -0.90625q3.21875 0 5.0 1.546875q1.78125 1.546875 1.78125 4.375q0 1.546875 -0.796875 3.15625q-0.796875 1.59375 -2.75 3.734375l-4.734375 4.984375l8.953125 0l0 3.34375z" fill-rule="nonzero"/><path fill="#eeeeee" d="m652.0761 189.15503l57.385864 0l0 57.38582l-57.385864 0z" fill-rule="evenodd"/><path stroke="#595959" stroke-width="3.0" stroke-linejoin="round" stroke-linecap="butt" d="m652.0761 189.15503l57.385864 0l0 57.38582l-57.385864 0z" fill-rule="evenodd"/><path fill="#0000ff" d="m680.99554 221.55481q-0.25 3.375 -2.5 5.3125q-2.234375 1.921875 -5.890625 1.921875q-4.015625 0 -6.3125 -2.6875q-2.296875 -2.703125 -2.296875 -7.421875l0 -1.265625q0 -3.015625 1.046875 -5.296875q1.0625 -2.296875 3.03125 -3.515625q1.984375 -1.234375 4.578125 -1.234375q3.609375 0 5.8125 1.9375q2.21875 1.9375 2.5625 5.421875l-4.296875 0q-0.15625 -2.015625 -1.125 -2.921875q-0.96875 -0.90625 -2.953125 -0.90625q-2.140625 0 -3.21875 1.546875q-1.0625 1.53125 -1.09375 4.765625l0 1.578125q0 3.375 1.015625 4.9375q1.03125 1.5625 3.25 1.5625q1.984375 0 2.96875 -0.90625q0.984375 -0.921875 1.125 -2.828125l4.296875 0zm6.579956 -5.3125l2.203125 0q1.578125 0 2.328125 -0.78125q0.765625 -0.78125 0.765625 -2.09375q0 -1.25 -0.75 -1.953125q-0.75 -0.703125 -2.0625 -0.703125q-1.1875 0 -2.0 0.65625q-0.796875 0.640625 -0.796875 1.6875l-4.140625 0q0 -1.625 0.875 -2.921875q0.890625 -1.296875 2.46875 -2.03125q1.578125 -0.734375 3.484375 -0.734375q3.3125 0 5.1875 1.59375q1.875 1.578125 1.875 4.359375q0 1.421875 -0.875 2.625q-0.875 1.203125 -2.28125 1.84375q1.75 0.640625 2.609375 1.90625q0.875 1.25 0.875 2.96875q0 2.78125 -2.03125 4.453125q-2.015625 1.671875 -5.359375 1.671875q-3.109375 0 -5.09375 -1.640625q-1.984375 -1.640625 -1.984375 -4.359375l4.140625 0q0 1.171875 0.875 1.921875q0.875 0.75 2.171875 0.75q1.46875 0 2.296875 -0.78125q0.84375 -0.78125 0.84375 -2.078125q0 -3.109375 -3.4375 -3.109375l-2.1875 0l0 -3.25z" fill-rule="nonzero"/><path fill="#000000" fill-opacity="0.0" d="m126.468 290.11548l305.51178 0l0 56.566925l-305.51178 0z" fill-rule="evenodd"/><path fill="#000000" d="m189.25627 328.55548l-4.5 0l-8.734375 -14.34375l0 14.34375l-4.484375 0l0 -21.796875l4.484375 0l8.75 14.375l0 -14.375l4.484375 0l0 21.796875zm13.019989 0q-0.296875 -0.578125 -0.4375 -1.453125q-1.5625 1.75 -4.078125 1.75q-2.390625 0 -3.953125 -1.375q-1.5625 -1.375 -1.5625 -3.46875q0 -2.578125 1.90625 -3.953125q1.90625 -1.375 5.515625 -1.390625l2.0 0l0 -0.9375q0 -1.109375 -0.578125 -1.78125q-0.578125 -0.6875 -1.828125 -0.6875q-1.078125 0 -1.703125 0.53125q-0.625 0.515625 -0.625 1.4375l-4.328125 0q0 -1.40625 0.859375 -2.609375q0.875 -1.203125 2.453125 -1.875q1.59375 -0.6875 3.578125 -0.6875q2.984375 0 4.75 1.515625q1.765625 1.5 1.765625 4.21875l0 7.015625q0.015625 2.3125 0.640625 3.5l0 0.25l-4.375 0zm-3.578125 -3.015625q0.953125 0 1.765625 -0.421875q0.8125 -0.421875 1.203125 -1.140625l0 -2.78125l-1.625 0q-3.25 0 -3.453125 2.234375l-0.015625 0.265625q0 0.796875 0.5625 1.328125q0.578125 0.515625 1.5625 0.515625zm17.357697 -0.171875q1.203125 0 1.953125 -0.65625q0.75 -0.65625 0.78125 -1.75l4.046875 0q-0.015625 1.640625 -0.90625 3.015625q-0.875 1.359375 -2.40625 2.125q-1.53125 0.75 -3.390625 0.75q-3.46875 0 -5.484375 -2.203125q-2.0 -2.203125 -2.0 -6.109375l0 -0.28125q0 -3.734375 1.984375 -5.96875q2.0 -2.234375 5.46875 -2.234375q3.046875 0 4.875 1.734375q1.84375 1.734375 1.859375 4.609375l-4.046875 0q-0.03125 -1.265625 -0.78125 -2.046875q-0.75 -0.796875 -1.96875 -0.796875q-1.515625 0 -2.296875 1.109375q-0.765625 1.09375 -0.765625 3.5625l0 0.453125q0 2.5 0.765625 3.59375q0.765625 1.09375 2.3125 1.09375zm13.47113 -11.25q1.734375 -2.0625 4.328125 -2.0625q5.28125 0 5.34375 6.125l0 10.375l-4.3125 0l0 -10.25q0 -1.390625 -0.609375 -2.0625q-0.59375 -0.671875 -1.984375 -0.671875q-1.90625 0 -2.765625 1.46875l0 11.515625l-4.3125 0l0 -23.0l4.3125 0l0 8.5625zm22.044952 2.296875q-0.890625 -0.125 -1.5625 -0.125q-2.453125 0 -3.21875 1.671875l0 10.59375l-4.328125 0l0 -16.203125l4.09375 0l0.125 1.9375q1.296875 -2.234375 3.59375 -2.234375q0.71875 0 1.359375 0.203125l-0.0625 4.15625zm6.6504974 12.140625l-4.34375 0l0 -16.203125l4.34375 0l0 16.203125zm-4.609375 -20.390625q0 -0.96875 0.65625 -1.59375q0.65626526 -0.640625 1.78125 -0.640625q1.109375 0 1.765625 0.640625q0.65625 0.625 0.65625 1.59375q0 0.984375 -0.671875 1.625q-0.65625 0.625 -1.75 0.625q-1.0937347 0 -1.765625 -0.625q-0.671875 -0.640625 -0.671875 -1.625zm14.893707 17.203125q1.203125 0 1.953125 -0.65625q0.75 -0.65625 0.78125 -1.75l4.046875 0q-0.015625 1.640625 -0.90625 3.015625q-0.875 1.359375 -2.40625 2.125q-1.53125 0.75 -3.390625 0.75q-3.46875 0 -5.484375 -2.203125q-2.0 -2.203125 -2.0 -6.109375l0 -0.28125q0 -3.734375 1.984375 -5.96875q2.0 -2.234375 5.46875 -2.234375q3.046875 0 4.875 1.734375q1.84375 1.734375 1.859375 4.609375l-4.046875 0q-0.03125 -1.265625 -0.78125 -2.046875q-0.75 -0.796875 -1.96875 -0.796875q-1.515625 0 -2.296875 1.109375q-0.765625 1.09375 -0.765625 3.5625l0 0.453125q0 2.5 0.765625 3.59375q0.765625 1.09375 2.3125 1.09375zm13.47113 -11.25q1.734375 -2.0625 4.328125 -2.0625q5.28125 0 5.34375 6.125l0 10.375l-4.3125 0l0 -10.25q0 -1.390625 -0.609375 -2.0625q-0.59375 -0.671875 -1.984375 -0.671875q-1.90625 0 -2.765625 1.46875l0 11.515625l-4.3125 0l0 -23.0l4.3125 0l0 8.5625zm18.123077 -5.734375l0 3.96875l2.765625 0l0 3.1875l-2.765625 0l0 8.078125q0 0.890625 0.34375 1.28125q0.34375 0.390625 1.3125 0.390625q0.71875 0 1.28125 -0.109375l0 3.28125q-1.28125 0.390625 -2.625 0.390625q-4.546875 0 -4.640625 -4.59375l0 -8.71875l-2.359375 0l0 -3.1875l2.359375 0l0 -3.96875l4.328125 0zm12.624084 20.46875q-3.5625 0 -5.796875 -2.1875q-2.234375 -2.1875 -2.234375 -5.8125l0 -0.421875q0 -2.4375 0.9375 -4.359375q0.953125 -1.9375 2.671875 -2.96875q1.734375 -1.046875 3.953125 -1.046875q3.3125 0 5.21875 2.109375q1.921875 2.09375 1.921875 5.9375l0 1.765625l-10.3125 0q0.203125 1.578125 1.25 2.546875q1.0625 0.953125 2.6875 0.953125q2.5 0 3.90625 -1.8125l2.125 2.375q-0.984375 1.375 -2.640625 2.15625q-1.65625 0.765625 -3.6875 0.765625zm-0.484375 -13.296875q-1.296875 0 -2.09375 0.875q-0.796875 0.875 -1.015625 2.484375l6.015625 0l0 -0.34375q-0.03125 -1.4375 -0.78125 -2.21875q-0.75 -0.796875 -2.125 -0.796875zm13.586182 -3.203125l0.140625 1.875q1.734375 -2.171875 4.65625 -2.171875q2.578125 0 3.828125 1.515625q1.25 1.515625 1.28125 4.515625l0 10.46875l-4.3125 0l0 -10.359375q0 -1.375 -0.609375 -2.0q-0.59375 -0.625 -1.984375 -0.625q-1.828125 0 -2.75 1.5625l0 11.421875l-4.3125 0l0 -16.203125l4.0625 0zm27.778656 8.25q0 3.890625 -1.65625 6.078125q-1.65625 2.171875 -4.640625 2.171875q-2.640625 0 -4.203125 -2.015625l-0.203125 1.71875l-3.890625 0l0 -23.0l4.328125 0l0 8.25q1.5 -1.75 3.9375 -1.75q2.96875 0 4.640625 2.1875q1.6875 2.171875 1.6875 6.125l0 0.234375zm-4.3125 -0.3125q0 -2.453125 -0.78125 -3.578125q-0.78125 -1.140625 -2.328125 -1.140625q-2.0625 0 -2.84375 1.703125l0 6.390625q0.796875 1.703125 2.875 1.703125q2.09375 0 2.75 -2.0625q0.328125 -0.984375 0.328125 -3.015625zm11.556 8.265625l-4.34375 0l0 -16.203125l4.34375 0l0 16.203125zm-4.609375 -20.390625q0 -0.96875 0.65625 -1.59375q0.65625 -0.640625 1.78125 -0.640625q1.109375 0 1.765625 0.640625q0.65625 0.625 0.65625 1.59375q0 0.984375 -0.671875 1.625q-0.65625 0.625 -1.75 0.625q-1.09375 0 -1.765625 -0.625q-0.671875 -0.640625 -0.671875 -1.625zm13.346832 0.21875l0 3.96875l2.765625 0l0 3.1875l-2.765625 0l0 8.078125q0 0.890625 0.34375 1.28125q0.34375 0.390625 1.3125 0.390625q0.71875 0 1.28125 -0.109375l0 3.28125q-1.28125 0.390625 -2.625 0.390625q-4.546875 0 -4.640625 -4.59375l0 -8.71875l-2.359375 0l0 -3.1875l2.359375 0l0 -3.96875l4.328125 0zm13.952209 15.703125q0 -0.796875 -0.796875 -1.25q-0.78125 -0.46875 -2.515625 -0.828125q-5.78125 -1.203125 -5.78125 -4.90625q0 -2.15625 1.78125 -3.59375q1.796875 -1.453125 4.6875 -1.453125q3.078125 0 4.921875 1.453125q1.859375 1.453125 1.859375 3.78125l-4.328125 0q0 -0.9375 -0.59375 -1.53125q-0.59375 -0.609375 -1.875 -0.609375q-1.09375 0 -1.6875 0.5q-0.59375 0.484375 -0.59375 1.25q0 0.71875 0.671875 1.15625q0.6875 0.4375 2.296875 0.765625q1.625 0.3125 2.734375 0.71875q3.421875 1.265625 3.421875 4.359375q0 2.21875 -1.90625 3.59375q-1.890625 1.359375 -4.90625 1.359375q-2.03125 0 -3.609375 -0.71875q-1.578125 -0.734375 -2.484375 -2.0q-0.890625 -1.265625 -0.890625 -2.734375l4.09375 0q0.0625 1.15625 0.859375 1.78125q0.796875 0.609375 2.125 0.609375q1.234375 0 1.875 -0.46875q0.640625 -0.484375 0.640625 -1.234375z" fill-rule="nonzero"/><path fill="#000000" fill-opacity="0.0" d="m647.31366 294.27954l188.91339 0l0 56.566925l-188.91339 0z" fill-rule="evenodd"/><path fill="#0000ff" d="m670.70715 323.98514l-2.328125 2.5l0 6.234375l-4.484375 0l0 -21.796875l4.484375 0l0 9.875l1.96875 -2.703125l5.5625 -7.171875l5.515625 0l-7.734375 9.6875l7.96875 12.109375l-5.34375 0l-5.609375 -8.734375zm11.273987 0.484375q0 -2.40625 0.921875 -4.296875q0.9375 -1.890625 2.671875 -2.921875q1.75 -1.03125 4.0625 -1.03125q3.28125 0 5.34375 2.015625q2.078125 2.0 2.3125 5.4375l0.03125 1.109375q0 3.734375 -2.078125 5.984375q-2.078125 2.25 -5.578125 2.25q-3.5 0 -5.59375 -2.234375q-2.09375 -2.25 -2.09375 -6.109375l0 -0.203125zm4.328125 0.3125q0 2.3125 0.859375 3.53125q0.875 1.21875 2.5 1.21875q1.5625 0 2.4375 -1.203125q0.890625 -1.203125 0.890625 -3.859375q0 -2.265625 -0.890625 -3.5q-0.875 -1.25 -2.46875 -1.25q-1.59375 0 -2.46875 1.25q-0.859375 1.234375 -0.859375 3.8125zm17.662048 -8.265625l0.140625 1.875q1.734375 -2.171875 4.65625 -2.171875q2.578125 0 3.828125 1.515625q1.25 1.515625 1.28125 4.515625l0 10.46875l-4.3125 0l0 -10.359375q0 -1.375 -0.609375 -2.0q-0.59375 -0.625 -1.984375 -0.625q-1.828125 0 -2.75 1.5625l0 11.421875l-4.3125 0l0 -16.203125l4.0625 0zm18.372437 -3.96875l0 3.96875l2.765625 0l0 3.1875l-2.765625 0l0 8.078125q0 0.890625 0.34375 1.28125q0.34375 0.390625 1.3125 0.390625q0.71875 0 1.28125 -0.109375l0 3.28125q-1.28125 0.390625 -2.625 0.390625q-4.546875 0 -4.640625 -4.59375l0 -8.71875l-2.359375 0l0 -3.1875l2.359375 0l0 -3.96875l4.328125 0zm14.280334 8.03125q-0.890625 -0.125 -1.5625 -0.125q-2.453125 0 -3.21875 1.671875l0 10.59375l-4.328125 0l0 -16.203125l4.09375 0l0.125 1.9375q1.296875 -2.234375 3.59375 -2.234375q0.71875 0 1.359375 0.203125l-0.0625 4.15625zm0.8614502 3.890625q0 -2.40625 0.921875 -4.296875q0.9375 -1.890625 2.671875 -2.921875q1.75 -1.03125 4.0625 -1.03125q3.28125 0 5.34375 2.015625q2.078125 2.0 2.3125 5.4375l0.03125 1.109375q0 3.734375 -2.078125 5.984375q-2.078125 2.25 -5.578125 2.25q-3.5 0 -5.59375 -2.234375q-2.09375 -2.25 -2.09375 -6.109375l0 -0.203125zm4.328125 0.3125q0 2.3125 0.859375 3.53125q0.875 1.21875 2.5 1.21875q1.5625 0 2.4375 -1.203125q0.890625 -1.203125 0.890625 -3.859375q0 -2.265625 -0.890625 -3.5q-0.875 -1.25 -2.46875 -1.25q-1.59375 0 -2.46875 1.25q-0.859375 1.234375 -0.859375 3.8125zm18.255798 7.9375l-4.34375 0l0 -23.0l4.34375 0l0 23.0zm8.128113 0l-4.34375 0l0 -23.0l4.34375 0l0 23.0zm18.143738 -7.953125q0 3.890625 -1.65625 6.078125q-1.65625 2.171875 -4.640625 2.171875q-2.640625 0 -4.203125 -2.015625l-0.203125 1.71875l-3.890625 0l0 -23.0l4.328125 0l0 8.25q1.5 -1.75 3.9375 -1.75q2.96875 0 4.640625 2.1875q1.6875 2.171875 1.6875 6.125l0 0.234375zm-4.3125 -0.3125q0 -2.453125 -0.78125 -3.578125q-0.78125 -1.140625 -2.328125 -1.140625q-2.0625 0 -2.84375 1.703125l0 6.390625q0.796875 1.703125 2.875 1.703125q2.09375 0 2.75 -2.0625q0.328125 -0.984375 0.328125 -3.015625zm11.555969 8.265625l-4.34375 0l0 -16.203125l4.34375 0l0 16.203125zm-4.609375 -20.390625q0 -0.96875 0.65625 -1.59375q0.65625 -0.640625 1.78125 -0.640625q1.109375 0 1.765625 0.640625q0.65625 0.625 0.65625 1.59375q0 0.984375 -0.671875 1.625q-0.65625 0.625 -1.75 0.625q-1.09375 0 -1.765625 -0.625q-0.671875 -0.640625 -0.671875 -1.625zm13.346863 0.21875l0 3.96875l2.765625 0l0 3.1875l-2.765625 0l0 8.078125q0 0.890625 0.34375 1.28125q0.34375 0.390625 1.3125 0.390625q0.71875 0 1.28125 -0.109375l0 3.28125q-1.28125 0.390625 -2.625 0.390625q-4.546875 0 -4.640625 -4.59375l0 -8.71875l-2.359375 0l0 -3.1875l2.359375 0l0 -3.96875l4.328125 0zm13.952209 15.703125q0 -0.796875 -0.796875 -1.25q-0.78125 -0.46875 -2.515625 -0.828125q-5.78125 -1.203125 -5.78125 -4.90625q0 -2.15625 1.78125 -3.59375q1.796875 -1.453125 4.6875 -1.453125q3.078125 0 4.921875 1.453125q1.859375 1.453125 1.859375 3.78125l-4.328125 0q0 -0.9375 -0.59375 -1.53125q-0.59375 -0.609375 -1.875 -0.609375q-1.09375 0 -1.6875 0.5q-0.59375 0.484375 -0.59375 1.25q0 0.71875 0.671875 1.15625q0.6875 0.4375 2.296875 0.765625q1.625 0.3125 2.734375 0.71875q3.421875 1.265625 3.421875 4.359375q0 2.21875 -1.90625 3.59375q-1.890625 1.359375 -4.90625 1.359375q-2.03125 0 -3.609375 -0.71875q-1.578125 -0.734375 -2.484375 -2.0q-0.890625 -1.265625 -0.890625 -2.734375l4.09375 0q0.0625 1.15625 0.859375 1.78125q0.796875 0.609375 2.125 0.609375q1.234375 0 1.875 -0.46875q0.640625 -0.484375 0.640625 -1.234375z" fill-rule="nonzero"/><path fill="#000000" fill-opacity="0.0" d="m25.24147 268.3281l506.36224 0" fill-rule="evenodd"/><path stroke="#595959" stroke-width="3.0" stroke-linejoin="round" stroke-linecap="butt" d="m25.24147 268.3281l506.36224 0" fill-rule="evenodd"/><path fill="#000000" fill-opacity="0.0" d="m549.8819 268.3281l384.0315 0" fill-rule="evenodd"/><path stroke="#0000ff" stroke-width="3.0" stroke-linejoin="round" stroke-linecap="butt" d="m549.8819 268.3281l384.0315 0" fill-rule="evenodd"/><path fill="#000000" fill-opacity="0.0" d="m25.24147 255.3517l0 14.519699" fill-rule="evenodd"/><path stroke="#595959" stroke-width="3.0" stroke-linejoin="round" stroke-linecap="butt" d="m25.24147 255.3517l0 14.519699" fill-rule="evenodd"/><path fill="#000000" fill-opacity="0.0" d="m531.6037 255.3517l0 14.519699" fill-rule="evenodd"/><path stroke="#595959" stroke-width="3.0" stroke-linejoin="round" stroke-linecap="butt" d="m531.6037 255.3517l0 14.519699" fill-rule="evenodd"/><path fill="#000000" fill-opacity="0.0" d="m279.22308 268.3281l0 25.952759" fill-rule="evenodd"/><path stroke="#595959" stroke-width="3.0" stroke-linejoin="round" stroke-linecap="butt" d="m279.22308 268.3281l0 25.952759" fill-rule="evenodd"/><path fill="#000000" fill-opacity="0.0" d="m741.89764 268.3281l0 25.952759" fill-rule="evenodd"/><path stroke="#4285f4" stroke-width="3.0" stroke-linejoin="round" stroke-linecap="butt" d="m741.89764 268.3281l0 25.952759" fill-rule="evenodd"/><path fill="#000000" fill-opacity="0.0" d="m549.8819 255.3517l0 14.519699" fill-rule="evenodd"/><path stroke="#0000ff" stroke-width="3.0" stroke-linejoin="round" stroke-linecap="butt" d="m549.8819 255.3517l0 14.519699" fill-rule="evenodd"/><path fill="#000000" fill-opacity="0.0" d="m933.9134 255.3517l0 14.519699" fill-rule="evenodd"/><path stroke="#0000ff" stroke-width="3.0" stroke-linejoin="round" stroke-linecap="butt" d="m933.9134 255.3517l0 14.519699" fill-rule="evenodd"/></g></svg>