<svg version="1.1" viewBox="0.0 0.0 960.0 540.0" fill="none" stroke="none" stroke-linecap="square" stroke-miterlimit="10" xmlns:xlink="http://www.w3.org/1999/xlink" xmlns="http://www.w3.org/2000/svg"><clipPath id="g11f249283fe_0_92.0"><path d="m0 0l960.0 0l0 540.0l-960.0 0l0 -540.0z" clip-rule="nonzero"/></clipPath><g clip-path="url(#g11f249283fe_0_92.0)"><path fill="#ffffff" d="m0 0l960.0 0l0 540.0l-960.0 0z" fill-rule="evenodd"/><path fill="#eeeeee" d="m720.81116 55.828022l53.543274 0l0 53.54331l-53.543274 0z" fill-rule="evenodd"/><path stroke="#595959" stroke-width="3.0" stroke-linejoin="round" stroke-linecap="butt" d="m720.81116 55.828022l53.543274 0l0 53.54331l-53.543274 0z" fill-rule="evenodd"/><path fill="#0000ff" d="m747.778 85.88717q-0.21875 3.0625 -2.25 4.828125q-2.03125 1.75 -5.375 1.75q-3.640625 0 -5.734375 -2.453125q-2.078125 -2.453125 -2.078125 -6.734375l0 -1.171875q0 -2.734375 0.953125 -4.8125q0.96875 -2.078125 2.75 -3.1875q1.796875 -1.125 4.171875 -1.125q3.28125 0 5.28125 1.765625q2.0 1.75 2.3125 4.9375l-3.90625 0q-0.140625 -1.84375 -1.015625 -2.671875q-0.875 -0.828125 -2.671875 -0.828125q-1.953125 0 -2.921875 1.40625q-0.96875 1.390625 -1.0 4.34375l0 1.421875q0 3.078125 0.921875 4.5q0.9375 1.421875 2.9375 1.421875q1.8125 0 2.703125 -0.828125q0.890625 -0.828125 1.03125 -2.5625l3.890625 0zm13.300476 -0.8125l2.140625 0l0 3.03125l-2.140625 0l0 4.09375l-3.765625 0l0 -4.09375l-7.765625 0l-0.171875 -2.375l7.890625 -12.484375l3.8125 0l0 11.828125zm-7.953125 0l4.1875 0l0 -6.703125l-0.25 0.4375l-3.9375 6.265625z" fill-rule="nonzero"/><path fill="#eeeeee" d="m78.59455 55.828075l53.543297 0l0 53.54331l-53.543297 0z" fill-rule="evenodd"/><path stroke="#595959" stroke-width="3.0" stroke-linejoin="round" stroke-linecap="butt" d="m78.59455 55.828075l53.543297 0l0 53.54331l-53.543297 0z" fill-rule="evenodd"/><path fill="#000000" d="m90.90116 92.19972l0 -18.953125l6.640625 0q3.453125 0 5.234375 1.328125q1.78125 1.3125 1.78125 3.875q0 1.390625 -0.71875 2.453125q-0.71875 1.046875 -1.984375 1.546875q1.453125 0.359375 2.296875 1.46875q0.84375 1.109375 0.84375 2.703125q0 2.734375 -1.75 4.140625q-1.75 1.40625 -4.96875 1.4375l-7.375 0zm3.90625 -8.25l0 5.109375l3.34375 0q1.390625 0 2.15625 -0.65625q0.78125 -0.65625 0.78125 -1.8125q0 -2.609375 -2.703125 -2.640625l-3.578125 0zm0 -2.765625l2.890625 0q2.953125 -0.046875 2.953125 -2.34375q0 -1.296875 -0.75 -1.859375q-0.75 -0.5625 -2.359375 -0.5625l-2.734375 0l0 4.765625zm21.839706 11.015625l-3.75 0l0 -14.5l-4.5 1.390625l0 -3.0625l7.84375 -2.8125l0.40625 0l0 18.984375z" fill-rule="nonzero"/><path fill="#eeeeee" d="m239.14903 55.828365l53.54332 0l0 53.54331l-53.54332 0z" fill-rule="evenodd"/><path stroke="#595959" stroke-width="3.0" stroke-linejoin="round" stroke-linecap="butt" d="m239.14903 55.828365l53.54332 0l0 53.54331l-53.54332 0z" fill-rule="evenodd"/><path fill="#000000" d="m251.45564 92.20001l0 -18.953125l6.6406403 0q3.453125 0 5.234375 1.328125q1.78125 1.3125 1.78125 3.875q0 1.390625 -0.71875 2.453125q-0.71875 1.046875 -1.984375 1.546875q1.453125 0.359375 2.296875 1.46875q0.84375 1.109375 0.84375 2.703125q0 2.734375 -1.75 4.140625q-1.75 1.40625 -4.96875 1.4375l-7.3750153 0zm3.90625 -8.25l0 5.109375l3.3437653 0q1.390625 0 2.15625 -0.65625q0.78125 -0.65625 0.78125 -1.8125q0 -2.609375 -2.703125 -2.640625l-3.5781403 0zm0 -2.765625l2.8906403 0q2.953125 -0.046875 2.953125 -2.34375q0 -1.296875 -0.75 -1.859375q-0.75 -0.5625 -2.359375 -0.5625l-2.7343903 0l0 4.765625zm23.839706 3.890625l2.140625 0l0 3.03125l-2.140625 0l0 4.09375l-3.765625 0l0 -4.09375l-7.765625 0l-0.171875 -2.375l7.890625 -12.484375l3.8125 0l0 11.828125zm-7.953125 0l4.1875 0l0 -6.703125l-0.25 0.4375l-3.9375 6.265625z" fill-rule="nonzero"/><path fill="#eeeeee" d="m399.70352 55.828037l53.543304 0l0 53.54331l-53.543304 0z" fill-rule="evenodd"/><path stroke="#595959" stroke-width="3.0" stroke-linejoin="round" stroke-linecap="butt" d="m399.70352 55.828037l53.543304 0l0 53.54331l-53.543304 0z" fill-rule="evenodd"/><path fill="#000000" d="m412.01013 92.19969l0 -18.953125l6.640625 0q3.453125 0 5.234375 1.328125q1.78125 1.3125 1.78125 3.875q0 1.390625 -0.71875 2.453125q-0.71875 1.046875 -1.984375 1.546875q1.453125 0.359375 2.296875 1.46875q0.84375 1.109375 0.84375 2.703125q0 2.734375 -1.75 4.140625q-1.75 1.40625 -4.96875 1.4375l-7.375 0zm3.90625 -8.25l0 5.109375l3.34375 0q1.390625 0 2.15625 -0.65625q0.78125 -0.65625 0.78125 -1.8125q0 -2.609375 -2.703125 -2.640625l-3.578125 0zm0 -2.765625l2.890625 0q2.953125 -0.046875 2.953125 -2.34375q0 -1.296875 -0.75 -1.859375q-0.75 -0.5625 -2.359375 -0.5625l-2.734375 0l0 4.765625zm25.589722 -5.828125l-7.328125 16.84375l-3.96875 0l7.34375 -15.90625l-9.421875 0l0 -3.046875l13.375 0l0 2.109375z" fill-rule="nonzero"/><path fill="#eeeeee" d="m774.33594 55.828022l53.543335 0l0 53.54331l-53.543335 0z" fill-rule="evenodd"/><path stroke="#595959" stroke-width="3.0" stroke-linejoin="round" stroke-linecap="butt" d="m774.33594 55.828022l53.543335 0l0 53.54331l-53.543335 0z" fill-rule="evenodd"/><path fill="#0000ff" d="m801.3028 85.88717q-0.21875 3.0625 -2.25 4.828125q-2.03125 1.75 -5.375 1.75q-3.640625 0 -5.734375 -2.453125q-2.078125 -2.453125 -2.078125 -6.734375l0 -1.171875q0 -2.734375 0.953125 -4.8125q0.96875 -2.078125 2.75 -3.1875q1.796875 -1.125 4.171875 -1.125q3.28125 0 5.28125 1.765625q2.0 1.75 2.3125 4.9375l-3.90625 0q-0.140625 -1.84375 -1.015625 -2.671875q-0.875 -0.828125 -2.671875 -0.828125q-1.953125 0 -2.921875 1.40625q-0.96875 1.390625 -1.0 4.34375l0 1.421875q0 3.078125 0.921875 4.5q0.9375 1.421875 2.9375 1.421875q1.8125 0 2.703125 -0.828125q0.890625 -0.828125 1.03125 -2.5625l3.890625 0zm2.722351 -3.0l1.09375 -9.640625l10.625 0l0 3.140625l-7.53125 0l-0.46875 4.078125q1.328125 -0.71875 2.84375 -0.71875q2.703125 0 4.234375 1.6875q1.546875 1.671875 1.546875 4.6875q0 1.828125 -0.78125 3.28125q-0.765625 1.453125 -2.21875 2.265625q-1.4375 0.796875 -3.40625 0.796875q-1.71875 0 -3.1875 -0.6875q-1.46875 -0.703125 -2.328125 -1.96875q-0.84375 -1.265625 -0.90625 -2.875l3.734375 0q0.109375 1.171875 0.8125 1.84375q0.71875 0.65625 1.859375 0.65625q1.28125 0 1.96875 -0.921875q0.6875 -0.921875 0.6875 -2.59375q0 -1.625 -0.796875 -2.484375q-0.78125 -0.859375 -2.25 -0.859375q-1.328125 0 -2.171875 0.703125l-0.359375 0.34375l-3.0 -0.734375z" fill-rule="nonzero"/><path fill="#eeeeee" d="m132.11362 55.828075l53.543304 0l0 53.54331l-53.543304 0z" fill-rule="evenodd"/><path stroke="#595959" stroke-width="3.0" stroke-linejoin="round" stroke-linecap="butt" d="m132.11362 55.828075l53.543304 0l0 53.54331l-53.543304 0z" fill-rule="evenodd"/><path fill="#000000" d="m144.42023 92.19972l0 -18.953125l6.640625 0q3.453125 0 5.234375 1.328125q1.78125 1.3125 1.78125 3.875q0 1.390625 -0.71875 2.453125q-0.71875 1.046875 -1.984375 1.546875q1.453125 0.359375 2.296875 1.46875q0.84375 1.109375 0.84375 2.703125q0 2.734375 -1.75 4.140625q-1.75 1.40625 -4.96875 1.4375l-7.375 0zm3.90625 -8.25l0 5.109375l3.34375 0q1.390625 0 2.15625 -0.65625q0.78125 -0.65625 0.78125 -1.8125q0 -2.609375 -2.703125 -2.640625l-3.578125 0zm0 -2.765625l2.890625 0q2.953125 -0.046875 2.953125 -2.34375q0 -1.296875 -0.75 -1.859375q-0.75 -0.5625 -2.359375 -0.5625l-2.734375 0l0 4.765625zm25.699081 11.015625l-13.0 0l0 -2.578125l6.140625 -6.53125q1.265625 -1.375 1.859375 -2.40625q0.609375 -1.03125 0.609375 -1.953125q0 -1.265625 -0.640625 -1.984375q-0.640625 -0.71875 -1.8125 -0.71875q-1.28125 0 -2.015625 0.875q-0.734375 0.875 -0.734375 2.3125l-3.78125 0q0 -1.734375 0.828125 -3.15625q0.828125 -1.4375 2.328125 -2.25q1.515625 -0.828125 3.4375 -0.828125q2.921875 0 4.546875 1.40625q1.625 1.40625 1.625 3.984375q0 1.390625 -0.734375 2.859375q-0.734375 1.453125 -2.5 3.390625l-4.3125 4.546875l8.15625 0l0 3.03125z" fill-rule="nonzero"/><path fill="#eeeeee" d="m292.6681 55.828365l53.543335 0l0 53.54331l-53.543335 0z" fill-rule="evenodd"/><path stroke="#595959" stroke-width="3.0" stroke-linejoin="round" stroke-linecap="butt" d="m292.6681 55.828365l53.543335 0l0 53.54331l-53.543335 0z" fill-rule="evenodd"/><path fill="#000000" d="m304.97473 92.20001l0 -18.953125l6.640625 0q3.453125 0 5.234375 1.328125q1.78125 1.3125 1.78125 3.875q0 1.390625 -0.71875 2.453125q-0.71875 1.046875 -1.984375 1.546875q1.453125 0.359375 2.296875 1.46875q0.84375 1.109375 0.84375 2.703125q0 2.734375 -1.75 4.140625q-1.75 1.40625 -4.96875 1.4375l-7.375 0zm3.90625 -8.25l0 5.109375l3.34375 0q1.390625 0 2.15625 -0.65625q0.78125 -0.65625 0.78125 -1.8125q0 -2.609375 -2.703125 -2.640625l-3.578125 0zm0 -2.765625l2.890625 0q2.953125 -0.046875 2.953125 -2.34375q0 -1.296875 -0.75 -1.859375q-0.75 -0.5625 -2.359375 -0.5625l-2.734375 0l0 4.765625zm13.261566 1.703125l1.09375 -9.640625l10.625 0l0 3.140625l-7.53125 0l-0.46875 4.078125q1.328125 -0.71875 2.84375 -0.71875q2.703125 0 4.234375 1.6875q1.546875 1.671875 1.546875 4.6875q0 1.828125 -0.78125 3.28125q-0.765625 1.453125 -2.21875 2.265625q-1.4375 0.796875 -3.40625 0.796875q-1.71875 0 -3.1875 -0.6875q-1.46875 -0.703125 -2.328125 -1.96875q-0.84375 -1.265625 -0.90625 -2.875l3.734375 0q0.109375 1.171875 0.8125 1.84375q0.71875 0.65625 1.859375 0.65625q1.28125 0 1.96875 -0.921875q0.6875 -0.921875 0.6875 -2.59375q0 -1.625 -0.796875 -2.484375q-0.78125 -0.859375 -2.25 -0.859375q-1.328125 0 -2.171875 0.703125l-0.359375 0.34375l-3.0 -0.734375z" fill-rule="nonzero"/><path fill="#eeeeee" d="m453.2226 55.828655l53.543304 0l0 53.54331l-53.543304 0z" fill-rule="evenodd"/><path stroke="#595959" stroke-width="3.0" stroke-linejoin="round" stroke-linecap="butt" d="m453.2226 55.828655l53.543304 0l0 53.54331l-53.543304 0z" fill-rule="evenodd"/><path fill="#000000" d="m465.5292 92.2003l0 -18.953125l6.640625 0q3.453125 0 5.234375 1.328125q1.78125 1.3125 1.78125 3.875q0 1.390625 -0.71875 2.453125q-0.71875 1.046875 -1.984375 1.546875q1.453125 0.359375 2.296875 1.46875q0.84375 1.109375 0.84375 2.703125q0 2.734375 -1.75 4.140625q-1.75 1.40625 -4.96875 1.4375l-7.375 0zm3.90625 -8.25l0 5.109375l3.34375 0q1.390625 0 2.15625 -0.65625q0.78125 -0.65625 0.78125 -1.8125q0 -2.609375 -2.703125 -2.640625l-3.578125 0zm0 -2.765625l2.890625 0q2.953125 -0.046875 2.953125 -2.34375q0 -1.296875 -0.75 -1.859375q-0.75 -0.5625 -2.359375 -0.5625l-2.734375 0l0 4.765625zm25.058441 -2.890625q0 1.375 -0.6875 2.4375q-0.6875 1.0625 -1.90625 1.703125q1.390625 0.671875 2.1875 1.84375q0.8125 1.15625 0.8125 2.734375q0 2.515625 -1.71875 3.984375q-1.71875 1.46875 -4.671875 1.46875q-2.953125 0 -4.6875 -1.46875q-1.734375 -1.484375 -1.734375 -3.984375q0 -1.578125 0.796875 -2.75q0.8125 -1.171875 2.1875 -1.828125q-1.21875 -0.640625 -1.90625 -1.703125q-0.671875 -1.0625 -0.671875 -2.4375q0 -2.421875 1.609375 -3.859375q1.625 -1.453125 4.390625 -1.453125q2.765625 0 4.375 1.4375q1.625 1.421875 1.625 3.875zm-3.375 8.4375q0 -1.234375 -0.71875 -1.96875q-0.703125 -0.75 -1.921875 -0.75q-1.1875 0 -1.90625 0.734375q-0.71875 0.734375 -0.71875 1.984375q0 1.21875 0.703125 1.96875q0.703125 0.734375 1.953125 0.734375q1.21875 0 1.90625 -0.71875q0.703125 -0.71875 0.703125 -1.984375zm-0.390625 -8.265625q0 -1.109375 -0.59375 -1.765625q-0.578125 -0.671875 -1.640625 -0.671875q-1.046875 0 -1.640625 0.65625q-0.578125 0.640625 -0.578125 1.78125q0 1.140625 0.578125 1.828125q0.59375 0.6875 1.65625 0.6875q1.0625 0 1.640625 -0.6875q0.578125 -0.6875 0.578125 -1.828125z" fill-rule="nonzero"/><path fill="#eeeeee" d="m827.8608 55.828022l53.543274 0l0 53.54331l-53.543274 0z" fill-rule="evenodd"/><path stroke="#595959" stroke-width="3.0" stroke-linejoin="round" stroke-linecap="butt" d="m827.8608 55.828022l53.543274 0l0 53.54331l-53.543274 0z" fill-rule="evenodd"/><path fill="#0000ff" d="m854.82764 85.88717q-0.21875 3.0625 -2.25 4.828125q-2.03125 1.75 -5.375 1.75q-3.640625 0 -5.734375 -2.453125q-2.078125 -2.453125 -2.078125 -6.734375l0 -1.171875q0 -2.734375 0.953125 -4.8125q0.96875 -2.078125 2.75 -3.1875q1.796875 -1.125 4.171875 -1.125q3.28125 0 5.28125 1.765625q2.0 1.75 2.3125 4.9375l-3.90625 0q-0.140625 -1.84375 -1.015625 -2.671875q-0.875 -0.828125 -2.671875 -0.828125q-1.953125 0 -2.921875 1.40625q-0.96875 1.390625 -1.0 4.34375l0 1.421875q0 3.078125 0.921875 4.5q0.9375 1.421875 2.9375 1.421875q1.8125 0 2.703125 -0.828125q0.890625 -0.828125 1.03125 -2.5625l3.890625 0zm12.378601 -12.828125l0 3.09375l-0.375 0q-2.546875 0.03125 -4.109375 1.328125q-1.546875 1.28125 -1.859375 3.578125q1.515625 -1.53125 3.8125 -1.53125q2.46875 0 3.921875 1.765625q1.46875 1.765625 1.46875 4.65625q0 1.84375 -0.8125 3.34375q-0.796875 1.5 -2.265625 2.34375q-1.453125 0.828125 -3.296875 0.828125q-3.0 0 -4.84375 -2.078125q-1.84375 -2.09375 -1.84375 -5.5625l0 -1.359375q0 -3.078125 1.15625 -5.4375q1.171875 -2.375 3.34375 -3.671875q2.1875 -1.296875 5.078125 -1.296875l0.625 0zm-3.671875 9.484375q-0.921875 0 -1.671875 0.484375q-0.734375 0.46875 -1.078125 1.25l0 1.140625q0 1.890625 0.734375 2.953125q0.75 1.0625 2.09375 1.0625q1.203125 0 1.953125 -0.953125q0.75 -0.96875 0.75 -2.484375q0 -1.546875 -0.765625 -2.5q-0.75 -0.953125 -2.015625 -0.953125z" fill-rule="nonzero"/><path fill="#eeeeee" d="m185.63145 55.828693l53.543304 0l0 53.54331l-53.543304 0z" fill-rule="evenodd"/><path stroke="#595959" stroke-width="3.0" stroke-linejoin="round" stroke-linecap="butt" d="m185.63145 55.828693l53.543304 0l0 53.54331l-53.543304 0z" fill-rule="evenodd"/><path fill="#000000" d="m197.93806 92.20034l0 -18.953125l6.640625 0q3.453125 0 5.234375 1.328125q1.78125 1.3125 1.78125 3.875q0 1.390625 -0.71875 2.453125q-0.71875 1.046875 -1.984375 1.546875q1.453125 0.359375 2.296875 1.46875q0.84375 1.109375 0.84375 2.703125q0 2.734375 -1.75 4.140625q-1.75 1.40625 -4.96875 1.4375l-7.375 0zm3.90625 -8.25l0 5.109375l3.34375 0q1.390625 0 2.15625 -0.65625q0.78125 -0.65625 0.78125 -1.8125q0 -2.609375 -2.703125 -2.640625l-3.578125 0zm0 -2.765625l2.890625 0q2.953125 -0.046875 2.953125 -2.34375q0 -1.296875 -0.75 -1.859375q-0.75 -0.5625 -2.359375 -0.5625l-2.734375 0l0 4.765625zm16.527206 -0.125l2.015625 0q1.421875 0 2.109375 -0.71875q0.703125 -0.71875 0.703125 -1.890625q0 -1.15625 -0.6875 -1.78125q-0.6875 -0.640625 -1.890625 -0.640625q-1.078125 0 -1.8125 0.59375q-0.71875 0.578125 -0.71875 1.53125l-3.765625 0q0 -1.484375 0.796875 -2.65625q0.8125 -1.1875 2.25 -1.84375q1.4375 -0.671875 3.171875 -0.671875q3.0 0 4.703125 1.453125q1.703125 1.4375 1.703125 3.953125q0 1.296875 -0.796875 2.390625q-0.78125 1.09375 -2.078125 1.6875q1.609375 0.578125 2.390625 1.71875q0.78125 1.140625 0.78125 2.703125q0 2.53125 -1.84375 4.0625q-1.828125 1.515625 -4.859375 1.515625q-2.84375 0 -4.65625 -1.5q-1.796875 -1.5 -1.796875 -3.953125l3.765625 0q0 1.0625 0.796875 1.75q0.8125 0.671875 1.96875 0.671875q1.34375 0 2.109375 -0.703125q0.765625 -0.71875 0.765625 -1.890625q0 -2.84375 -3.125 -2.84375l-2.0 0l0 -2.9375z" fill-rule="nonzero"/><path fill="#eeeeee" d="m346.18594 55.828365l53.543304 0l0 53.54331l-53.543304 0z" fill-rule="evenodd"/><path stroke="#595959" stroke-width="3.0" stroke-linejoin="round" stroke-linecap="butt" d="m346.18594 55.828365l53.543304 0l0 53.54331l-53.543304 0z" fill-rule="evenodd"/><path fill="#000000" d="m358.49255 92.20001l0 -18.953125l6.640625 0q3.453125 0 5.234375 1.328125q1.78125 1.3125 1.78125 3.875q0 1.390625 -0.71875 2.453125q-0.71875 1.046875 -1.984375 1.546875q1.453125 0.359375 2.296875 1.46875q0.84375 1.109375 0.84375 2.703125q0 2.734375 -1.75 4.140625q-1.75 1.40625 -4.96875 1.4375l-7.375 0zm3.90625 -8.25l0 5.109375l3.34375 0q1.390625 0 2.15625 -0.65625q0.78125 -0.65625 0.78125 -1.8125q0 -2.609375 -2.703125 -2.640625l-3.578125 0zm0 -2.765625l2.890625 0q2.953125 -0.046875 2.953125 -2.34375q0 -1.296875 -0.75 -1.859375q-0.75 -0.5625 -2.359375 -0.5625l-2.734375 0l0 4.765625zm22.917816 -8.125l0 3.09375l-0.375 0q-2.546875 0.03125 -4.109375 1.328125q-1.546875 1.28125 -1.859375 3.578125q1.515625 -1.53125 3.8125 -1.53125q2.46875 0 3.921875 1.765625q1.46875 1.765625 1.46875 4.65625q0 1.84375 -0.8125 3.34375q-0.796875 1.5 -2.265625 2.34375q-1.453125 0.828125 -3.296875 0.828125q-3.0 0 -4.84375 -2.078125q-1.84375 -2.09375 -1.84375 -5.5625l0 -1.359375q0 -3.078125 1.15625 -5.4375q1.171875 -2.375 3.34375 -3.671875q2.1875 -1.296875 5.078125 -1.296875l0.625 0zm-3.671875 9.484375q-0.921875 0 -1.671875 0.484375q-0.734375 0.46875 -1.078125 1.25l0 1.140625q0 1.890625 0.734375 2.953125q0.75 1.0625 2.09375 1.0625q1.203125 0 1.953125 -0.953125q0.75 -0.96875 0.75 -2.484375q0 -1.546875 -0.765625 -2.5q-0.75 -0.953125 -2.015625 -0.953125z" fill-rule="nonzero"/><path fill="#eeeeee" d="m506.74042 55.828655l53.543335 0l0 53.54331l-53.543335 0z" fill-rule="evenodd"/><path stroke="#595959" stroke-width="3.0" stroke-linejoin="round" stroke-linecap="butt" d="m506.74042 55.828655l53.543335 0l0 53.54331l-53.543335 0z" fill-rule="evenodd"/><path fill="#000000" d="m519.04706 92.2003l0 -18.953125l6.640625 0q3.453125 0 5.234375 1.328125q1.78125 1.3125 1.78125 3.875q0 1.390625 -0.71875 2.453125q-0.71875 1.046875 -1.984375 1.546875q1.453125 0.359375 2.296875 1.46875q0.84375 1.109375 0.84375 2.703125q0 2.734375 -1.75 4.140625q-1.75 1.40625 -4.96875 1.4375l-7.375 0zm3.90625 -8.25l0 5.109375l3.34375 0q1.390625 0 2.15625 -0.65625q0.78125 -0.65625 0.78125 -1.8125q0 -2.609375 -2.703125 -2.640625l-3.578125 0zm0 -2.765625l2.890625 0q2.953125 -0.046875 2.953125 -2.34375q0 -1.296875 -0.75 -1.859375q-0.75 -0.5625 -2.359375 -0.5625l-2.734375 0l0 4.765625zm21.511536 3.4375q-1.484375 1.453125 -3.4375 1.453125q-2.515625 0 -4.03125 -1.71875q-1.5 -1.734375 -1.5 -4.671875q0 -1.859375 0.8125 -3.40625q0.8125 -1.5625 2.265625 -2.421875q1.453125 -0.875 3.28125 -0.875q1.875 0 3.328125 0.9375q1.46875 0.9375 2.265625 2.703125q0.8125 1.75 0.828125 4.015625l0 1.390625q0 4.75 -2.359375 7.453125q-2.359375 2.703125 -6.671875 2.890625l-0.9375 0.015625l0 -3.140625l0.84375 -0.015625q4.90625 -0.21875 5.3125 -4.609375zm-2.515625 -1.421875q0.90625 0 1.5625 -0.46875q0.65625 -0.46875 1.0 -1.140625l0 -1.546875q0 -1.90625 -0.734375 -2.953125q-0.71875 -1.0625 -1.953125 -1.0625q-1.125 0 -1.859375 1.03125q-0.71875 1.03125 -0.71875 2.59375q0 1.546875 0.703125 2.546875q0.703125 1.0 2.0 1.0z" fill-rule="nonzero"/><path fill="#eeeeee" d="m881.3762 55.826797l53.543274 0l0 53.543304l-53.543274 0z" fill-rule="evenodd"/><path stroke="#595959" stroke-width="3.0" stroke-linejoin="round" stroke-linecap="butt" d="m881.3762 55.826797l53.543274 0l0 53.543304l-53.543274 0z" fill-rule="evenodd"/><path fill="#0000ff" d="m908.3431 85.88595q-0.21875 3.0625 -2.25 4.828125q-2.03125 1.75 -5.375 1.75q-3.640625 0 -5.734375 -2.453125q-2.078125 -2.453125 -2.078125 -6.734375l0 -1.171875q0 -2.734375 0.953125 -4.8125q0.96875 -2.078125 2.75 -3.1875q1.796875 -1.125 4.171875 -1.125q3.28125 0 5.28125 1.765625q2.0 1.75 2.3125 4.9375l-3.90625 0q-0.140625 -1.84375 -1.015625 -2.671875q-0.875 -0.828125 -2.671875 -0.828125q-1.953125 0 -2.921875 1.40625q-0.96875 1.390625 -1.0 4.34375l0 1.421875q0 3.078125 0.921875 4.5q0.9375 1.421875 2.9375 1.421875q1.8125 0 2.703125 -0.828125q0.890625 -0.828125 1.03125 -2.5625l3.890625 0zm15.050476 -10.53125l-7.328125 16.84375l-3.96875 0l7.34375 -15.90625l-9.421875 0l0 -3.046875l13.375 0l0 2.109375z" fill-rule="nonzero"/><path fill="#eeeeee" d="m560.25824 55.829308l53.543335 0l0 53.543304l-53.543335 0z" fill-rule="evenodd"/><path stroke="#595959" stroke-width="3.0" stroke-linejoin="round" stroke-linecap="butt" d="m560.25824 55.829308l53.543335 0l0 53.543304l-53.543335 0z" fill-rule="evenodd"/><path fill="#0000ff" d="m587.2251 85.88846q-0.21875 3.0625 -2.25 4.828125q-2.03125 1.75 -5.375 1.75q-3.640625 0 -5.734375 -2.453125q-2.078125 -2.453125 -2.078125 -6.734375l0 -1.171875q0 -2.734375 0.953125 -4.8125q0.96875 -2.078125 2.75 -3.1875q1.796875 -1.125 4.171875 -1.125q3.28125 0 5.28125 1.765625q2.0 1.75 2.3125 4.9375l-3.90625 0q-0.140625 -1.84375 -1.015625 -2.671875q-0.875 -0.828125 -2.671875 -0.828125q-1.953125 0 -2.921875 1.40625q-0.96875 1.390625 -1.0 4.34375l0 1.421875q0 3.078125 0.921875 4.5q0.9375 1.421875 2.9375 1.421875q1.8125 0 2.703125 -0.828125q0.890625 -0.828125 1.03125 -2.5625l3.890625 0zm11.300476 6.3125l-3.75 0l0 -14.5l-4.5 1.390625l0 -3.0625l7.84375 -2.8125l0.40625 0l0 18.984375z" fill-rule="nonzero"/><path fill="#eeeeee" d="m613.7765 55.82767l53.543335 0l0 53.54331l-53.543335 0z" fill-rule="evenodd"/><path stroke="#595959" stroke-width="3.0" stroke-linejoin="round" stroke-linecap="butt" d="m613.7765 55.82767l53.543335 0l0 53.54331l-53.543335 0z" fill-rule="evenodd"/><path fill="#0000ff" d="m640.74335 85.886826q-0.21875 3.0625 -2.25 4.828125q-2.03125 1.75 -5.375 1.75q-3.640625 0 -5.734375 -2.453125q-2.078125 -2.453125 -2.078125 -6.734375l0 -1.171875q0 -2.734375 0.953125 -4.8125q0.96875 -2.078125 2.75 -3.1875q1.796875 -1.125 4.171875 -1.125q3.28125 0 5.28125 1.765625q2.0 1.75 2.3125 4.9375l-3.90625 0q-0.140625 -1.84375 -1.015625 -2.671875q-0.875 -0.828125 -2.671875 -0.828125q-1.953125 0 -2.921875 1.40625q-0.96875 1.390625 -1.0 4.34375l0 1.421875q0 3.078125 0.921875 4.5q0.9375 1.421875 2.9375 1.421875q1.8125 0 2.703125 -0.828125q0.890625 -0.828125 1.03125 -2.5625l3.890625 0zm15.159851 6.3125l-13.0 0l0 -2.578125l6.140625 -6.53125q1.265625 -1.375 1.859375 -2.40625q0.609375 -1.03125 0.609375 -1.953125q0 -1.265625 -0.640625 -1.984375q-0.640625 -0.71875 -1.8125 -0.71875q-1.28125 0 -2.015625 0.875q-0.734375 0.875 -0.734375 2.3125l-3.78125 0q0 -1.734375 0.828125 -3.15625q0.828125 -1.4375 2.328125 -2.25q1.515625 -0.828125 3.4375 -0.828125q2.921875 0 4.546875 1.40625q1.625 1.40625 1.625 3.984375q0 1.390625 -0.734375 2.859375q-0.734375 1.453125 -2.5 3.390625l-4.3125 4.546875l8.15625 0l0 3.03125z" fill-rule="nonzero"/><path fill="#eeeeee" d="m667.2946 55.82913l53.543335 0l0 53.54331l-53.543335 0z" fill-rule="evenodd"/><path stroke="#595959" stroke-width="3.0" stroke-linejoin="round" stroke-linecap="butt" d="m667.2946 55.82913l53.543335 0l0 53.54331l-53.543335 0z" fill-rule="evenodd"/><path fill="#0000ff" d="m694.2615 85.888275q-0.21875 3.0625 -2.25 4.828125q-2.03125 1.75 -5.375 1.75q-3.640625 0 -5.734375 -2.453125q-2.078125 -2.453125 -2.078125 -6.734375l0 -1.171875q0 -2.734375 0.953125 -4.8125q0.96875 -2.078125 2.75 -3.1875q1.796875 -1.125 4.171875 -1.125q3.28125 0 5.28125 1.765625q2.0 1.75 2.3125 4.9375l-3.90625 0q-0.140625 -1.84375 -1.015625 -2.671875q-0.875 -0.828125 -2.671875 -0.828125q-1.953125 0 -2.921875 1.40625q-0.96875 1.390625 -1.0 4.34375l0 1.421875q0 3.078125 0.921875 4.5q0.9375 1.421875 2.9375 1.421875q1.8125 0 2.703125 -0.828125q0.890625 -0.828125 1.03125 -2.5625l3.890625 0zm5.987976 -4.828125l2.015625 0q1.421875 0 2.109375 -0.71875q0.703125 -0.71875 0.703125 -1.890625q0 -1.15625 -0.6875 -1.78125q-0.6875 -0.640625 -1.890625 -0.640625q-1.078125 0 -1.8125 0.59375q-0.71875 0.578125 -0.71875 1.53125l-3.765625 0q0 -1.484375 0.796875 -2.65625q0.8125 -1.1875 2.25 -1.84375q1.4375 -0.671875 3.171875 -0.671875q3.0 0 4.703125 1.453125q1.703125 1.4375 1.703125 3.953125q0 1.296875 -0.796875 2.390625q-0.78125 1.09375 -2.078125 1.6875q1.609375 0.578125 2.390625 1.71875q0.78125 1.140625 0.78125 2.703125q0 2.53125 -1.84375 4.0625q-1.828125 1.515625 -4.859375 1.515625q-2.84375 0 -4.65625 -1.5q-1.796875 -1.5 -1.796875 -3.953125l3.765625 0q0 1.0625 0.796875 1.75q0.8125 0.671875 1.96875 0.671875q1.34375 0 2.109375 -0.703125q0.765625 -0.71875 0.765625 -1.890625q0 -2.84375 -3.125 -2.84375l-2.0 0l0 -2.9375z" fill-rule="nonzero"/><path fill="#eeeeee" d="m25.078857 270.00125l53.543304 0l0 53.543304l-53.543304 0z" fill-rule="evenodd"/><path stroke="#595959" stroke-width="3.0" stroke-linejoin="round" stroke-linecap="butt" d="m25.078857 270.00125l53.543304 0l0 53.543304l-53.543304 0z" fill-rule="evenodd"/><path fill="#0000ff" d="m52.04571 300.0604q-0.21875 3.0625 -2.25 4.828125q-2.03125 1.75 -5.375 1.75q-3.640625 0 -5.734375 -2.453125q-2.078125 -2.453125 -2.078125 -6.734375l0 -1.171875q0 -2.734375 0.953125 -4.8125q0.96875 -2.078125 2.75 -3.1875q1.796875 -1.125 4.171875 -1.125q3.28125 0 5.28125 1.765625q2.0 1.75 2.3125 4.9375l-3.90625 0q-0.140625 -1.84375 -1.015625 -2.671875q-0.875 -0.828125 -2.671875 -0.828125q-1.953125 0 -2.921875 1.40625q-0.96875 1.390625 -1.0 4.34375l0 1.421875q0 3.078125 0.921875 4.5q0.9375 1.421875 2.9375 1.421875q1.8125 0 2.703125 -0.828125q0.890625 -0.828125 1.03125 -2.5625l3.890625 0zm13.300472 -0.8125l2.140625 0l0 3.03125l-2.140625 0l0 4.09375l-3.765625 0l0 -4.09375l-7.765621 0l-0.171875 -2.375l7.890621 -12.484375l3.8125 0l0 11.828125zm-7.953125 0l4.1875 0l0 -6.703125l-0.25 0.4375l-3.9375 6.265625z" fill-rule="nonzero"/><path fill="#eeeeee" d="m25.081364 323.54456l53.54331 0l0 53.543304l-53.54331 0z" fill-rule="evenodd"/><path stroke="#595959" stroke-width="3.0" stroke-linejoin="round" stroke-linecap="butt" d="m25.081364 323.54456l53.54331 0l0 53.543304l-53.54331 0z" fill-rule="evenodd"/><path fill="#0000ff" d="m52.048218 353.6037q-0.21875 3.0625 -2.25 4.828125q-2.03125 1.75 -5.375 1.75q-3.640625 0 -5.734375 -2.453125q-2.078125 -2.453125 -2.078125 -6.734375l0 -1.171875q0 -2.734375 0.953125 -4.8125q0.96875 -2.078125 2.75 -3.1875q1.796875 -1.125 4.171875 -1.125q3.28125 0 5.28125 1.765625q2.0 1.75 2.3125 4.9375l-3.90625 0q-0.140625 -1.84375 -1.015625 -2.671875q-0.875 -0.828125 -2.671875 -0.828125q-1.953125 0 -2.921875 1.40625q-0.96875 1.390625 -1.0 4.34375l0 1.421875q0 3.078125 0.921875 4.5q0.9375 1.421875 2.9375 1.421875q1.8125 0 2.703125 -0.828125q0.890625 -0.828125 1.03125 -2.5625l3.890625 0zm2.722351 -3.0l1.09375 -9.640625l10.625 0l0 3.140625l-7.531254 0l-0.46875 4.078125q1.328125 -0.71875 2.84375 -0.71875q2.7031288 0 4.234379 1.6875q1.546875 1.671875 1.546875 4.6875q0 1.828125 -0.78125 3.28125q-0.765625 1.453125 -2.21875 2.265625q-1.4375038 0.796875 -3.4062538 0.796875q-1.71875 0 -3.1875 -0.6875q-1.4687462 -0.703125 -2.3281212 -1.96875q-0.84375 -1.265625 -0.90625 -2.875l3.7343712 0q0.109375 1.171875 0.8125 1.84375q0.71875 0.65625 1.859375 0.65625q1.28125 0 1.96875 -0.921875q0.6875 -0.921875 0.6875 -2.59375q0 -1.625 -0.796875 -2.484375q-0.78125 -0.859375 -2.25 -0.859375q-1.328125 0 -2.171875 0.703125l-0.359375 0.34375l-2.9999962 -0.734375z" fill-rule="nonzero"/><path fill="#eeeeee" d="m25.081245 377.08786l53.543304 0l0 53.543304l-53.543304 0z" fill-rule="evenodd"/><path stroke="#595959" stroke-width="3.0" stroke-linejoin="round" stroke-linecap="butt" d="m25.081245 377.08786l53.543304 0l0 53.543304l-53.543304 0z" fill-rule="evenodd"/><path fill="#0000ff" d="m52.0481 407.147q-0.21875 3.0625 -2.25 4.828125q-2.03125 1.75 -5.375 1.75q-3.640625 0 -5.734375 -2.453125q-2.078125 -2.453125 -2.078125 -6.734375l0 -1.171875q0 -2.734375 0.953125 -4.8125q0.96875 -2.078125 2.75 -3.1875q1.796875 -1.125 4.171875 -1.125q3.28125 0 5.28125 1.765625q2.0 1.75 2.3125 4.9375l-3.90625 0q-0.140625 -1.84375 -1.015625 -2.671875q-0.875 -0.828125 -2.671875 -0.828125q-1.953125 0 -2.921875 1.40625q-0.96875 1.390625 -1.0 4.34375l0 1.421875q0 3.078125 0.921875 4.5q0.9375 1.421875 2.9375 1.421875q1.8125 0 2.703125 -0.828125q0.890625 -0.828125 1.03125 -2.5625l3.890625 0zm12.378597 -12.828125l0 3.09375l-0.375 0q-2.546875 0.03125 -4.109375 1.328125q-1.546875 1.28125 -1.859375 3.578125q1.515625 -1.53125 3.8125 -1.53125q2.46875 0 3.921875 1.765625q1.46875 1.765625 1.46875 4.65625q0 1.84375 -0.8125 3.34375q-0.796875 1.5 -2.265625 2.34375q-1.453125 0.828125 -3.296875 0.828125q-3.0 0 -4.843746 -2.078125q-1.84375 -2.09375 -1.84375 -5.5625l0 -1.359375q0 -3.078125 1.15625 -5.4375q1.171875 -2.375 3.3437462 -3.671875q2.1875 -1.296875 5.078125 -1.296875l0.625 0zm-3.671875 9.484375q-0.921875 0 -1.671875 0.484375q-0.734375 0.46875 -1.078125 1.25l0 1.140625q0 1.890625 0.734375 2.953125q0.75 1.0625 2.09375 1.0625q1.203125 0 1.953125 -0.953125q0.75 -0.96875 0.75 -2.484375q0 -1.546875 -0.765625 -2.5q-0.75 -0.953125 -2.015625 -0.953125z" fill-rule="nonzero"/><path fill="#eeeeee" d="m25.079613 430.62994l53.543304 0l0 53.543304l-53.543304 0z" fill-rule="evenodd"/><path stroke="#595959" stroke-width="3.0" stroke-linejoin="round" stroke-linecap="butt" d="m25.079613 430.62994l53.543304 0l0 53.543304l-53.543304 0z" fill-rule="evenodd"/><path fill="#0000ff" d="m52.046463 460.6891q-0.21875 3.0625 -2.25 4.828125q-2.03125 1.75 -5.375 1.75q-3.640625 0 -5.734375 -2.453125q-2.078125 -2.453125 -2.078125 -6.734375l0 -1.171875q0 -2.734375 0.953125 -4.8125q0.96875 -2.078125 2.75 -3.1875q1.796875 -1.125 4.171875 -1.125q3.28125 0 5.28125 1.765625q2.0 1.75 2.3125 4.9375l-3.90625 0q-0.140625 -1.84375 -1.015625 -2.671875q-0.875 -0.828125 -2.671875 -0.828125q-1.953125 0 -2.921875 1.40625q-0.96875 1.390625 -1.0 4.34375l0 1.421875q0 3.078125 0.921875 4.5q0.9375 1.421875 2.9375 1.421875q1.8125 0 2.703125 -0.828125q0.890625 -0.828125 1.03125 -2.5625l3.890625 0zm15.050476 -10.53125l-7.328125 16.84375l-3.96875 0l7.34375 -15.90625l-9.421875 0l0 -3.046875l13.375 0l0 2.109375z" fill-rule="nonzero"/><path fill="#eeeeee" d="m25.079784 109.36999l53.54331 0l0 53.543312l-53.54331 0z" fill-rule="evenodd"/><path stroke="#595959" stroke-width="3.0" stroke-linejoin="round" stroke-linecap="butt" d="m25.079784 109.36999l53.54331 0l0 53.543312l-53.54331 0z" fill-rule="evenodd"/><path fill="#0000ff" d="m52.04664 139.42914q-0.21875 3.0625 -2.25 4.828125q-2.03125 1.75 -5.375 1.75q-3.640625 0 -5.734375 -2.453125q-2.078125 -2.453125 -2.078125 -6.734375l0 -1.171875q0 -2.734375 0.953125 -4.8125q0.96875 -2.078125 2.75 -3.1875q1.796875 -1.125 4.171875 -1.125q3.28125 0 5.28125 1.765625q2.0 1.75 2.3125 4.9375l-3.90625 0q-0.140625 -1.84375 -1.015625 -2.671875q-0.875 -0.828125 -2.671875 -0.828125q-1.953125 0 -2.921875 1.40625q-0.96875 1.390625 -1.0 4.34375l0 1.421875q0 3.078125 0.921875 4.5q0.9375 1.421875 2.9375 1.421875q1.8125 0 2.703125 -0.828125q0.890625 -0.828125 1.03125 -2.5625l3.890625 0zm11.300472 6.3125l-3.75 0l0 -14.5l-4.499996 1.390625l0 -3.0625l7.843746 -2.8125l0.40625 0l0 18.984375z" fill-rule="nonzero"/><path fill="#eeeeee" d="m25.08098 162.91429l53.543312 0l0 53.543304l-53.543312 0z" fill-rule="evenodd"/><path stroke="#595959" stroke-width="3.0" stroke-linejoin="round" stroke-linecap="butt" d="m25.08098 162.91429l53.543312 0l0 53.543304l-53.543312 0z" fill-rule="evenodd"/><path fill="#0000ff" d="m52.047832 192.97343q-0.21875 3.0625 -2.25 4.828125q-2.03125 1.75 -5.375 1.75q-3.640625 0 -5.734375 -2.453125q-2.078125 -2.453125 -2.078125 -6.734375l0 -1.171875q0 -2.734375 0.953125 -4.8125q0.96875 -2.078125 2.75 -3.1875q1.796875 -1.125 4.171875 -1.125q3.28125 0 5.28125 1.765625q2.0 1.75 2.3125 4.9375l-3.90625 0q-0.140625 -1.84375 -1.015625 -2.671875q-0.875 -0.828125 -2.671875 -0.828125q-1.953125 0 -2.921875 1.40625q-0.96875 1.390625 -1.0 4.34375l0 1.421875q0 3.078125 0.921875 4.5q0.9375 1.421875 2.9375 1.421875q1.8125 0 2.703125 -0.828125q0.890625 -0.828125 1.03125 -2.5625l3.890625 0zm15.159847 6.3125l-12.999996 0l0 -2.578125l6.140625 -6.53125q1.265625 -1.375 1.859375 -2.40625q0.609375 -1.03125 0.609375 -1.953125q0 -1.265625 -0.640625 -1.984375q-0.640625 -0.71875 -1.8125 -0.71875q-1.28125 0 -2.015625 0.875q-0.734375 0.875 -0.734375 2.3125l-3.78125 0q0 -1.734375 0.828125 -3.15625q0.828125 -1.4375 2.328125 -2.25q1.515625 -0.828125 3.4375 -0.828125q2.921875 0 4.546871 1.40625q1.625 1.40625 1.625 3.984375q0 1.390625 -0.734375 2.859375q-0.734375 1.453125 -2.4999962 3.390625l-4.3125 4.546875l8.156246 0l0 3.03125z" fill-rule="nonzero"/><path fill="#eeeeee" d="m25.079397 216.45642l53.543304 0l0 53.543304l-53.543304 0z" fill-rule="evenodd"/><path stroke="#595959" stroke-width="3.0" stroke-linejoin="round" stroke-linecap="butt" d="m25.079397 216.45642l53.543304 0l0 53.543304l-53.543304 0z" fill-rule="evenodd"/><path fill="#0000ff" d="m52.04625 246.51558q-0.21875 3.0625 -2.25 4.828125q-2.03125 1.75 -5.375 1.75q-3.640625 0 -5.734375 -2.453125q-2.078125 -2.453125 -2.078125 -6.734375l0 -1.171875q0 -2.734375 0.953125 -4.8125q0.96875 -2.078125 2.75 -3.1875q1.796875 -1.125 4.171875 -1.125q3.28125 0 5.28125 1.765625q2.0 1.75 2.3125 4.9375l-3.90625 0q-0.140625 -1.84375 -1.015625 -2.671875q-0.875 -0.828125 -2.671875 -0.828125q-1.953125 0 -2.921875 1.40625q-0.96875 1.390625 -1.0 4.34375l0 1.421875q0 3.078125 0.921875 4.5q0.9375 1.421875 2.9375 1.421875q1.8125 0 2.703125 -0.828125q0.890625 -0.828125 1.03125 -2.5625l3.890625 0zm5.9879723 -4.828125l2.015625 0q1.421875 0 2.109375 -0.71875q0.703125 -0.71875 0.703125 -1.890625q0 -1.15625 -0.6875 -1.78125q-0.6875 -0.640625 -1.890625 -0.640625q-1.078125 0 -1.8125 0.59375q-0.71875 0.578125 -0.71875 1.53125l-3.7656212 0q0 -1.484375 0.796875 -2.65625q0.8125 -1.1875 2.25 -1.84375q1.4374962 -0.671875 3.1718712 -0.671875q3.0 0 4.703129 1.453125q1.703125 1.4375 1.703125 3.953125q0 1.296875 -0.796875 2.390625q-0.78125 1.09375 -2.0781288 1.6875q1.6093788 0.578125 2.3906288 1.71875q0.78125 1.140625 0.78125 2.703125q0 2.53125 -1.84375 4.0625q-1.8281288 1.515625 -4.859379 1.515625q-2.84375 0 -4.656246 -1.5q-1.796875 -1.5 -1.796875 -3.953125l3.7656212 0q0 1.0625 0.796875 1.75q0.8125 0.671875 1.96875 0.671875q1.34375 0 2.109375 -0.703125q0.765625 -0.71875 0.765625 -1.890625q0 -2.84375 -3.125 -2.84375l-2.0 0l0 -2.9375z" fill-rule="nonzero"/><path fill="#eeeeee" d="m25.079784 55.826683l53.54331 0l0 53.543304l-53.54331 0z" fill-rule="evenodd"/><path stroke="#595959" stroke-width="3.0" stroke-linejoin="round" stroke-linecap="butt" d="m25.079784 55.826683l53.54331 0l0 53.543304l-53.54331 0z" fill-rule="evenodd"/><path fill="#000000" d="m51.864136 79.431465l3.734375 -6.859375l4.703121 0l-5.796871 9.875l5.953121 10.03125l-4.765621 0l-3.828125 -6.96875l-3.828125 6.96875l-4.78125 0l5.953125 -10.03125l-5.796875 -9.875l4.71875 0l3.734375 6.859375z" fill-rule="nonzero"/><path fill="#eeeeee" d="m78.59685 109.36999l53.543304 0l0 53.543312l-53.543304 0z" fill-rule="evenodd"/><path stroke="#595959" stroke-width="3.0" stroke-linejoin="round" stroke-linecap="butt" d="m78.59685 109.36999l53.543304 0l0 53.543312l-53.543304 0z" fill-rule="evenodd"/><path fill="#000000" d="m105.381195 132.97476l3.734375 -6.8593674l4.703125 0l-5.796875 9.874992l5.953125 10.03125l-4.765625 0l-3.828125 -6.96875l-3.828125 6.96875l-4.78125 0l5.953125 -10.03125l-5.796875 -9.874992l4.71875 0l3.734375 6.8593674z" fill-rule="nonzero"/><path fill="#eeeeee" d="m132.1139 109.36999l53.543304 0l0 53.543312l-53.543304 0z" fill-rule="evenodd"/><path stroke="#595959" stroke-width="3.0" stroke-linejoin="round" stroke-linecap="butt" d="m132.1139 109.36999l53.543304 0l0 53.543312l-53.543304 0z" fill-rule="evenodd"/><path fill="#000000" d="m158.89825 132.97476l3.734375 -6.8593674l4.703125 0l-5.796875 9.874992l5.953125 10.03125l-4.765625 0l-3.828125 -6.96875l-3.828125 6.96875l-4.78125 0l5.953125 -10.03125l-5.796875 -9.874992l4.71875 0l3.734375 6.8593674z" fill-rule="nonzero"/><path fill="#eeeeee" d="m185.63359 109.36999l53.543304 0l0 53.543312l-53.543304 0z" fill-rule="evenodd"/><path stroke="#595959" stroke-width="3.0" stroke-linejoin="round" stroke-linecap="butt" d="m185.63359 109.36999l53.543304 0l0 53.543312l-53.543304 0z" fill-rule="evenodd"/><path fill="#000000" d="m212.41794 132.97476l3.734375 -6.8593674l4.703125 0l-5.796875 9.874992l5.953125 10.03125l-4.765625 0l-3.828125 -6.96875l-3.828125 6.96875l-4.78125 0l5.953125 -10.03125l-5.796875 -9.874992l4.71875 0l3.734375 6.8593674z" fill-rule="nonzero"/><path fill="#eeeeee" d="m239.15065 109.36999l53.54332 0l0 53.543312l-53.54332 0z" fill-rule="evenodd"/><path stroke="#595959" stroke-width="3.0" stroke-linejoin="round" stroke-linecap="butt" d="m239.15065 109.36999l53.54332 0l0 53.543312l-53.54332 0z" fill-rule="evenodd"/><path fill="#eeeeee" d="m292.67035 109.36999l53.543304 0l0 53.543312l-53.543304 0z" fill-rule="evenodd"/><path stroke="#595959" stroke-width="3.0" stroke-linejoin="round" stroke-linecap="butt" d="m292.67035 109.36999l53.543304 0l0 53.543312l-53.543304 0z" fill-rule="evenodd"/><path fill="#eeeeee" d="m346.1874 109.36999l53.543304 0l0 53.543312l-53.543304 0z" fill-rule="evenodd"/><path stroke="#595959" stroke-width="3.0" stroke-linejoin="round" stroke-linecap="butt" d="m346.1874 109.36999l53.543304 0l0 53.543312l-53.543304 0z" fill-rule="evenodd"/><path fill="#eeeeee" d="m399.7071 109.36999l53.543304 0l0 53.543312l-53.543304 0z" fill-rule="evenodd"/><path stroke="#595959" stroke-width="3.0" stroke-linejoin="round" stroke-linecap="butt" d="m399.7071 109.36999l53.543304 0l0 53.543312l-53.543304 0z" fill-rule="evenodd"/><path fill="#eeeeee" d="m453.22415 109.36999l53.543304 0l0 53.543312l-53.543304 0z" fill-rule="evenodd"/><path stroke="#595959" stroke-width="3.0" stroke-linejoin="round" stroke-linecap="butt" d="m453.22415 109.36999l53.543304 0l0 53.543312l-53.543304 0z" fill-rule="evenodd"/><path fill="#eeeeee" d="m506.74384 109.36999l53.543274 0l0 53.543312l-53.543274 0z" fill-rule="evenodd"/><path stroke="#595959" stroke-width="3.0" stroke-linejoin="round" stroke-linecap="butt" d="m506.74384 109.36999l53.543274 0l0 53.543312l-53.543274 0z" fill-rule="evenodd"/><path fill="#eeeeee" d="m560.26086 109.36999l53.543335 0l0 53.543312l-53.543335 0z" fill-rule="evenodd"/><path stroke="#595959" stroke-width="3.0" stroke-linejoin="round" stroke-linecap="butt" d="m560.26086 109.36999l53.543335 0l0 53.543312l-53.543335 0z" fill-rule="evenodd"/><path fill="#000000" d="m587.0452 132.97476l3.734375 -6.8593674l4.703125 0l-5.796875 9.874992l5.953125 10.03125l-4.765625 0l-3.828125 -6.96875l-3.828125 6.96875l-4.78125 0l5.953125 -10.03125l-5.796875 -9.874992l4.71875 0l3.734375 6.8593674z" fill-rule="nonzero"/><path fill="#eeeeee" d="m560.26086 162.9133l53.543335 0l0 53.543304l-53.543335 0z" fill-rule="evenodd"/><path stroke="#595959" stroke-width="3.0" stroke-linejoin="round" stroke-linecap="butt" d="m560.26086 162.9133l53.543335 0l0 53.543304l-53.543335 0z" fill-rule="evenodd"/><path fill="#eeeeee" d="m560.26086 216.4566l53.543335 0l0 53.543304l-53.543335 0z" fill-rule="evenodd"/><path stroke="#595959" stroke-width="3.0" stroke-linejoin="round" stroke-linecap="butt" d="m560.26086 216.4566l53.543335 0l0 53.543304l-53.543335 0z" fill-rule="evenodd"/><path fill="#eeeeee" d="m560.26086 269.9999l53.543335 0l0 53.543304l-53.543335 0z" fill-rule="evenodd"/><path stroke="#595959" stroke-width="3.0" stroke-linejoin="round" stroke-linecap="butt" d="m560.26086 269.9999l53.543335 0l0 53.543304l-53.543335 0z" fill-rule="evenodd"/><path fill="#eeeeee" d="m560.26086 323.5432l53.543335 0l0 53.543304l-53.543335 0z" fill-rule="evenodd"/><path stroke="#595959" stroke-width="3.0" stroke-linejoin="round" stroke-linecap="butt" d="m560.26086 323.5432l53.543335 0l0 53.543304l-53.543335 0z" fill-rule="evenodd"/><path fill="#eeeeee" d="m560.26086 377.08652l53.543335 0l0 53.543304l-53.543335 0z" fill-rule="evenodd"/><path stroke="#595959" stroke-width="3.0" stroke-linejoin="round" stroke-linecap="butt" d="m560.26086 377.08652l53.543335 0l0 53.543304l-53.543335 0z" fill-rule="evenodd"/><path fill="#eeeeee" d="m239.15065 430.62982l53.54332 0l0 53.543304l-53.54332 0z" fill-rule="evenodd"/><path stroke="#595959" stroke-width="3.0" stroke-linejoin="round" stroke-linecap="butt" d="m239.15065 430.62982l53.54332 0l0 53.543304l-53.54332 0z" fill-rule="evenodd"/><path fill="#000000" d="m265.935 454.23462l3.734375 -6.859375l4.703125 0l-5.796875 9.875l5.953125 10.03125l-4.765625 0l-3.828125 -6.96875l-3.828125 6.96875l-4.78125 0l5.953125 -10.03125l-5.796875 -9.875l4.71875 0l3.734375 6.859375z" fill-rule="nonzero"/><path fill="#eeeeee" d="m613.7806 109.36999l53.543274 0l0 53.543312l-53.543274 0z" fill-rule="evenodd"/><path stroke="#595959" stroke-width="3.0" stroke-linejoin="round" stroke-linecap="butt" d="m613.7806 109.36999l53.543274 0l0 53.543312l-53.543274 0z" fill-rule="evenodd"/><path fill="#eeeeee" d="m613.7806 162.9133l53.543274 0l0 53.543304l-53.543274 0z" fill-rule="evenodd"/><path stroke="#595959" stroke-width="3.0" stroke-linejoin="round" stroke-linecap="butt" d="m613.7806 162.9133l53.543274 0l0 53.543304l-53.543274 0z" fill-rule="evenodd"/><path fill="#000000" d="m640.56494 186.51808l3.734375 -6.859375l4.703125 0l-5.796875 9.875l5.953125 10.03125l-4.765625 0l-3.828125 -6.96875l-3.828125 6.96875l-4.78125 0l5.953125 -10.03125l-5.796875 -9.875l4.71875 0l3.734375 6.859375z" fill-rule="nonzero"/><path fill="#eeeeee" d="m613.7806 216.4566l53.543274 0l0 53.543304l-53.543274 0z" fill-rule="evenodd"/><path stroke="#595959" stroke-width="3.0" stroke-linejoin="round" stroke-linecap="butt" d="m613.7806 216.4566l53.543274 0l0 53.543304l-53.543274 0z" fill-rule="evenodd"/><path fill="#eeeeee" d="m613.7806 269.9999l53.543274 0l0 53.543304l-53.543274 0z" fill-rule="evenodd"/><path stroke="#595959" stroke-width="3.0" stroke-linejoin="round" stroke-linecap="butt" d="m613.7806 269.9999l53.543274 0l0 53.543304l-53.543274 0z" fill-rule="evenodd"/><path fill="#eeeeee" d="m613.7806 323.5432l53.543274 0l0 53.543304l-53.543274 0z" fill-rule="evenodd"/><path stroke="#595959" stroke-width="3.0" stroke-linejoin="round" stroke-linecap="butt" d="m613.7806 323.5432l53.543274 0l0 53.543304l-53.543274 0z" fill-rule="evenodd"/><path fill="#eeeeee" d="m613.7806 377.08652l53.543274 0l0 53.543304l-53.543274 0z" fill-rule="evenodd"/><path stroke="#595959" stroke-width="3.0" stroke-linejoin="round" stroke-linecap="butt" d="m613.7806 377.08652l53.543274 0l0 53.543304l-53.543274 0z" fill-rule="evenodd"/><path fill="#eeeeee" d="m292.67035 430.62982l53.543304 0l0 53.543304l-53.543304 0z" fill-rule="evenodd"/><path stroke="#595959" stroke-width="3.0" stroke-linejoin="round" stroke-linecap="butt" d="m292.67035 430.62982l53.543304 0l0 53.543304l-53.543304 0z" fill-rule="evenodd"/><path fill="#000000" d="m319.45468 454.23462l3.734375 -6.859375l4.703125 0l-5.796875 9.875l5.953125 10.03125l-4.765625 0l-3.828125 -6.96875l-3.828125 6.96875l-4.78125 0l5.953125 -10.03125l-5.796875 -9.875l4.71875 0l3.734375 6.859375z" fill-rule="nonzero"/><path fill="#eeeeee" d="m667.2976 109.36999l53.543335 0l0 53.543312l-53.543335 0z" fill-rule="evenodd"/><path stroke="#595959" stroke-width="3.0" stroke-linejoin="round" stroke-linecap="butt" d="m667.2976 109.36999l53.543335 0l0 53.543312l-53.543335 0z" fill-rule="evenodd"/><path fill="#eeeeee" d="m667.2976 162.9133l53.543335 0l0 53.543304l-53.543335 0z" fill-rule="evenodd"/><path stroke="#595959" stroke-width="3.0" stroke-linejoin="round" stroke-linecap="butt" d="m667.2976 162.9133l53.543335 0l0 53.543304l-53.543335 0z" fill-rule="evenodd"/><path fill="#eeeeee" d="m667.2976 216.4566l53.543335 0l0 53.543304l-53.543335 0z" fill-rule="evenodd"/><path stroke="#595959" stroke-width="3.0" stroke-linejoin="round" stroke-linecap="butt" d="m667.2976 216.4566l53.543335 0l0 53.543304l-53.543335 0z" fill-rule="evenodd"/><path fill="#000000" d="m694.082 240.06139l3.734375 -6.859375l4.703125 0l-5.796875 9.875l5.953125 10.03125l-4.765625 0l-3.828125 -6.96875l-3.828125 6.96875l-4.78125 0l5.953125 -10.03125l-5.796875 -9.875l4.71875 0l3.734375 6.859375z" fill-rule="nonzero"/><path fill="#eeeeee" d="m667.2976 269.9999l53.543335 0l0 53.543304l-53.543335 0z" fill-rule="evenodd"/><path stroke="#595959" stroke-width="3.0" stroke-linejoin="round" stroke-linecap="butt" d="m667.2976 269.9999l53.543335 0l0 53.543304l-53.543335 0z" fill-rule="evenodd"/><path fill="#eeeeee" d="m667.2976 323.5432l53.543335 0l0 53.543304l-53.543335 0z" fill-rule="evenodd"/><path stroke="#595959" stroke-width="3.0" stroke-linejoin="round" stroke-linecap="butt" d="m667.2976 323.5432l53.543335 0l0 53.543304l-53.543335 0z" fill-rule="evenodd"/><path fill="#eeeeee" d="m667.2976 377.08652l53.543335 0l0 53.543304l-53.543335 0z" fill-rule="evenodd"/><path stroke="#595959" stroke-width="3.0" stroke-linejoin="round" stroke-linecap="butt" d="m667.2976 377.08652l53.543335 0l0 53.543304l-53.543335 0z" fill-rule="evenodd"/><path fill="#eeeeee" d="m346.1874 430.62982l53.543304 0l0 53.543304l-53.543304 0z" fill-rule="evenodd"/><path stroke="#595959" stroke-width="3.0" stroke-linejoin="round" stroke-linecap="butt" d="m346.1874 430.62982l53.543304 0l0 53.543304l-53.543304 0z" fill-rule="evenodd"/><path fill="#000000" d="m372.97174 454.23462l3.734375 -6.859375l4.703125 0l-5.796875 9.875l5.953125 10.03125l-4.765625 0l-3.828125 -6.96875l-3.828125 6.96875l-4.78125 0l5.953125 -10.03125l-5.796875 -9.875l4.71875 0l3.734375 6.859375z" fill-rule="nonzero"/><path fill="#eeeeee" d="m720.8173 109.36999l53.543274 0l0 53.543312l-53.543274 0z" fill-rule="evenodd"/><path stroke="#595959" stroke-width="3.0" stroke-linejoin="round" stroke-linecap="butt" d="m720.8173 109.36999l53.543274 0l0 53.543312l-53.543274 0z" fill-rule="evenodd"/><path fill="#eeeeee" d="m720.8173 162.9133l53.543274 0l0 53.543304l-53.543274 0z" fill-rule="evenodd"/><path stroke="#595959" stroke-width="3.0" stroke-linejoin="round" stroke-linecap="butt" d="m720.8173 162.9133l53.543274 0l0 53.543304l-53.543274 0z" fill-rule="evenodd"/><path fill="#eeeeee" d="m720.8173 216.4566l53.543274 0l0 53.543304l-53.543274 0z" fill-rule="evenodd"/><path stroke="#595959" stroke-width="3.0" stroke-linejoin="round" stroke-linecap="butt" d="m720.8173 216.4566l53.543274 0l0 53.543304l-53.543274 0z" fill-rule="evenodd"/><path fill="#eeeeee" d="m720.8173 269.9999l53.543274 0l0 53.543304l-53.543274 0z" fill-rule="evenodd"/><path stroke="#595959" stroke-width="3.0" stroke-linejoin="round" stroke-linecap="butt" d="m720.8173 269.9999l53.543274 0l0 53.543304l-53.543274 0z" fill-rule="evenodd"/><path fill="#000000" d="m747.6017 293.60468l3.734375 -6.859375l4.703125 0l-5.796875 9.875l5.953125 10.03125l-4.765625 0l-3.828125 -6.96875l-3.828125 6.96875l-4.78125 0l5.953125 -10.03125l-5.796875 -9.875l4.71875 0l3.734375 6.859375z" fill-rule="nonzero"/><path fill="#eeeeee" d="m720.8173 323.5432l53.543274 0l0 53.543304l-53.543274 0z" fill-rule="evenodd"/><path stroke="#595959" stroke-width="3.0" stroke-linejoin="round" stroke-linecap="butt" d="m720.8173 323.5432l53.543274 0l0 53.543304l-53.543274 0z" fill-rule="evenodd"/><path fill="#eeeeee" d="m720.8173 377.08652l53.543274 0l0 53.543304l-53.543274 0z" fill-rule="evenodd"/><path stroke="#595959" stroke-width="3.0" stroke-linejoin="round" stroke-linecap="butt" d="m720.8173 377.08652l53.543274 0l0 53.543304l-53.543274 0z" fill-rule="evenodd"/><path fill="#eeeeee" d="m399.7071 430.62982l53.543304 0l0 53.543304l-53.543304 0z" fill-rule="evenodd"/><path stroke="#595959" stroke-width="3.0" stroke-linejoin="round" stroke-linecap="butt" d="m399.7071 430.62982l53.543304 0l0 53.543304l-53.543304 0z" fill-rule="evenodd"/><path fill="#000000" d="m426.49142 454.23462l3.734375 -6.859375l4.703125 0l-5.796875 9.875l5.953125 10.03125l-4.765625 0l-3.828125 -6.96875l-3.828125 6.96875l-4.78125 0l5.953125 -10.03125l-5.796875 -9.875l4.71875 0l3.734375 6.859375z" fill-rule="nonzero"/><path fill="#eeeeee" d="m774.33435 109.36999l53.543335 0l0 53.543312l-53.543335 0z" fill-rule="evenodd"/><path stroke="#595959" stroke-width="3.0" stroke-linejoin="round" stroke-linecap="butt" d="m774.33435 109.36999l53.543335 0l0 53.543312l-53.543335 0z" fill-rule="evenodd"/><path fill="#eeeeee" d="m774.33435 162.9133l53.543335 0l0 53.543304l-53.543335 0z" fill-rule="evenodd"/><path stroke="#595959" stroke-width="3.0" stroke-linejoin="round" stroke-linecap="butt" d="m774.33435 162.9133l53.543335 0l0 53.543304l-53.543335 0z" fill-rule="evenodd"/><path fill="#eeeeee" d="m774.33435 216.4566l53.543335 0l0 53.543304l-53.543335 0z" fill-rule="evenodd"/><path stroke="#595959" stroke-width="3.0" stroke-linejoin="round" stroke-linecap="butt" d="m774.33435 216.4566l53.543335 0l0 53.543304l-53.543335 0z" fill-rule="evenodd"/><path fill="#eeeeee" d="m774.33435 269.9999l53.543335 0l0 53.543304l-53.543335 0z" fill-rule="evenodd"/><path stroke="#595959" stroke-width="3.0" stroke-linejoin="round" stroke-linecap="butt" d="m774.33435 269.9999l53.543335 0l0 53.543304l-53.543335 0z" fill-rule="evenodd"/><path fill="#eeeeee" d="m774.33435 323.5432l53.543335 0l0 53.543304l-53.543335 0z" fill-rule="evenodd"/><path stroke="#595959" stroke-width="3.0" stroke-linejoin="round" stroke-linecap="butt" d="m774.33435 323.5432l53.543335 0l0 53.543304l-53.543335 0z" fill-rule="evenodd"/><path fill="#000000" d="m801.1187 347.148l3.734375 -6.859375l4.703125 0l-5.796875 9.875l5.953125 10.03125l-4.765625 0l-3.828125 -6.96875l-3.828125 6.96875l-4.78125 0l5.953125 -10.03125l-5.796875 -9.875l4.71875 0l3.734375 6.859375z" fill-rule="nonzero"/><path fill="#eeeeee" d="m774.33435 377.08652l53.543335 0l0 53.543304l-53.543335 0z" fill-rule="evenodd"/><path stroke="#595959" stroke-width="3.0" stroke-linejoin="round" stroke-linecap="butt" d="m774.33435 377.08652l53.543335 0l0 53.543304l-53.543335 0z" fill-rule="evenodd"/><path fill="#eeeeee" d="m453.22415 430.62982l53.543304 0l0 53.543304l-53.543304 0z" fill-rule="evenodd"/><path stroke="#595959" stroke-width="3.0" stroke-linejoin="round" stroke-linecap="butt" d="m453.22415 430.62982l53.543304 0l0 53.543304l-53.543304 0z" fill-rule="evenodd"/><path fill="#000000" d="m480.00848 454.23462l3.734375 -6.859375l4.703125 0l-5.796875 9.875l5.953125 10.03125l-4.765625 0l-3.828125 -6.96875l-3.828125 6.96875l-4.78125 0l5.953125 -10.03125l-5.796875 -9.875l4.71875 0l3.734375 6.859375z" fill-rule="nonzero"/><path fill="#eeeeee" d="m827.85406 109.36999l53.543335 0l0 53.543312l-53.543335 0z" fill-rule="evenodd"/><path stroke="#595959" stroke-width="3.0" stroke-linejoin="round" stroke-linecap="butt" d="m827.85406 109.36999l53.543335 0l0 53.543312l-53.543335 0z" fill-rule="evenodd"/><path fill="#eeeeee" d="m827.85406 162.9133l53.543335 0l0 53.543304l-53.543335 0z" fill-rule="evenodd"/><path stroke="#595959" stroke-width="3.0" stroke-linejoin="round" stroke-linecap="butt" d="m827.85406 162.9133l53.543335 0l0 53.543304l-53.543335 0z" fill-rule="evenodd"/><path fill="#eeeeee" d="m827.85406 216.4566l53.543335 0l0 53.543304l-53.543335 0z" fill-rule="evenodd"/><path stroke="#595959" stroke-width="3.0" stroke-linejoin="round" stroke-linecap="butt" d="m827.85406 216.4566l53.543335 0l0 53.543304l-53.543335 0z" fill-rule="evenodd"/><path fill="#eeeeee" d="m827.85406 269.9999l53.543335 0l0 53.543304l-53.543335 0z" fill-rule="evenodd"/><path stroke="#595959" stroke-width="3.0" stroke-linejoin="round" stroke-linecap="butt" d="m827.85406 269.9999l53.543335 0l0 53.543304l-53.543335 0z" fill-rule="evenodd"/><path fill="#eeeeee" d="m827.85406 323.5432l53.543335 0l0 53.543304l-53.543335 0z" fill-rule="evenodd"/><path stroke="#595959" stroke-width="3.0" stroke-linejoin="round" stroke-linecap="butt" d="m827.85406 323.5432l53.543335 0l0 53.543304l-53.543335 0z" fill-rule="evenodd"/><path fill="#eeeeee" d="m827.85406 377.08652l53.543335 0l0 53.543304l-53.543335 0z" fill-rule="evenodd"/><path stroke="#595959" stroke-width="3.0" stroke-linejoin="round" stroke-linecap="butt" d="m827.85406 377.08652l53.543335 0l0 53.543304l-53.543335 0z" fill-rule="evenodd"/><path fill="#000000" d="m854.6384 400.6913l3.734375 -6.859375l4.703125 0l-5.796875 9.875l5.953125 10.03125l-4.765625 0l-3.828125 -6.96875l-3.828125 6.96875l-4.78125 0l5.953125 -10.03125l-5.796875 -9.875l4.71875 0l3.734375 6.859375z" fill-rule="nonzero"/><path fill="#eeeeee" d="m506.74384 430.62982l53.543274 0l0 53.543304l-53.543274 0z" fill-rule="evenodd"/><path stroke="#595959" stroke-width="3.0" stroke-linejoin="round" stroke-linecap="butt" d="m506.74384 430.62982l53.543274 0l0 53.543304l-53.543274 0z" fill-rule="evenodd"/><path fill="#000000" d="m533.5282 454.23462l3.734375 -6.859375l4.703125 0l-5.796875 9.875l5.953125 10.03125l-4.765625 0l-3.828125 -6.96875l-3.828125 6.96875l-4.78125 0l5.953125 -10.03125l-5.796875 -9.875l4.71875 0l3.734375 6.859375z" fill-rule="nonzero"/><path fill="#eeeeee" d="m881.3711 109.36999l53.543335 0l0 53.543312l-53.543335 0z" fill-rule="evenodd"/><path stroke="#595959" stroke-width="3.0" stroke-linejoin="round" stroke-linecap="butt" d="m881.3711 109.36999l53.543335 0l0 53.543312l-53.543335 0z" fill-rule="evenodd"/><path fill="#eeeeee" d="m881.3711 162.9133l53.543335 0l0 53.543304l-53.543335 0z" fill-rule="evenodd"/><path stroke="#595959" stroke-width="3.0" stroke-linejoin="round" stroke-linecap="butt" d="m881.3711 162.9133l53.543335 0l0 53.543304l-53.543335 0z" fill-rule="evenodd"/><path fill="#eeeeee" d="m881.3711 216.4566l53.543335 0l0 53.543304l-53.543335 0z" fill-rule="evenodd"/><path stroke="#595959" stroke-width="3.0" stroke-linejoin="round" stroke-linecap="butt" d="m881.3711 216.4566l53.543335 0l0 53.543304l-53.543335 0z" fill-rule="evenodd"/><path fill="#eeeeee" d="m881.3711 269.9999l53.543335 0l0 53.543304l-53.543335 0z" fill-rule="evenodd"/><path stroke="#595959" stroke-width="3.0" stroke-linejoin="round" stroke-linecap="butt" d="m881.3711 269.9999l53.543335 0l0 53.543304l-53.543335 0z" fill-rule="evenodd"/><path fill="#eeeeee" d="m881.3711 323.5432l53.543335 0l0 53.543304l-53.543335 0z" fill-rule="evenodd"/><path stroke="#595959" stroke-width="3.0" stroke-linejoin="round" stroke-linecap="butt" d="m881.3711 323.5432l53.543335 0l0 53.543304l-53.543335 0z" fill-rule="evenodd"/><path fill="#eeeeee" d="m881.3711 377.08652l53.543335 0l0 53.543304l-53.543335 0z" fill-rule="evenodd"/><path stroke="#595959" stroke-width="3.0" stroke-linejoin="round" stroke-linecap="butt" d="m881.3711 377.08652l53.543335 0l0 53.543304l-53.543335 0z" fill-rule="evenodd"/><path fill="#eeeeee" d="m881.3711 430.62982l53.543335 0l0 53.543304l-53.543335 0z" fill-rule="evenodd"/><path stroke="#595959" stroke-width="3.0" stroke-linejoin="round" stroke-linecap="butt" d="m881.3711 430.62982l53.543335 0l0 53.543304l-53.543335 0z" fill-rule="evenodd"/><path fill="#000000" d="m908.15546 454.23462l3.734375 -6.859375l4.703125 0l-5.796875 9.875l5.953125 10.03125l-4.765625 0l-3.828125 -6.96875l-3.828125 6.96875l-4.78125 0l5.953125 -10.03125l-5.796875 -9.875l4.71875 0l3.734375 6.859375z" fill-rule="nonzero"/><path fill="#eeeeee" d="m560.26086 430.62982l53.543335 0l0 53.543304l-53.543335 0z" fill-rule="evenodd"/><path stroke="#595959" stroke-width="3.0" stroke-linejoin="round" stroke-linecap="butt" d="m560.26086 430.62982l53.543335 0l0 53.543304l-53.543335 0z" fill-rule="evenodd"/><path fill="#eeeeee" d="m613.77795 430.62982l53.543274 0l0 53.543304l-53.543274 0z" fill-rule="evenodd"/><path stroke="#595959" stroke-width="3.0" stroke-linejoin="round" stroke-linecap="butt" d="m613.77795 430.62982l53.543274 0l0 53.543304l-53.543274 0z" fill-rule="evenodd"/><path fill="#eeeeee" d="m667.2976 430.62982l53.543335 0l0 53.543304l-53.543335 0z" fill-rule="evenodd"/><path stroke="#595959" stroke-width="3.0" stroke-linejoin="round" stroke-linecap="butt" d="m667.2976 430.62982l53.543335 0l0 53.543304l-53.543335 0z" fill-rule="evenodd"/><path fill="#eeeeee" d="m720.816 430.62982l53.543335 0l0 53.543304l-53.543335 0z" fill-rule="evenodd"/><path stroke="#595959" stroke-width="3.0" stroke-linejoin="round" stroke-linecap="butt" d="m720.816 430.62982l53.543335 0l0 53.543304l-53.543335 0z" fill-rule="evenodd"/><path fill="#eeeeee" d="m774.33307 430.62982l53.543274 0l0 53.543304l-53.543274 0z" fill-rule="evenodd"/><path stroke="#595959" stroke-width="3.0" stroke-linejoin="round" stroke-linecap="butt" d="m774.33307 430.62982l53.543274 0l0 53.543304l-53.543274 0z" fill-rule="evenodd"/><path fill="#eeeeee" d="m827.8527 430.62982l53.543335 0l0 53.543304l-53.543335 0z" fill-rule="evenodd"/><path stroke="#595959" stroke-width="3.0" stroke-linejoin="round" stroke-linecap="butt" d="m827.8527 430.62982l53.543335 0l0 53.543304l-53.543335 0z" fill-rule="evenodd"/><path fill="#eeeeee" d="m78.595535 162.9133l53.543304 0l0 53.543304l-53.543304 0z" fill-rule="evenodd"/><path stroke="#595959" stroke-width="3.0" stroke-linejoin="round" stroke-linecap="butt" d="m78.595535 162.9133l53.543304 0l0 53.543304l-53.543304 0z" fill-rule="evenodd"/><path fill="#eeeeee" d="m132.1126 162.9133l53.543304 0l0 53.543304l-53.543304 0z" fill-rule="evenodd"/><path stroke="#595959" stroke-width="3.0" stroke-linejoin="round" stroke-linecap="butt" d="m132.1126 162.9133l53.543304 0l0 53.543304l-53.543304 0z" fill-rule="evenodd"/><path fill="#eeeeee" d="m185.63228 162.9133l53.543304 0l0 53.543304l-53.543304 0z" fill-rule="evenodd"/><path stroke="#595959" stroke-width="3.0" stroke-linejoin="round" stroke-linecap="butt" d="m185.63228 162.9133l53.543304 0l0 53.543304l-53.543304 0z" fill-rule="evenodd"/><path fill="#eeeeee" d="m78.595535 216.4566l53.543304 0l0 53.543304l-53.543304 0z" fill-rule="evenodd"/><path stroke="#595959" stroke-width="3.0" stroke-linejoin="round" stroke-linecap="butt" d="m78.595535 216.4566l53.543304 0l0 53.543304l-53.543304 0z" fill-rule="evenodd"/><path fill="#eeeeee" d="m132.1126 216.4566l53.543304 0l0 53.543304l-53.543304 0z" fill-rule="evenodd"/><path stroke="#595959" stroke-width="3.0" stroke-linejoin="round" stroke-linecap="butt" d="m132.1126 216.4566l53.543304 0l0 53.543304l-53.543304 0z" fill-rule="evenodd"/><path fill="#eeeeee" d="m185.63228 216.4566l53.543304 0l0 53.543304l-53.543304 0z" fill-rule="evenodd"/><path stroke="#595959" stroke-width="3.0" stroke-linejoin="round" stroke-linecap="butt" d="m185.63228 216.4566l53.543304 0l0 53.543304l-53.543304 0z" fill-rule="evenodd"/><path fill="#eeeeee" d="m239.1769 162.9133l53.54332 0l0 53.543304l-53.54332 0z" fill-rule="evenodd"/><path stroke="#595959" stroke-width="3.0" stroke-linejoin="round" stroke-linecap="butt" d="m239.1769 162.9133l53.54332 0l0 53.543304l-53.54332 0z" fill-rule="evenodd"/><path fill="#000000" d="m265.96124 186.51808l3.734375 -6.859375l4.703125 0l-5.796875 9.875l5.953125 10.03125l-4.765625 0l-3.828125 -6.96875l-3.828125 6.96875l-4.78125 0l5.953125 -10.03125l-5.796875 -9.875l4.71875 0l3.734375 6.859375z" fill-rule="nonzero"/><path fill="#eeeeee" d="m292.69397 162.9133l53.543304 0l0 53.543304l-53.543304 0z" fill-rule="evenodd"/><path stroke="#595959" stroke-width="3.0" stroke-linejoin="round" stroke-linecap="butt" d="m292.69397 162.9133l53.543304 0l0 53.543304l-53.543304 0z" fill-rule="evenodd"/><path fill="#000000" d="m319.4783 186.51808l3.734375 -6.859375l4.703125 0l-5.796875 9.875l5.953125 10.03125l-4.765625 0l-3.828125 -6.96875l-3.828125 6.96875l-4.78125 0l5.953125 -10.03125l-5.796875 -9.875l4.71875 0l3.734375 6.859375z" fill-rule="nonzero"/><path fill="#eeeeee" d="m346.21365 162.9133l53.543304 0l0 53.543304l-53.543304 0z" fill-rule="evenodd"/><path stroke="#595959" stroke-width="3.0" stroke-linejoin="round" stroke-linecap="butt" d="m346.21365 162.9133l53.543304 0l0 53.543304l-53.543304 0z" fill-rule="evenodd"/><path fill="#000000" d="m372.998 186.51808l3.734375 -6.859375l4.703125 0l-5.796875 9.875l5.953125 10.03125l-4.765625 0l-3.828125 -6.96875l-3.828125 6.96875l-4.78125 0l5.953125 -10.03125l-5.796875 -9.875l4.71875 0l3.734375 6.859375z" fill-rule="nonzero"/><path fill="#eeeeee" d="m399.7071 216.4566l53.543304 0l0 53.543304l-53.543304 0z" fill-rule="evenodd"/><path stroke="#595959" stroke-width="3.0" stroke-linejoin="round" stroke-linecap="butt" d="m399.7071 216.4566l53.543304 0l0 53.543304l-53.543304 0z" fill-rule="evenodd"/><path fill="#000000" d="m426.49142 240.06139l3.734375 -6.859375l4.703125 0l-5.796875 9.875l5.953125 10.03125l-4.765625 0l-3.828125 -6.96875l-3.828125 6.96875l-4.78125 0l5.953125 -10.03125l-5.796875 -9.875l4.71875 0l3.734375 6.859375z" fill-rule="nonzero"/><path fill="#eeeeee" d="m453.22415 216.4566l53.543304 0l0 53.543304l-53.543304 0z" fill-rule="evenodd"/><path stroke="#595959" stroke-width="3.0" stroke-linejoin="round" stroke-linecap="butt" d="m453.22415 216.4566l53.543304 0l0 53.543304l-53.543304 0z" fill-rule="evenodd"/><path fill="#000000" d="m480.00848 240.06139l3.734375 -6.859375l4.703125 0l-5.796875 9.875l5.953125 10.03125l-4.765625 0l-3.828125 -6.96875l-3.828125 6.96875l-4.78125 0l5.953125 -10.03125l-5.796875 -9.875l4.71875 0l3.734375 6.859375z" fill-rule="nonzero"/><path fill="#eeeeee" d="m506.74384 216.4566l53.543274 0l0 53.543304l-53.543274 0z" fill-rule="evenodd"/><path stroke="#595959" stroke-width="3.0" stroke-linejoin="round" stroke-linecap="butt" d="m506.74384 216.4566l53.543274 0l0 53.543304l-53.543274 0z" fill-rule="evenodd"/><path fill="#000000" d="m533.5282 240.06139l3.734375 -6.859375l4.703125 0l-5.796875 9.875l5.953125 10.03125l-4.765625 0l-3.828125 -6.96875l-3.828125 6.96875l-4.78125 0l5.953125 -10.03125l-5.796875 -9.875l4.71875 0l3.734375 6.859375z" fill-rule="nonzero"/><path fill="#eeeeee" d="m399.7189 162.91461l53.543304 0l0 53.543304l-53.543304 0z" fill-rule="evenodd"/><path stroke="#595959" stroke-width="3.0" stroke-linejoin="round" stroke-linecap="butt" d="m399.7189 162.91461l53.543304 0l0 53.543304l-53.543304 0z" fill-rule="evenodd"/><path fill="#eeeeee" d="m453.23596 162.91461l53.543304 0l0 53.543304l-53.543304 0z" fill-rule="evenodd"/><path stroke="#595959" stroke-width="3.0" stroke-linejoin="round" stroke-linecap="butt" d="m453.23596 162.91461l53.543304 0l0 53.543304l-53.543304 0z" fill-rule="evenodd"/><path fill="#eeeeee" d="m506.75565 162.91461l53.543304 0l0 53.543304l-53.543304 0z" fill-rule="evenodd"/><path stroke="#595959" stroke-width="3.0" stroke-linejoin="round" stroke-linecap="butt" d="m506.75565 162.91461l53.543304 0l0 53.543304l-53.543304 0z" fill-rule="evenodd"/><path fill="#eeeeee" d="m239.15065 216.4566l53.54332 0l0 53.543304l-53.54332 0z" fill-rule="evenodd"/><path stroke="#595959" stroke-width="3.0" stroke-linejoin="round" stroke-linecap="butt" d="m239.15065 216.4566l53.54332 0l0 53.543304l-53.54332 0z" fill-rule="evenodd"/><path fill="#eeeeee" d="m292.66772 216.4566l53.543304 0l0 53.543304l-53.543304 0z" fill-rule="evenodd"/><path stroke="#595959" stroke-width="3.0" stroke-linejoin="round" stroke-linecap="butt" d="m292.66772 216.4566l53.543304 0l0 53.543304l-53.543304 0z" fill-rule="evenodd"/><path fill="#eeeeee" d="m346.1874 216.4566l53.543304 0l0 53.543304l-53.543304 0z" fill-rule="evenodd"/><path stroke="#595959" stroke-width="3.0" stroke-linejoin="round" stroke-linecap="butt" d="m346.1874 216.4566l53.543304 0l0 53.543304l-53.543304 0z" fill-rule="evenodd"/><path fill="#eeeeee" d="m78.595535 269.9999l53.543304 0l0 53.543304l-53.543304 0z" fill-rule="evenodd"/><path stroke="#595959" stroke-width="3.0" stroke-linejoin="round" stroke-linecap="butt" d="m78.595535 269.9999l53.543304 0l0 53.543304l-53.543304 0z" fill-rule="evenodd"/><path fill="#000000" d="m105.37988 293.60468l3.734375 -6.859375l4.703125 0l-5.796875 9.875l5.953125 10.03125l-4.765625 0l-3.828125 -6.96875l-3.828125 6.96875l-4.78125 0l5.953125 -10.03125l-5.796875 -9.875l4.71875 0l3.734375 6.859375z" fill-rule="nonzero"/><path fill="#eeeeee" d="m239.14934 269.9999l53.54332 0l0 53.543304l-53.54332 0z" fill-rule="evenodd"/><path stroke="#595959" stroke-width="3.0" stroke-linejoin="round" stroke-linecap="butt" d="m239.14934 269.9999l53.54332 0l0 53.543304l-53.54332 0z" fill-rule="evenodd"/><path fill="#000000" d="m265.9337 293.60468l3.734375 -6.859375l4.703125 0l-5.796875 9.875l5.953125 10.03125l-4.765625 0l-3.828125 -6.96875l-3.828125 6.96875l-4.78125 0l5.953125 -10.03125l-5.796875 -9.875l4.71875 0l3.734375 6.859375z" fill-rule="nonzero"/><path fill="#eeeeee" d="m399.70447 269.9999l53.543304 0l0 53.543304l-53.543304 0z" fill-rule="evenodd"/><path stroke="#595959" stroke-width="3.0" stroke-linejoin="round" stroke-linecap="butt" d="m399.70447 269.9999l53.543304 0l0 53.543304l-53.543304 0z" fill-rule="evenodd"/><path fill="#000000" d="m426.4888 293.60468l3.734375 -6.859375l4.703125 0l-5.796875 9.875l5.953125 10.03125l-4.765625 0l-3.828125 -6.96875l-3.828125 6.96875l-4.78125 0l5.953125 -10.03125l-5.796875 -9.875l4.71875 0l3.734375 6.859375z" fill-rule="nonzero"/><path fill="#eeeeee" d="m132.1139 323.5432l53.543304 0l0 53.543304l-53.543304 0z" fill-rule="evenodd"/><path stroke="#595959" stroke-width="3.0" stroke-linejoin="round" stroke-linecap="butt" d="m132.1139 323.5432l53.543304 0l0 53.543304l-53.543304 0z" fill-rule="evenodd"/><path fill="#000000" d="m158.89825 347.148l3.734375 -6.859375l4.703125 0l-5.796875 9.875l5.953125 10.03125l-4.765625 0l-3.828125 -6.96875l-3.828125 6.96875l-4.78125 0l5.953125 -10.03125l-5.796875 -9.875l4.71875 0l3.734375 6.859375z" fill-rule="nonzero"/><path fill="#eeeeee" d="m292.66904 323.5432l53.543304 0l0 53.543304l-53.543304 0z" fill-rule="evenodd"/><path stroke="#595959" stroke-width="3.0" stroke-linejoin="round" stroke-linecap="butt" d="m292.66904 323.5432l53.543304 0l0 53.543304l-53.543304 0z" fill-rule="evenodd"/><path fill="#000000" d="m319.45337 347.148l3.734375 -6.859375l4.703125 0l-5.796875 9.875l5.953125 10.03125l-4.765625 0l-3.828125 -6.96875l-3.828125 6.96875l-4.78125 0l5.953125 -10.03125l-5.796875 -9.875l4.71875 0l3.734375 6.859375z" fill-rule="nonzero"/><path fill="#eeeeee" d="m453.22415 323.5432l53.543304 0l0 53.543304l-53.543304 0z" fill-rule="evenodd"/><path stroke="#595959" stroke-width="3.0" stroke-linejoin="round" stroke-linecap="butt" d="m453.22415 323.5432l53.543304 0l0 53.543304l-53.543304 0z" fill-rule="evenodd"/><path fill="#000000" d="m480.00848 347.148l3.734375 -6.859375l4.703125 0l-5.796875 9.875l5.953125 10.03125l-4.765625 0l-3.828125 -6.96875l-3.828125 6.96875l-4.78125 0l5.953125 -10.03125l-5.796875 -9.875l4.71875 0l3.734375 6.859375z" fill-rule="nonzero"/><path fill="#eeeeee" d="m78.59685 323.5432l53.543304 0l0 53.543304l-53.543304 0z" fill-rule="evenodd"/><path stroke="#595959" stroke-width="3.0" stroke-linejoin="round" stroke-linecap="butt" d="m78.59685 323.5432l53.543304 0l0 53.543304l-53.543304 0z" fill-rule="evenodd"/><path fill="#eeeeee" d="m78.59422 377.08652l53.543304 0l0 53.543304l-53.543304 0z" fill-rule="evenodd"/><path stroke="#595959" stroke-width="3.0" stroke-linejoin="round" stroke-linecap="butt" d="m78.59422 377.08652l53.543304 0l0 53.543304l-53.543304 0z" fill-rule="evenodd"/><path fill="#eeeeee" d="m239.15065 323.5432l53.54332 0l0 53.543304l-53.54332 0z" fill-rule="evenodd"/><path stroke="#595959" stroke-width="3.0" stroke-linejoin="round" stroke-linecap="butt" d="m239.15065 323.5432l53.54332 0l0 53.543304l-53.54332 0z" fill-rule="evenodd"/><path fill="#eeeeee" d="m239.14934 377.08652l53.54332 0l0 53.543304l-53.54332 0z" fill-rule="evenodd"/><path stroke="#595959" stroke-width="3.0" stroke-linejoin="round" stroke-linecap="butt" d="m239.14934 377.08652l53.54332 0l0 53.543304l-53.54332 0z" fill-rule="evenodd"/><path fill="#eeeeee" d="m399.7071 323.5432l53.543304 0l0 53.543304l-53.543304 0z" fill-rule="evenodd"/><path stroke="#595959" stroke-width="3.0" stroke-linejoin="round" stroke-linecap="butt" d="m399.7071 323.5432l53.543304 0l0 53.543304l-53.543304 0z" fill-rule="evenodd"/><path fill="#eeeeee" d="m399.70447 377.08652l53.543304 0l0 53.543304l-53.543304 0z" fill-rule="evenodd"/><path stroke="#595959" stroke-width="3.0" stroke-linejoin="round" stroke-linecap="butt" d="m399.70447 377.08652l53.543304 0l0 53.543304l-53.543304 0z" fill-rule="evenodd"/><path fill="#eeeeee" d="m132.11653 269.9999l53.543304 0l0 53.543304l-53.543304 0z" fill-rule="evenodd"/><path stroke="#595959" stroke-width="3.0" stroke-linejoin="round" stroke-linecap="butt" d="m132.11653 269.9999l53.543304 0l0 53.543304l-53.543304 0z" fill-rule="evenodd"/><path fill="#eeeeee" d="m132.11653 377.08652l53.543304 0l0 53.543304l-53.543304 0z" fill-rule="evenodd"/><path stroke="#595959" stroke-width="3.0" stroke-linejoin="round" stroke-linecap="butt" d="m132.11653 377.08652l53.543304 0l0 53.543304l-53.543304 0z" fill-rule="evenodd"/><path fill="#eeeeee" d="m185.63359 269.9999l53.543304 0l0 53.543304l-53.543304 0z" fill-rule="evenodd"/><path stroke="#595959" stroke-width="3.0" stroke-linejoin="round" stroke-linecap="butt" d="m185.63359 269.9999l53.543304 0l0 53.543304l-53.543304 0z" fill-rule="evenodd"/><path fill="#eeeeee" d="m185.63228 377.08652l53.543304 0l0 53.543304l-53.543304 0z" fill-rule="evenodd"/><path stroke="#595959" stroke-width="3.0" stroke-linejoin="round" stroke-linecap="butt" d="m185.63228 377.08652l53.543304 0l0 53.543304l-53.543304 0z" fill-rule="evenodd"/><path fill="#000000" d="m212.41663 400.6913l3.734375 -6.859375l4.703125 0l-5.796875 9.875l5.953125 10.03125l-4.765625 0l-3.828125 -6.96875l-3.828125 6.96875l-4.78125 0l5.953125 -10.03125l-5.796875 -9.875l4.71875 0l3.734375 6.859375z" fill-rule="nonzero"/><path fill="#eeeeee" d="m346.1874 377.08652l53.543304 0l0 53.543304l-53.543304 0z" fill-rule="evenodd"/><path stroke="#595959" stroke-width="3.0" stroke-linejoin="round" stroke-linecap="butt" d="m346.1874 377.08652l53.543304 0l0 53.543304l-53.543304 0z" fill-rule="evenodd"/><path fill="#000000" d="m372.97174 400.6913l3.734375 -6.859375l4.703125 0l-5.796875 9.875l5.953125 10.03125l-4.765625 0l-3.828125 -6.96875l-3.828125 6.96875l-4.78125 0l5.953125 -10.03125l-5.796875 -9.875l4.71875 0l3.734375 6.859375z" fill-rule="nonzero"/><path fill="#eeeeee" d="m506.74252 377.08652l53.543304 0l0 53.543304l-53.543304 0z" fill-rule="evenodd"/><path stroke="#595959" stroke-width="3.0" stroke-linejoin="round" stroke-linecap="butt" d="m506.74252 377.08652l53.543304 0l0 53.543304l-53.543304 0z" fill-rule="evenodd"/><path fill="#000000" d="m533.52686 400.6913l3.734375 -6.859375l4.703125 0l-5.796875 9.875l5.953125 10.03125l-4.765625 0l-3.828125 -6.96875l-3.828125 6.96875l-4.78125 0l5.953125 -10.03125l-5.796875 -9.875l4.71875 0l3.734375 6.859375z" fill-rule="nonzero"/><path fill="#eeeeee" d="m292.67035 269.9999l53.543304 0l0 53.543304l-53.543304 0z" fill-rule="evenodd"/><path stroke="#595959" stroke-width="3.0" stroke-linejoin="round" stroke-linecap="butt" d="m292.67035 269.9999l53.543304 0l0 53.543304l-53.543304 0z" fill-rule="evenodd"/><path fill="#eeeeee" d="m346.1874 269.9999l53.543304 0l0 53.543304l-53.543304 0z" fill-rule="evenodd"/><path stroke="#595959" stroke-width="3.0" stroke-linejoin="round" stroke-linecap="butt" d="m346.1874 269.9999l53.543304 0l0 53.543304l-53.543304 0z" fill-rule="evenodd"/><path fill="#eeeeee" d="m346.1874 323.5432l53.543304 0l0 53.543304l-53.543304 0z" fill-rule="evenodd"/><path stroke="#595959" stroke-width="3.0" stroke-linejoin="round" stroke-linecap="butt" d="m346.1874 323.5432l53.543304 0l0 53.543304l-53.543304 0z" fill-rule="evenodd"/><path fill="#eeeeee" d="m185.63359 323.5432l53.543304 0l0 53.543304l-53.543304 0z" fill-rule="evenodd"/><path stroke="#595959" stroke-width="3.0" stroke-linejoin="round" stroke-linecap="butt" d="m185.63359 323.5432l53.543304 0l0 53.543304l-53.543304 0z" fill-rule="evenodd"/><path fill="#eeeeee" d="m292.67035 377.08652l53.543304 0l0 53.543304l-53.543304 0z" fill-rule="evenodd"/><path stroke="#595959" stroke-width="3.0" stroke-linejoin="round" stroke-linecap="butt" d="m292.67035 377.08652l53.543304 0l0 53.543304l-53.543304 0z" fill-rule="evenodd"/><path fill="#eeeeee" d="m453.22415 377.08652l53.543304 0l0 53.543304l-53.543304 0z" fill-rule="evenodd"/><path stroke="#595959" stroke-width="3.0" stroke-linejoin="round" stroke-linecap="butt" d="m453.22415 377.08652l53.543304 0l0 53.543304l-53.543304 0z" fill-rule="evenodd"/><path fill="#eeeeee" d="m453.22415 269.9999l53.543304 0l0 53.543304l-53.543304 0z" fill-rule="evenodd"/><path stroke="#595959" stroke-width="3.0" stroke-linejoin="round" stroke-linecap="butt" d="m453.22415 269.9999l53.543304 0l0 53.543304l-53.543304 0z" fill-rule="evenodd"/><path fill="#eeeeee" d="m506.74384 269.9999l53.543274 0l0 53.543304l-53.543274 0z" fill-rule="evenodd"/><path stroke="#595959" stroke-width="3.0" stroke-linejoin="round" stroke-linecap="butt" d="m506.74384 269.9999l53.543274 0l0 53.543304l-53.543274 0z" fill-rule="evenodd"/><path fill="#eeeeee" d="m506.74384 323.5432l53.543274 0l0 53.543304l-53.543274 0z" fill-rule="evenodd"/><path stroke="#595959" stroke-width="3.0" stroke-linejoin="round" stroke-linecap="butt" d="m506.74384 323.5432l53.543274 0l0 53.543304l-53.543274 0z" fill-rule="evenodd"/><path fill="#eeeeee" d="m78.59947 430.62982l53.543304 0l0 53.543304l-53.543304 0z" fill-rule="evenodd"/><path stroke="#595959" stroke-width="3.0" stroke-linejoin="round" stroke-linecap="butt" d="m78.59947 430.62982l53.543304 0l0 53.543304l-53.543304 0z" fill-rule="evenodd"/><path fill="#000000" d="m105.38382 454.23462l3.734375 -6.859375l4.703125 0l-5.796875 9.875l5.953125 10.03125l-4.765625 0l-3.828125 -6.96875l-3.828125 6.96875l-4.78125 0l5.953125 -10.03125l-5.796875 -9.875l4.71875 0l3.734375 6.859375z" fill-rule="nonzero"/><path fill="#eeeeee" d="m132.11916 430.62982l53.543304 0l0 53.543304l-53.543304 0z" fill-rule="evenodd"/><path stroke="#595959" stroke-width="3.0" stroke-linejoin="round" stroke-linecap="butt" d="m132.11916 430.62982l53.543304 0l0 53.543304l-53.543304 0z" fill-rule="evenodd"/><path fill="#000000" d="m158.9035 454.23462l3.734375 -6.859375l4.703125 0l-5.796875 9.875l5.953125 10.03125l-4.765625 0l-3.828125 -6.96875l-3.828125 6.96875l-4.78125 0l5.953125 -10.03125l-5.796875 -9.875l4.71875 0l3.734375 6.859375z" fill-rule="nonzero"/><path fill="#eeeeee" d="m185.63622 430.62982l53.543304 0l0 53.543304l-53.543304 0z" fill-rule="evenodd"/><path stroke="#595959" stroke-width="3.0" stroke-linejoin="round" stroke-linecap="butt" d="m185.63622 430.62982l53.543304 0l0 53.543304l-53.543304 0z" fill-rule="evenodd"/><path fill="#000000" d="m212.42056 454.23462l3.734375 -6.859375l4.703125 0l-5.796875 9.875l5.953125 10.03125l-4.765625 0l-3.828125 -6.96875l-3.828125 6.96875l-4.78125 0l5.953125 -10.03125l-5.796875 -9.875l4.71875 0l3.734375 6.859375z" fill-rule="nonzero"/></g></svg>