<svg version="1.1" viewBox="0.0 0.0 960.0 540.0" fill="none" stroke="none" stroke-linecap="square" stroke-miterlimit="10" xmlns:xlink="http://www.w3.org/1999/xlink" xmlns="http://www.w3.org/2000/svg"><clipPath id="g1128c8048ff_0_0.0"><path d="m0 0l960.0 0l0 540.0l-960.0 0l0 -540.0z" clip-rule="nonzero"/></clipPath><g clip-path="url(#g1128c8048ff_0_0.0)"><path fill="#ffffff" d="m0 0l960.0 0l0 540.0l-960.0 0z" fill-rule="evenodd"/><path fill="#eeeeee" d="m170.44095 3.448819l619.11816 0l0 533.1024l-619.11816 0z" fill-rule="evenodd"/><path stroke="#595959" stroke-width="4.0" stroke-linejoin="round" stroke-linecap="butt" d="m170.44095 3.448819l619.11816 0l0 533.1024l-619.11816 0z" fill-rule="evenodd"/><path fill="#000000" fill-opacity="0.0" d="m480.0 3.448819l0 533.1024" fill-rule="evenodd"/><path stroke="#595959" stroke-width="4.0" stroke-linejoin="round" stroke-linecap="butt" d="m480.0 3.448819l0 533.1024" fill-rule="evenodd"/><path fill="#000000" fill-opacity="0.0" d="m170.44095 270.0l619.11816 0" fill-rule="evenodd"/><path stroke="#595959" stroke-width="4.0" stroke-linejoin="round" stroke-linecap="butt" d="m170.44095 270.0l619.11816 0" fill-rule="evenodd"/><path fill="#000000" fill-opacity="0.0" d="m323.19946 3.448819l0 533.1024" fill-rule="evenodd"/><path stroke="#595959" stroke-width="4.0" stroke-linejoin="round" stroke-linecap="butt" d="m323.19946 3.448819l0 533.1024" fill-rule="evenodd"/><path fill="#000000" fill-opacity="0.0" d="m632.55646 3.448819l0 533.1024" fill-rule="evenodd"/><path stroke="#595959" stroke-width="4.0" stroke-linejoin="round" stroke-linecap="butt" d="m632.55646 3.448819l0 533.1024" fill-rule="evenodd"/><path fill="#000000" fill-opacity="0.0" d="m170.44095 134.0l619.11816 0" fill-rule="evenodd"/><path stroke="#595959" stroke-width="4.0" stroke-linejoin="round" stroke-linecap="butt" d="m170.44095 134.0l619.11816 0" fill-rule="evenodd"/><path fill="#000000" fill-opacity="0.0" d="m170.44095 406.0l619.11816 0" fill-rule="evenodd"/><path stroke="#595959" stroke-width="4.0" stroke-linejoin="round" stroke-linecap="butt" d="m170.44095 406.0l619.11816 0" fill-rule="evenodd"/><path fill="#000000" fill-opacity="0.0" d="m174.61679 7.102362l145.10236 0l0 122.173225l-145.10236 0z" fill-rule="evenodd"/><path fill="#ff0000" d="m247.36615 71.30898q-0.21875 2.90625 -2.15625 4.578125q-1.9375 1.671875 -5.09375 1.671875q-3.4687347 0 -5.4531097 -2.328125q-1.984375 -2.34375 -1.984375 -6.40625l0 -1.09375q0 -2.609375 0.90625 -4.578125q0.921875 -1.984375 2.625 -3.03125q1.703125 -1.0625 3.9531097 -1.0625q3.109375 0 5.015625 1.671875q1.90625 1.65625 2.203125 4.6875l-3.703125 0q-0.140625 -1.75 -0.984375 -2.53125q-0.828125 -0.796875 -2.53125 -0.796875q-1.8593597 0 -2.7812347 1.34375q-0.921875 1.328125 -0.9375 4.125l0 1.359375q0 2.90625 0.875 4.265625q0.890625 1.34375 2.7968597 1.34375q1.71875 0 2.5625 -0.78125q0.84375 -0.796875 0.96875 -2.4375l3.71875 0zm12.618988 -0.78125l2.046875 0l0 2.890625l-2.046875 0l0 3.890625l-3.578125 0l0 -3.890625l-7.375 0l-0.15625 -2.25l7.5 -11.859375l3.609375 0l0 11.21875zm-7.5625 0l3.984375 0l0 -6.359375l-0.234375 0.421875l-3.75 5.9375z" fill-rule="nonzero"/><path fill="#000000" fill-opacity="0.0" d="m327.30975 7.102362l148.50394 0l0 122.173225l-148.50394 0z" fill-rule="evenodd"/><path fill="#ff0000" d="m401.7599 71.30898q-0.21875 2.90625 -2.15625 4.578125q-1.9375 1.671875 -5.09375 1.671875q-3.46875 0 -5.453125 -2.328125q-1.984375 -2.34375 -1.984375 -6.40625l0 -1.09375q0 -2.609375 0.90625 -4.578125q0.921875 -1.984375 2.625 -3.03125q1.703125 -1.0625 3.953125 -1.0625q3.109375 0 5.015625 1.671875q1.90625 1.65625 2.203125 4.6875l-3.703125 0q-0.140625 -1.75 -0.984375 -2.53125q-0.828125 -0.796875 -2.53125 -0.796875q-1.859375 0 -2.78125 1.34375q-0.921875 1.328125 -0.9375 4.125l0 1.359375q0 2.90625 0.875 4.265625q0.890625 1.34375 2.796875 1.34375q1.71875 0 2.5625 -0.78125q0.84375 -0.796875 0.96875 -2.4375l3.71875 0zm2.572113 -2.859375l1.046875 -9.140625l10.09375 0l0 2.96875l-7.171875 0l-0.4375 3.875q1.265625 -0.671875 2.703125 -0.671875q2.578125 0 4.03125 1.59375q1.46875 1.59375 1.46875 4.453125q0 1.75 -0.734375 3.125q-0.734375 1.375 -2.109375 2.140625q-1.375 0.765625 -3.25 0.765625q-1.625 0 -3.03125 -0.65625q-1.390625 -0.671875 -2.203125 -1.859375q-0.8125 -1.203125 -0.859375 -2.75l3.53125 0q0.125 1.125 0.796875 1.75q0.671875 0.625 1.765625 0.625q1.203125 0 1.859375 -0.859375q0.65625 -0.875 0.65625 -2.46875q0 -1.53125 -0.765625 -2.34375q-0.75 -0.828125 -2.125 -0.828125q-1.28125 0 -2.0625 0.671875l-0.359375 0.3125l-2.84375 -0.703125z" fill-rule="nonzero"/><path fill="#000000" fill-opacity="0.0" d="m174.61679 135.10236l145.10236 0l0 131.68506l-145.10236 0z" fill-rule="evenodd"/><path fill="#000000" d="m233.4296 210.06488l0 -18.0l6.3124847 0q3.265625 0 4.953125 1.25q1.703125 1.25 1.703125 3.671875q0 1.328125 -0.6875 2.34375q-0.671875 1.0 -1.875 1.46875q1.375 0.34375 2.171875 1.40625q0.796875 1.046875 0.796875 2.5625q0 2.59375 -1.65625 3.9375q-1.65625 1.328125 -4.71875 1.359375l-6.9999847 0zm3.703125 -7.84375l0 4.859375l3.1874847 0q1.3125 0 2.046875 -0.625q0.734375 -0.625 0.734375 -1.71875q0 -2.46875 -2.5625 -2.515625l-3.4062347 0zm0 -2.625l2.7499847 0q2.8125 -0.046875 2.8125 -2.234375q0 -1.21875 -0.71875 -1.75q-0.703125 -0.546875 -2.234375 -0.546875l-2.6093597 0l0 4.53125zm20.757751 10.46875l-3.5781403 0l0 -13.78125l-4.265625 1.328125l0 -2.90625l7.4531403 -2.671875l0.390625 0l0 18.03125z" fill-rule="nonzero"/><path fill="#000000" fill-opacity="0.0" d="m327.30972 135.10236l148.50394 0l0 131.68506l-148.50394 0z" fill-rule="evenodd"/><path fill="#000000" d="m387.8233 210.06488l0 -18.0l6.3125 0q3.265625 0 4.953125 1.25q1.703125 1.25 1.703125 3.671875q0 1.328125 -0.6875 2.34375q-0.671875 1.0 -1.875 1.46875q1.375 0.34375 2.171875 1.40625q0.796875 1.046875 0.796875 2.5625q0 2.59375 -1.65625 3.9375q-1.65625 1.328125 -4.71875 1.359375l-7.0 0zm3.703125 -7.84375l0 4.859375l3.1875 0q1.3125 0 2.046875 -0.625q0.734375 -0.625 0.734375 -1.71875q0 -2.46875 -2.5625 -2.515625l-3.40625 0zm0 -2.625l2.75 0q2.8125 -0.046875 2.8125 -2.234375q0 -1.21875 -0.71875 -1.75q-0.703125 -0.546875 -2.234375 -0.546875l-2.609375 0l0 4.53125zm24.414001 10.46875l-12.34375 0l0 -2.453125l5.828125 -6.203125q1.203125 -1.3125 1.78125 -2.28125q0.578125 -0.984375 0.578125 -1.859375q0 -1.203125 -0.609375 -1.890625q-0.609375 -0.6875 -1.734375 -0.6875q-1.21875 0 -1.921875 0.84375q-0.6875 0.828125 -0.6875 2.1875l-3.59375 0q0 -1.640625 0.78125 -3.0q0.796875 -1.359375 2.234375 -2.125q1.4375 -0.78125 3.25 -0.78125q2.78125 0 4.3125 1.34375q1.546875 1.328125 1.546875 3.765625q0 1.328125 -0.703125 2.71875q-0.6875 1.375 -2.359375 3.21875l-4.09375 4.328125l7.734375 0l0 2.875z" fill-rule="nonzero"/><path fill="#000000" fill-opacity="0.0" d="m483.72702 7.102362l145.10239 0l0 122.173225l-145.10239 0z" fill-rule="evenodd"/><path fill="#ff0000" d="m556.4764 71.30898q-0.21875 2.90625 -2.15625 4.578125q-1.9375 1.671875 -5.09375 1.671875q-3.46875 0 -5.453125 -2.328125q-1.984375 -2.34375 -1.984375 -6.40625l0 -1.09375q0 -2.609375 0.90625 -4.578125q0.921875 -1.984375 2.625 -3.03125q1.703125 -1.0625 3.953125 -1.0625q3.109375 0 5.015625 1.671875q1.90625 1.65625 2.203125 4.6875l-3.703125 0q-0.140625 -1.75 -0.984375 -2.53125q-0.828125 -0.796875 -2.53125 -0.796875q-1.859375 0 -2.78125 1.34375q-0.921875 1.328125 -0.9375 4.125l0 1.359375q0 2.90625 0.875 4.265625q0.890625 1.34375 2.796875 1.34375q1.71875 0 2.5625 -0.78125q0.84375 -0.796875 0.96875 -2.4375l3.71875 0zm11.744019 -12.1875l0 2.9375l-0.34375 0q-2.421875 0.03125 -3.90625 1.265625q-1.484375 1.21875 -1.78125 3.390625q1.4375 -1.453125 3.625 -1.453125q2.359375 0 3.734375 1.6875q1.390625 1.671875 1.390625 4.421875q0 1.75 -0.765625 3.1875q-0.75 1.421875 -2.140625 2.21875q-1.390625 0.78125 -3.15625 0.78125q-2.84375 0 -4.59375 -1.96875q-1.75 -1.984375 -1.75 -5.296875l0 -1.28125q0 -2.9375 1.109375 -5.171875q1.109375 -2.25 3.171875 -3.484375q2.078125 -1.234375 4.8125 -1.234375l0.59375 0zm-3.484375 9.015625q-0.875 0 -1.578125 0.453125q-0.703125 0.4375 -1.03125 1.1875l0 1.09375q0 1.78125 0.703125 2.796875q0.703125 1.0 1.96875 1.0q1.15625 0 1.859375 -0.90625q0.71875 -0.90625 0.71875 -2.359375q0 -1.46875 -0.71875 -2.359375q-0.71875 -0.90625 -1.921875 -0.90625z" fill-rule="nonzero"/><path fill="#000000" fill-opacity="0.0" d="m635.82416 7.102362l148.50397 0l0 122.173225l-148.50397 0z" fill-rule="evenodd"/><path fill="#ff0000" d="m710.27435 71.30898q-0.21875 2.90625 -2.15625 4.578125q-1.9375 1.671875 -5.09375 1.671875q-3.46875 0 -5.453125 -2.328125q-1.984375 -2.34375 -1.984375 -6.40625l0 -1.09375q0 -2.609375 0.90625 -4.578125q0.921875 -1.984375 2.625 -3.03125q1.703125 -1.0625 3.953125 -1.0625q3.109375 0 5.015625 1.671875q1.90625 1.65625 2.203125 4.6875l-3.703125 0q-0.140625 -1.75 -0.984375 -2.53125q-0.828125 -0.796875 -2.53125 -0.796875q-1.859375 0 -2.78125 1.34375q-0.921875 1.328125 -0.9375 4.125l0 1.359375q0 2.90625 0.875 4.265625q0.890625 1.34375 2.796875 1.34375q1.71875 0 2.5625 -0.78125q0.84375 -0.796875 0.96875 -2.4375l3.71875 0zm14.2908325 -10.0l-6.96875 16.0l-3.765625 0l6.96875 -15.109375l-8.953125 0l0 -2.890625l12.71875 0l0 2.0z" fill-rule="nonzero"/><path fill="#000000" fill-opacity="0.0" d="m483.7257 136.15749l145.10236 0l0 131.68504l-145.10236 0z" fill-rule="evenodd"/><path fill="#000000" d="m542.5385 211.12001l0 -18.0l6.3125 0q3.265625 0 4.953125 1.25q1.703125 1.25 1.703125 3.671875q0 1.328125 -0.6875 2.34375q-0.671875 1.0 -1.875 1.46875q1.375 0.34375 2.171875 1.40625q0.796875 1.046875 0.796875 2.5625q0 2.59375 -1.65625 3.9375q-1.65625 1.328125 -4.71875 1.359375l-7.0 0zm3.703125 -7.84375l0 4.859375l3.1875 0q1.3125 0 2.046875 -0.625q0.734375 -0.625 0.734375 -1.71875q0 -2.46875 -2.5625 -2.515625l-3.40625 0zm0 -2.625l2.75 0q2.8125 -0.046875 2.8125 -2.234375q0 -1.21875 -0.71875 -1.75q-0.703125 -0.546875 -2.234375 -0.546875l-2.609375 0l0 4.53125zm15.710876 -0.125l1.90625 0q1.359375 0 2.015625 -0.671875q0.65625 -0.6875 0.65625 -1.8125q0 -1.078125 -0.65625 -1.6875q-0.640625 -0.609375 -1.78125 -0.609375q-1.03125 0 -1.71875 0.5625q-0.6875 0.5625 -0.6875 1.46875l-3.578125 0q0 -1.40625 0.75 -2.53125q0.765625 -1.125 2.125 -1.75q1.375 -0.625 3.015625 -0.625q2.859375 0 4.484375 1.375q1.625 1.359375 1.625 3.75q0 1.234375 -0.765625 2.28125q-0.75 1.03125 -1.96875 1.59375q1.515625 0.546875 2.265625 1.640625q0.75 1.078125 0.75 2.5625q0 2.40625 -1.75 3.859375q-1.75 1.4375 -4.640625 1.4375q-2.6875 0 -4.40625 -1.421875q-1.703125 -1.421875 -1.703125 -3.765625l3.5625 0q0 1.015625 0.765625 1.65625q0.765625 0.640625 1.875 0.640625q1.28125 0 2.0 -0.671875q0.71875 -0.671875 0.71875 -1.78125q0 -2.703125 -2.96875 -2.703125l-1.890625 0l0 -2.796875z" fill-rule="nonzero"/><path fill="#000000" fill-opacity="0.0" d="m636.2835 136.15749l148.5039 0l0 131.68504l-148.5039 0z" fill-rule="evenodd"/><path fill="#ff0000" d="m710.73364 205.12001q-0.21875 2.90625 -2.15625 4.578125q-1.9375 1.671875 -5.09375 1.671875q-3.46875 0 -5.453125 -2.328125q-1.984375 -2.34375 -1.984375 -6.40625l0 -1.09375q0 -2.609375 0.90625 -4.578125q0.921875 -1.984375 2.625 -3.03125q1.703125 -1.0625 3.953125 -1.0625q3.109375 0 5.015625 1.671875q1.90625 1.65625 2.203125 4.6875l-3.703125 0q-0.140625 -1.75 -0.984375 -2.53125q-0.828125 -0.796875 -2.53125 -0.796875q-1.859375 0 -2.78125 1.34375q-0.921875 1.328125 -0.9375 4.125l0 1.359375q0 2.90625 0.875 4.265625q0.890625 1.34375 2.796875 1.34375q1.71875 0 2.5625 -0.78125q0.84375 -0.796875 0.96875 -2.4375l3.71875 0zm10.7283325 6.0l-3.578125 0l0 -13.78125l-4.265625 1.328125l0 -2.90625l7.453125 -2.671875l0.390625 0l0 18.03125z" fill-rule="nonzero"/><path fill="#000000" fill-opacity="0.0" d="m174.91602 274.7244l145.10236 0l0 128.0l-145.10236 0z" fill-rule="evenodd"/><path fill="#000000" d="m233.7288 347.8444l0 -18.0l6.3125 0q3.265625 0 4.953125 1.25q1.703125 1.25 1.703125 3.671875q0 1.328125 -0.6875 2.34375q-0.671875 1.0 -1.875 1.46875q1.375 0.34375 2.171875 1.40625q0.796875 1.046875 0.796875 2.5625q0 2.59375 -1.65625 3.9375q-1.65625 1.328125 -4.71875 1.359375l-7.0 0zm3.703125 -7.84375l0 4.859375l3.1875 0q1.3125 0 2.046875 -0.625q0.734375 -0.625 0.734375 -1.71875q0 -2.46875 -2.5625 -2.515625l-3.40625 0zm0 -2.625l2.75 0q2.8125 -0.046875 2.8125 -2.234375q0 -1.21875 -0.71875 -1.75q-0.703125 -0.546875 -2.234375 -0.546875l-2.609375 0l0 4.53125zm22.648361 3.6875l2.046875 0l0 2.890625l-2.046875 0l0 3.890625l-3.578125 0l0 -3.890625l-7.3749847 0l-0.15625 -2.25l7.4999847 -11.859375l3.609375 0l0 11.21875zm-7.5624847 0l3.9843597 0l0 -6.359375l-0.234375 0.421875l-3.7499847 5.9375z" fill-rule="nonzero"/><path fill="#000000" fill-opacity="0.0" d="m327.60892 274.7244l148.50394 0l0 128.0l-148.50394 0z" fill-rule="evenodd"/><path fill="#000000" d="m388.1225 347.8444l0 -18.0l6.3125 0q3.265625 0 4.953125 1.25q1.703125 1.25 1.703125 3.671875q0 1.328125 -0.6875 2.34375q-0.671875 1.0 -1.875 1.46875q1.375 0.34375 2.171875 1.40625q0.796875 1.046875 0.796875 2.5625q0 2.59375 -1.65625 3.9375q-1.65625 1.328125 -4.71875 1.359375l-7.0 0zm3.703125 -7.84375l0 4.859375l3.1875 0q1.3125 0 2.046875 -0.625q0.734375 -0.625 0.734375 -1.71875q0 -2.46875 -2.5625 -2.515625l-3.40625 0zm0 -2.625l2.75 0q2.8125 -0.046875 2.8125 -2.234375q0 -1.21875 -0.71875 -1.75q-0.703125 -0.546875 -2.234375 -0.546875l-2.609375 0l0 4.53125zm12.601501 1.609375l1.046875 -9.140625l10.09375 0l0 2.96875l-7.171875 0l-0.4375 3.875q1.265625 -0.671875 2.703125 -0.671875q2.578125 0 4.03125 1.59375q1.46875 1.59375 1.46875 4.453125q0 1.75 -0.734375 3.125q-0.734375 1.375 -2.109375 2.140625q-1.375 0.765625 -3.25 0.765625q-1.625 0 -3.03125 -0.65625q-1.390625 -0.671875 -2.203125 -1.859375q-0.8125 -1.203125 -0.859375 -2.75l3.53125 0q0.125 1.125 0.796875 1.75q0.671875 0.625 1.765625 0.625q1.203125 0 1.859375 -0.859375q0.65625 -0.875 0.65625 -2.46875q0 -1.53125 -0.765625 -2.34375q-0.75 -0.828125 -2.125 -0.828125q-1.28125 0 -2.0625 0.671875l-0.359375 0.3125l-2.84375 -0.703125z" fill-rule="nonzero"/><path fill="#000000" fill-opacity="0.0" d="m173.68767 409.2756l145.10237 0l0 122.17319l-145.10237 0z" fill-rule="evenodd"/><path fill="#000000" d="m232.50046 479.4822l0 -18.0l6.3125 0q3.265625 0 4.953125 1.25q1.703125 1.25 1.703125 3.671875q0 1.328125 -0.6875 2.34375q-0.671875 1.0 -1.875 1.46875q1.375 0.34375 2.171875 1.40625q0.796875 1.046875 0.796875 2.5625q0 2.59375 -1.65625 3.9375q-1.65625 1.328125 -4.71875 1.359375l-7.0 0zm3.703125 -7.84375l0 4.859375l3.1875 0q1.3125 0 2.046875 -0.625q0.734375 -0.625 0.734375 -1.71875q0 -2.46875 -2.5625 -2.515625l-3.40625 0zm0 -2.625l2.75 0q2.8125 -0.046875 2.8125 -2.234375q0 -1.21875 -0.71875 -1.75q-0.703125 -0.546875 -2.234375 -0.546875l-2.609375 0l0 4.53125zm24.320251 -5.53125l-6.96875 16.0l-3.765625 0l6.96875 -15.109375l-8.953125 0l0 -2.890625l12.71875 0l0 2.0z" fill-rule="nonzero"/><path fill="#000000" fill-opacity="0.0" d="m327.3491 410.7244l148.50394 0l0 120.724396l-148.50394 0z" fill-rule="evenodd"/><path fill="#000000" d="m387.86267 480.2066l0 -18.0l6.3125 0q3.265625 0 4.953125 1.25q1.703125 1.25 1.703125 3.671875q0 1.328125 -0.6875 2.34375q-0.671875 1.0 -1.875 1.46875q1.375 0.34375 2.171875 1.40625q0.796875 1.046875 0.796875 2.5625q0 2.59375 -1.65625 3.9375q-1.65625 1.328125 -4.71875 1.359375l-7.0 0zm3.703125 -7.84375l0 4.859375l3.1875 0q1.3125 0 2.046875 -0.625q0.734375 -0.625 0.734375 -1.71875q0 -2.46875 -2.5625 -2.515625l-3.40625 0zm0 -2.625l2.75 0q2.8125 -0.046875 2.8125 -2.234375q0 -1.21875 -0.71875 -1.75q-0.703125 -0.546875 -2.234375 -0.546875l-2.609375 0l0 4.53125zm23.804626 -2.75q0 1.3125 -0.65625 2.328125q-0.640625 1.015625 -1.796875 1.609375q1.3125 0.640625 2.078125 1.75q0.765625 1.09375 0.765625 2.59375q0 2.40625 -1.640625 3.796875q-1.625 1.390625 -4.4375 1.390625q-2.796875 0 -4.453125 -1.390625q-1.640625 -1.40625 -1.640625 -3.796875q0 -1.5 0.765625 -2.609375q0.765625 -1.109375 2.0625 -1.734375q-1.140625 -0.59375 -1.796875 -1.609375q-0.640625 -1.015625 -0.640625 -2.328125q0 -2.296875 1.53125 -3.65625q1.53125 -1.375 4.171875 -1.375q2.609375 0 4.140625 1.359375q1.546875 1.34375 1.546875 3.671875zm-3.203125 8.03125q0 -1.1875 -0.6875 -1.890625q-0.671875 -0.703125 -1.8125 -0.703125q-1.140625 0 -1.828125 0.703125q-0.671875 0.703125 -0.671875 1.890625q0 1.140625 0.65625 1.84375q0.671875 0.703125 1.859375 0.703125q1.171875 0 1.828125 -0.671875q0.65625 -0.6875 0.65625 -1.875zm-0.359375 -7.859375q0 -1.046875 -0.5625 -1.6875q-0.546875 -0.640625 -1.5625 -0.640625q-1.0 0 -1.5625 0.625q-0.5625 0.609375 -0.5625 1.703125q0 1.078125 0.5625 1.734375q0.5625 0.65625 1.5625 0.65625q1.015625 0 1.5625 -0.65625q0.5625 -0.65625 0.5625 -1.734375z" fill-rule="nonzero"/><path fill="#000000" fill-opacity="0.0" d="m484.0262 274.7244l145.10239 0l0 128.0l-145.10239 0z" fill-rule="evenodd"/><path fill="#000000" d="m542.839 347.8444l0 -18.0l6.3125 0q3.265625 0 4.953125 1.25q1.703125 1.25 1.703125 3.671875q0 1.328125 -0.6875 2.34375q-0.671875 1.0 -1.875 1.46875q1.375 0.34375 2.171875 1.40625q0.796875 1.046875 0.796875 2.5625q0 2.59375 -1.65625 3.9375q-1.65625 1.328125 -4.71875 1.359375l-7.0 0zm3.703125 -7.84375l0 4.859375l3.1875 0q1.3125 0 2.046875 -0.625q0.734375 -0.625 0.734375 -1.71875q0 -2.46875 -2.5625 -2.515625l-3.40625 0zm0 -2.625l2.75 0q2.8125 -0.046875 2.8125 -2.234375q0 -1.21875 -0.71875 -1.75q-0.703125 -0.546875 -2.234375 -0.546875l-2.609375 0l0 4.53125zm21.773376 -7.71875l0 2.9375l-0.34375 0q-2.421875 0.03125 -3.90625 1.265625q-1.484375 1.21875 -1.78125 3.390625q1.4375 -1.453125 3.625 -1.453125q2.359375 0 3.734375 1.6875q1.390625 1.671875 1.390625 4.421875q0 1.75 -0.765625 3.1875q-0.75 1.421875 -2.140625 2.21875q-1.390625 0.78125 -3.15625 0.78125q-2.84375 0 -4.59375 -1.96875q-1.75 -1.984375 -1.75 -5.296875l0 -1.28125q0 -2.9375 1.109375 -5.171875q1.109375 -2.25 3.171875 -3.484375q2.078125 -1.234375 4.8125 -1.234375l0.59375 0zm-3.484375 9.015625q-0.875 0 -1.578125 0.453125q-0.703125 0.4375 -1.03125 1.1875l0 1.09375q0 1.78125 0.703125 2.796875q0.703125 1.0 1.96875 1.0q1.15625 0 1.859375 -0.90625q0.71875 -0.90625 0.71875 -2.359375q0 -1.46875 -0.71875 -2.359375q-0.71875 -0.90625 -1.921875 -0.90625z" fill-rule="nonzero"/><path fill="#000000" fill-opacity="0.0" d="m636.12335 274.7244l148.50397 0l0 128.0l-148.50397 0z" fill-rule="evenodd"/><path fill="#ff0000" d="m710.5735 341.8444q-0.21875 2.90625 -2.15625 4.578125q-1.9375 1.671875 -5.09375 1.671875q-3.46875 0 -5.453125 -2.328125q-1.984375 -2.34375 -1.984375 -6.40625l0 -1.09375q0 -2.609375 0.90625 -4.578125q0.921875 -1.984375 2.625 -3.03125q1.703125 -1.0625 3.953125 -1.0625q3.109375 0 5.015625 1.671875q1.90625 1.65625 2.203125 4.6875l-3.703125 0q-0.140625 -1.75 -0.984375 -2.53125q-0.828125 -0.796875 -2.53125 -0.796875q-1.859375 0 -2.78125 1.34375q-0.921875 1.328125 -0.9375 4.125l0 1.359375q0 2.90625 0.875 4.265625q0.890625 1.34375 2.796875 1.34375q1.71875 0 2.5625 -0.78125q0.84375 -0.796875 0.96875 -2.4375l3.71875 0zm14.384644 6.0l-12.34375 0l0 -2.453125l5.828125 -6.203125q1.203125 -1.3125 1.78125 -2.28125q0.578125 -0.984375 0.578125 -1.859375q0 -1.203125 -0.609375 -1.890625q-0.609375 -0.6875 -1.734375 -0.6875q-1.21875 0 -1.921875 0.84375q-0.6875 0.828125 -0.6875 2.1875l-3.59375 0q0 -1.640625 0.78125 -3.0q0.796875 -1.359375 2.234375 -2.125q1.4375 -0.78125 3.25 -0.78125q2.78125 0 4.3125 1.34375q1.546875 1.328125 1.546875 3.765625q0 1.328125 -0.703125 2.71875q-0.6875 1.375 -2.359375 3.21875l-4.09375 4.328125l7.734375 0l0 2.875z" fill-rule="nonzero"/><path fill="#000000" fill-opacity="0.0" d="m483.72702 410.7244l145.10239 0l0 120.724396l-145.10239 0z" fill-rule="evenodd"/><path fill="#000000" d="m542.53986 480.2066l0 -18.0l6.312439 0q3.265625 0 4.953125 1.25q1.703125 1.25 1.703125 3.671875q0 1.328125 -0.6875 2.34375q-0.671875 1.0 -1.875 1.46875q1.375 0.34375 2.171875 1.40625q0.796875 1.046875 0.796875 2.5625q0 2.59375 -1.65625 3.9375q-1.65625 1.328125 -4.71875 1.359375l-6.999939 0zm3.703125 -7.84375l0 4.859375l3.187439 0q1.3125 0 2.046875 -0.625q0.734375 -0.625 0.734375 -1.71875q0 -2.46875 -2.5625 -2.515625l-3.406189 0zm0 -2.625l2.749939 0q2.8125 -0.046875 2.8125 -2.234375q0 -1.21875 -0.71875 -1.75q-0.703125 -0.546875 -2.234375 -0.546875l-2.609314 0l0 4.53125zm20.429565 3.265625q-1.390625 1.375 -3.265625 1.375q-2.375 0 -3.8125 -1.640625q-1.4375 -1.640625 -1.4375 -4.421875q0 -1.765625 0.765625 -3.234375q0.78125 -1.484375 2.15625 -2.296875q1.390625 -0.828125 3.125 -0.828125q1.78125 0 3.15625 0.890625q1.390625 0.890625 2.15625 2.5625q0.78125 1.65625 0.78125 3.8125l0 1.328125q0 4.5 -2.234375 7.078125q-2.234375 2.5625 -6.34375 2.734375l-0.875 0.015625l0 -2.984375l0.78125 0q4.671875 -0.21875 5.046875 -4.390625zm-2.375 -1.359375q0.859375 0 1.484375 -0.4375q0.625 -0.453125 0.953125 -1.078125l0 -1.46875q0 -1.828125 -0.703125 -2.828125q-0.6875 -1.0 -1.84375 -1.0q-1.078125 0 -1.78125 0.984375q-0.6875 0.984375 -0.6875 2.46875q0 1.46875 0.671875 2.421875q0.671875 0.9375 1.90625 0.9375z" fill-rule="nonzero"/><path fill="#000000" fill-opacity="0.0" d="m636.28345 410.7244l148.50397 0l0 122.17325l-148.50397 0z" fill-rule="evenodd"/><path fill="#ff0000" d="m710.73364 474.93103q-0.21875 2.90625 -2.15625 4.578125q-1.9375 1.671875 -5.09375 1.671875q-3.46875 0 -5.453125 -2.328125q-1.984375 -2.34375 -1.984375 -6.40625l0 -1.09375q0 -2.609375 0.90625 -4.578125q0.921875 -1.984375 2.625 -3.03125q1.703125 -1.0625 3.953125 -1.0625q3.109375 0 5.015625 1.671875q1.90625 1.65625 2.203125 4.6875l-3.703125 0q-0.140625 -1.75 -0.984375 -2.53125q-0.828125 -0.796875 -2.53125 -0.796875q-1.859375 0 -2.78125 1.34375q-0.921875 1.328125 -0.9375 4.125l0 1.359375q0 2.90625 0.875 4.265625q0.890625 1.34375 2.796875 1.34375q1.71875 0 2.5625 -0.78125q0.84375 -0.796875 0.96875 -2.4375l3.71875 0zm5.6814575 -4.59375l1.90625 0q1.359375 0 2.015625 -0.671875q0.65625 -0.6875 0.65625 -1.8125q0 -1.078125 -0.65625 -1.6875q-0.640625 -0.609375 -1.78125 -0.609375q-1.03125 0 -1.71875 0.5625q-0.6875 0.5625 -0.6875 1.46875l-3.578125 0q0 -1.40625 0.75 -2.53125q0.765625 -1.125 2.125 -1.75q1.375 -0.625 3.015625 -0.625q2.859375 0 4.484375 1.375q1.625 1.359375 1.625 3.75q0 1.234375 -0.765625 2.28125q-0.75 1.03125 -1.96875 1.59375q1.515625 0.546875 2.265625 1.640625q0.75 1.078125 0.75 2.5625q0 2.40625 -1.75 3.859375q-1.75 1.4375 -4.640625 1.4375q-2.6875 0 -4.40625 -1.421875q-1.703125 -1.421875 -1.703125 -3.765625l3.5625 0q0 1.015625 0.765625 1.65625q0.765625 0.640625 1.875 0.640625q1.28125 0 2.0 -0.671875q0.71875 -0.671875 0.71875 -1.78125q0 -2.703125 -2.96875 -2.703125l-1.890625 0l0 -2.796875z" fill-rule="nonzero"/></g></svg>