<svg version="1.1" viewBox="0.0 0.0 960.0 540.0" fill="none" stroke="none" stroke-linecap="square" stroke-miterlimit="10" xmlns:xlink="http://www.w3.org/1999/xlink" xmlns="http://www.w3.org/2000/svg"><clipPath id="g10ca9ff00e6_0_42.0"><path d="m0 0l960.0 0l0 540.0l-960.0 0l0 -540.0z" clip-rule="nonzero"/></clipPath><g clip-path="url(#g10ca9ff00e6_0_42.0)"><path fill="#ffffff" d="m0 0l960.0 0l0 540.0l-960.0 0z" fill-rule="evenodd"/><path fill="#b6d7a8" d="m261.2966 270.0l0 0c0 -33.754593 27.081482 -61.118103 60.48819 -61.118103l0 0c16.04245 0 31.427856 6.439209 42.771606 17.901077c11.3437195 11.461868 17.716583 27.007492 17.716583 43.217026l0 0c0 33.75461 -27.081512 61.118103 -60.48819 61.118103l0 0c-33.406708 0 -60.48819 -27.363495 -60.48819 -61.118103z" fill-rule="evenodd"/><path stroke="#000000" stroke-width="8.0" stroke-linejoin="round" stroke-linecap="butt" d="m261.2966 270.0l0 0c0 -33.754593 27.081482 -61.118103 60.48819 -61.118103l0 0c16.04245 0 31.427856 6.439209 42.771606 17.901077c11.3437195 11.461868 17.716583 27.007492 17.716583 43.217026l0 0c0 33.75461 -27.081512 61.118103 -60.48819 61.118103l0 0c-33.406708 0 -60.48819 -27.363495 -60.48819 -61.118103z" fill-rule="evenodd"/><path fill="#000000" d="m320.7237 271.60376q0 3.34375 -1.390625 5.109375q-1.375 1.765625 -4.046875 1.765625q-2.625 0 -4.03125 -1.734375q-1.390625 -1.734375 -1.421875 -4.984375l0 -2.953125q0 -3.375 1.390625 -5.125q1.40625 -1.75 4.03125 -1.75q2.640625 0 4.03125 1.734375q1.40625 1.734375 1.4375 4.96875l0 2.96875zm-3.203125 -3.25q0 -2.015625 -0.546875 -2.921875q-0.546875 -0.90625 -1.703125 -0.90625q-1.125 0 -1.671875 0.875q-0.53125 0.859375 -0.5625 2.703125l0 3.921875q0 1.96875 0.53125 2.921875q0.546875 0.953125 1.71875 0.953125q1.171875 0 1.6875 -0.90625q0.53125 -0.921875 0.546875 -2.8125l0 -3.828125zm16.201721 3.25q0 3.34375 -1.390625 5.109375q-1.375 1.765625 -4.046875 1.765625q-2.625 0 -4.03125 -1.734375q-1.390625 -1.734375 -1.421875 -4.984375l0 -2.953125q0 -3.375 1.390625 -5.125q1.40625 -1.75 4.03125 -1.75q2.640625 0 4.03125 1.734375q1.40625 1.734375 1.4375 4.96875l0 2.96875zm-3.203125 -3.25q0 -2.015625 -0.546875 -2.921875q-0.546875 -0.90625 -1.703125 -0.90625q-1.125 0 -1.671875 0.875q-0.53125 0.859375 -0.5625 2.703125l0 3.921875q0 1.96875 0.53125 2.921875q0.546875 0.953125 1.71875 0.953125q1.171875 0 1.6875 -0.90625q0.53125 -0.921875 0.546875 -2.8125l0 -3.828125z" fill-rule="nonzero"/><path fill="#b6d7a8" d="m577.7276 270.0l0 0c0 -33.754593 27.081482 -61.118103 60.48822 -61.118103l0 0c16.04248 0 31.427856 6.439209 42.771606 17.901077c11.34375 11.461868 17.716553 27.007492 17.716553 43.217026l0 0c0 33.75461 -27.081482 61.118103 -60.48816 61.118103l0 0c-33.40674 0 -60.48822 -27.363495 -60.48822 -61.118103z" fill-rule="evenodd"/><path stroke="#000000" stroke-width="8.0" stroke-linejoin="round" stroke-linecap="butt" d="m577.7276 270.0l0 0c0 -33.754593 27.081482 -61.118103 60.48822 -61.118103l0 0c16.04248 0 31.427856 6.439209 42.771606 17.901077c11.34375 11.461868 17.716553 27.007492 17.716553 43.217026l0 0c0 33.75461 -27.081482 61.118103 -60.48816 61.118103l0 0c-33.40674 0 -60.48822 -27.363495 -60.48822 -61.118103z" fill-rule="evenodd"/><path fill="#000000" d="m634.0766 278.26l-3.1875 0l0 -12.328125l-3.828125 1.1875l0 -2.59375l6.671875 -2.390625l0.34375 0l0 16.125zm12.998596 0l-3.1875 0l0 -12.328125l-3.828125 1.1875l0 -2.59375l6.671875 -2.390625l0.34375 0l0 16.125z" fill-rule="nonzero"/><path fill="#d0e0e3" d="m417.83185 270.0l0 0c0 -33.754593 27.081482 -61.118103 60.48819 -61.118103l0 0c16.04245 0 31.427856 6.439209 42.771576 17.901077c11.34375 11.461868 17.716614 27.007492 17.716614 43.217026l0 0c0 33.75461 -27.081482 61.118103 -60.48819 61.118103l0 0c-33.406708 0 -60.48819 -27.363495 -60.48819 -61.118103z" fill-rule="evenodd"/><path stroke="#000000" stroke-width="8.0" stroke-linejoin="round" stroke-linecap="butt" d="m417.83185 270.0l0 0c0 -33.754593 27.081482 -61.118103 60.48819 -61.118103l0 0c16.04245 0 31.427856 6.439209 42.771576 17.901077c11.34375 11.461868 17.716614 27.007492 17.716614 43.217026l0 0c0 33.75461 -27.081482 61.118103 -60.48819 61.118103l0 0c-33.406708 0 -60.48819 -27.363495 -60.48819 -61.118103z" fill-rule="evenodd"/><path fill="#000000" d="m477.25894 271.60376q0 3.34375 -1.390625 5.109375q-1.375 1.765625 -4.046875 1.765625q-2.625 0 -4.03125 -1.734375q-1.390625 -1.734375 -1.421875 -4.984375l0 -2.953125q0 -3.375 1.390625 -5.125q1.40625 -1.75 4.03125 -1.75q2.640625 0 4.03125 1.734375q1.40625 1.734375 1.4375 4.96875l0 2.96875zm-3.203125 -3.25q0 -2.015625 -0.546875 -2.921875q-0.546875 -0.90625 -1.703125 -0.90625q-1.125 0 -1.671875 0.875q-0.53125 0.859375 -0.5625 2.703125l0 3.921875q0 1.96875 0.53125 2.921875q0.546875 0.953125 1.71875 0.953125q1.171875 0 1.6875 -0.90625q0.53125 -0.921875 0.546875 -2.8125l0 -3.828125zm13.123596 9.90625l-3.1875 0l0 -12.328125l-3.828125 1.1875l0 -2.59375l6.671875 -2.390625l0.34375 0l0 16.125z" fill-rule="nonzero"/><path fill="#000000" fill-opacity="0.0" d="m382.27298 270.0l35.55905 0" fill-rule="evenodd"/><path stroke="#000000" stroke-width="8.0" stroke-linejoin="round" stroke-linecap="butt" d="m382.27298 270.0l35.55905 0" fill-rule="evenodd"/><path fill="#000000" fill-opacity="0.0" d="m540.48816 270.0l35.559082 0" fill-rule="evenodd"/><path stroke="#000000" stroke-width="8.0" stroke-linejoin="round" stroke-linecap="butt" d="m540.48816 270.0l35.559082 0" fill-rule="evenodd"/></g></svg>