<svg version="1.1" viewBox="0.0 0.0 960.0 540.0" fill="none" stroke="none" stroke-linecap="square" stroke-miterlimit="10" xmlns:xlink="http://www.w3.org/1999/xlink" xmlns="http://www.w3.org/2000/svg"><clipPath id="g10ca9ff00e6_0_74.0"><path d="m0 0l960.0 0l0 540.0l-960.0 0l0 -540.0z" clip-rule="nonzero"/></clipPath><g clip-path="url(#g10ca9ff00e6_0_74.0)"><path fill="#ffffff" d="m0 0l960.0 0l0 540.0l-960.0 0z" fill-rule="evenodd"/><path fill="#b6d7a8" d="m77.90026 270.0l0 0c0 -33.754593 27.08149 -61.118103 60.488197 -61.118103l0 0c16.042465 0 31.427872 6.439209 42.771606 17.901077c11.343735 11.461868 17.716583 27.007492 17.716583 43.217026l0 0c0 33.75461 -27.081497 61.118103 -60.48819 61.118103l0 0c-33.406708 0 -60.488197 -27.363495 -60.488197 -61.118103z" fill-rule="evenodd"/><path stroke="#000000" stroke-width="8.0" stroke-linejoin="round" stroke-linecap="butt" d="m77.90026 270.0l0 0c0 -33.754593 27.08149 -61.118103 60.488197 -61.118103l0 0c16.042465 0 31.427872 6.439209 42.771606 17.901077c11.343735 11.461868 17.716583 27.007492 17.716583 43.217026l0 0c0 33.75461 -27.081497 61.118103 -60.48819 61.118103l0 0c-33.406708 0 -60.488197 -27.363495 -60.488197 -61.118103z" fill-rule="evenodd"/><path fill="#000000" d="m130.82808 271.60376q0 3.34375 -1.390625 5.109375q-1.375 1.765625 -4.046875 1.765625q-2.625 0 -4.03125 -1.734375q-1.390625 -1.734375 -1.421875 -4.984375l0 -2.953125q0 -3.375 1.390625 -5.125q1.40625 -1.75 4.03125 -1.75q2.640625 0 4.03125 1.734375q1.40625 1.734375 1.4375 4.96875l0 2.96875zm-3.203125 -3.25q0 -2.015625 -0.546875 -2.921875q-0.546875 -0.90625 -1.703125 -0.90625q-1.125 0 -1.671875 0.875q-0.53125 0.859375 -0.5625 2.703125l0 3.921875q0 1.96875 0.53125 2.921875q0.546875 0.953125 1.71875 0.953125q1.171875 0 1.6875 -0.90625q0.53125 -0.921875 0.546875 -2.8125l0 -3.828125zm16.201706 3.25q0 3.34375 -1.390625 5.109375q-1.375 1.765625 -4.046875 1.765625q-2.625 0 -4.03125 -1.734375q-1.390625 -1.734375 -1.421875 -4.984375l0 -2.953125q0 -3.375 1.390625 -5.125q1.40625 -1.75 4.03125 -1.75q2.640625 0 4.03125 1.734375q1.40625 1.734375 1.4375 4.96875l0 2.96875zm-3.203125 -3.25q0 -2.015625 -0.546875 -2.921875q-0.546875 -0.90625 -1.703125 -0.90625q-1.125 0 -1.671875 0.875q-0.53125 0.859375 -0.5625 2.703125l0 3.921875q0 1.96875 0.53125 2.921875q0.546875 0.953125 1.71875 0.953125q1.171875 0 1.6875 -0.90625q0.53125 -0.921875 0.546875 -2.8125l0 -3.828125zm16.201706 3.25q0 3.34375 -1.390625 5.109375q-1.375 1.765625 -4.046875 1.765625q-2.625 0 -4.03125 -1.734375q-1.390625 -1.734375 -1.421875 -4.984375l0 -2.953125q0 -3.375 1.390625 -5.125q1.40625 -1.75 4.03125 -1.75q2.640625 0 4.03125 1.734375q1.40625 1.734375 1.4375 4.96875l0 2.96875zm-3.203125 -3.25q0 -2.015625 -0.546875 -2.921875q-0.546875 -0.90625 -1.703125 -0.90625q-1.125 0 -1.671875 0.875q-0.53125 0.859375 -0.5625 2.703125l0 3.921875q0 1.96875 0.53125 2.921875q0.546875 0.953125 1.71875 0.953125q1.171875 0 1.6875 -0.90625q0.53125 -0.921875 0.546875 -2.8125l0 -3.828125z" fill-rule="nonzero"/><path fill="#d0e0e3" d="m724.4985 270.0l0 0c0 -33.754593 27.081543 -61.118103 60.48822 -61.118103l0 0c16.04248 0 31.427856 6.439209 42.771606 17.901077c11.34375 11.461868 17.716553 27.007492 17.716553 43.217026l0 0c0 33.75461 -27.081482 61.118103 -60.48816 61.118103l0 0c-33.406677 0 -60.48822 -27.363495 -60.48822 -61.118103z" fill-rule="evenodd"/><path stroke="#000000" stroke-width="8.0" stroke-linejoin="round" stroke-linecap="butt" d="m724.4985 270.0l0 0c0 -33.754593 27.081543 -61.118103 60.48822 -61.118103l0 0c16.04248 0 31.427856 6.439209 42.771606 17.901077c11.34375 11.461868 17.716553 27.007492 17.716553 43.217026l0 0c0 33.75461 -27.081482 61.118103 -60.48816 61.118103l0 0c-33.406677 0 -60.48822 -27.363495 -60.48822 -61.118103z" fill-rule="evenodd"/><path fill="#000000" d="m774.3482 278.26l-3.1875 0l0 -12.328125l-3.828125 1.1875l0 -2.59375l6.671875 -2.390625l0.34375 0l0 16.125zm12.998596 0l-3.1875 0l0 -12.328125l-3.828125 1.1875l0 -2.59375l6.671875 -2.390625l0.34375 0l0 16.125zm12.998535 0l-3.1875 0l0 -12.328125l-3.828125 1.1875l0 -2.59375l6.671875 -2.390625l0.34375 0l0 16.125z" fill-rule="nonzero"/><path fill="#b6d7a8" d="m516.7111 77.115486l0 0c0 -33.7546 27.081482 -61.11811 60.48816 -61.11811l0 0c16.04248 0 31.427856 6.439211 42.771606 17.901081c11.34375 11.461868 17.716614 27.0075 17.716614 43.21703l0 0c0 33.7546 -27.081482 61.11811 -60.48822 61.11811l0 0c-33.406677 0 -60.48816 -27.36351 -60.48816 -61.11811z" fill-rule="evenodd"/><path stroke="#000000" stroke-width="8.0" stroke-linejoin="round" stroke-linecap="butt" d="m516.7111 77.115486l0 0c0 -33.7546 27.081482 -61.11811 60.48816 -61.11811l0 0c16.04248 0 31.427856 6.439211 42.771606 17.901081c11.34375 11.461868 17.716614 27.0075 17.716614 43.21703l0 0c0 33.7546 -27.081482 61.11811 -60.48822 61.11811l0 0c-33.406677 0 -60.48816 -27.36351 -60.48816 -61.11811z" fill-rule="evenodd"/><path fill="#000000" d="m569.6389 78.71923q0 3.34375 -1.390625 5.109375q-1.375 1.765625 -4.046875 1.765625q-2.625 0 -4.03125 -1.734375q-1.390625 -1.734375 -1.421875 -4.984375l0 -2.953125q0 -3.375 1.390625 -5.125q1.40625 -1.75 4.03125 -1.75q2.640625 0 4.03125 1.734375q1.40625 1.734375 1.4375 4.96875l0 2.96875zm-3.203125 -3.25q0 -2.015625 -0.546875 -2.921875q-0.546875 -0.90625 -1.703125 -0.90625q-1.125 0 -1.671875 0.875q-0.53125 0.859375 -0.5625 2.703125l0 3.921875q0 1.96875 0.53125 2.921875q0.546875 0.953125 1.71875 0.953125q1.171875 0 1.6875 -0.90625q0.53125 -0.921875 0.546875 -2.8125l0 -3.828125zm13.123596 9.90625l-3.1875 0l0 -12.328125l-3.828125 1.1875l0 -2.59375l6.671875 -2.390625l0.34375 0l0 16.125zm12.998596 0l-3.1875 0l0 -12.328125l-3.828125 1.1875l0 -2.59375l6.671875 -2.390625l0.34375 0l0 16.125z" fill-rule="nonzero"/><path fill="#b6d7a8" d="m516.7111 270.0l0 0c0 -33.754593 27.081482 -61.118103 60.48816 -61.118103l0 0c16.04248 0 31.427856 6.439209 42.771606 17.901077c11.34375 11.461868 17.716614 27.007492 17.716614 43.217026l0 0c0 33.75461 -27.081482 61.118103 -60.48822 61.118103l0 0c-33.406677 0 -60.48816 -27.363495 -60.48816 -61.118103z" fill-rule="evenodd"/><path stroke="#000000" stroke-width="8.0" stroke-linejoin="round" stroke-linecap="butt" d="m516.7111 270.0l0 0c0 -33.754593 27.081482 -61.118103 60.48816 -61.118103l0 0c16.04248 0 31.427856 6.439209 42.771606 17.901077c11.34375 11.461868 17.716614 27.007492 17.716614 43.217026l0 0c0 33.75461 -27.081482 61.118103 -60.48822 61.118103l0 0c-33.406677 0 -60.48816 -27.363495 -60.48816 -61.118103z" fill-rule="evenodd"/><path fill="#000000" d="m566.5608 278.26l-3.1875 0l0 -12.328125l-3.828125 1.1875l0 -2.59375l6.671875 -2.390625l0.34375 0l0 16.125zm16.076721 -6.65625q0 3.34375 -1.390625 5.109375q-1.375 1.765625 -4.046875 1.765625q-2.625 0 -4.03125 -1.734375q-1.390625 -1.734375 -1.421875 -4.984375l0 -2.953125q0 -3.375 1.390625 -5.125q1.40625 -1.75 4.03125 -1.75q2.640625 0 4.03125 1.734375q1.40625 1.734375 1.4375 4.96875l0 2.96875zm-3.203125 -3.25q0 -2.015625 -0.546875 -2.921875q-0.546875 -0.90625 -1.703125 -0.90625q-1.125 0 -1.671875 0.875q-0.53125 0.859375 -0.5625 2.703125l0 3.921875q0 1.96875 0.53125 2.921875q0.546875 0.953125 1.71875 0.953125q1.171875 0 1.6875 -0.90625q0.53125 -0.921875 0.546875 -2.8125l0 -3.828125zm13.123596 9.90625l-3.1875 0l0 -12.328125l-3.828125 1.1875l0 -2.59375l6.671875 -2.390625l0.34375 0l0 16.125z" fill-rule="nonzero"/><path fill="#b6d7a8" d="m516.7111 462.88452l0 0c0 -33.75461 27.081482 -61.118103 60.48816 -61.118103l0 0c16.04248 0 31.427856 6.439209 42.771606 17.901062c11.34375 11.461884 17.716614 27.007507 17.716614 43.21704l0 0c0 33.75461 -27.081482 61.118103 -60.48822 61.118103l0 0c-33.406677 0 -60.48816 -27.363495 -60.48816 -61.118103z" fill-rule="evenodd"/><path stroke="#000000" stroke-width="8.0" stroke-linejoin="round" stroke-linecap="butt" d="m516.7111 462.88452l0 0c0 -33.75461 27.081482 -61.118103 60.48816 -61.118103l0 0c16.04248 0 31.427856 6.439209 42.771606 17.901062c11.34375 11.461884 17.716614 27.007507 17.716614 43.21704l0 0c0 33.75461 -27.081482 61.118103 -60.48822 61.118103l0 0c-33.406677 0 -60.48816 -27.363495 -60.48816 -61.118103z" fill-rule="evenodd"/><path fill="#000000" d="m566.5608 471.1445l-3.1875 0l0 -12.328125l-3.828125 1.1875l0 -2.59375l6.671875 -2.390625l0.34375 0l0 16.125zm12.998596 0l-3.1875 0l0 -12.328125l-3.828125 1.1875l0 -2.59375l6.671875 -2.390625l0.34375 0l0 16.125zm16.076721 -6.65625q0 3.34375 -1.390625 5.109375q-1.375 1.765625 -4.046875 1.765625q-2.625 0 -4.03125 -1.734375q-1.390625 -1.734375 -1.421875 -4.984375l0 -2.953125q0 -3.375 1.390625 -5.125q1.40625 -1.75 4.03125 -1.75q2.640625 0 4.03125 1.734375q1.40625 1.734375 1.4375 4.96875l0 2.96875zm-3.203125 -3.25q0 -2.015625 -0.546875 -2.921875q-0.546875 -0.90625 -1.703125 -0.90625q-1.125 0 -1.671875 0.875q-0.53125 0.859375 -0.5625 2.703125l0 3.921875q0 1.96875 0.53125 2.921875q0.546875 0.953125 1.71875 0.953125q1.171875 0 1.6875 -0.90625q0.53125 -0.921875 0.546875 -2.8125l0 -3.828125z" fill-rule="nonzero"/><path fill="#d0e0e3" d="m285.68747 77.115486l0 0c0 -33.7546 27.081482 -61.11811 60.48819 -61.11811l0 0c16.04248 0 31.427887 6.439211 42.771606 17.901081c11.34375 11.461868 17.716583 27.0075 17.716583 43.21703l0 0c0 33.7546 -27.081482 61.11811 -60.48819 61.11811l0 0c-33.406708 0 -60.48819 -27.36351 -60.48819 -61.11811z" fill-rule="evenodd"/><path stroke="#000000" stroke-width="8.0" stroke-linejoin="round" stroke-linecap="butt" d="m285.68747 77.115486l0 0c0 -33.7546 27.081482 -61.11811 60.48819 -61.11811l0 0c16.04248 0 31.427887 6.439211 42.771606 17.901081c11.34375 11.461868 17.716583 27.0075 17.716583 43.21703l0 0c0 33.7546 -27.081482 61.11811 -60.48819 61.11811l0 0c-33.406708 0 -60.48819 -27.36351 -60.48819 -61.11811z" fill-rule="evenodd"/><path fill="#000000" d="m338.6153 78.71923q0 3.34375 -1.390625 5.109375q-1.375 1.765625 -4.046875 1.765625q-2.625 0 -4.03125 -1.734375q-1.390625 -1.734375 -1.421875 -4.984375l0 -2.953125q0 -3.375 1.390625 -5.125q1.40625 -1.75 4.03125 -1.75q2.640625 0 4.03125 1.734375q1.40625 1.734375 1.4375 4.96875l0 2.96875zm-3.203125 -3.25q0 -2.015625 -0.546875 -2.921875q-0.546875 -0.90625 -1.703125 -0.90625q-1.125 0 -1.671875 0.875q-0.53125 0.859375 -0.5625 2.703125l0 3.921875q0 1.96875 0.53125 2.921875q0.546875 0.953125 1.71875 0.953125q1.171875 0 1.6875 -0.90625q0.53125 -0.921875 0.546875 -2.8125l0 -3.828125zm16.201721 3.25q0 3.34375 -1.390625 5.109375q-1.375 1.765625 -4.046875 1.765625q-2.625 0 -4.03125 -1.734375q-1.390625 -1.734375 -1.421875 -4.984375l0 -2.953125q0 -3.375 1.390625 -5.125q1.40625 -1.75 4.03125 -1.75q2.640625 0 4.03125 1.734375q1.40625 1.734375 1.4375 4.96875l0 2.96875zm-3.203125 -3.25q0 -2.015625 -0.546875 -2.921875q-0.546875 -0.90625 -1.703125 -0.90625q-1.125 0 -1.671875 0.875q-0.53125 0.859375 -0.5625 2.703125l0 3.921875q0 1.96875 0.53125 2.921875q0.546875 0.953125 1.71875 0.953125q1.171875 0 1.6875 -0.90625q0.53125 -0.921875 0.546875 -2.8125l0 -3.828125zm13.123566 9.90625l-3.1875 0l0 -12.328125l-3.828125 1.1875l0 -2.59375l6.671875 -2.390625l0.34375 0l0 16.125z" fill-rule="nonzero"/><path fill="#d0e0e3" d="m285.68747 270.0l0 0c0 -33.754593 27.081482 -61.118103 60.48819 -61.118103l0 0c16.04248 0 31.427887 6.439209 42.771606 17.901077c11.34375 11.461868 17.716583 27.007492 17.716583 43.217026l0 0c0 33.75461 -27.081482 61.118103 -60.48819 61.118103l0 0c-33.406708 0 -60.48819 -27.363495 -60.48819 -61.118103z" fill-rule="evenodd"/><path stroke="#000000" stroke-width="8.0" stroke-linejoin="round" stroke-linecap="butt" d="m285.68747 270.0l0 0c0 -33.754593 27.081482 -61.118103 60.48819 -61.118103l0 0c16.04248 0 31.427887 6.439209 42.771606 17.901077c11.34375 11.461868 17.716583 27.007492 17.716583 43.217026l0 0c0 33.75461 -27.081482 61.118103 -60.48819 61.118103l0 0c-33.406708 0 -60.48819 -27.363495 -60.48819 -61.118103z" fill-rule="evenodd"/><path fill="#000000" d="m338.6153 271.60376q0 3.34375 -1.390625 5.109375q-1.375 1.765625 -4.046875 1.765625q-2.625 0 -4.03125 -1.734375q-1.390625 -1.734375 -1.421875 -4.984375l0 -2.953125q0 -3.375 1.390625 -5.125q1.40625 -1.75 4.03125 -1.75q2.640625 0 4.03125 1.734375q1.40625 1.734375 1.4375 4.96875l0 2.96875zm-3.203125 -3.25q0 -2.015625 -0.546875 -2.921875q-0.546875 -0.90625 -1.703125 -0.90625q-1.125 0 -1.671875 0.875q-0.53125 0.859375 -0.5625 2.703125l0 3.921875q0 1.96875 0.53125 2.921875q0.546875 0.953125 1.71875 0.953125q1.171875 0 1.6875 -0.90625q0.53125 -0.921875 0.546875 -2.8125l0 -3.828125zm13.123596 9.90625l-3.1875 0l0 -12.328125l-3.828125 1.1875l0 -2.59375l6.671875 -2.390625l0.34375 0l0 16.125zm16.07669 -6.65625q0 3.34375 -1.390625 5.109375q-1.375 1.765625 -4.046875 1.765625q-2.625 0 -4.03125 -1.734375q-1.390625 -1.734375 -1.421875 -4.984375l0 -2.953125q0 -3.375 1.390625 -5.125q1.40625 -1.75 4.03125 -1.75q2.640625 0 4.03125 1.734375q1.40625 1.734375 1.4375 4.96875l0 2.96875zm-3.203125 -3.25q0 -2.015625 -0.546875 -2.921875q-0.546875 -0.90625 -1.703125 -0.90625q-1.125 0 -1.671875 0.875q-0.53125 0.859375 -0.5625 2.703125l0 3.921875q0 1.96875 0.53125 2.921875q0.546875 0.953125 1.71875 0.953125q1.171875 0 1.6875 -0.90625q0.53125 -0.921875 0.546875 -2.8125l0 -3.828125z" fill-rule="nonzero"/><path fill="#d0e0e3" d="m285.68747 462.88452l0 0c0 -33.75461 27.081482 -61.118103 60.48819 -61.118103l0 0c16.04248 0 31.427887 6.439209 42.771606 17.901062c11.34375 11.461884 17.716583 27.007507 17.716583 43.21704l0 0c0 33.75461 -27.081482 61.118103 -60.48819 61.118103l0 0c-33.406708 0 -60.48819 -27.363495 -60.48819 -61.118103z" fill-rule="evenodd"/><path stroke="#000000" stroke-width="8.0" stroke-linejoin="round" stroke-linecap="butt" d="m285.68747 462.88452l0 0c0 -33.75461 27.081482 -61.118103 60.48819 -61.118103l0 0c16.04248 0 31.427887 6.439209 42.771606 17.901062c11.34375 11.461884 17.716583 27.007507 17.716583 43.21704l0 0c0 33.75461 -27.081482 61.118103 -60.48819 61.118103l0 0c-33.406708 0 -60.48819 -27.363495 -60.48819 -61.118103z" fill-rule="evenodd"/><path fill="#000000" d="m335.53717 471.1445l-3.1875 0l0 -12.328125l-3.828125 1.1875l0 -2.59375l6.671875 -2.390625l0.34375 0l0 16.125zm16.076721 -6.65625q0 3.34375 -1.390625 5.109375q-1.375 1.765625 -4.046875 1.765625q-2.625 0 -4.03125 -1.734375q-1.390625 -1.734375 -1.421875 -4.984375l0 -2.953125q0 -3.375 1.390625 -5.125q1.40625 -1.75 4.03125 -1.75q2.640625 0 4.03125 1.734375q1.40625 1.734375 1.4375 4.96875l0 2.96875zm-3.203125 -3.25q0 -2.015625 -0.546875 -2.921875q-0.546875 -0.90625 -1.703125 -0.90625q-1.125 0 -1.671875 0.875q-0.53125 0.859375 -0.5625 2.703125l0 3.921875q0 1.96875 0.53125 2.921875q0.546875 0.953125 1.71875 0.953125q1.171875 0 1.6875 -0.90625q0.53125 -0.921875 0.546875 -2.8125l0 -3.828125zm16.20169 3.25q0 3.34375 -1.390625 5.109375q-1.375 1.765625 -4.046875 1.765625q-2.625 0 -4.03125 -1.734375q-1.390625 -1.734375 -1.421875 -4.984375l0 -2.953125q0 -3.375 1.390625 -5.125q1.40625 -1.75 4.03125 -1.75q2.640625 0 4.03125 1.734375q1.40625 1.734375 1.4375 4.96875l0 2.96875zm-3.203125 -3.25q0 -2.015625 -0.546875 -2.921875q-0.546875 -0.90625 -1.703125 -0.90625q-1.125 0 -1.671875 0.875q-0.53125 0.859375 -0.5625 2.703125l0 3.921875q0 1.96875 0.53125 2.921875q0.546875 0.953125 1.71875 0.953125q1.171875 0 1.6875 -0.90625q0.53125 -0.921875 0.546875 -2.8125l0 -3.828125z" fill-rule="nonzero"/><path fill="#000000" fill-opacity="0.0" d="m181.16006 226.78297l122.236206 -106.456696" fill-rule="evenodd"/><path stroke="#000000" stroke-width="8.0" stroke-linejoin="round" stroke-linecap="butt" d="m181.16006 226.78297l122.236206 -106.456696" fill-rule="evenodd"/><path fill="#000000" fill-opacity="0.0" d="m198.87665 270.0l86.80313 0" fill-rule="evenodd"/><path stroke="#000000" stroke-width="8.0" stroke-linejoin="round" stroke-linecap="butt" d="m198.87665 270.0l86.80313 0" fill-rule="evenodd"/><path fill="#000000" fill-opacity="0.0" d="m181.16006 313.21704l122.236206 106.456696" fill-rule="evenodd"/><path stroke="#000000" stroke-width="8.0" stroke-linejoin="round" stroke-linecap="butt" d="m181.16006 313.21704l122.236206 106.456696" fill-rule="evenodd"/><path fill="#000000" fill-opacity="0.0" d="m388.94727 313.21704l145.48035 106.456696" fill-rule="evenodd"/><path stroke="#000000" stroke-width="8.0" stroke-linejoin="round" stroke-linecap="butt" d="m388.94727 313.21704l145.48035 106.456696" fill-rule="evenodd"/><path fill="#000000" fill-opacity="0.0" d="m388.94727 226.78297l145.48035 -106.456696" fill-rule="evenodd"/><path stroke="#000000" stroke-width="8.0" stroke-linejoin="round" stroke-linecap="butt" d="m388.94727 226.78297l145.48035 -106.456696" fill-rule="evenodd"/><path fill="#000000" fill-opacity="0.0" d="m637.6875 270.0l86.8031 0" fill-rule="evenodd"/><path stroke="#000000" stroke-width="8.0" stroke-linejoin="round" stroke-linecap="butt" d="m637.6875 270.0l86.8031 0" fill-rule="evenodd"/><path fill="#000000" fill-opacity="0.0" d="m516.7111 77.115486l-110.04727 0" fill-rule="evenodd"/><path stroke="#000000" stroke-width="8.0" stroke-linejoin="round" stroke-linecap="butt" d="m516.7111 77.115486l-110.04727 0" fill-rule="evenodd"/><path fill="#000000" fill-opacity="0.0" d="m516.7111 462.88452l-110.04727 0" fill-rule="evenodd"/><path stroke="#000000" stroke-width="8.0" stroke-linejoin="round" stroke-linecap="butt" d="m516.7111 462.88452l-110.04727 0" fill-rule="evenodd"/><path fill="#000000" fill-opacity="0.0" d="m534.4277 313.21704l-145.48032 106.456696" fill-rule="evenodd"/><path stroke="#000000" stroke-width="8.0" stroke-linejoin="round" stroke-linecap="butt" d="m534.4277 313.21704l-145.48032 106.456696" fill-rule="evenodd"/><path fill="#000000" fill-opacity="0.0" d="m534.4277 226.78297l-145.48032 -106.456696" fill-rule="evenodd"/><path stroke="#000000" stroke-width="8.0" stroke-linejoin="round" stroke-linecap="butt" d="m534.4277 226.78297l-145.48032 -106.456696" fill-rule="evenodd"/><path fill="#000000" fill-opacity="0.0" d="m742.2151 226.78297l-122.236206 -106.456696" fill-rule="evenodd"/><path stroke="#000000" stroke-width="8.0" stroke-linejoin="round" stroke-linecap="butt" d="m742.2151 226.78297l-122.236206 -106.456696" fill-rule="evenodd"/><path fill="#000000" fill-opacity="0.0" d="m742.2151 313.21704l-122.236206 106.456696" fill-rule="evenodd"/><path stroke="#000000" stroke-width="8.0" stroke-linejoin="round" stroke-linecap="butt" d="m742.2151 313.21704l-122.236206 106.456696" fill-rule="evenodd"/></g></svg>