<svg version="1.1" viewBox="0.0 0.0 960.0 540.0" fill="none" stroke="none" stroke-linecap="square" stroke-miterlimit="10" xmlns:xlink="http://www.w3.org/1999/xlink" xmlns="http://www.w3.org/2000/svg"><clipPath id="g119b184e3bb_0_6.0"><path d="m0 0l960.0 0l0 540.0l-960.0 0l0 -540.0z" clip-rule="nonzero"/></clipPath><g clip-path="url(#g119b184e3bb_0_6.0)"><path fill="#ffffff" d="m0 0l960.0 0l0 540.0l-960.0 0z" fill-rule="evenodd"/><path fill="#000000" fill-opacity="0.0" d="m40.0 177.07086l252.40945 0l0 185.85828l-252.40945 0z" fill-rule="evenodd"/><path fill="#6aa84f" d="m163.7025 273.52814q0 7.859375 -3.25 12.03125q-3.25 4.15625 -9.53125 4.15625q-6.203125 0 -9.484375 -4.078125q-3.28125 -4.09375 -3.359375 -11.71875l0 -6.984375q0 -7.9375 3.296875 -12.04689q3.296875 -4.125 9.484375 -4.125q6.203125 0 9.484375 4.078125q3.28125 4.0781403 3.359375 11.70314l0 6.984375zm-7.515625 -7.65625q0 -4.71875 -1.296875 -6.859375q-1.28125 -2.15625 -4.015625 -2.15625q-2.65625 0 -3.921875 2.046875q-1.265625 2.046875 -1.34375 6.390625l0 9.21875q0 4.640625 1.265625 6.890625q1.265625 2.25 4.046875 2.25q2.765625 0 3.984375 -2.15625q1.21875 -2.171875 1.28125 -6.625l0 -9.0zm38.111603 7.65625q0 7.859375 -3.25 12.03125q-3.25 4.15625 -9.53125 4.15625q-6.203125 0 -9.484375 -4.078125q-3.28125 -4.09375 -3.359375 -11.71875l0 -6.984375q0 -7.9375 3.296875 -12.04689q3.296875 -4.125 9.484375 -4.125q6.203125 0 9.484375 4.078125q3.28125 4.0781403 3.359375 11.70314l0 6.984375zm-7.515625 -7.65625q0 -4.71875 -1.296875 -6.859375q-1.28125 -2.15625 -4.015625 -2.15625q-2.65625 0 -3.921875 2.046875q-1.265625 2.046875 -1.34375 6.390625l0 9.21875q0 4.640625 1.265625 6.890625q1.265625 2.25 4.046875 2.25q2.765625 0 3.984375 -2.15625q1.21875 -2.171875 1.28125 -6.625l0 -9.0z" fill-rule="nonzero"/><path fill="#000000" fill-opacity="0.0" d="m667.5906 177.07086l252.40942 0l0 185.85828l-252.40942 0z" fill-rule="evenodd"/><path fill="#6aa84f" d="m784.05865 289.2l-7.53125 0l0 -29.0l-8.984375 2.78125l0 -6.125l15.703125 -5.6250153l0.8125 0l0 37.968765zm30.596008 0l-7.53125 0l0 -29.0l-8.984375 2.78125l0 -6.125l15.703125 -5.6250153l0.8125 0l0 37.968765z" fill-rule="nonzero"/><path fill="#000000" fill-opacity="0.0" d="m353.7953 0l252.40942 0l0 185.85826l-252.40942 0z" fill-rule="evenodd"/><path fill="#000000" d="m477.49777 96.45726q0 7.859375 -3.25 12.03125q-3.25 4.15625 -9.53125 4.15625q-6.203125 0 -9.484375 -4.078125q-3.28125 -4.09375 -3.359375 -11.71875l0 -6.984375q0 -7.9375 3.296875 -12.046875q3.296875 -4.125 9.484375 -4.125q6.203125 0 9.484375 4.078125q3.28125 4.078125 3.359375 11.703125l0 6.984375zm-7.515625 -7.65625q0 -4.71875 -1.296875 -6.859375q-1.28125 -2.15625 -4.015625 -2.15625q-2.65625 0 -3.921875 2.046875q-1.265625 2.046875 -1.34375 6.390625l0 9.21875q0 4.640625 1.265625 6.890625q1.265625 2.25 4.046875 2.25q2.765625 0 3.984375 -2.15625q1.21875 -2.171875 1.28125 -6.625l0 -9.0zm30.877228 23.328125l-7.53125 0l0 -29.0l-8.984375 2.78125l0 -6.125l15.703125 -5.625l0.8125 0l0 37.96875z" fill-rule="nonzero"/><path fill="#000000" fill-opacity="0.0" d="m353.7953 354.14172l252.40942 0l0 185.85828l-252.40942 0z" fill-rule="evenodd"/><path fill="#000000" d="m470.2634 466.27087l-7.53125 0l0 -29.0l-8.984375 2.78125l0 -6.125l15.703125 -5.625l0.8125 0l0 37.96875zm37.830353 -15.671875q0 7.859375 -3.25 12.03125q-3.25 4.15625 -9.53125 4.15625q-6.203125 0 -9.484375 -4.078125q-3.28125 -4.09375 -3.359375 -11.71875l0 -6.984375q0 -7.9375 3.296875 -12.046875q3.296875 -4.125 9.484375 -4.125q6.203125 0 9.484375 4.078125q3.28125 4.078125 3.359375 11.703125l0 6.984375zm-7.515625 -7.65625q0 -4.71875 -1.296875 -6.859375q-1.28125 -2.15625 -4.015625 -2.15625q-2.65625 0 -3.921875 2.046875q-1.265625 2.046875 -1.34375 6.390625l0 9.21875q0 4.640625 1.265625 6.890625q1.265625 2.25 4.046875 2.25q2.765625 0 3.984375 -2.15625q1.21875 -2.171875 1.28125 -6.625l0 -9.0z" fill-rule="nonzero"/><path fill="#000000" fill-opacity="0.0" d="m166.20473 177.07086l187.59056 -84.12598" fill-rule="evenodd"/><path stroke="#ff0000" stroke-width="4.0" stroke-linejoin="round" stroke-linecap="butt" d="m186.74677 167.85867l146.50647 -65.7016" fill-rule="evenodd"/><path fill="#ff0000" stroke="#ff0000" stroke-width="4.0" stroke-linecap="butt" d="m186.74677 167.85867l-11.405899 -2.185257l-5.954529 9.970642l11.405899 2.185257z" fill-rule="evenodd"/><path fill="#ff0000" stroke="#ff0000" stroke-width="4.0" stroke-linecap="butt" d="m333.25323 102.157074l11.405914 2.185257l5.954529 -9.970642l-11.405914 -2.185257z" fill-rule="evenodd"/><path fill="#000000" fill-opacity="0.0" d="m793.7953 177.07086l-187.59058 -84.12598" fill-rule="evenodd"/><path stroke="#ff0000" stroke-width="4.0" stroke-linejoin="round" stroke-linecap="butt" d="m773.2532 167.85867l-146.50641 -65.7016" fill-rule="evenodd"/><path fill="#ff0000" stroke="#ff0000" stroke-width="4.0" stroke-linecap="butt" d="m773.25323 167.85867l5.954529 9.970642l11.405884 -2.185257l-5.954529 -9.970642z" fill-rule="evenodd"/><path fill="#ff0000" stroke="#ff0000" stroke-width="4.0" stroke-linecap="butt" d="m626.74677 102.157074l-5.954529 -9.970642l-11.405884 2.185257l5.954529 9.970642z" fill-rule="evenodd"/><path fill="#000000" fill-opacity="0.0" d="m353.7953 447.07086l-187.59056 -84.12598" fill-rule="evenodd"/><path stroke="#ff0000" stroke-width="4.0" stroke-linejoin="round" stroke-linecap="butt" d="m333.25323 437.85867l-146.50647 -65.7016" fill-rule="evenodd"/><path fill="#ff0000" stroke="#ff0000" stroke-width="4.0" stroke-linecap="butt" d="m333.25323 437.85867l5.954529 9.970642l11.405914 -2.1852722l-5.954529 -9.970642z" fill-rule="evenodd"/><path fill="#ff0000" stroke="#ff0000" stroke-width="4.0" stroke-linecap="butt" d="m186.74677 372.15707l-5.954529 -9.970642l-11.405899 2.1852722l5.954529 9.970642z" fill-rule="evenodd"/><path fill="#000000" fill-opacity="0.0" d="m606.2047 447.07086l187.59058 -84.12598" fill-rule="evenodd"/><path stroke="#ff0000" stroke-width="4.0" stroke-linejoin="round" stroke-linecap="butt" d="m626.74677 437.85867l146.50641 -65.7016" fill-rule="evenodd"/><path fill="#ff0000" stroke="#ff0000" stroke-width="4.0" stroke-linecap="butt" d="m626.74677 437.85867l-11.405884 -2.1852722l-5.954529 9.970642l11.405884 2.1852722z" fill-rule="evenodd"/><path fill="#ff0000" stroke="#ff0000" stroke-width="4.0" stroke-linecap="butt" d="m773.25323 372.15707l11.405884 2.1852722l5.954529 -9.970642l-11.405884 -2.1852722z" fill-rule="evenodd"/></g></svg>