<svg version="1.1" viewBox="0.0 0.0 960.0 540.0" fill="none" stroke="none" stroke-linecap="square" stroke-miterlimit="10" xmlns:xlink="http://www.w3.org/1999/xlink" xmlns="http://www.w3.org/2000/svg"><clipPath id="g10ca9ff00e6_0_66.0"><path d="m0 0l960.0 0l0 540.0l-960.0 0l0 -540.0z" clip-rule="nonzero"/></clipPath><g clip-path="url(#g10ca9ff00e6_0_66.0)"><path fill="#ffffff" d="m0 0l960.0 0l0 540.0l-960.0 0z" fill-rule="evenodd"/><path fill="#000000" fill-opacity="0.0" d="m120.0 119.32284l188.34647 0l0 301.3543l-188.34647 0z" fill-rule="evenodd"/><path fill="#6aa84f" d="m226.969 273.52814q0 7.859375 -3.25 12.03125q-3.25 4.15625 -9.53125 4.15625q-6.203125 0 -9.484375 -4.078125q-3.28125 -4.09375 -3.359375 -11.71875l0 -6.984375q0 -7.9375 3.296875 -12.04689q3.296875 -4.125 9.484375 -4.125q6.203125 0 9.484375 4.078125q3.28125 4.0781403 3.359375 11.70314l0 6.984375zm-7.515625 -7.65625q0 -4.71875 -1.296875 -6.859375q-1.28125 -2.15625 -4.015625 -2.15625q-2.65625 0 -3.921875 2.046875q-1.265625 2.046875 -1.34375 6.390625l0 9.21875q0 4.640625 1.265625 6.890625q1.265625 2.25 4.046875 2.25q2.765625 0 3.984375 -2.15625q1.21875 -2.171875 1.28125 -6.625l0 -9.0z" fill-rule="nonzero"/><path fill="#000000" fill-opacity="0.0" d="m651.65356 119.32284l188.34644 0l0 301.3543l-188.34644 0z" fill-rule="evenodd"/><path fill="#6aa84f" d="m751.3882 289.2l-7.53125 0l0 -29.0l-8.984375 2.78125l0 -6.125l15.703125 -5.6250153l0.8125 0l0 37.968765z" fill-rule="nonzero"/><path fill="#000000" fill-opacity="0.0" d="m308.34647 270.0l343.3071 0" fill-rule="evenodd"/><path stroke="#ff0000" stroke-width="4.0" stroke-linejoin="round" stroke-linecap="butt" d="m330.85956 270.0l298.28088 0" fill-rule="evenodd"/><path fill="#ff0000" stroke="#ff0000" stroke-width="4.0" stroke-linecap="butt" d="m330.85956 270.0l-9.513092 -6.6611633l-9.513123 6.6611633l9.513123 6.6611633z" fill-rule="evenodd"/><path fill="#ff0000" stroke="#ff0000" stroke-width="4.0" stroke-linecap="butt" d="m629.14044 270.0l9.513123 6.6611633l9.513062 -6.6611633l-9.513062 -6.6611633z" fill-rule="evenodd"/></g></svg>