<svg version="1.1" viewBox="0.0 0.0 960.0 540.0" fill="none" stroke="none" stroke-linecap="square" stroke-miterlimit="10" xmlns:xlink="http://www.w3.org/1999/xlink" xmlns="http://www.w3.org/2000/svg"><clipPath id="g119b184e3bb_0_35.0"><path d="m0 0l960.0 0l0 540.0l-960.0 0l0 -540.0z" clip-rule="nonzero"/></clipPath><g clip-path="url(#g119b184e3bb_0_35.0)"><path fill="#ffffff" d="m0 0l960.0 0l0 540.0l-960.0 0z" fill-rule="evenodd"/><path fill="#000000" fill-opacity="0.0" d="m0 242.3622l123.90551 0l0 55.27559l-123.90551 0z" fill-rule="evenodd"/><path fill="#6aa84f" d="m33.815487 272.99188q0 6.6875 -2.765625 10.234375q-2.765625 3.53125 -8.09375 3.53125q-5.265625 0 -8.0625 -3.46875q-2.78125 -3.46875 -2.84375 -9.953125l0 -5.9375q0 -6.75 2.796875 -10.25q2.796875 -3.5000153 8.0625 -3.5000153q5.265625 0 8.046875 3.4687653q2.796875 3.46875 2.859375 9.953125l0 5.921875zm-6.390625 -6.5q0 -4.015625 -1.09375 -5.828125q-1.09375 -1.828125 -3.421875 -1.828125q-2.25 0 -3.328125 1.734375q-1.078125 1.734375 -1.140625 5.4375l0 7.828125q0 3.9375 1.0625 5.859375q1.078125 1.90625 3.453125 1.90625q2.34375 0 3.375 -1.828125q1.046875 -1.84375 1.09375 -5.625l0 -7.65625zm32.39676 6.5q0 6.6875 -2.765625 10.234375q-2.765625 3.53125 -8.09375 3.53125q-5.265625 0 -8.0625 -3.46875q-2.78125 -3.46875 -2.84375 -9.953125l0 -5.9375q0 -6.75 2.796875 -10.25q2.796875 -3.5000153 8.0625 -3.5000153q5.265625 0 8.046875 3.4687653q2.796875 3.46875 2.859375 9.953125l0 5.921875zm-6.390625 -6.5q0 -4.015625 -1.09375 -5.828125q-1.09375 -1.828125 -3.421875 -1.828125q-2.25 0 -3.328125 1.734375q-1.078125 1.734375 -1.140625 5.4375l0 7.828125q0 3.9375 1.0625 5.859375q1.078125 1.90625 3.453125 1.90625q2.34375 0 3.375 -1.828125q1.046875 -1.84375 1.09375 -5.625l0 -7.65625zm32.396763 6.5q0 6.6875 -2.765625 10.234375q-2.765625 3.53125 -8.09375 3.53125q-5.265625 0 -8.0625 -3.46875q-2.78125 -3.46875 -2.84375 -9.953125l0 -5.9375q0 -6.75 2.796875 -10.25q2.796875 -3.5000153 8.0625 -3.5000153q5.265625 0 8.046875 3.4687653q2.796875 3.46875 2.859375 9.953125l0 5.921875zm-6.390625 -6.5q0 -4.015625 -1.09375 -5.828125q-1.09375 -1.828125 -3.421875 -1.828125q-2.25 0 -3.328125 1.734375q-1.078125 1.734375 -1.140625 5.4375l0 7.828125q0 3.9375 1.0625 5.859375q1.078125 1.90625 3.453125 1.90625q2.34375 0 3.375 -1.828125q1.046875 -1.84375 1.09375 -5.625l0 -7.65625zm32.39676 6.5q0 6.6875 -2.765625 10.234375q-2.765625 3.53125 -8.09375 3.53125q-5.265625 0 -8.0625 -3.46875q-2.78125 -3.46875 -2.84375 -9.953125l0 -5.9375q0 -6.75 2.796875 -10.25q2.796875 -3.5000153 8.0625 -3.5000153q5.265625 0 8.046875 3.4687653q2.796875 3.46875 2.859375 9.953125l0 5.921875zm-6.390625 -6.5q0 -4.015625 -1.09375 -5.828125q-1.09375 -1.828125 -3.421875 -1.828125q-2.25 0 -3.328125 1.734375q-1.078125 1.734375 -1.140625 5.4375l0 7.828125q0 3.9375 1.0625 5.859375q1.078125 1.90625 3.453125 1.90625q2.34375 0 3.375 -1.828125q1.046875 -1.84375 1.09375 -5.625l0 -7.65625z" fill-rule="nonzero"/><path fill="#000000" fill-opacity="0.0" d="m836.0945 242.3622l123.90552 0l0 55.27559l-123.90552 0z" fill-rule="evenodd"/><path fill="#6aa84f" d="m863.76935 286.32l-6.40625 0l0 -24.65625l-7.625 2.375l0 -5.203125l13.34375 -4.7812653l0.6875 0l0 32.26564zm26.006165 0l-6.40625 0l0 -24.65625l-7.625 2.375l0 -5.203125l13.34375 -4.7812653l0.6875 0l0 32.26564zm26.006104 0l-6.40625 0l0 -24.65625l-7.625 2.375l0 -5.203125l13.34375 -4.7812653l0.6875 0l0 32.26564zm26.006165 0l-6.40625 0l0 -24.65625l-7.625 2.375l0 -5.203125l13.34375 -4.7812653l0.6875 0l0 32.26564z" fill-rule="nonzero"/><path fill="#000000" fill-opacity="0.0" d="m212.51443 431.79266l123.90552 0l0 55.275574l-123.90552 0z" fill-rule="evenodd"/><path fill="#000000" d="m246.32993 462.42233q0 6.6875 -2.765625 10.234375q-2.765625 3.53125 -8.09375 3.53125q-5.265625 0 -8.0625 -3.46875q-2.78125 -3.46875 -2.84375 -9.953125l0 -5.9375q0 -6.75 2.796875 -10.25q2.796875 -3.5 8.0625 -3.5q5.265625 0 8.046875 3.46875q2.796875 3.46875 2.859375 9.953125l0 5.921875zm-6.390625 -6.5q0 -4.015625 -1.09375 -5.828125q-1.09375 -1.828125 -3.421875 -1.828125q-2.25 0 -3.328125 1.734375q-1.078125 1.734375 -1.140625 5.4375l0 7.828125q0 3.9375 1.0625 5.859375q1.078125 1.90625 3.453125 1.90625q2.34375 0 3.375 -1.828125q1.046875 -1.84375 1.09375 -5.625l0 -7.65625zm32.39676 6.5q0 6.6875 -2.765625 10.234375q-2.765625 3.53125 -8.09375 3.53125q-5.265625 0 -8.0625 -3.46875q-2.78125 -3.46875 -2.84375 -9.953125l0 -5.9375q0 -6.75 2.796875 -10.25q2.796875 -3.5 8.0625 -3.5q5.265625 0 8.046875 3.46875q2.796875 3.46875 2.859375 9.953125l0 5.921875zm-6.390625 -6.5q0 -4.015625 -1.09375 -5.828125q-1.09375 -1.828125 -3.421875 -1.828125q-2.25 0 -3.328125 1.734375q-1.078125 1.734375 -1.140625 5.4375l0 7.828125q0 3.9375 1.0625 5.859375q1.078125 1.90625 3.453125 1.90625q2.34375 0 3.375 -1.828125q1.046875 -1.84375 1.09375 -5.625l0 -7.65625zm32.39676 6.5q0 6.6875 -2.765625 10.234375q-2.765625 3.53125 -8.09375 3.53125q-5.265625 0 -8.0625 -3.46875q-2.78125 -3.46875 -2.84375 -9.953125l0 -5.9375q0 -6.75 2.796875 -10.25q2.796875 -3.5 8.0625 -3.5q5.265625 0 8.046875 3.46875q2.796875 3.46875 2.859375 9.953125l0 5.921875zm-6.390625 -6.5q0 -4.015625 -1.09375 -5.828125q-1.09375 -1.828125 -3.421875 -1.828125q-2.25 0 -3.328125 1.734375q-1.078125 1.734375 -1.140625 5.4375l0 7.828125q0 3.9375 1.0625 5.859375q1.078125 1.90625 3.453125 1.90625q2.34375 0 3.375 -1.828125q1.046875 -1.84375 1.09375 -5.625l0 -7.65625zm26.256134 19.828125l-6.40625 0l0 -24.65625l-7.625 2.375l0 -5.203125l13.34375 -4.78125l0.6875 0l0 32.265625z" fill-rule="nonzero"/><path fill="#000000" fill-opacity="0.0" d="m209.02362 310.61154l123.90552 0l0 55.275604l-123.90552 0z" fill-rule="evenodd"/><path fill="#000000" d="m242.83911 341.2412q0 6.6875 -2.765625 10.234375q-2.765625 3.53125 -8.09375 3.53125q-5.265625 0 -8.0625 -3.46875q-2.78125 -3.46875 -2.84375 -9.953125l0 -5.9375q0 -6.75 2.796875 -10.25q2.796875 -3.5 8.0625 -3.5q5.265625 0 8.046875 3.46875q2.796875 3.46875 2.859375 9.953125l0 5.921875zm-6.390625 -6.5q0 -4.015625 -1.09375 -5.828125q-1.09375 -1.828125 -3.421875 -1.828125q-2.25 0 -3.328125 1.734375q-1.078125 1.734375 -1.140625 5.4375l0 7.828125q0 3.9375 1.0625 5.859375q1.078125 1.90625 3.453125 1.90625q2.34375 0 3.375 -1.828125q1.046875 -1.84375 1.09375 -5.625l0 -7.65625zm32.39676 6.5q0 6.6875 -2.765625 10.234375q-2.765625 3.53125 -8.09375 3.53125q-5.265625 0 -8.0625 -3.46875q-2.78125 -3.46875 -2.84375 -9.953125l0 -5.9375q0 -6.75 2.796875 -10.25q2.796875 -3.5 8.0625 -3.5q5.265625 0 8.046875 3.46875q2.796875 3.46875 2.859375 9.953125l0 5.921875zm-6.390625 -6.5q0 -4.015625 -1.09375 -5.828125q-1.09375 -1.828125 -3.421875 -1.828125q-2.25 0 -3.328125 1.734375q-1.078125 1.734375 -1.140625 5.4375l0 7.828125q0 3.9375 1.0625 5.859375q1.078125 1.90625 3.453125 1.90625q2.34375 0 3.375 -1.828125q1.046875 -1.84375 1.09375 -5.625l0 -7.65625zm26.256134 19.828125l-6.40625 0l0 -24.65625l-7.625 2.375l0 -5.203125l13.34375 -4.78125l0.6875 0l0 32.265625zm32.14676 -13.328125q0 6.6875 -2.765625 10.234375q-2.765625 3.53125 -8.09375 3.53125q-5.265625 0 -8.0625 -3.46875q-2.78125 -3.46875 -2.84375 -9.953125l0 -5.9375q0 -6.75 2.796875 -10.25q2.796875 -3.5 8.0625 -3.5q5.265625 0 8.046875 3.46875q2.796875 3.46875 2.859375 9.953125l0 5.921875zm-6.390625 -6.5q0 -4.015625 -1.09375 -5.828125q-1.09375 -1.828125 -3.421875 -1.828125q-2.25 0 -3.328125 1.734375q-1.078125 1.734375 -1.140625 5.4375l0 7.828125q0 3.9375 1.0625 5.859375q1.078125 1.90625 3.453125 1.90625q2.34375 0 3.375 -1.828125q1.046875 -1.84375 1.09375 -5.625l0 -7.65625z" fill-rule="nonzero"/><path fill="#000000" fill-opacity="0.0" d="m209.02362 180.24934l123.90552 0l0 55.27559l-123.90552 0z" fill-rule="evenodd"/><path fill="#000000" d="m242.83911 210.87901q0 6.6875 -2.765625 10.234375q-2.765625 3.53125 -8.09375 3.53125q-5.265625 0 -8.0625 -3.46875q-2.78125 -3.46875 -2.84375 -9.953125l0 -5.9375q0 -6.75 2.796875 -10.25q2.796875 -3.5 8.0625 -3.5q5.265625 0 8.046875 3.46875q2.796875 3.46875 2.859375 9.953125l0 5.921875zm-6.390625 -6.5q0 -4.015625 -1.09375 -5.828125q-1.09375 -1.828125 -3.421875 -1.828125q-2.25 0 -3.328125 1.734375q-1.078125 1.734375 -1.140625 5.4375l0 7.828125q0 3.9375 1.0625 5.859375q1.078125 1.90625 3.453125 1.90625q2.34375 0 3.375 -1.828125q1.046875 -1.84375 1.09375 -5.625l0 -7.65625zm26.256134 19.828125l-6.40625 0l0 -24.65625l-7.625 2.375l0 -5.203125l13.34375 -4.78125l0.6875 0l0 32.265625zm32.14676 -13.328125q0 6.6875 -2.765625 10.234375q-2.765625 3.53125 -8.09375 3.53125q-5.265625 0 -8.0625 -3.46875q-2.78125 -3.46875 -2.84375 -9.953125l0 -5.9375q0 -6.75 2.796875 -10.25q2.796875 -3.5 8.0625 -3.5q5.265625 0 8.046875 3.46875q2.796875 3.46875 2.859375 9.953125l0 5.921875zm-6.390625 -6.5q0 -4.015625 -1.09375 -5.828125q-1.09375 -1.828125 -3.421875 -1.828125q-2.25 0 -3.328125 1.734375q-1.078125 1.734375 -1.140625 5.4375l0 7.828125q0 3.9375 1.0625 5.859375q1.078125 1.90625 3.453125 1.90625q2.34375 0 3.375 -1.828125q1.046875 -1.84375 1.09375 -5.625l0 -7.65625zm32.39676 6.5q0 6.6875 -2.765625 10.234375q-2.765625 3.53125 -8.09375 3.53125q-5.265625 0 -8.0625 -3.46875q-2.78125 -3.46875 -2.84375 -9.953125l0 -5.9375q0 -6.75 2.796875 -10.25q2.796875 -3.5 8.0625 -3.5q5.265625 0 8.046875 3.46875q2.796875 3.46875 2.859375 9.953125l0 5.921875zm-6.390625 -6.5q0 -4.015625 -1.09375 -5.828125q-1.09375 -1.828125 -3.421875 -1.828125q-2.25 0 -3.328125 1.734375q-1.078125 1.734375 -1.140625 5.4375l0 7.828125q0 3.9375 1.0625 5.859375q1.078125 1.90625 3.453125 1.90625q2.34375 0 3.375 -1.828125q1.046875 -1.84375 1.09375 -5.625l0 -7.65625z" fill-rule="nonzero"/><path fill="#000000" fill-opacity="0.0" d="m205.5328 59.06824l123.90552 0l0 55.275593l-123.90552 0z" fill-rule="evenodd"/><path fill="#000000" d="m233.20767 103.02604l-6.40625 0l0 -24.65625l-7.625 2.375l0 -5.203125l13.34375 -4.78125l0.6875 0l0 32.265625zm32.14676 -13.328125q0 6.6875 -2.765625 10.234375q-2.765625 3.53125 -8.09375 3.53125q-5.265625 0 -8.0625 -3.46875q-2.78125 -3.46875 -2.84375 -9.953125l0 -5.9375q0 -6.75 2.796875 -10.25q2.796875 -3.5 8.0625 -3.5q5.265625 0 8.046875 3.46875q2.796875 3.46875 2.859375 9.953125l0 5.921875zm-6.390625 -6.5q0 -4.015625 -1.09375 -5.828125q-1.09375 -1.828125 -3.421875 -1.828125q-2.25 0 -3.328125 1.734375q-1.078125 1.734375 -1.140625 5.4375l0 7.828125q0 3.9375 1.0625 5.859375q1.078125 1.90625 3.453125 1.90625q2.34375 0 3.375 -1.828125q1.046875 -1.84375 1.09375 -5.625l0 -7.65625zm32.39676 6.5q0 6.6875 -2.765625 10.234375q-2.765625 3.53125 -8.09375 3.53125q-5.265625 0 -8.0625 -3.46875q-2.78125 -3.46875 -2.84375 -9.953125l0 -5.9375q0 -6.75 2.796875 -10.25q2.796875 -3.5 8.0625 -3.5q5.265625 0 8.046875 3.46875q2.796875 3.46875 2.859375 9.953125l0 5.921875zm-6.390625 -6.5q0 -4.015625 -1.09375 -5.828125q-1.09375 -1.828125 -3.421875 -1.828125q-2.25 0 -3.328125 1.734375q-1.078125 1.734375 -1.140625 5.4375l0 7.828125q0 3.9375 1.0625 5.859375q1.078125 1.90625 3.453125 1.90625q2.34375 0 3.375 -1.828125q1.046875 -1.84375 1.09375 -5.625l0 -7.65625zm32.39676 6.5q0 6.6875 -2.765625 10.234375q-2.765625 3.53125 -8.09375 3.53125q-5.265625 0 -8.0625 -3.46875q-2.78125 -3.46875 -2.84375 -9.953125l0 -5.9375q0 -6.75 2.796875 -10.25q2.796875 -3.5 8.0625 -3.5q5.265625 0 8.046875 3.46875q2.796875 3.46875 2.859375 9.953125l0 5.921875zm-6.390625 -6.5q0 -4.015625 -1.09375 -5.828125q-1.09375 -1.828125 -3.421875 -1.828125q-2.25 0 -3.328125 1.734375q-1.078125 1.734375 -1.140625 5.4375l0 7.828125q0 3.9375 1.0625 5.859375q1.078125 1.90625 3.453125 1.90625q2.34375 0 3.375 -1.828125q1.046875 -1.84375 1.09375 -5.625l0 -7.65625z" fill-rule="nonzero"/><path fill="#000000" fill-opacity="0.0" d="m627.07086 428.7244l123.90552 0l0 55.275604l-123.90552 0z" fill-rule="evenodd"/><path fill="#000000" d="m660.88635 459.35406q0 6.6875 -2.765625 10.234375q-2.765625 3.53125 -8.09375 3.53125q-5.265625 0 -8.0625 -3.46875q-2.78125 -3.46875 -2.84375 -9.953125l0 -5.9375q0 -6.75 2.796875 -10.25q2.796875 -3.5 8.0625 -3.5q5.265625 0 8.046875 3.46875q2.796875 3.46875 2.859375 9.953125l0 5.921875zm-6.390625 -6.5q0 -4.015625 -1.09375 -5.828125q-1.09375 -1.828125 -3.421875 -1.828125q-2.25 0 -3.328125 1.734375q-1.078125 1.734375 -1.140625 5.4375l0 7.828125q0 3.9375 1.0625 5.859375q1.078125 1.90625 3.453125 1.90625q2.34375 0 3.375 -1.828125q1.046875 -1.84375 1.09375 -5.625l0 -7.65625zm26.256165 19.828125l-6.40625 0l0 -24.65625l-7.625 2.375l0 -5.203125l13.34375 -4.78125l0.6875 0l0 32.265625zm26.006104 0l-6.40625 0l0 -24.65625l-7.625 2.375l0 -5.203125l13.34375 -4.78125l0.6875 0l0 32.265625zm26.006165 0l-6.40625 0l0 -24.65625l-7.625 2.375l0 -5.203125l13.34375 -4.78125l0.6875 0l0 32.265625z" fill-rule="nonzero"/><path fill="#000000" fill-opacity="0.0" d="m623.5801 307.5433l123.90546 0l0 55.275604l-123.90546 0z" fill-rule="evenodd"/><path fill="#000000" d="m651.25494 351.5011l-6.40625 0l0 -24.65625l-7.625 2.375l0 -5.203125l13.34375 -4.78125l0.6875 0l0 32.265625zm32.14673 -13.328125q0 6.6875 -2.765625 10.234375q-2.765625 3.53125 -8.09375 3.53125q-5.265625 0 -8.0625 -3.46875q-2.78125 -3.46875 -2.84375 -9.953125l0 -5.9375q0 -6.75 2.796875 -10.25q2.796875 -3.5 8.0625 -3.5q5.265625 0 8.046875 3.46875q2.796875 3.46875 2.859375 9.953125l0 5.921875zm-6.390625 -6.5q0 -4.015625 -1.09375 -5.828125q-1.09375 -1.828125 -3.421875 -1.828125q-2.25 0 -3.328125 1.734375q-1.078125 1.734375 -1.140625 5.4375l0 7.828125q0 3.9375 1.0625 5.859375q1.078125 1.90625 3.453125 1.90625q2.34375 0 3.375 -1.828125q1.046875 -1.84375 1.09375 -5.625l0 -7.65625zm26.256165 19.828125l-6.40625 0l0 -24.65625l-7.625 2.375l0 -5.203125l13.34375 -4.78125l0.6875 0l0 32.265625zm26.006104 0l-6.40625 0l0 -24.65625l-7.625 2.375l0 -5.203125l13.34375 -4.78125l0.6875 0l0 32.265625z" fill-rule="nonzero"/><path fill="#000000" fill-opacity="0.0" d="m627.07086 177.1811l123.90552 0l0 55.27559l-123.90552 0z" fill-rule="evenodd"/><path fill="#000000" d="m654.7457 221.1389l-6.40625 0l0 -24.65625l-7.625 2.375l0 -5.203125l13.34375 -4.78125l0.6875 0l0 32.265625zm26.006165 0l-6.40625 0l0 -24.65625l-7.625 2.375l0 -5.203125l13.34375 -4.78125l0.6875 0l0 32.265625zm32.14673 -13.328125q0 6.6875 -2.765625 10.234375q-2.765625 3.53125 -8.09375 3.53125q-5.265625 0 -8.0625 -3.46875q-2.78125 -3.46875 -2.84375 -9.953125l0 -5.9375q0 -6.75 2.796875 -10.25q2.796875 -3.5 8.0625 -3.5q5.265625 0 8.046875 3.46875q2.796875 3.46875 2.859375 9.953125l0 5.921875zm-6.390625 -6.5q0 -4.015625 -1.09375 -5.828125q-1.09375 -1.828125 -3.421875 -1.828125q-2.25 0 -3.328125 1.734375q-1.078125 1.734375 -1.140625 5.4375l0 7.828125q0 3.9375 1.0625 5.859375q1.078125 1.90625 3.453125 1.90625q2.34375 0 3.375 -1.828125q1.046875 -1.84375 1.09375 -5.625l0 -7.65625zm26.256165 19.828125l-6.40625 0l0 -24.65625l-7.625 2.375l0 -5.203125l13.34375 -4.78125l0.6875 0l0 32.265625z" fill-rule="nonzero"/><path fill="#000000" fill-opacity="0.0" d="m623.5801 56.0l123.90546 0l0 55.27559l-123.90546 0z" fill-rule="evenodd"/><path fill="#000000" d="m651.25494 99.957794l-6.40625 0l0 -24.65625l-7.625 2.375l0 -5.203125l13.34375 -4.78125l0.6875 0l0 32.265625zm26.006104 0l-6.40625 0l0 -24.65625l-7.625 2.375l0 -5.203125l13.34375 -4.78125l0.6875 0l0 32.265625zm26.006165 0l-6.40625 0l0 -24.65625l-7.625 2.375l0 -5.203125l13.34375 -4.78125l0.6875 0l0 32.265625zm32.14673 -13.328125q0 6.6875 -2.765625 10.234375q-2.765625 3.53125 -8.09375 3.53125q-5.265625 0 -8.0625 -3.46875q-2.78125 -3.46875 -2.84375 -9.953125l0 -5.9375q0 -6.75 2.796875 -10.25q2.796875 -3.5 8.0625 -3.5q5.265625 0 8.046875 3.46875q2.796875 3.46875 2.859375 9.953125l0 5.921875zm-6.390625 -6.5q0 -4.015625 -1.09375 -5.828125q-1.09375 -1.828125 -3.421875 -1.828125q-2.25 0 -3.328125 1.734375q-1.078125 1.734375 -1.140625 5.4375l0 7.828125q0 3.9375 1.0625 5.859375q1.078125 1.90625 3.453125 1.90625q2.34375 0 3.375 -1.828125q1.046875 -1.84375 1.09375 -5.625l0 -7.65625z" fill-rule="nonzero"/><path fill="#000000" fill-opacity="0.0" d="m419.79266 461.44882l123.90552 0l0 55.275604l-123.90552 0z" fill-rule="evenodd"/><path fill="#000000" d="m453.60812 492.0785q0 6.6875 -2.765625 10.234375q-2.765625 3.53125 -8.09375 3.53125q-5.265625 0 -8.0625 -3.46875q-2.78125 -3.46875 -2.84375 -9.953125l0 -5.9375q0 -6.75 2.796875 -10.25q2.796875 -3.5 8.0625 -3.5q5.265625 0 8.046875 3.46875q2.796875 3.46875 2.859375 9.953125l0 5.921875zm-6.390625 -6.5q0 -4.015625 -1.09375 -5.828125q-1.09375 -1.828125 -3.421875 -1.828125q-2.25 0 -3.328125 1.734375q-1.078125 1.734375 -1.140625 5.4375l0 7.828125q0 3.9375 1.0625 5.859375q1.078125 1.90625 3.453125 1.90625q2.34375 0 3.375 -1.828125q1.046875 -1.84375 1.09375 -5.625l0 -7.65625zm32.39676 6.5q0 6.6875 -2.765625 10.234375q-2.765625 3.53125 -8.09375 3.53125q-5.265625 0 -8.0625 -3.46875q-2.78125 -3.46875 -2.84375 -9.953125l0 -5.9375q0 -6.75 2.796875 -10.25q2.796875 -3.5 8.0625 -3.5q5.265625 0 8.046875 3.46875q2.796875 3.46875 2.859375 9.953125l0 5.921875zm-6.390625 -6.5q0 -4.015625 -1.09375 -5.828125q-1.09375 -1.828125 -3.421875 -1.828125q-2.25 0 -3.328125 1.734375q-1.078125 1.734375 -1.140625 5.4375l0 7.828125q0 3.9375 1.0625 5.859375q1.078125 1.90625 3.453125 1.90625q2.34375 0 3.375 -1.828125q1.046875 -1.84375 1.09375 -5.625l0 -7.65625zm26.256165 19.828125l-6.40625 0l0 -24.65625l-7.625 2.375l0 -5.203125l13.34375 -4.78125l0.6875 0l0 32.265625zm26.006104 0l-6.40625 0l0 -24.65625l-7.6249695 2.375l0 -5.203125l13.3437195 -4.78125l0.6875 0l0 32.265625z" fill-rule="nonzero"/><path fill="#000000" fill-opacity="0.0" d="m418.04724 242.3622l123.90552 0l0 55.27559l-123.90552 0z" fill-rule="evenodd"/><path fill="#000000" d="m451.86273 272.99188q0 6.6875 -2.765625 10.234375q-2.765625 3.53125 -8.09375 3.53125q-5.265625 0 -8.0625 -3.46875q-2.78125 -3.46875 -2.84375 -9.953125l0 -5.9375q0 -6.75 2.796875 -10.25q2.796875 -3.5000153 8.0625 -3.5000153q5.265625 0 8.046875 3.4687653q2.796875 3.46875 2.859375 9.953125l0 5.921875zm-6.390625 -6.5q0 -4.015625 -1.09375 -5.828125q-1.09375 -1.828125 -3.421875 -1.828125q-2.25 0 -3.328125 1.734375q-1.078125 1.734375 -1.140625 5.4375l0 7.828125q0 3.9375 1.0625 5.859375q1.078125 1.90625 3.453125 1.90625q2.34375 0 3.375 -1.828125q1.046875 -1.84375 1.09375 -5.625l0 -7.65625zm26.256134 19.828125l-6.40625 0l0 -24.65625l-7.625 2.375l0 -5.203125l13.34375 -4.7812653l0.6875 0l0 32.26564zm26.006134 0l-6.40625 0l0 -24.65625l-7.625 2.375l0 -5.203125l13.34375 -4.7812653l0.6875 0l0 32.26564zm32.14679 -13.328125q0 6.6875 -2.765625 10.234375q-2.765625 3.53125 -8.09375 3.53125q-5.265625 0 -8.0625305 -3.46875q-2.78125 -3.46875 -2.84375 -9.953125l0 -5.9375q0 -6.75 2.796875 -10.25q2.7969055 -3.5000153 8.0625305 -3.5000153q5.265625 0 8.046875 3.4687653q2.796875 3.46875 2.859375 9.953125l0 5.921875zm-6.390625 -6.5q0 -4.015625 -1.09375 -5.828125q-1.09375 -1.828125 -3.421875 -1.828125q-2.25 0 -3.328125 1.734375q-1.078125 1.734375 -1.140625 5.4375l0 7.828125q0 3.9375 1.0625 5.859375q1.078125 1.90625 3.453125 1.90625q2.34375 0 3.375 -1.828125q1.046875 -1.84375 1.09375 -5.625l0 -7.65625z" fill-rule="nonzero"/><path fill="#000000" fill-opacity="0.0" d="m418.04724 23.27559l123.90552 0l0 55.27559l-123.90552 0z" fill-rule="evenodd"/><path fill="#000000" d="m445.7221 67.23338l-6.40625 0l0 -24.65625l-7.625 2.375l0 -5.203125l13.34375 -4.78125l0.6875 0l0 32.265625zm26.006134 0l-6.40625 0l0 -24.65625l-7.625 2.375l0 -5.203125l13.34375 -4.78125l0.6875 0l0 32.265625zm32.14676 -13.328125q0 6.6875 -2.765625 10.234375q-2.765625 3.53125 -8.09375 3.53125q-5.265625 0 -8.0625 -3.46875q-2.78125 -3.46875 -2.84375 -9.953125l0 -5.9375q0 -6.75 2.796875 -10.25q2.796875 -3.5 8.0625 -3.5q5.265625 0 8.046875 3.46875q2.796875 3.46875 2.859375 9.953125l0 5.921875zm-6.390625 -6.5q0 -4.015625 -1.09375 -5.828125q-1.09375 -1.828125 -3.421875 -1.828125q-2.25 0 -3.328125 1.734375q-1.078125 1.734375 -1.140625 5.4375l0 7.828125q0 3.9375 1.0625 5.859375q1.078125 1.90625 3.453125 1.90625q2.34375 0 3.375 -1.828125q1.046875 -1.84375 1.09375 -5.625l0 -7.65625zm32.39679 6.5q0 6.6875 -2.765625 10.234375q-2.765625 3.53125 -8.09375 3.53125q-5.265625 0 -8.0625305 -3.46875q-2.78125 -3.46875 -2.84375 -9.953125l0 -5.9375q0 -6.75 2.796875 -10.25q2.7969055 -3.5 8.0625305 -3.5q5.265625 0 8.046875 3.46875q2.796875 3.46875 2.859375 9.953125l0 5.921875zm-6.390625 -6.5q0 -4.015625 -1.09375 -5.828125q-1.09375 -1.828125 -3.421875 -1.828125q-2.25 0 -3.328125 1.734375q-1.078125 1.734375 -1.140625 5.4375l0 7.828125q0 3.9375 1.0625 5.859375q1.078125 1.90625 3.453125 1.90625q2.34375 0 3.375 -1.828125q1.046875 -1.84375 1.09375 -5.625l0 -7.65625z" fill-rule="nonzero"/><path fill="#000000" fill-opacity="0.0" d="m466.5013 78.55118l30.48819 0l0 137.29134l-30.48819 0z" fill-rule="evenodd"/><path fill="#000000" d="m478.28882 109.61748q0 -1.40625 0.9375 -2.265625q0.9375 -0.875 2.34375 -0.875q1.4375 0 2.375 0.875q0.9375 0.859375 0.9375 2.265625q0 1.359375 -0.9375 2.21875q-0.921875 0.859375 -2.375 0.859375q-1.421875 0 -2.359375 -0.859375q-0.921875 -0.859375 -0.921875 -2.21875z" fill-rule="nonzero"/><path fill="#000000" d="m478.28882 159.21747q0 -1.40625 0.9375 -2.265625q0.9375 -0.875 2.34375 -0.875q1.4375 0 2.375 0.875q0.9375 0.859375 0.9375 2.265625q0 1.359375 -0.9375 2.21875q-0.921875 0.859375 -2.375 0.859375q-1.421875 0 -2.359375 -0.859375q-0.921875 -0.859375 -0.921875 -2.21875z" fill-rule="nonzero"/><path fill="#000000" d="m478.28882 208.81746q0 -1.40625 0.9375 -2.265625q0.9375 -0.875 2.34375 -0.875q1.4375 0 2.375 0.875q0.9375 0.859375 0.9375 2.265625q0 1.359375 -0.9375 2.21875q-0.921875 0.859375 -2.375 0.859375q-1.421875 0 -2.359375 -0.859375q-0.921875 -0.859375 -0.921875 -2.21875z" fill-rule="nonzero"/><path fill="#000000" fill-opacity="0.0" d="m466.5013 307.5433l30.48819 0l0 137.29135l-30.48819 0z" fill-rule="evenodd"/><path fill="#000000" d="m478.28882 338.6096q0 -1.40625 0.9375 -2.265625q0.9375 -0.875 2.34375 -0.875q1.4375 0 2.375 0.875q0.9375 0.859375 0.9375 2.265625q0 1.359375 -0.9375 2.21875q-0.921875 0.859375 -2.375 0.859375q-1.421875 0 -2.359375 -0.859375q-0.921875 -0.859375 -0.921875 -2.21875z" fill-rule="nonzero"/><path fill="#000000" d="m478.28882 388.2096q0 -1.40625 0.9375 -2.265625q0.9375 -0.875 2.34375 -0.875q1.4375 0 2.375 0.875q0.9375 0.859375 0.9375 2.265625q0 1.359375 -0.9375 2.21875q-0.921875 0.859375 -2.375 0.859375q-1.421875 0 -2.359375 -0.859375q-0.921875 -0.859375 -0.921875 -2.21875z" fill-rule="nonzero"/><path fill="#000000" d="m478.28882 437.8096q0 -1.40625 0.9375 -2.265625q0.9375 -0.875 2.34375 -0.875q1.4375 0 2.375 0.875q0.9375 0.859375 0.9375 2.265625q0 1.359375 -0.9375 2.21875q-0.921875 0.859375 -2.375 0.859375q-1.421875 0 -2.359375 -0.859375q-0.921875 -0.859375 -0.921875 -2.21875z" fill-rule="nonzero"/><path fill="#000000" fill-opacity="0.0" d="m61.952755 242.3622l143.59055 -155.65353" fill-rule="evenodd"/><path stroke="#ff0000" stroke-width="3.0" stroke-linejoin="round" stroke-linecap="butt" d="m73.40154 229.95161l120.692986 -130.83237" fill-rule="evenodd"/><path fill="#ff0000" stroke="#ff0000" stroke-width="3.0" stroke-linecap="butt" d="m73.40154 229.95161l-8.509811 1.8567505l-1.1657562 8.631653l8.509811 -1.8567505z" fill-rule="evenodd"/><path fill="#ff0000" stroke="#ff0000" stroke-width="3.0" stroke-linecap="butt" d="m194.09453 99.119255l8.509811 -1.8567505l1.165741 -8.631653l-8.509811 1.8567505z" fill-rule="evenodd"/><path fill="#000000" fill-opacity="0.0" d="m123.90551 270.0l85.13386 -62.11023" fill-rule="evenodd"/><path stroke="#ff0000" stroke-width="3.0" stroke-linejoin="round" stroke-linecap="butt" d="m137.54602 260.04843l57.85283 -42.207108" fill-rule="evenodd"/><path fill="#ff0000" stroke="#ff0000" stroke-width="3.0" stroke-linecap="butt" d="m137.54602 260.04843l-8.708374 0.16918945l-2.8194504 8.241058l8.708366 -0.16918945z" fill-rule="evenodd"/><path fill="#ff0000" stroke="#ff0000" stroke-width="3.0" stroke-linecap="butt" d="m195.39885 217.84134l8.708374 -0.16918945l2.819458 -8.241058l-8.708374 0.16918945z" fill-rule="evenodd"/><path fill="#000000" fill-opacity="0.0" d="m123.90551 270.0l85.13386 68.25198" fill-rule="evenodd"/><path stroke="#ff0000" stroke-width="3.0" stroke-linejoin="round" stroke-linecap="butt" d="m137.0794 280.56152l58.78607 47.128906" fill-rule="evenodd"/><path fill="#ff0000" stroke="#ff0000" stroke-width="3.0" stroke-linecap="butt" d="m137.0794 280.56152l-2.4418182 -8.360718l-8.691666 -0.56500244l2.441803 8.360748z" fill-rule="evenodd"/><path fill="#ff0000" stroke="#ff0000" stroke-width="3.0" stroke-linecap="butt" d="m195.86548 327.69043l2.441803 8.360748l8.691681 0.56500244l-2.441803 -8.360748z" fill-rule="evenodd"/><path fill="#000000" fill-opacity="0.0" d="m61.952755 297.6378l150.55118 161.79529" fill-rule="evenodd"/><path stroke="#ff0000" stroke-width="3.0" stroke-linejoin="round" stroke-linecap="butt" d="m73.45488 309.99896l127.54692 137.07294" fill-rule="evenodd"/><path fill="#ff0000" stroke="#ff0000" stroke-width="3.0" stroke-linecap="butt" d="m73.45488 309.99896l-1.2029114 -8.626556l-8.517731 -1.8200684l1.2029114 8.626556z" fill-rule="evenodd"/><path fill="#ff0000" stroke="#ff0000" stroke-width="3.0" stroke-linecap="butt" d="m201.00182 447.0719l1.2029114 8.626556l8.517731 1.8200684l-1.2029114 -8.626526z" fill-rule="evenodd"/><path fill="#000000" fill-opacity="0.0" d="m329.43832 86.70604l88.59842 -35.77953" fill-rule="evenodd"/><path stroke="#ff0000" stroke-width="3.0" stroke-linejoin="round" stroke-linecap="butt" d="m345.0947 80.383385l57.285675 -23.134224" fill-rule="evenodd"/><path fill="#ff0000" stroke="#ff0000" stroke-width="3.0" stroke-linecap="butt" d="m345.09467 80.383385l-8.48645 -1.9606934l-4.744995 7.304077l8.486481 1.9606934z" fill-rule="evenodd"/><path fill="#ff0000" stroke="#ff0000" stroke-width="3.0" stroke-linecap="butt" d="m402.3804 57.24916l8.48645 1.9606934l4.744995 -7.3040733l-8.486481 -1.9606934z" fill-rule="evenodd"/><path fill="#000000" fill-opacity="0.0" d="m332.92914 207.88715l85.13385 -156.97638" fill-rule="evenodd"/><path stroke="#ff0000" stroke-width="3.0" stroke-linejoin="round" stroke-linecap="butt" d="m340.9788 193.0446l69.03458 -127.291306" fill-rule="evenodd"/><path fill="#ff0000" stroke="#ff0000" stroke-width="3.0" stroke-linecap="butt" d="m340.97876 193.0446l-7.79303 3.8901215l0.9901428 8.653564l7.79303 -3.8901215z" fill-rule="evenodd"/><path fill="#ff0000" stroke="#ff0000" stroke-width="3.0" stroke-linecap="butt" d="m410.01337 65.753296l7.79303 -3.8901253l-0.9901428 -8.653557l-7.79303 3.8901253z" fill-rule="evenodd"/><path fill="#000000" fill-opacity="0.0" d="m332.92914 207.88715l85.13385 62.11023" fill-rule="evenodd"/><path stroke="#ff0000" stroke-width="3.0" stroke-linejoin="round" stroke-linecap="butt" d="m346.56964 217.8387l57.852844 42.207108" fill-rule="evenodd"/><path fill="#ff0000" stroke="#ff0000" stroke-width="3.0" stroke-linecap="butt" d="m346.56964 217.83871l-2.819458 -8.241058l-8.708374 -0.16918945l2.819458 8.241058z" fill-rule="evenodd"/><path fill="#ff0000" stroke="#ff0000" stroke-width="3.0" stroke-linecap="butt" d="m404.4225 260.0458l2.819458 8.241058l8.708374 0.16918945l-2.819458 -8.241058z" fill-rule="evenodd"/><path fill="#000000" fill-opacity="0.0" d="m332.92914 338.24933l85.13385 -68.25195" fill-rule="evenodd"/><path stroke="#ff0000" stroke-width="3.0" stroke-linejoin="round" stroke-linecap="butt" d="m346.10303 327.6878l58.78607 -47.128906" fill-rule="evenodd"/><path fill="#ff0000" stroke="#ff0000" stroke-width="3.0" stroke-linecap="butt" d="m346.10303 327.6878l-8.691681 0.56500244l-2.441803 8.360748l8.691681 -0.56500244z" fill-rule="evenodd"/><path fill="#ff0000" stroke="#ff0000" stroke-width="3.0" stroke-linecap="butt" d="m404.8891 280.5589l8.691681 -0.5649719l2.441803 -8.360748l-8.691681 0.56500244z" fill-rule="evenodd"/><path fill="#000000" fill-opacity="0.0" d="m332.92914 338.24933l86.86615 150.83466" fill-rule="evenodd"/><path stroke="#ff0000" stroke-width="3.0" stroke-linejoin="round" stroke-linecap="butt" d="m341.35565 352.8812l70.01312 121.57095" fill-rule="evenodd"/><path fill="#ff0000" stroke="#ff0000" stroke-width="3.0" stroke-linecap="butt" d="m341.35565 352.8812l0.7685547 -8.676056l-7.8899536 -3.6895752l-0.7685547 8.676056z" fill-rule="evenodd"/><path fill="#ff0000" stroke="#ff0000" stroke-width="3.0" stroke-linecap="butt" d="m411.36874 474.45215l-0.7685547 8.676025l7.8899536 3.6896057l0.7685547 -8.676056z" fill-rule="evenodd"/><path fill="#000000" fill-opacity="0.0" d="m336.41995 459.43045l83.37009 29.669281" fill-rule="evenodd"/><path stroke="#ff0000" stroke-width="3.0" stroke-linejoin="round" stroke-linecap="butt" d="m352.32745 465.09152l51.555054 18.347137" fill-rule="evenodd"/><path fill="#ff0000" stroke="#ff0000" stroke-width="3.0" stroke-linecap="butt" d="m352.32748 465.09152l-5.046875 -7.098816l-8.396851 2.3145447l5.046875 7.0988464z" fill-rule="evenodd"/><path fill="#ff0000" stroke="#ff0000" stroke-width="3.0" stroke-linecap="butt" d="m403.8825 483.43866l5.0468445 7.0988464l8.396881 -2.3145752l-5.046875 -7.0988464z" fill-rule="evenodd"/><path fill="#000000" fill-opacity="0.0" d="m623.5801 83.637794l-81.63782 -32.724407" fill-rule="evenodd"/><path stroke="#ff0000" stroke-width="3.0" stroke-linejoin="round" stroke-linecap="butt" d="m607.9075 77.35546l-50.292664 -20.159744" fill-rule="evenodd"/><path fill="#ff0000" stroke="#ff0000" stroke-width="3.0" stroke-linecap="butt" d="m607.9075 77.35546l4.763794 7.2918396l8.481384 -1.9825287l-4.763794 -7.2918396z" fill-rule="evenodd"/><path fill="#ff0000" stroke="#ff0000" stroke-width="3.0" stroke-linecap="butt" d="m557.6148 57.19572l-4.763733 -7.291836l-8.481384 1.9825249l4.763733 7.2918396z" fill-rule="evenodd"/><path fill="#000000" fill-opacity="0.0" d="m623.5801 83.637794l-81.63782 186.36221" fill-rule="evenodd"/><path stroke="#ff0000" stroke-width="3.0" stroke-linejoin="round" stroke-linecap="butt" d="m616.80505 99.103775l-68.08777 155.43024" fill-rule="evenodd"/><path fill="#ff0000" stroke="#ff0000" stroke-width="3.0" stroke-linecap="butt" d="m616.80505 99.103775l7.438904 -4.5307007l-1.7132568 -8.539864l-7.438904 4.530693z" fill-rule="evenodd"/><path fill="#ff0000" stroke="#ff0000" stroke-width="3.0" stroke-linecap="butt" d="m548.7173 254.53403l-7.438904 4.5307007l1.7131958 8.539856l7.438904 -4.5307007z" fill-rule="evenodd"/><path fill="#000000" fill-opacity="0.0" d="m627.07086 456.3622l-85.102356 -186.36221" fill-rule="evenodd"/><path stroke="#ff0000" stroke-width="3.0" stroke-linejoin="round" stroke-linecap="butt" d="m620.05707 441.00302l-71.07477 -155.64383" fill-rule="evenodd"/><path fill="#ff0000" stroke="#ff0000" stroke-width="3.0" stroke-linecap="butt" d="m620.05707 441.00302l-1.5806885 8.565369l7.5081787 4.4149475l1.5806885 -8.565399z" fill-rule="evenodd"/><path fill="#ff0000" stroke="#ff0000" stroke-width="3.0" stroke-linecap="butt" d="m548.9823 285.3592l1.5806885 -8.565399l-7.5081787 -4.414917l-1.5806885 8.565369z" fill-rule="evenodd"/><path fill="#000000" fill-opacity="0.0" d="m627.07086 204.8189l-85.102356 -153.88976" fill-rule="evenodd"/><path stroke="#ff0000" stroke-width="3.0" stroke-linejoin="round" stroke-linecap="butt" d="m618.89966 190.04295l-68.75995 -124.337875" fill-rule="evenodd"/><path fill="#ff0000" stroke="#ff0000" stroke-width="3.0" stroke-linecap="butt" d="m618.89966 190.04295l-0.9190674 8.661392l7.824707 3.8260193l0.9190674 -8.661407z" fill-rule="evenodd"/><path fill="#ff0000" stroke="#ff0000" stroke-width="3.0" stroke-linecap="butt" d="m550.1397 65.70508l0.9190674 -8.661392l-7.824707 -3.8260117l-0.9190674 8.661392z" fill-rule="evenodd"/><path fill="#000000" fill-opacity="0.0" d="m623.5801 335.1811l-79.87402 153.92126" fill-rule="evenodd"/><path stroke="#ff0000" stroke-width="3.0" stroke-linejoin="round" stroke-linecap="butt" d="m615.80286 350.16818l-64.31964 123.94711" fill-rule="evenodd"/><path fill="#ff0000" stroke="#ff0000" stroke-width="3.0" stroke-linecap="butt" d="m615.80286 350.16818l7.720642 -4.0317993l-1.1480103 -8.634033l-7.720703 4.0317993z" fill-rule="evenodd"/><path fill="#ff0000" stroke="#ff0000" stroke-width="3.0" stroke-linecap="butt" d="m551.4833 474.1153l-7.720703 4.0317993l1.1480103 8.634033l7.720703 -4.0317993z" fill-rule="evenodd"/><path fill="#000000" fill-opacity="0.0" d="m627.07086 456.3622l-83.370056 32.724396" fill-rule="evenodd"/><path stroke="#ff0000" stroke-width="3.0" stroke-linejoin="round" stroke-linecap="butt" d="m611.35345 462.5316l-51.93524 20.38565" fill-rule="evenodd"/><path fill="#ff0000" stroke="#ff0000" stroke-width="3.0" stroke-linecap="butt" d="m611.35345 462.5316l8.466919 2.043518l4.816162 -7.2573547l-8.466919 -2.043518z" fill-rule="evenodd"/><path fill="#ff0000" stroke="#ff0000" stroke-width="3.0" stroke-linecap="butt" d="m559.41815 482.91724l-8.466858 -2.043518l-4.816162 7.2573547l8.466919 2.043518z" fill-rule="evenodd"/><path fill="#000000" fill-opacity="0.0" d="m898.04724 242.3622l-150.55121 -158.70865" fill-rule="evenodd"/><path stroke="#ff0000" stroke-width="3.0" stroke-linejoin="round" stroke-linecap="butt" d="m886.4268 230.11217l-127.31036 -134.20857" fill-rule="evenodd"/><path fill="#ff0000" stroke="#ff0000" stroke-width="3.0" stroke-linecap="butt" d="m886.4268 230.11215l1.2857666 8.6145935l8.534851 1.7381439l-1.2857666 -8.6145935z" fill-rule="evenodd"/><path fill="#ff0000" stroke="#ff0000" stroke-width="3.0" stroke-linecap="butt" d="m759.11646 95.90359l-1.2857666 -8.6145935l-8.534851 -1.7381287l1.2858276 8.6145935z" fill-rule="evenodd"/><path fill="#000000" fill-opacity="0.0" d="m898.04724 297.6378l-147.05511 158.74017" fill-rule="evenodd"/><path stroke="#ff0000" stroke-width="3.0" stroke-linejoin="round" stroke-linecap="butt" d="m886.5725 310.02435l-124.10565 133.96704" fill-rule="evenodd"/><path fill="#ff0000" stroke="#ff0000" stroke-width="3.0" stroke-linecap="butt" d="m886.57245 310.02435l8.513733 -1.8388977l1.1838379 -8.629181l-8.513733 1.8388977z" fill-rule="evenodd"/><path fill="#ff0000" stroke="#ff0000" stroke-width="3.0" stroke-linecap="butt" d="m762.4669 443.9914l-8.513733 1.8388977l-1.1838379 8.629181l8.513733 -1.8388977z" fill-rule="evenodd"/><path fill="#000000" fill-opacity="0.0" d="m836.0945 270.0l-88.59845 65.19684" fill-rule="evenodd"/><path stroke="#ff0000" stroke-width="3.0" stroke-linejoin="round" stroke-linecap="butt" d="m822.49493 280.00748l-61.399292 45.181885" fill-rule="evenodd"/><path fill="#ff0000" stroke="#ff0000" stroke-width="3.0" stroke-linecap="butt" d="m822.49493 280.00748l8.707642 -0.20492554l2.7855835 -8.252563l-8.707642 0.20492554z" fill-rule="evenodd"/><path fill="#ff0000" stroke="#ff0000" stroke-width="3.0" stroke-linecap="butt" d="m761.0956 325.18936l-8.707581 0.20492554l-2.7855835 8.252563l8.707581 -0.20492554z" fill-rule="evenodd"/><path fill="#000000" fill-opacity="0.0" d="m836.0945 270.0l-85.102356 -65.19685" fill-rule="evenodd"/><path stroke="#ff0000" stroke-width="3.0" stroke-linejoin="round" stroke-linecap="butt" d="m822.6909 259.73154l-58.295227 -44.659912" fill-rule="evenodd"/><path fill="#ff0000" stroke="#ff0000" stroke-width="3.0" stroke-linecap="butt" d="m822.6909 259.73154l2.6255493 8.304871l8.702026 0.37316895l-2.6255493 -8.30484z" fill-rule="evenodd"/><path fill="#ff0000" stroke="#ff0000" stroke-width="3.0" stroke-linecap="butt" d="m764.3957 215.07162l-2.6255493 -8.304871l-8.702026 -0.37319946l2.6255493 8.304871z" fill-rule="evenodd"/></g></svg>