<svg version="1.1" viewBox="0.0 0.0 960.0 540.0" fill="none" stroke="none" stroke-linecap="square" stroke-miterlimit="10" xmlns:xlink="http://www.w3.org/1999/xlink" xmlns="http://www.w3.org/2000/svg"><clipPath id="g1128c8048ff_0_0.0"><path d="m0 0l960.0 0l0 540.0l-960.0 0l0 -540.0z" clip-rule="nonzero"/></clipPath><g clip-path="url(#g1128c8048ff_0_0.0)"><path fill="#ffffff" d="m0 0l960.0 0l0 540.0l-960.0 0z" fill-rule="evenodd"/><path fill="#eeeeee" d="m267.13922 57.104652l106.456696 0l0 106.45669l-106.456696 0z" fill-rule="evenodd"/><path stroke="#595959" stroke-width="3.0" stroke-linejoin="round" stroke-linecap="butt" d="m267.13922 57.104652l106.456696 0l0 106.45669l-106.456696 0z" fill-rule="evenodd"/><path fill="#0000ff" d="m320.59406 114.03988q-0.25 3.375 -2.5 5.3125q-2.234375 1.921875 -5.890625 1.921875q-4.015625 0 -6.3125 -2.6875q-2.296875 -2.703125 -2.296875 -7.421875l0 -1.265625q0 -3.015625 1.046875 -5.296875q1.0625 -2.296875 3.03125 -3.515625q1.984375 -1.234375 4.578125 -1.234375q3.609375 0 5.8125 1.9375q2.21875 1.9375 2.5625 5.421875l-4.296875 0q-0.15625 -2.015625 -1.125 -2.921875q-0.96875 -0.90625 -2.953125 -0.90625q-2.140625 0 -3.21875 1.546875q-1.0625 1.53125 -1.09375 4.765625l0 1.578125q0 3.375 1.015625 4.9375q1.03125 1.5625 3.25 1.5625q1.984375 0 2.96875 -0.90625q0.984375 -0.921875 1.125 -2.828125l4.296875 0zm14.611176 -0.890625l2.375 0l0 3.328125l-2.375 0l0 4.515625l-4.140625 0l0 -4.515625l-8.546875 0l-0.1875 -2.609375l8.703125 -13.71875l4.171875 0l0 13.0zm-8.75 0l4.609375 0l0 -7.359375l-0.265625 0.46875l-4.34375 6.890625z" fill-rule="nonzero"/><path fill="#eeeeee" d="m267.13678 163.55101l106.456696 0l0 106.45671l-106.456696 0z" fill-rule="evenodd"/><path stroke="#595959" stroke-width="3.0" stroke-linejoin="round" stroke-linecap="butt" d="m267.13678 163.55101l106.456696 0l0 106.45671l-106.456696 0z" fill-rule="evenodd"/><path fill="#000000" d="m304.4529 227.43936l0 -20.84375l7.3125 0q3.78125 0 5.75 1.453125q1.96875 1.453125 1.96875 4.25q0 1.53125 -0.796875 2.703125q-0.78125 1.171875 -2.1875 1.71875q1.609375 0.390625 2.53125 1.609375q0.921875 1.21875 0.921875 2.984375q0 3.0 -1.921875 4.546875q-1.921875 1.546875 -5.46875 1.578125l-8.109375 0zm4.296875 -9.078125l0 5.625l3.6875 0q1.515625 0 2.359375 -0.71875q0.859375 -0.71875 0.859375 -2.0q0 -2.859375 -2.96875 -2.90625l-3.9375 0zm0 -3.03125l3.1875 0q3.25 -0.0625 3.25 -2.59375q0 -1.421875 -0.828125 -2.046875q-0.828125 -0.625 -2.59375 -0.625l-3.015625 0l0 5.265625zm24.029236 12.109375l-4.140625 0l0 -15.953125l-4.9375 1.53125l0 -3.359375l8.640625 -3.09375l0.4375 0l0 20.875z" fill-rule="nonzero"/><path fill="#eeeeee" d="m267.14172 269.99298l106.456696 0l0 106.456696l-106.456696 0z" fill-rule="evenodd"/><path stroke="#595959" stroke-width="3.0" stroke-linejoin="round" stroke-linecap="butt" d="m267.14172 269.99298l106.456696 0l0 106.456696l-106.456696 0z" fill-rule="evenodd"/><path fill="#000000" d="m304.45786 333.88132l0 -20.84375l7.3125 0q3.78125 0 5.75 1.453125q1.96875 1.453125 1.96875 4.25q0 1.53125 -0.796875 2.703125q-0.78125 1.171875 -2.1875 1.71875q1.609375 0.390625 2.53125 1.609375q0.921875 1.21875 0.921875 2.984375q0 3.0 -1.921875 4.546875q-1.921875 1.546875 -5.46875 1.578125l-8.109375 0zm4.296875 -9.078125l0 5.625l3.6875 0q1.515625 0 2.359375 -0.71875q0.859375 -0.71875 0.859375 -2.0q0 -2.859375 -2.96875 -2.90625l-3.9375 0zm0 -3.03125l3.1875 0q3.25 -0.0625 3.25 -2.59375q0 -1.421875 -0.828125 -2.046875q-0.828125 -0.625 -2.59375 -0.625l-3.015625 0l0 5.265625zm26.216736 4.265625l2.375 0l0 3.328125l-2.375 0l0 4.515625l-4.140625 0l0 -4.515625l-8.546875 0l-0.1875 -2.609375l8.703125 -13.71875l4.171875 0l0 13.0zm-8.75 0l4.609375 0l0 -7.359375l-0.265625 0.46875l-4.34375 6.890625z" fill-rule="nonzero"/><path fill="#eeeeee" d="m267.14423 376.43857l106.456696 0l0 106.456696l-106.456696 0z" fill-rule="evenodd"/><path stroke="#595959" stroke-width="3.0" stroke-linejoin="round" stroke-linecap="butt" d="m267.14423 376.43857l106.456696 0l0 106.456696l-106.456696 0z" fill-rule="evenodd"/><path fill="#000000" d="m304.46036 440.32693l0 -20.84375l7.3125 0q3.78125 0 5.75 1.453125q1.96875 1.453125 1.96875 4.25q0 1.53125 -0.796875 2.703125q-0.78125 1.171875 -2.1875 1.71875q1.609375 0.390625 2.53125 1.609375q0.921875 1.21875 0.921875 2.984375q0 3.0 -1.921875 4.546875q-1.921875 1.546875 -5.46875 1.578125l-8.109375 0zm4.296875 -9.078125l0 5.625l3.6875 0q1.515625 0 2.359375 -0.71875q0.859375 -0.71875 0.859375 -2.0q0 -2.859375 -2.96875 -2.90625l-3.9375 0zm0 -3.03125l3.1875 0q3.25 -0.0625 3.25 -2.59375q0 -1.421875 -0.828125 -2.046875q-0.828125 -0.625 -2.59375 -0.625l-3.015625 0l0 5.265625zm28.154236 -6.421875l-8.0625 18.53125l-4.359375 0l8.0625 -17.5l-10.359375 0l0 -3.34375l14.71875 0l0 2.3125z" fill-rule="nonzero"/><path fill="#eeeeee" d="m373.55826 57.104652l106.456696 0l0 106.45669l-106.456696 0z" fill-rule="evenodd"/><path stroke="#595959" stroke-width="3.0" stroke-linejoin="round" stroke-linecap="butt" d="m373.55826 57.104652l106.456696 0l0 106.45669l-106.456696 0z" fill-rule="evenodd"/><path fill="#0000ff" d="m427.0131 114.03988q-0.25 3.375 -2.5 5.3125q-2.234375 1.921875 -5.890625 1.921875q-4.015625 0 -6.3125 -2.6875q-2.296875 -2.703125 -2.296875 -7.421875l0 -1.265625q0 -3.015625 1.046875 -5.296875q1.0625 -2.296875 3.03125 -3.515625q1.984375 -1.234375 4.578125 -1.234375q3.609375 0 5.8125 1.9375q2.21875 1.9375 2.5625 5.421875l-4.296875 0q-0.15625 -2.015625 -1.125 -2.921875q-0.96875 -0.90625 -2.953125 -0.90625q-2.140625 0 -3.21875 1.546875q-1.0625 1.53125 -1.09375 4.765625l0 1.578125q0 3.375 1.015625 4.9375q1.03125 1.5625 3.25 1.5625q1.984375 0 2.96875 -0.90625q0.984375 -0.921875 1.125 -2.828125l4.296875 0zm2.9861755 -3.296875l1.203125 -10.59375l11.6875 0l0 3.4375l-8.296875 0l-0.515625 4.484375q1.484375 -0.78125 3.140625 -0.78125q2.984375 0 4.671875 1.84375q1.6875 1.84375 1.6875 5.171875q0 2.015625 -0.859375 3.625q-0.84375 1.59375 -2.4375 2.46875q-1.59375 0.875 -3.75 0.875q-1.890625 0 -3.515625 -0.765625q-1.609375 -0.765625 -2.546875 -2.15625q-0.9375 -1.390625 -1.0 -3.15625l4.09375 0q0.140625 1.296875 0.921875 2.03125q0.78125 0.71875 2.03125 0.71875q1.40625 0 2.15625 -1.0q0.765625 -1.015625 0.765625 -2.875q0 -1.765625 -0.875 -2.703125q-0.875 -0.953125 -2.46875 -0.953125q-1.484375 0 -2.390625 0.765625l-0.40625 0.375l-3.296875 -0.8125z" fill-rule="nonzero"/><path fill="#eeeeee" d="m373.5444 163.55101l106.456696 0l0 106.45671l-106.456696 0z" fill-rule="evenodd"/><path stroke="#595959" stroke-width="3.0" stroke-linejoin="round" stroke-linecap="butt" d="m373.5444 163.55101l106.456696 0l0 106.45671l-106.456696 0z" fill-rule="evenodd"/><path fill="#000000" d="m410.86053 227.43936l0 -20.84375l7.3125 0q3.78125 0 5.75 1.453125q1.96875 1.453125 1.96875 4.25q0 1.53125 -0.796875 2.703125q-0.78125 1.171875 -2.1875 1.71875q1.609375 0.390625 2.53125 1.609375q0.921875 1.21875 0.921875 2.984375q0 3.0 -1.921875 4.546875q-1.921875 1.546875 -5.46875 1.578125l-8.109375 0zm4.296875 -9.078125l0 5.625l3.6875 0q1.515625 0 2.359375 -0.71875q0.859375 -0.71875 0.859375 -2.0q0 -2.859375 -2.96875 -2.90625l-3.9375 0zm0 -3.03125l3.1875 0q3.25 -0.0625 3.25 -2.59375q0 -1.421875 -0.828125 -2.046875q-0.828125 -0.625 -2.59375 -0.625l-3.015625 0l0 5.265625zm28.26361 12.109375l-14.28125 0l0 -2.828125l6.734375 -7.203125q1.390625 -1.515625 2.0625 -2.640625q0.671875 -1.140625 0.671875 -2.15625q0 -1.375 -0.703125 -2.171875q-0.703125 -0.796875 -2.015625 -0.796875q-1.390625 0 -2.203125 0.96875q-0.8125 0.96875 -0.8125 2.53125l-4.15625 0q0 -1.90625 0.90625 -3.46875q0.921875 -1.578125 2.578125 -2.46875q1.65625 -0.90625 3.765625 -0.90625q3.21875 0 5.0 1.546875q1.78125 1.546875 1.78125 4.375q0 1.546875 -0.796875 3.15625q-0.796875 1.59375 -2.75 3.734375l-4.734375 4.984375l8.953125 0l0 3.34375z" fill-rule="nonzero"/><path fill="#eeeeee" d="m373.54932 269.99298l106.456696 0l0 106.456696l-106.456696 0z" fill-rule="evenodd"/><path stroke="#595959" stroke-width="3.0" stroke-linejoin="round" stroke-linecap="butt" d="m373.54932 269.99298l106.456696 0l0 106.456696l-106.456696 0z" fill-rule="evenodd"/><path fill="#000000" d="m410.86545 333.88132l0 -20.84375l7.3125 0q3.78125 0 5.75 1.453125q1.96875 1.453125 1.96875 4.25q0 1.53125 -0.796875 2.703125q-0.78125 1.171875 -2.1875 1.71875q1.609375 0.390625 2.53125 1.609375q0.921875 1.21875 0.921875 2.984375q0 3.0 -1.921875 4.546875q-1.921875 1.546875 -5.46875 1.578125l-8.109375 0zm4.296875 -9.078125l0 5.625l3.6875 0q1.515625 0 2.359375 -0.71875q0.859375 -0.71875 0.859375 -2.0q0 -2.859375 -2.96875 -2.90625l-3.9375 0zm0 -3.03125l3.1875 0q3.25 -0.0625 3.25 -2.59375q0 -1.421875 -0.828125 -2.046875q-0.828125 -0.625 -2.59375 -0.625l-3.015625 0l0 5.265625zm14.591736 1.859375l1.203125 -10.59375l11.6875 0l0 3.4375l-8.296875 0l-0.515625 4.484375q1.484375 -0.78125 3.140625 -0.78125q2.984375 0 4.671875 1.84375q1.6875 1.84375 1.6875 5.171875q0 2.015625 -0.859375 3.625q-0.84375 1.59375 -2.4375 2.46875q-1.59375 0.875 -3.75 0.875q-1.890625 0 -3.515625 -0.765625q-1.609375 -0.765625 -2.546875 -2.15625q-0.9375 -1.390625 -1.0 -3.15625l4.09375 0q0.140625 1.296875 0.921875 2.03125q0.78125 0.71875 2.03125 0.71875q1.40625 0 2.15625 -1.0q0.765625 -1.015625 0.765625 -2.875q0 -1.765625 -0.875 -2.703125q-0.875 -0.953125 -2.46875 -0.953125q-1.484375 0 -2.390625 0.765625l-0.40625 0.375l-3.296875 -0.8125z" fill-rule="nonzero"/><path fill="#eeeeee" d="m373.55182 376.43982l106.456696 0l0 106.456665l-106.456696 0z" fill-rule="evenodd"/><path stroke="#595959" stroke-width="3.0" stroke-linejoin="round" stroke-linecap="butt" d="m373.55182 376.43982l106.456696 0l0 106.456665l-106.456696 0z" fill-rule="evenodd"/><path fill="#000000" d="m410.86795 440.32816l0 -20.84375l7.3125 0q3.78125 0 5.75 1.453125q1.96875 1.453125 1.96875 4.25q0 1.53125 -0.796875 2.703125q-0.78125 1.171875 -2.1875 1.71875q1.609375 0.390625 2.53125 1.609375q0.921875 1.21875 0.921875 2.984375q0 3.0 -1.921875 4.546875q-1.921875 1.546875 -5.46875 1.578125l-8.109375 0zm4.296875 -9.078125l0 5.625l3.6875 0q1.515625 0 2.359375 -0.71875q0.859375 -0.71875 0.859375 -2.0q0 -2.859375 -2.96875 -2.90625l-3.9375 0zm0 -3.03125l3.1875 0q3.25 -0.0625 3.25 -2.59375q0 -1.421875 -0.828125 -2.046875q-0.828125 -0.625 -2.59375 -0.625l-3.015625 0l0 5.265625zm27.560486 -3.203125q0 1.515625 -0.765625 2.703125q-0.75 1.171875 -2.078125 1.875q1.515625 0.71875 2.40625 2.0q0.890625 1.28125 0.890625 3.015625q0 2.78125 -1.890625 4.390625q-1.890625 1.609375 -5.140625 1.609375q-3.25 0 -5.15625 -1.609375q-1.90625 -1.625 -1.90625 -4.390625q0 -1.734375 0.890625 -3.015625q0.890625 -1.296875 2.390625 -2.0q-1.328125 -0.703125 -2.09375 -1.875q-0.75 -1.1875 -0.75 -2.703125q0 -2.65625 1.78125 -4.234375q1.78125 -1.59375 4.828125 -1.59375q3.03125 0 4.8125 1.578125q1.78125 1.5625 1.78125 4.25zm-3.703125 9.296875q0 -1.359375 -0.796875 -2.171875q-0.78125 -0.8125 -2.109375 -0.8125q-1.3125 0 -2.109375 0.8125q-0.78125 0.796875 -0.78125 2.171875q0 1.328125 0.765625 2.15625q0.78125 0.8125 2.15625 0.8125q1.34375 0 2.109375 -0.78125q0.765625 -0.796875 0.765625 -2.1875zm-0.421875 -9.09375q0 -1.21875 -0.65625 -1.953125q-0.640625 -0.734375 -1.8125 -0.734375q-1.15625 0 -1.8125 0.71875q-0.640625 0.703125 -0.640625 1.96875q0 1.25 0.640625 2.015625q0.65625 0.75 1.828125 0.75q1.171875 0 1.8125 -0.75q0.640625 -0.765625 0.640625 -2.015625z" fill-rule="nonzero"/><path fill="#eeeeee" d="m479.9773 57.104652l106.456665 0l0 106.45669l-106.456665 0z" fill-rule="evenodd"/><path stroke="#595959" stroke-width="3.0" stroke-linejoin="round" stroke-linecap="butt" d="m479.9773 57.104652l106.456665 0l0 106.45669l-106.456665 0z" fill-rule="evenodd"/><path fill="#0000ff" d="m533.4321 114.03988q-0.25 3.375 -2.5 5.3125q-2.234375 1.921875 -5.890625 1.921875q-4.015625 0 -6.3125 -2.6875q-2.296875 -2.703125 -2.296875 -7.421875l0 -1.265625q0 -3.015625 1.046875 -5.296875q1.0625 -2.296875 3.03125 -3.515625q1.984375 -1.234375 4.578125 -1.234375q3.609375 0 5.8125 1.9375q2.21875 1.9375 2.5625 5.421875l-4.296875 0q-0.15625 -2.015625 -1.125 -2.921875q-0.96875 -0.90625 -2.953125 -0.90625q-2.140625 0 -3.21875 1.546875q-1.0625 1.53125 -1.09375 4.765625l0 1.578125q0 3.375 1.015625 4.9375q1.03125 1.5625 3.25 1.5625q1.984375 0 2.96875 -0.90625q0.984375 -0.921875 1.125 -2.828125l4.296875 0zm13.595581 -14.109375l0 3.40625l-0.390625 0q-2.8125 0.046875 -4.53125 1.46875q-1.703125 1.40625 -2.046875 3.921875q1.65625 -1.6875 4.1875 -1.6875q2.734375 0 4.328125 1.953125q1.609375 1.953125 1.609375 5.125q0 2.03125 -0.890625 3.6875q-0.875 1.640625 -2.484375 2.5625q-1.609375 0.90625 -3.640625 0.90625q-3.296875 0 -5.328125 -2.28125q-2.015625 -2.296875 -2.015625 -6.125l0 -1.484375q0 -3.390625 1.28125 -5.984375q1.28125 -2.609375 3.671875 -4.03125q2.40625 -1.421875 5.5625 -1.4375l0.6875 0zm-4.03125 10.4375q-1.0 0 -1.828125 0.53125q-0.8125 0.515625 -1.203125 1.375l0 1.265625q0 2.0625 0.8125 3.234375q0.828125 1.171875 2.296875 1.171875q1.34375 0 2.15625 -1.046875q0.828125 -1.0625 0.828125 -2.734375q0 -1.703125 -0.828125 -2.75q-0.828125 -1.046875 -2.234375 -1.046875z" fill-rule="nonzero"/><path fill="#eeeeee" d="m479.94955 163.55225l106.456696 0l0 106.456696l-106.456696 0z" fill-rule="evenodd"/><path stroke="#595959" stroke-width="3.0" stroke-linejoin="round" stroke-linecap="butt" d="m479.94955 163.55225l106.456696 0l0 106.456696l-106.456696 0z" fill-rule="evenodd"/><path fill="#000000" d="m517.2657 227.44058l0 -20.84375l7.3125 0q3.78125 0 5.75 1.453125q1.96875 1.453125 1.96875 4.25q0 1.53125 -0.796875 2.703125q-0.78125 1.171875 -2.1875 1.71875q1.609375 0.390625 2.53125 1.609375q0.921875 1.21875 0.921875 2.984375q0 3.0 -1.921875 4.546875q-1.921875 1.546875 -5.46875 1.578125l-8.109375 0zm4.296875 -9.078125l0 5.625l3.6875 0q1.515625 0 2.359375 -0.71875q0.859375 -0.71875 0.859375 -2.0q0 -2.859375 -2.96875 -2.90625l-3.9375 0zm0 -3.03125l3.1875 0q3.25 -0.0625 3.25 -2.59375q0 -1.421875 -0.828125 -2.046875q-0.828125 -0.625 -2.59375 -0.625l-3.015625 0l0 5.265625zm18.185486 -0.15625l2.203125 0q1.578125 0 2.328125 -0.78125q0.765625 -0.78125 0.765625 -2.09375q0 -1.25 -0.75 -1.953125q-0.75 -0.703125 -2.0625 -0.703125q-1.1875 0 -2.0 0.65625q-0.796875 0.640625 -0.796875 1.6875l-4.140625 0q0 -1.625 0.875 -2.921875q0.890625 -1.296875 2.46875 -2.03125q1.578125 -0.734375 3.484375 -0.734375q3.3125 0 5.1875 1.59375q1.875 1.578125 1.875 4.359375q0 1.421875 -0.875 2.625q-0.875 1.203125 -2.28125 1.84375q1.75 0.640625 2.609375 1.90625q0.875 1.25 0.875 2.96875q0 2.78125 -2.03125 4.453125q-2.015625 1.6718903 -5.359375 1.6718903q-3.109375 0 -5.09375 -1.6406403q-1.984375 -1.640625 -1.984375 -4.359375l4.140625 0q0 1.171875 0.875 1.921875q0.875 0.75 2.171875 0.75q1.46875 0 2.296875 -0.78125q0.84375 -0.78125 0.84375 -2.078125q0 -3.109375 -3.4375 -3.109375l-2.1875 0l0 -3.25z" fill-rule="nonzero"/><path fill="#eeeeee" d="m479.95447 269.99298l106.456726 0l0 106.456696l-106.456726 0z" fill-rule="evenodd"/><path stroke="#595959" stroke-width="3.0" stroke-linejoin="round" stroke-linecap="butt" d="m479.95447 269.99298l106.456726 0l0 106.456696l-106.456726 0z" fill-rule="evenodd"/><path fill="#000000" d="m517.2706 333.88132l0 -20.84375l7.3125 0q3.78125 0 5.75 1.453125q1.96875 1.453125 1.96875 4.25q0 1.53125 -0.796875 2.703125q-0.78125 1.171875 -2.1875 1.71875q1.609375 0.390625 2.53125 1.609375q0.921875 1.21875 0.921875 2.984375q0 3.0 -1.921875 4.546875q-1.921875 1.546875 -5.46875 1.578125l-8.109375 0zm4.296875 -9.078125l0 5.625l3.6875 0q1.515625 0 2.359375 -0.71875q0.859375 -0.71875 0.859375 -2.0q0 -2.859375 -2.96875 -2.90625l-3.9375 0zm0 -3.03125l3.1875 0q3.25 -0.0625 3.25 -2.59375q0 -1.421875 -0.828125 -2.046875q-0.828125 -0.625 -2.59375 -0.625l-3.015625 0l0 5.265625zm25.20111 -8.953125l0 3.40625l-0.390625 0q-2.8125 0.046875 -4.53125 1.46875q-1.703125 1.40625 -2.046875 3.921875q1.65625 -1.6875 4.1875 -1.6875q2.734375 0 4.328125 1.953125q1.609375 1.953125 1.609375 5.125q0 2.03125 -0.890625 3.6875q-0.875 1.640625 -2.484375 2.5625q-1.609375 0.90625 -3.640625 0.90625q-3.296875 0 -5.328125 -2.28125q-2.015625 -2.296875 -2.015625 -6.125l0 -1.484375q0 -3.390625 1.28125 -5.984375q1.28125 -2.609375 3.671875 -4.03125q2.40625 -1.421875 5.5625 -1.4375l0.6875 0zm-4.03125 10.4375q-1.0 0 -1.828125 0.53125q-0.8125 0.515625 -1.203125 1.375l0 1.265625q0 2.0625 0.8125 3.234375q0.828125 1.171875 2.296875 1.171875q1.34375 0 2.15625 -1.046875q0.828125 -1.0625 0.828125 -2.734375q0 -1.703125 -0.828125 -2.75q-0.828125 -1.046875 -2.234375 -1.046875z" fill-rule="nonzero"/><path fill="#eeeeee" d="m479.95697 376.43982l106.456726 0l0 106.456665l-106.456726 0z" fill-rule="evenodd"/><path stroke="#595959" stroke-width="3.0" stroke-linejoin="round" stroke-linecap="butt" d="m479.95697 376.43982l106.456726 0l0 106.456665l-106.456726 0z" fill-rule="evenodd"/><path fill="#000000" d="m517.27313 440.32816l0 -20.84375l7.3125 0q3.78125 0 5.75 1.453125q1.96875 1.453125 1.96875 4.25q0 1.53125 -0.796875 2.703125q-0.78125 1.171875 -2.1875 1.71875q1.609375 0.390625 2.53125 1.609375q0.921875 1.21875 0.921875 2.984375q0 3.0 -1.921875 4.546875q-1.921875 1.546875 -5.46875 1.578125l-8.109375 0zm4.296875 -9.078125l0 5.625l3.6875 0q1.515625 0 2.359375 -0.71875q0.859375 -0.71875 0.859375 -2.0q0 -2.859375 -2.96875 -2.90625l-3.9375 0zm0 -3.03125l3.1875 0q3.25 -0.0625 3.25 -2.59375q0 -1.421875 -0.828125 -2.046875q-0.828125 -0.625 -2.59375 -0.625l-3.015625 0l0 5.265625zm23.654236 3.78125q-1.609375 1.578125 -3.78125 1.578125q-2.765625 0 -4.421875 -1.890625q-1.65625 -1.90625 -1.65625 -5.125q0 -2.046875 0.890625 -3.75q0.890625 -1.71875 2.5 -2.671875q1.609375 -0.953125 3.609375 -0.953125q2.0625 0 3.65625 1.03125q1.609375 1.03125 2.5 2.96875q0.890625 1.9375 0.90625 4.421875l0 1.53125q0 5.21875 -2.59375 8.203125q-2.59375 2.96875 -7.34375 3.171875l-1.015625 0.015625l0 -3.453125l0.90625 -0.015625q5.40625 -0.25 5.84375 -5.0625zm-2.765625 -1.578125q1.015625 0 1.734375 -0.515625q0.71875 -0.515625 1.09375 -1.25l0 -1.703125q0 -2.109375 -0.8125 -3.265625q-0.796875 -1.15625 -2.140625 -1.15625q-1.25 0 -2.046875 1.140625q-0.796875 1.140625 -0.796875 2.84375q0 1.71875 0.78125 2.8125q0.78125 1.09375 2.1875 1.09375z" fill-rule="nonzero"/><path fill="#eeeeee" d="m586.3776 57.10222l106.456726 0l0 106.456696l-106.456726 0z" fill-rule="evenodd"/><path stroke="#595959" stroke-width="3.0" stroke-linejoin="round" stroke-linecap="butt" d="m586.3776 57.10222l106.456726 0l0 106.456696l-106.456726 0z" fill-rule="evenodd"/><path fill="#0000ff" d="m639.8325 114.037445q-0.25 3.375 -2.5 5.3125q-2.234375 1.921875 -5.890625 1.921875q-4.015625 0 -6.3125 -2.6875q-2.296875 -2.703125 -2.296875 -7.421875l0 -1.265625q0 -3.015625 1.046875 -5.296875q1.0625 -2.296875 3.03125 -3.515625q1.984375 -1.234375 4.578125 -1.234375q3.609375 0 5.8125 1.9375q2.21875 1.9375 2.5625 5.421875l-4.296875 0q-0.15625 -2.015625 -1.125 -2.921875q-0.96875 -0.90625 -2.953125 -0.90625q-2.140625 0 -3.21875 1.546875q-1.0625 1.53125 -1.09375 4.765625l0 1.578125q0 3.375 1.015625 4.9375q1.03125 1.5625 3.25 1.5625q1.984375 0 2.96875 -0.90625q0.984375 -0.921875 1.125 -2.828125l4.296875 0zm16.548645 -11.578125l-8.0625 18.53125l-4.359375 0l8.0625 -17.5l-10.359375 0l0 -3.34375l14.71875 0l0 2.3125z" fill-rule="nonzero"/><path fill="#eeeeee" d="m586.4035 163.55347l106.456726 0l0 106.456696l-106.456726 0z" fill-rule="evenodd"/><path stroke="#595959" stroke-width="3.0" stroke-linejoin="round" stroke-linecap="butt" d="m586.4035 163.55347l106.456726 0l0 106.456696l-106.456726 0z" fill-rule="evenodd"/><path fill="#0000ff" d="m639.85834 220.4887q-0.25 3.375 -2.5 5.3125q-2.234375 1.921875 -5.890625 1.921875q-4.015625 0 -6.3125 -2.6875q-2.296875 -2.703125 -2.296875 -7.421875l0 -1.265625q0 -3.015625 1.046875 -5.296875q1.0625 -2.296875 3.03125 -3.515625q1.984375 -1.234375 4.578125 -1.234375q3.609375 0 5.8125 1.9375q2.21875 1.9375 2.5625 5.421875l-4.296875 0q-0.15625 -2.015625 -1.125 -2.921875q-0.96875 -0.90625 -2.953125 -0.90625q-2.140625 0 -3.21875 1.546875q-1.0625 1.53125 -1.09375 4.765625l0 1.578125q0 3.375 1.015625 4.9375q1.03125 1.5625 3.25 1.5625q1.984375 0 2.96875 -0.90625q0.984375 -0.921875 1.125 -2.828125l4.296875 0zm12.423706 6.953125l-4.140625 0l0 -15.953125l-4.9375 1.53125l0 -3.359375l8.640625 -3.09375l0.4375 0l0 20.875z" fill-rule="nonzero"/><path fill="#eeeeee" d="m586.407 269.99646l106.456665 0l0 106.456696l-106.456665 0z" fill-rule="evenodd"/><path stroke="#595959" stroke-width="3.0" stroke-linejoin="round" stroke-linecap="butt" d="m586.407 269.99646l106.456665 0l0 106.456696l-106.456665 0z" fill-rule="evenodd"/><path fill="#0000ff" d="m639.8618 326.9317q-0.25 3.375 -2.5 5.3125q-2.234375 1.921875 -5.890625 1.921875q-4.015625 0 -6.3125 -2.6875q-2.296875 -2.703125 -2.296875 -7.421875l0 -1.265625q0 -3.015625 1.046875 -5.296875q1.0625 -2.296875 3.03125 -3.515625q1.984375 -1.234375 4.578125 -1.234375q3.609375 0 5.8125 1.9375q2.21875 1.9375 2.5625 5.421875l-4.296875 0q-0.15625 -2.015625 -1.125 -2.921875q-0.96875 -0.90625 -2.953125 -0.90625q-2.140625 0 -3.21875 1.546875q-1.0625 1.53125 -1.09375 4.765625l0 1.578125q0 3.375 1.015625 4.9375q1.03125 1.5625 3.25 1.5625q1.984375 0 2.96875 -0.90625q0.984375 -0.921875 1.125 -2.828125l4.296875 0zm16.658081 6.953125l-14.28125 0l0 -2.828125l6.734375 -7.203125q1.390625 -1.515625 2.0625 -2.640625q0.671875 -1.140625 0.671875 -2.15625q0 -1.375 -0.703125 -2.171875q-0.703125 -0.796875 -2.015625 -0.796875q-1.390625 0 -2.203125 0.96875q-0.8125 0.96875 -0.8125 2.53125l-4.15625 0q0 -1.90625 0.90625 -3.46875q0.921875 -1.578125 2.578125 -2.46875q1.65625 -0.90625 3.765625 -0.90625q3.21875 0 5.0 1.546875q1.78125 1.546875 1.78125 4.375q0 1.546875 -0.796875 3.15625q-0.796875 1.59375 -2.75 3.734375l-4.734375 4.984375l8.953125 0l0 3.34375z" fill-rule="nonzero"/><path fill="#eeeeee" d="m586.4053 376.44073l106.456665 0l0 106.456696l-106.456665 0z" fill-rule="evenodd"/><path stroke="#595959" stroke-width="3.0" stroke-linejoin="round" stroke-linecap="butt" d="m586.4053 376.44073l106.456665 0l0 106.456696l-106.456665 0z" fill-rule="evenodd"/><path fill="#0000ff" d="m639.8601 433.37598q-0.25 3.375 -2.5 5.3125q-2.234375 1.921875 -5.890625 1.921875q-4.015625 0 -6.3125 -2.6875q-2.296875 -2.703125 -2.296875 -7.421875l0 -1.265625q0 -3.015625 1.046875 -5.296875q1.0625 -2.296875 3.03125 -3.515625q1.984375 -1.234375 4.578125 -1.234375q3.609375 0 5.8125 1.9375q2.21875 1.9375 2.5625 5.421875l-4.296875 0q-0.15625 -2.015625 -1.125 -2.921875q-0.96875 -0.90625 -2.953125 -0.90625q-2.140625 0 -3.21875 1.546875q-1.0625 1.53125 -1.09375 4.765625l0 1.578125q0 3.375 1.015625 4.9375q1.03125 1.5625 3.25 1.5625q1.984375 0 2.96875 -0.90625q0.984375 -0.921875 1.125 -2.828125l4.296875 0zm6.579895 -5.3125l2.203125 0q1.578125 0 2.328125 -0.78125q0.765625 -0.78125 0.765625 -2.09375q0 -1.25 -0.75 -1.953125q-0.75 -0.703125 -2.0625 -0.703125q-1.1875 0 -2.0 0.65625q-0.796875 0.640625 -0.796875 1.6875l-4.140625 0q0 -1.625 0.875 -2.921875q0.890625 -1.296875 2.46875 -2.03125q1.578125 -0.734375 3.484375 -0.734375q3.3125 0 5.1875 1.59375q1.875 1.578125 1.875 4.359375q0 1.421875 -0.875 2.625q-0.875 1.203125 -2.28125 1.84375q1.75 0.640625 2.609375 1.90625q0.875 1.25 0.875 2.96875q0 2.78125 -2.03125 4.453125q-2.015625 1.671875 -5.359375 1.671875q-3.109375 0 -5.09375 -1.640625q-1.984375 -1.640625 -1.984375 -4.359375l4.140625 0q0 1.171875 0.875 1.921875q0.875 0.75 2.171875 0.75q1.46875 0 2.296875 -0.78125q0.84375 -0.78125 0.84375 -2.078125q0 -3.109375 -3.4375 -3.109375l-2.1875 0l0 -3.25z" fill-rule="nonzero"/></g></svg>