<svg version="1.1" viewBox="0.0 0.0 960.0 540.0" fill="none" stroke="none" stroke-linecap="square" stroke-miterlimit="10" xmlns:xlink="http://www.w3.org/1999/xlink" xmlns="http://www.w3.org/2000/svg"><clipPath id="g1128c8048ff_0_108.0"><path d="m0 0l960.0 0l0 540.0l-960.0 0l0 -540.0z" clip-rule="nonzero"/></clipPath><g clip-path="url(#g1128c8048ff_0_108.0)"><path fill="#ffffff" d="m0 0l960.0 0l0 540.0l-960.0 0z" fill-rule="evenodd"/><path fill="#eeeeee" d="m26.16273 108.64567l374.77167 0l0 322.70868l-374.77167 0z" fill-rule="evenodd"/><path stroke="#595959" stroke-width="4.0" stroke-linejoin="round" stroke-linecap="butt" d="m26.16273 108.64567l374.77167 0l0 322.70868l-374.77167 0z" fill-rule="evenodd"/><path fill="#000000" fill-opacity="0.0" d="m213.54855 108.64567l0 322.70868" fill-rule="evenodd"/><path stroke="#595959" stroke-width="4.0" stroke-linejoin="round" stroke-linecap="butt" d="m213.54855 108.64567l0 322.70868" fill-rule="evenodd"/><path fill="#000000" fill-opacity="0.0" d="m26.16273 270.0l374.77167 0" fill-rule="evenodd"/><path stroke="#595959" stroke-width="4.0" stroke-linejoin="round" stroke-linecap="butt" d="m26.16273 270.0l374.77167 0" fill-rule="evenodd"/><path fill="#000000" fill-opacity="0.0" d="m118.62687 108.64567l0 322.70868" fill-rule="evenodd"/><path stroke="#595959" stroke-width="4.0" stroke-linejoin="round" stroke-linecap="butt" d="m118.62687 108.64567l0 322.70868" fill-rule="evenodd"/><path fill="#000000" fill-opacity="0.0" d="m305.87943 108.64567l0 322.70868" fill-rule="evenodd"/><path stroke="#595959" stroke-width="4.0" stroke-linejoin="round" stroke-linecap="butt" d="m305.87943 108.64567l0 322.70868" fill-rule="evenodd"/><path fill="#000000" fill-opacity="0.0" d="m26.16273 187.66763l374.77167 0" fill-rule="evenodd"/><path stroke="#595959" stroke-width="4.0" stroke-linejoin="round" stroke-linecap="butt" d="m26.16273 187.66763l374.77167 0" fill-rule="evenodd"/><path fill="#000000" fill-opacity="0.0" d="m26.16273 352.30786l374.77167 0" fill-rule="evenodd"/><path stroke="#595959" stroke-width="4.0" stroke-linejoin="round" stroke-linecap="butt" d="m26.16273 352.30786l374.77167 0" fill-rule="evenodd"/><path fill="#000000" fill-opacity="0.0" d="m28.690357 110.85714l87.842514 0l0 73.95275l-87.842514 0z" fill-rule="evenodd"/><path fill="#ff0000" d="m78.689606 149.51602q0 3.734375 -1.546875 5.71875q-1.546875 1.96875 -4.53125 1.96875q-2.9375 0 -4.5 -1.9375q-1.546875 -1.953125 -1.59375 -5.578125l0 -3.3125q0 -3.765625 1.5625 -5.71875q1.5625 -1.953125 4.5 -1.953125q2.953125 0 4.515625 1.9375q1.5625 1.921875 1.59375 5.546875l0 3.328125zm-3.578125 -3.640625q0 -2.234375 -0.609375 -3.25q-0.609375 -1.03125 -1.90625 -1.03125q-1.265625 0 -1.875 0.96875q-0.59375 0.96875 -0.625 3.03125l0 4.390625q0 2.1875 0.59375 3.265625q0.609375 1.0625 1.921875 1.0625q1.3125 0 1.890625 -1.015625q0.59375 -1.03125 0.609375 -3.140625l0 -4.28125z" fill-rule="nonzero"/><path fill="#000000" fill-opacity="0.0" d="m121.1148 110.85714l89.88976 0l0 73.95275l-89.88976 0z" fill-rule="evenodd"/><path fill="#ff0000" d="m172.13766 149.51602q0 3.734375 -1.546875 5.71875q-1.546875 1.96875 -4.53125 1.96875q-2.9375 0 -4.5 -1.9375q-1.546875 -1.953125 -1.59375 -5.578125l0 -3.3125q0 -3.765625 1.5625 -5.71875q1.5625 -1.953125 4.5 -1.953125q2.953125 0 4.515625 1.9375q1.5625 1.921875 1.59375 5.546875l0 3.328125zm-3.578125 -3.640625q0 -2.234375 -0.609375 -3.25q-0.609375 -1.03125 -1.90625 -1.03125q-1.265625 0 -1.875 0.96875q-0.59375 0.96875 -0.625 3.03125l0 4.390625q0 2.1875 0.59375 3.265625q0.609375 1.0625 1.921875 1.0625q1.3125 0 1.890625 -1.015625q0.59375 -1.03125 0.609375 -3.140625l0 -4.28125z" fill-rule="nonzero"/><path fill="#000000" fill-opacity="0.0" d="m28.690357 188.33488l87.842514 0l0 79.71654l-87.842514 0z" fill-rule="evenodd"/><path fill="#000000" d="m75.252106 237.31316l-3.578125 0l0 -13.78125l-4.265625 1.328125l0 -2.90625l7.453125 -2.671875l0.390625 0l0 18.03125z" fill-rule="nonzero"/><path fill="#000000" fill-opacity="0.0" d="m121.114784 188.33488l89.88976 0l0 79.71654l-89.88976 0z" fill-rule="evenodd"/><path fill="#000000" d="m172.13765 229.87566q0 3.734375 -1.546875 5.71875q-1.546875 1.96875 -4.53125 1.96875q-2.9375 0 -4.5 -1.9375q-1.546875 -1.953125 -1.59375 -5.578125l0 -3.3125q0 -3.765625 1.5625 -5.71875q1.5625 -1.953125 4.5 -1.953125q2.953125 0 4.515625 1.9375q1.5625 1.921875 1.59375 5.546875l0 3.328125zm-3.578125 -3.640625q0 -2.234375 -0.609375 -3.25q-0.609375 -1.03125 -1.90625 -1.03125q-1.265625 0 -1.875 0.96875q-0.59375 0.96875 -0.625 3.03125l0 4.390625q0 2.1875 0.59375 3.265625q0.609375 1.0625 1.921875 1.0625q1.3125 0 1.890625 -1.015625q0.59375 -1.03125 0.609375 -3.140625l0 -4.28125z" fill-rule="nonzero"/><path fill="#000000" fill-opacity="0.0" d="m215.79356 110.85714l87.842514 0l0 73.95275l-87.842514 0z" fill-rule="evenodd"/><path fill="#ff0000" d="m262.35532 156.95352l-3.578125 0l0 -13.78125l-4.265625 1.328125l0 -2.90625l7.453125 -2.671875l0.390625 0l0 18.03125z" fill-rule="nonzero"/><path fill="#000000" fill-opacity="0.0" d="m307.85736 110.85714l89.88977 0l0 73.95275l-89.88977 0z" fill-rule="evenodd"/><path fill="#ff0000" d="m355.44275 156.95352l-3.578125 0l0 -13.78125l-4.265625 1.328125l0 -2.90625l7.453125 -2.671875l0.390625 0l0 18.03125z" fill-rule="nonzero"/><path fill="#000000" fill-opacity="0.0" d="m215.79277 188.97354l87.842514 0l0 79.71655l-87.842514 0z" fill-rule="evenodd"/><path fill="#000000" d="m262.35452 237.95181l-3.578125 0l0 -13.78125l-4.265625 1.328125l0 -2.90625l7.453125 -2.671875l0.390625 0l0 18.03125z" fill-rule="nonzero"/><path fill="#000000" fill-opacity="0.0" d="m308.13538 188.97354l89.88977 0l0 79.71655l-89.88977 0z" fill-rule="evenodd"/><path fill="#ff0000" d="m359.15826 230.51431q0 3.734375 -1.546875 5.71875q-1.546875 1.96875 -4.53125 1.96875q-2.9375 0 -4.5 -1.9375q-1.546875 -1.953125 -1.59375 -5.578125l0 -3.3125q0 -3.765625 1.5625 -5.71875q1.5625 -1.953125 4.5 -1.953125q2.953125 0 4.515625 1.9375q1.5625 1.921875 1.59375 5.546875l0 3.328125zm-3.578125 -3.640625q0 -2.234375 -0.609375 -3.25q-0.609375 -1.03125 -1.90625 -1.03125q-1.265625 0 -1.875 0.96875q-0.59375 0.96875 -0.625 3.03125l0 4.390625q0 2.1875 0.59375 3.265625q0.609375 1.0625 1.921875 1.0625q1.3125 0 1.890625 -1.015625q0.59375 -1.03125 0.609375 -3.140625l0 -4.28125z" fill-rule="nonzero"/><path fill="#000000" fill-opacity="0.0" d="m28.87147 272.8474l87.84252 0l0 77.480316l-87.84252 0z" fill-rule="evenodd"/><path fill="#000000" d="m75.43322 320.70755l-3.578125 0l0 -13.78125l-4.265625 1.328125l0 -2.90625l7.453125 -2.671875l0.390625 0l0 18.03125z" fill-rule="nonzero"/><path fill="#000000" fill-opacity="0.0" d="m121.29589 272.8474l89.88976 0l0 77.480316l-89.88976 0z" fill-rule="evenodd"/><path fill="#000000" d="m168.88126 320.70755l-3.578125 0l0 -13.78125l-4.265625 1.328125l0 -2.90625l7.453125 -2.671875l0.390625 0l0 18.03125z" fill-rule="nonzero"/><path fill="#000000" fill-opacity="0.0" d="m28.127956 354.29056l87.842514 0l0 73.95276l-87.842514 0z" fill-rule="evenodd"/><path fill="#000000" d="m78.127205 392.94943q0 3.734375 -1.546875 5.71875q-1.546875 1.96875 -4.53125 1.96875q-2.9375 0 -4.5 -1.9375q-1.546875 -1.953125 -1.59375 -5.578125l0 -3.3125q0 -3.765625 1.5625 -5.71875q1.5625 -1.953125 4.5 -1.953125q2.953125 0 4.515625 1.9375q1.5625 1.921875 1.59375 5.546875l0 3.328125zm-3.578125 -3.640625q0 -2.234375 -0.609375 -3.25q-0.609375 -1.03125 -1.90625 -1.03125q-1.265625 0 -1.875 0.96875q-0.59375 0.96875 -0.625 3.03125l0 4.390625q0 2.1875 0.59375 3.265625q0.609375 1.0625 1.921875 1.0625q1.3125 0 1.890625 -1.015625q0.59375 -1.03125 0.609375 -3.140625l0 -4.28125z" fill-rule="nonzero"/><path fill="#000000" fill-opacity="0.0" d="m121.13861 355.1675l89.889755 0l0 73.07086l-89.889755 0z" fill-rule="evenodd"/><path fill="#000000" d="m168.72398 400.82294l-3.578125 0l0 -13.78125l-4.265625 1.328125l0 -2.90625l7.453125 -2.671875l0.390625 0l0 18.03125z" fill-rule="nonzero"/><path fill="#000000" fill-opacity="0.0" d="m215.97467 272.8474l87.8425 0l0 77.480316l-87.8425 0z" fill-rule="evenodd"/><path fill="#000000" d="m265.9739 313.27005q0 3.734375 -1.546875 5.71875q-1.546875 1.96875 -4.53125 1.96875q-2.9375 0 -4.5 -1.9375q-1.546875 -1.953125 -1.59375 -5.578125l0 -3.3125q0 -3.765625 1.5625 -5.71875q1.5625 -1.953125 4.5 -1.953125q2.953125 0 4.515625 1.9375q1.5625 1.921875 1.59375 5.546875l0 3.328125zm-3.578125 -3.640625q0 -2.234375 -0.609375 -3.25q-0.609375 -1.03125 -1.90625 -1.03125q-1.265625 0 -1.875 0.96875q-0.59375 0.96875 -0.625 3.03125l0 4.390625q0 2.1875 0.59375 3.265625q0.609375 1.0625 1.921875 1.0625q1.3125 0 1.890625 -1.015625q0.59375 -1.03125 0.609375 -3.140625l0 -4.28125z" fill-rule="nonzero"/><path fill="#000000" fill-opacity="0.0" d="m308.03845 272.8474l89.88977 0l0 77.480316l-89.88977 0z" fill-rule="evenodd"/><path fill="#ff0000" d="m359.06134 313.27005q0 3.734375 -1.546875 5.71875q-1.546875 1.96875 -4.53125 1.96875q-2.9375 0 -4.5 -1.9375q-1.546875 -1.953125 -1.59375 -5.578125l0 -3.3125q0 -3.765625 1.5625 -5.71875q1.5625 -1.953125 4.5 -1.953125q2.953125 0 4.515625 1.9375q1.5625 1.921875 1.59375 5.546875l0 3.328125zm-3.578125 -3.640625q0 -2.234375 -0.609375 -3.25q-0.609375 -1.03125 -1.90625 -1.03125q-1.265625 0 -1.875 0.96875q-0.59375 0.96875 -0.625 3.03125l0 4.390625q0 2.1875 0.59375 3.265625q0.609375 1.0625 1.921875 1.0625q1.3125 0 1.890625 -1.015625q0.59375 -1.03125 0.609375 -3.140625l0 -4.28125z" fill-rule="nonzero"/><path fill="#000000" fill-opacity="0.0" d="m215.79356 355.1675l87.842514 0l0 73.07086l-87.842514 0z" fill-rule="evenodd"/><path fill="#000000" d="m265.79282 393.38544q0 3.734375 -1.546875 5.71875q-1.546875 1.96875 -4.53125 1.96875q-2.9375 0 -4.5 -1.9375q-1.546875 -1.953125 -1.59375 -5.578125l0 -3.3125q0 -3.765625 1.5625 -5.71875q1.5625 -1.953125 4.5 -1.953125q2.953125 0 4.515625 1.9375q1.5625 1.921875 1.59375 5.546875l0 3.328125zm-3.578125 -3.640625q0 -2.234375 -0.609375 -3.25q-0.609375 -1.03125 -1.90625 -1.03125q-1.265625 0 -1.875 0.96875q-0.59375 0.96875 -0.625 3.03125l0 4.390625q0 2.1875 0.59375 3.265625q0.609375 1.0625 1.921875 1.0625q1.3125 0 1.890625 -1.015625q0.59375 -1.03125 0.609375 -3.140625l0 -4.28125z" fill-rule="nonzero"/><path fill="#000000" fill-opacity="0.0" d="m308.13538 355.1675l89.88977 0l0 73.95276l-89.88977 0z" fill-rule="evenodd"/><path fill="#ff0000" d="m355.72073 401.2639l-3.578125 0l0 -13.78125l-4.265625 1.328125l0 -2.90625l7.453125 -2.671875l0.390625 0l0 18.03125z" fill-rule="nonzero"/><path fill="#eeeeee" d="m569.50134 108.64567l374.7716 0l0 322.70868l-374.7716 0z" fill-rule="evenodd"/><path stroke="#595959" stroke-width="4.0" stroke-linejoin="round" stroke-linecap="butt" d="m569.50134 108.64567l374.7716 0l0 322.70868l-374.7716 0z" fill-rule="evenodd"/><path fill="#000000" fill-opacity="0.0" d="m756.88715 108.64567l0 322.70868" fill-rule="evenodd"/><path stroke="#595959" stroke-width="4.0" stroke-linejoin="round" stroke-linecap="butt" d="m756.88715 108.64567l0 322.70868" fill-rule="evenodd"/><path fill="#000000" fill-opacity="0.0" d="m569.50134 270.0l374.7716 0" fill-rule="evenodd"/><path stroke="#595959" stroke-width="4.0" stroke-linejoin="round" stroke-linecap="butt" d="m569.50134 270.0l374.7716 0" fill-rule="evenodd"/><path fill="#000000" fill-opacity="0.0" d="m661.96545 108.64567l0 322.70868" fill-rule="evenodd"/><path stroke="#595959" stroke-width="4.0" stroke-linejoin="round" stroke-linecap="butt" d="m661.96545 108.64567l0 322.70868" fill-rule="evenodd"/><path fill="#000000" fill-opacity="0.0" d="m849.218 108.64567l0 322.70868" fill-rule="evenodd"/><path stroke="#595959" stroke-width="4.0" stroke-linejoin="round" stroke-linecap="butt" d="m849.218 108.64567l0 322.70868" fill-rule="evenodd"/><path fill="#000000" fill-opacity="0.0" d="m569.50134 187.66763l374.7716 0" fill-rule="evenodd"/><path stroke="#595959" stroke-width="4.0" stroke-linejoin="round" stroke-linecap="butt" d="m569.50134 187.66763l374.7716 0" fill-rule="evenodd"/><path fill="#000000" fill-opacity="0.0" d="m569.50134 352.30786l374.7716 0" fill-rule="evenodd"/><path stroke="#595959" stroke-width="4.0" stroke-linejoin="round" stroke-linecap="butt" d="m569.50134 352.30786l374.7716 0" fill-rule="evenodd"/><path fill="#d0e0e3" d="m572.02893 110.85714l87.84253 0l0 73.95275l-87.84253 0z" fill-rule="evenodd"/><path fill="#ff0000" d="m622.0282 149.51602q0 3.734375 -1.546875 5.71875q-1.546875 1.96875 -4.53125 1.96875q-2.9375 0 -4.5 -1.9375q-1.546875 -1.953125 -1.59375 -5.578125l0 -3.3125q0 -3.765625 1.5625 -5.71875q1.5625 -1.953125 4.5 -1.953125q2.953125 0 4.515625 1.9375q1.5625 1.921875 1.59375 5.546875l0 3.328125zm-3.578125 -3.640625q0 -2.234375 -0.609375 -3.25q-0.609375 -1.03125 -1.90625 -1.03125q-1.265625 0 -1.875 0.96875q-0.59375 0.96875 -0.625 3.03125l0 4.390625q0 2.1875 0.59375 3.265625q0.609375 1.0625 1.921875 1.0625q1.3125 0 1.890625 -1.015625q0.59375 -1.03125 0.609375 -3.140625l0 -4.28125z" fill-rule="nonzero"/><path fill="#000000" fill-opacity="0.0" d="m664.45337 110.85714l89.88977 0l0 73.95275l-89.88977 0z" fill-rule="evenodd"/><path fill="#ff0000" d="m715.47626 149.51602q0 3.734375 -1.546875 5.71875q-1.546875 1.96875 -4.53125 1.96875q-2.9375 0 -4.5 -1.9375q-1.546875 -1.953125 -1.59375 -5.578125l0 -3.3125q0 -3.765625 1.5625 -5.71875q1.5625 -1.953125 4.5 -1.953125q2.953125 0 4.515625 1.9375q1.5625 1.921875 1.59375 5.546875l0 3.328125zm-3.578125 -3.640625q0 -2.234375 -0.609375 -3.25q-0.609375 -1.03125 -1.90625 -1.03125q-1.265625 0 -1.875 0.96875q-0.59375 0.96875 -0.625 3.03125l0 4.390625q0 2.1875 0.59375 3.265625q0.609375 1.0625 1.921875 1.0625q1.3125 0 1.890625 -1.015625q0.59375 -1.03125 0.609375 -3.140625l0 -4.28125z" fill-rule="nonzero"/><path fill="#d0e0e3" d="m572.02893 188.33488l87.84253 0l0 79.71654l-87.84253 0z" fill-rule="evenodd"/><path stroke="#ff0000" stroke-width="4.0" stroke-linejoin="round" stroke-linecap="butt" d="m572.02893 188.33488l87.84253 0l0 79.71654l-87.84253 0z" fill-rule="evenodd"/><path fill="#000000" d="m622.0282 229.87566q0 3.734375 -1.546875 5.71875q-1.546875 1.96875 -4.53125 1.96875q-2.9375 0 -4.5 -1.9375q-1.546875 -1.953125 -1.59375 -5.578125l0 -3.3125q0 -3.765625 1.5625 -5.71875q1.5625 -1.953125 4.5 -1.953125q2.953125 0 4.515625 1.9375q1.5625 1.921875 1.59375 5.546875l0 3.328125zm-3.578125 -3.640625q0 -2.234375 -0.609375 -3.25q-0.609375 -1.03125 -1.90625 -1.03125q-1.265625 0 -1.875 0.96875q-0.59375 0.96875 -0.625 3.03125l0 4.390625q0 2.1875 0.59375 3.265625q0.609375 1.0625 1.921875 1.0625q1.3125 0 1.890625 -1.015625q0.59375 -1.03125 0.609375 -3.140625l0 -4.28125z" fill-rule="nonzero"/><path fill="#d0e0e3" d="m664.45337 188.33488l89.88977 0l0 79.71654l-89.88977 0z" fill-rule="evenodd"/><path fill="#000000" d="m715.47626 229.87566q0 3.734375 -1.546875 5.71875q-1.546875 1.96875 -4.53125 1.96875q-2.9375 0 -4.5 -1.9375q-1.546875 -1.953125 -1.59375 -5.578125l0 -3.3125q0 -3.765625 1.5625 -5.71875q1.5625 -1.953125 4.5 -1.953125q2.953125 0 4.515625 1.9375q1.5625 1.921875 1.59375 5.546875l0 3.328125zm-3.578125 -3.640625q0 -2.234375 -0.609375 -3.25q-0.609375 -1.03125 -1.90625 -1.03125q-1.265625 0 -1.875 0.96875q-0.59375 0.96875 -0.625 3.03125l0 4.390625q0 2.1875 0.59375 3.265625q0.609375 1.0625 1.921875 1.0625q1.3125 0 1.890625 -1.015625q0.59375 -1.03125 0.609375 -3.140625l0 -4.28125z" fill-rule="nonzero"/><path fill="#d0e0e3" d="m759.13214 110.85714l87.84253 0l0 73.95275l-87.84253 0z" fill-rule="evenodd"/><path fill="#ff0000" d="m805.6939 156.95352l-3.578125 0l0 -13.78125l-4.265625 1.328125l0 -2.90625l7.453125 -2.671875l0.390625 0l0 18.03125z" fill-rule="nonzero"/><path fill="#000000" fill-opacity="0.0" d="m851.196 110.85714l89.88971 0l0 73.95275l-89.88971 0z" fill-rule="evenodd"/><path fill="#ff0000" d="m898.7813 156.95352l-3.578125 0l0 -13.78125l-4.265625 1.328125l0 -2.90625l7.453125 -2.671875l0.390625 0l0 18.03125z" fill-rule="nonzero"/><path fill="#d0e0e3" d="m759.13135 188.97354l87.84253 0l0 79.71655l-87.84253 0z" fill-rule="evenodd"/><path stroke="#ffff00" stroke-width="4.0" stroke-linejoin="round" stroke-linecap="butt" d="m759.13135 188.97354l87.84253 0l0 79.71655l-87.84253 0z" fill-rule="evenodd"/><path fill="#000000" d="m805.6931 237.95181l-3.578125 0l0 -13.78125l-4.265625 1.328125l0 -2.90625l7.453125 -2.671875l0.390625 0l0 18.03125z" fill-rule="nonzero"/><path fill="#d0e0e3" d="m851.474 188.97354l89.88971 0l0 79.71655l-89.88971 0z" fill-rule="evenodd"/><path fill="#ff0000" d="m902.4968 230.51431q0 3.734375 -1.546875 5.71875q-1.546875 1.96875 -4.53125 1.96875q-2.9375 0 -4.5 -1.9375q-1.546875 -1.953125 -1.59375 -5.578125l0 -3.3125q0 -3.765625 1.5625 -5.71875q1.5625 -1.953125 4.5 -1.953125q2.953125 0 4.515625 1.9375q1.5625 1.921875 1.59375 5.546875l0 3.328125zm-3.578125 -3.640625q0 -2.234375 -0.609375 -3.25q-0.609375 -1.03125 -1.90625 -1.03125q-1.265625 0 -1.875 0.96875q-0.59375 0.96875 -0.625 3.03125l0 4.390625q0 2.1875 0.59375 3.265625q0.609375 1.0625 1.921875 1.0625q1.3125 0 1.890625 -1.015625q0.59375 -1.03125 0.609375 -3.140625l0 -4.28125z" fill-rule="nonzero"/><path fill="#d0e0e3" d="m572.21 272.8474l87.84253 0l0 77.480316l-87.84253 0z" fill-rule="evenodd"/><path fill="#000000" d="m618.7718 320.70755l-3.578125 0l0 -13.78125l-4.265625 1.328125l0 -2.90625l7.453125 -2.671875l0.390625 0l0 18.03125z" fill-rule="nonzero"/><path fill="#000000" fill-opacity="0.0" d="m664.63446 272.8474l89.88977 0l0 77.480316l-89.88977 0z" fill-rule="evenodd"/><path fill="#000000" d="m712.21985 320.70755l-3.578125 0l0 -13.78125l-4.265625 1.328125l0 -2.90625l7.453125 -2.671875l0.390625 0l0 18.03125z" fill-rule="nonzero"/><path fill="#d0e0e3" d="m571.46655 354.29056l87.84253 0l0 73.95276l-87.84253 0z" fill-rule="evenodd"/><path stroke="#ffff00" stroke-width="4.0" stroke-linejoin="round" stroke-linecap="butt" d="m571.46655 354.29056l87.84253 0l0 73.95276l-87.84253 0z" fill-rule="evenodd"/><path fill="#000000" d="m621.46576 392.94943q0 3.734375 -1.546875 5.71875q-1.546875 1.96875 -4.53125 1.96875q-2.9375 0 -4.5 -1.9375q-1.546875 -1.953125 -1.59375 -5.578125l0 -3.3125q0 -3.765625 1.5625 -5.71875q1.5625 -1.953125 4.5 -1.953125q2.953125 0 4.515625 1.9375q1.5625 1.921875 1.59375 5.546875l0 3.328125zm-3.578125 -3.640625q0 -2.234375 -0.609375 -3.25q-0.609375 -1.03125 -1.90625 -1.03125q-1.265625 0 -1.875 0.96875q-0.59375 0.96875 -0.625 3.03125l0 4.390625q0 2.1875 0.59375 3.265625q0.609375 1.0625 1.921875 1.0625q1.3125 0 1.890625 -1.015625q0.59375 -1.03125 0.609375 -3.140625l0 -4.28125z" fill-rule="nonzero"/><path fill="#d0e0e3" d="m664.4772 355.1675l89.88977 0l0 73.07086l-89.88977 0z" fill-rule="evenodd"/><path fill="#000000" d="m712.06256 400.82294l-3.578125 0l0 -13.78125l-4.265625 1.328125l0 -2.90625l7.453125 -2.671875l0.390625 0l0 18.03125z" fill-rule="nonzero"/><path fill="#d0e0e3" d="m759.31323 272.8474l87.84253 0l0 77.480316l-87.84253 0z" fill-rule="evenodd"/><path fill="#000000" d="m809.3125 313.27005q0 3.734375 -1.546875 5.71875q-1.546875 1.96875 -4.53125 1.96875q-2.9375 0 -4.5 -1.9375q-1.546875 -1.953125 -1.59375 -5.578125l0 -3.3125q0 -3.765625 1.5625 -5.71875q1.5625 -1.953125 4.5 -1.953125q2.953125 0 4.515625 1.9375q1.5625 1.921875 1.59375 5.546875l0 3.328125zm-3.578125 -3.640625q0 -2.234375 -0.609375 -3.25q-0.609375 -1.03125 -1.90625 -1.03125q-1.265625 0 -1.875 0.96875q-0.59375 0.96875 -0.625 3.03125l0 4.390625q0 2.1875 0.59375 3.265625q0.609375 1.0625 1.921875 1.0625q1.3125 0 1.890625 -1.015625q0.59375 -1.03125 0.609375 -3.140625l0 -4.28125z" fill-rule="nonzero"/><path fill="#000000" fill-opacity="0.0" d="m851.3771 272.8474l89.88971 0l0 77.480316l-89.88971 0z" fill-rule="evenodd"/><path fill="#ff0000" d="m902.3999 313.27005q0 3.734375 -1.546875 5.71875q-1.546875 1.96875 -4.53125 1.96875q-2.9375 0 -4.5 -1.9375q-1.546875 -1.953125 -1.59375 -5.578125l0 -3.3125q0 -3.765625 1.5625 -5.71875q1.5625 -1.953125 4.5 -1.953125q2.953125 0 4.515625 1.9375q1.5625 1.921875 1.59375 5.546875l0 3.328125zm-3.578125 -3.640625q0 -2.234375 -0.609375 -3.25q-0.609375 -1.03125 -1.90625 -1.03125q-1.265625 0 -1.875 0.96875q-0.59375 0.96875 -0.625 3.03125l0 4.390625q0 2.1875 0.59375 3.265625q0.609375 1.0625 1.921875 1.0625q1.3125 0 1.890625 -1.015625q0.59375 -1.03125 0.609375 -3.140625l0 -4.28125z" fill-rule="nonzero"/><path fill="#d0e0e3" d="m759.13214 355.1675l87.84253 0l0 73.07086l-87.84253 0z" fill-rule="evenodd"/><path stroke="#ff0000" stroke-width="4.0" stroke-linejoin="round" stroke-linecap="butt" d="m759.13214 355.1675l87.84253 0l0 73.07086l-87.84253 0z" fill-rule="evenodd"/><path fill="#000000" d="m805.6939 400.82294l-3.578125 0l0 -13.78125l-4.265625 1.328125l0 -2.90625l7.453125 -2.671875l0.390625 0l0 18.03125z" fill-rule="nonzero"/><path fill="#d0e0e3" d="m851.47394 355.1675l89.88977 0l0 73.95276l-89.88977 0z" fill-rule="evenodd"/><path fill="#ff0000" d="m899.0593 401.2639l-3.578125 0l0 -13.78125l-4.265625 1.328125l0 -2.90625l7.453125 -2.671875l0.390625 0l0 18.03125z" fill-rule="nonzero"/><path fill="#cfe2f3" d="m436.03018 258.89764l73.165344 0l0 -11.102371l22.204742 22.204727l-22.204742 22.204712l0 -11.102356l-73.165344 0z" fill-rule="evenodd"/><path stroke="#595959" stroke-width="1.0" stroke-linejoin="round" stroke-linecap="butt" d="m436.03018 258.89764l73.165344 0l0 -11.102371l22.204742 22.204727l-22.204742 22.204712l0 -11.102356l-73.165344 0z" fill-rule="evenodd"/></g></svg>