<svg version="1.1" viewBox="0.0 0.0 960.0 540.0" fill="none" stroke="none" stroke-linecap="square" stroke-miterlimit="10" xmlns:xlink="http://www.w3.org/1999/xlink" xmlns="http://www.w3.org/2000/svg"><clipPath id="g1128c8048ff_0_82.0"><path d="m0 0l960.0 0l0 540.0l-960.0 0l0 -540.0z" clip-rule="nonzero"/></clipPath><g clip-path="url(#g1128c8048ff_0_82.0)"><path fill="#ffffff" d="m0 0l960.0 0l0 540.0l-960.0 0z" fill-rule="evenodd"/><path fill="#eeeeee" d="m170.44095 3.448819l619.11816 0l0 533.1024l-619.11816 0z" fill-rule="evenodd"/><path stroke="#595959" stroke-width="4.0" stroke-linejoin="round" stroke-linecap="butt" d="m170.44095 3.448819l619.11816 0l0 533.1024l-619.11816 0z" fill-rule="evenodd"/><path fill="#000000" fill-opacity="0.0" d="m480.0 3.448819l0 533.1024" fill-rule="evenodd"/><path stroke="#595959" stroke-width="4.0" stroke-linejoin="round" stroke-linecap="butt" d="m480.0 3.448819l0 533.1024" fill-rule="evenodd"/><path fill="#000000" fill-opacity="0.0" d="m170.44095 270.0l619.11816 0" fill-rule="evenodd"/><path stroke="#595959" stroke-width="4.0" stroke-linejoin="round" stroke-linecap="butt" d="m170.44095 270.0l619.11816 0" fill-rule="evenodd"/><path fill="#000000" fill-opacity="0.0" d="m323.19946 3.448819l0 533.1024" fill-rule="evenodd"/><path stroke="#595959" stroke-width="4.0" stroke-linejoin="round" stroke-linecap="butt" d="m323.19946 3.448819l0 533.1024" fill-rule="evenodd"/><path fill="#000000" fill-opacity="0.0" d="m632.55646 3.448819l0 533.1024" fill-rule="evenodd"/><path stroke="#595959" stroke-width="4.0" stroke-linejoin="round" stroke-linecap="butt" d="m632.55646 3.448819l0 533.1024" fill-rule="evenodd"/><path fill="#000000" fill-opacity="0.0" d="m170.44095 134.0l619.11816 0" fill-rule="evenodd"/><path stroke="#595959" stroke-width="4.0" stroke-linejoin="round" stroke-linecap="butt" d="m170.44095 134.0l619.11816 0" fill-rule="evenodd"/><path fill="#000000" fill-opacity="0.0" d="m170.44095 406.0l619.11816 0" fill-rule="evenodd"/><path stroke="#595959" stroke-width="4.0" stroke-linejoin="round" stroke-linecap="butt" d="m170.44095 406.0l619.11816 0" fill-rule="evenodd"/><path fill="#000000" fill-opacity="0.0" d="m174.61679 7.102362l145.10236 0l0 122.173225l-145.10236 0z" fill-rule="evenodd"/><path fill="#ff0000" d="m253.24596 69.87148q0 3.734375 -1.546875 5.71875q-1.546875 1.96875 -4.53125 1.96875q-2.9375 0 -4.5 -1.9375q-1.546875 -1.953125 -1.59375 -5.578125l0 -3.3125q0 -3.765625 1.5625 -5.71875q1.5625 -1.953125 4.5 -1.953125q2.953125 0 4.515625 1.9375q1.5625 1.921875 1.59375 5.546875l0 3.328125zm-3.578125 -3.640625q0 -2.234375 -0.609375 -3.25q-0.609375 -1.03125 -1.90625 -1.03125q-1.265625 0 -1.875 0.96875q-0.59375 0.96875 -0.625 3.03125l0 4.390625q0 2.1875 0.59375 3.265625q0.609375 1.0625 1.921875 1.0625q1.3125 0 1.890625 -1.015625q0.59375 -1.03125 0.609375 -3.140625l0 -4.28125z" fill-rule="nonzero"/><path fill="#000000" fill-opacity="0.0" d="m327.30975 7.102362l148.50394 0l0 122.173225l-148.50394 0z" fill-rule="evenodd"/><path fill="#ff0000" d="m407.6397 69.87148q0 3.734375 -1.546875 5.71875q-1.546875 1.96875 -4.53125 1.96875q-2.9375 0 -4.5 -1.9375q-1.546875 -1.953125 -1.59375 -5.578125l0 -3.3125q0 -3.765625 1.5625 -5.71875q1.5625 -1.953125 4.5 -1.953125q2.953125 0 4.515625 1.9375q1.5625 1.921875 1.59375 5.546875l0 3.328125zm-3.578125 -3.640625q0 -2.234375 -0.609375 -3.25q-0.609375 -1.03125 -1.90625 -1.03125q-1.265625 0 -1.875 0.96875q-0.59375 0.96875 -0.625 3.03125l0 4.390625q0 2.1875 0.59375 3.265625q0.609375 1.0625 1.921875 1.0625q1.3125 0 1.890625 -1.015625q0.59375 -1.03125 0.609375 -3.140625l0 -4.28125z" fill-rule="nonzero"/><path fill="#000000" fill-opacity="0.0" d="m174.61679 135.10236l145.10236 0l0 131.68506l-145.10236 0z" fill-rule="evenodd"/><path fill="#000000" d="m249.80846 210.06488l-3.578125 0l0 -13.78125l-4.265625 1.328125l0 -2.90625l7.453125 -2.671875l0.390625 0l0 18.03125z" fill-rule="nonzero"/><path fill="#000000" fill-opacity="0.0" d="m327.30972 135.10236l148.50394 0l0 131.68506l-148.50394 0z" fill-rule="evenodd"/><path fill="#000000" d="m407.63968 202.62738q0 3.734375 -1.546875 5.71875q-1.546875 1.96875 -4.53125 1.96875q-2.9375 0 -4.5 -1.9375q-1.546875 -1.953125 -1.59375 -5.578125l0 -3.3125q0 -3.765625 1.5625 -5.71875q1.5625 -1.953125 4.5 -1.953125q2.953125 0 4.515625 1.9375q1.5625 1.921875 1.59375 5.546875l0 3.328125zm-3.578125 -3.640625q0 -2.234375 -0.609375 -3.25q-0.609375 -1.03125 -1.90625 -1.03125q-1.265625 0 -1.875 0.96875q-0.59375 0.96875 -0.625 3.03125l0 4.390625q0 2.1875 0.59375 3.265625q0.609375 1.0625 1.921875 1.0625q1.3125 0 1.890625 -1.015625q0.59375 -1.03125 0.609375 -3.140625l0 -4.28125z" fill-rule="nonzero"/><path fill="#d0e0e3" d="m483.72702 7.102362l145.10239 0l0 122.173225l-145.10239 0z" fill-rule="evenodd"/><path fill="#ff0000" d="m558.9187 77.30898l-3.578125 0l0 -13.78125l-4.265625 1.328125l0 -2.90625l7.453125 -2.671875l0.390625 0l0 18.03125z" fill-rule="nonzero"/><path fill="#000000" fill-opacity="0.0" d="m635.82416 7.102362l148.50397 0l0 122.173225l-148.50397 0z" fill-rule="evenodd"/><path fill="#ff0000" d="m712.7166 77.30898l-3.578125 0l0 -13.78125l-4.265625 1.328125l0 -2.90625l7.453125 -2.671875l0.390625 0l0 18.03125z" fill-rule="nonzero"/><path fill="#d0e0e3" d="m483.7257 136.15749l145.10236 0l0 131.68504l-145.10236 0z" fill-rule="evenodd"/><path fill="#000000" d="m558.91736 211.12001l-3.578125 0l0 -13.78125l-4.265625 1.328125l0 -2.90625l7.453125 -2.671875l0.390625 0l0 18.03125z" fill-rule="nonzero"/><path fill="#000000" fill-opacity="0.0" d="m636.2835 136.15749l148.5039 0l0 131.68504l-148.5039 0z" fill-rule="evenodd"/><path fill="#ff0000" d="m716.61346 203.68251q0 3.734375 -1.546875 5.71875q-1.546875 1.96875 -4.53125 1.96875q-2.9375 0 -4.5 -1.9375q-1.546875 -1.953125 -1.59375 -5.578125l0 -3.3125q0 -3.765625 1.5625 -5.71875q1.5625 -1.953125 4.5 -1.953125q2.953125 0 4.515625 1.9375q1.5625 1.921875 1.59375 5.546875l0 3.328125zm-3.578125 -3.640625q0 -2.234375 -0.609375 -3.25q-0.609375 -1.03125 -1.90625 -1.03125q-1.265625 0 -1.875 0.96875q-0.59375 0.96875 -0.625 3.03125l0 4.390625q0 2.1875 0.59375 3.265625q0.609375 1.0625 1.921875 1.0625q1.3125 0 1.890625 -1.015625q0.59375 -1.03125 0.609375 -3.140625l0 -4.28125z" fill-rule="nonzero"/><path fill="#d0e0e3" d="m174.91602 274.7244l145.10236 0l0 128.0l-145.10236 0z" fill-rule="evenodd"/><path fill="#000000" d="m250.10768 347.8444l-3.578125 0l0 -13.78125l-4.265625 1.328125l0 -2.90625l7.453125 -2.671875l0.390625 0l0 18.03125z" fill-rule="nonzero"/><path fill="#d0e0e3" d="m327.60892 274.7244l148.50394 0l0 128.0l-148.50394 0z" fill-rule="evenodd"/><path fill="#000000" d="m404.50137 347.8444l-3.578125 0l0 -13.78125l-4.265625 1.328125l0 -2.90625l7.453125 -2.671875l0.390625 0l0 18.03125z" fill-rule="nonzero"/><path fill="#000000" fill-opacity="0.0" d="m173.68767 409.2756l145.10237 0l0 122.17319l-145.10237 0z" fill-rule="evenodd"/><path fill="#000000" d="m252.31683 472.0447q0 3.734375 -1.546875 5.71875q-1.546875 1.96875 -4.53125 1.96875q-2.9375 0 -4.5 -1.9375q-1.546875 -1.953125 -1.59375 -5.578125l0 -3.3125q0 -3.765625 1.5625 -5.71875q1.5625 -1.953125 4.5 -1.953125q2.953125 0 4.515625 1.9375q1.5625 1.921875 1.59375 5.546875l0 3.328125zm-3.578125 -3.640625q0 -2.234375 -0.609375 -3.25q-0.609375 -1.03125 -1.90625 -1.03125q-1.265625 0 -1.875 0.96875q-0.59375 0.96875 -0.625 3.03125l0 4.390625q0 2.1875 0.59375 3.265625q0.609375 1.0625 1.921875 1.0625q1.3125 0 1.890625 -1.015625q0.59375 -1.03125 0.609375 -3.140625l0 -4.28125z" fill-rule="nonzero"/><path fill="#000000" fill-opacity="0.0" d="m327.3491 410.7244l148.50394 0l0 120.724396l-148.50394 0z" fill-rule="evenodd"/><path fill="#000000" d="m404.24155 480.2066l-3.578125 0l0 -13.78125l-4.265625 1.328125l0 -2.90625l7.453125 -2.671875l0.390625 0l0 18.03125z" fill-rule="nonzero"/><path fill="#d0e0e3" d="m484.0262 274.7244l145.10239 0l0 128.0l-145.10239 0z" fill-rule="evenodd"/><path stroke="#ff0000" stroke-width="4.0" stroke-linejoin="round" stroke-linecap="butt" d="m484.0262 274.7244l145.10239 0l0 128.0l-145.10239 0z" fill-rule="evenodd"/><path fill="#000000" d="m559.2179 347.8444l-3.578125 0l0 -13.78125l-4.265625 1.328125l0 -2.90625l7.453125 -2.671875l0.390625 0l0 18.03125z" fill-rule="nonzero"/><path fill="#d0e0e3" d="m636.12335 274.7244l148.50397 0l0 128.0l-148.50397 0z" fill-rule="evenodd"/><path fill="#ff0000" d="m716.4533 340.4069q0 3.734375 -1.546875 5.71875q-1.546875 1.96875 -4.53125 1.96875q-2.9375 0 -4.5 -1.9375q-1.546875 -1.953125 -1.59375 -5.578125l0 -3.3125q0 -3.765625 1.5625 -5.71875q1.5625 -1.953125 4.5 -1.953125q2.953125 0 4.515625 1.9375q1.5625 1.921875 1.59375 5.546875l0 3.328125zm-3.578125 -3.640625q0 -2.234375 -0.609375 -3.25q-0.609375 -1.03125 -1.90625 -1.03125q-1.265625 0 -1.875 0.96875q-0.59375 0.96875 -0.625 3.03125l0 4.390625q0 2.1875 0.59375 3.265625q0.609375 1.0625 1.921875 1.0625q1.3125 0 1.890625 -1.015625q0.59375 -1.03125 0.609375 -3.140625l0 -4.28125z" fill-rule="nonzero"/><path fill="#d0e0e3" d="m483.72702 410.7244l145.10239 0l0 120.724396l-145.10239 0z" fill-rule="evenodd"/><path fill="#000000" d="m562.3562 472.7691q0 3.734375 -1.546875 5.71875q-1.546875 1.96875 -4.53125 1.96875q-2.9375 0 -4.5 -1.9375q-1.546875 -1.953125 -1.59375 -5.578125l0 -3.3125q0 -3.765625 1.5625 -5.71875q1.5625 -1.953125 4.5 -1.953125q2.953125 0 4.515625 1.9375q1.5625 1.921875 1.59375 5.546875l0 3.328125zm-3.578125 -3.640625q0 -2.234375 -0.609375 -3.25q-0.609375 -1.03125 -1.90625 -1.03125q-1.265625 0 -1.875 0.96875q-0.59375 0.96875 -0.625 3.03125l0 4.390625q0 2.1875 0.59375 3.265625q0.609375 1.0625 1.921875 1.0625q1.3125 0 1.890625 -1.015625q0.59375 -1.03125 0.609375 -3.140625l0 -4.28125z" fill-rule="nonzero"/><path fill="#000000" fill-opacity="0.0" d="m636.28345 410.7244l148.50397 0l0 122.17325l-148.50397 0z" fill-rule="evenodd"/><path fill="#ff0000" d="m713.1759 480.93103l-3.578125 0l0 -13.78125l-4.265625 1.328125l0 -2.90625l7.453125 -2.671875l0.390625 0l0 18.03125z" fill-rule="nonzero"/></g></svg>